<?xml version="1.0" standalone="no"?>
<!DOCTYPE svg PUBLIC "-//W3C//DTD SVG 1.1//EN" "http://www.w3.org/Graphics/SVG/1.1/DTD/svg11.dtd" >
<svg>
<metadata>
Created by FontForge 20090622 at Fri Sep 27 13:20:48 2019
 By deploy user
Joe Prince &#194;&#169;2015. All Rights Reserved.
</metadata>
<defs>
<font id="MajestiBanner-Medium" horiz-adv-x="557" >
  <font-face 
    font-family="Majesti Banner Medium"
    font-weight="500"
    font-stretch="normal"
    units-per-em="1000"
    panose-1="2 0 0 0 0 0 0 0 0 0"
    ascent="750"
    descent="-250"
    x-height="408"
    cap-height="618"
    bbox="-887 -494 1286 961"
    underline-thickness="50"
    underline-position="-50"
    unicode-range="U+0020-U+FB06"
  />
<missing-glyph horiz-adv-x="275" 
 />
    <glyph glyph-name="fi" unicode="fi" horiz-adv-x="609" 
d="M20 0v6q42 0 61 15.5t19 55.5v319h-85v12h85v55q0 89 61.5 142.5t161.5 53.5q82 0 132.5 -35t50.5 -79q0 -29 -18 -48.5t-46 -19.5q-27 0 -45.5 19.5t-18.5 46.5q0 22 12 39t32 24q-33 47 -96 47q-54 0 -83 -37t-29 -96v-112h193l118 10v-343q0 -38 15 -53.5t55 -15.5v-6
h-254v6q40 0 55 15.5t15 53.5v252q0 37 -13.5 53t-47.5 16h-136v-319q0 -43 21 -57t67 -14v-6h-282z" />
    <glyph glyph-name="fl" unicode="fl" horiz-adv-x="609" 
d="M20 0v6q42 0 61 15.5t19 55.5v319h-85v12h85v62q0 88 58.5 138.5t153.5 50.5q89 0 142 -43l67 52h4v-593q0 -38 15 -53.5t55 -15.5v-6h-254v6q40 0 55 15.5t15 53.5v408q-43 15 -43 62q0 21 12 38t31 23q-29 47 -91 47q-52 0 -79 -37t-27 -96v-112h113v-12h-113v-319
q0 -43 21 -57t67 -14v-6h-282z" />
    <glyph glyph-name="f_j" unicode="fj" horiz-adv-x="596" 
d="M20 0v6q42 0 61 15.5t19 55.5v319h-85v12h85v55q0 89 61.5 142.5t161.5 53.5q82 0 132.5 -35t50.5 -79q0 -29 -18 -48.5t-46 -19.5q-27 0 -45.5 19.5t-18.5 46.5q0 22 12 39t32 24q-33 47 -96 47q-54 0 -83 -37t-29 -96v-112h193l118 10v-403q0 -130 -198 -191l-3 3
q31 17 49.5 35.5t26 42t9.5 41t2 48.5v333q0 37 -13.5 53t-47.5 16h-136v-319q0 -43 21 -57t67 -14v-6h-282z" />
    <glyph glyph-name="f_y" unicode="fy" horiz-adv-x="794" 
d="M20 0v6q42 0 61 15.5t19 55.5v319h-85v12h85v73q0 86 52 132t130 46q70 0 109 -34t39 -76q0 -28 -17.5 -45.5t-42.5 -17.5t-42.5 18t-17.5 44q0 22 13 39t33 22q-18 44 -63 44q-39 0 -59 -33t-20 -87v-125h355v-7q-49 0 -61 -22.5t8 -63.5l85 -196l36 85q46 114 46 147
q0 50 -64 50v7h193v-7q-66 0 -102 -60q-12 -18 -66 -142l-102 -232q-62 -141 -152 -141q-49 0 -49 39q0 25 25.5 36.5t57.5 13.5t66 17t48 45l8 18l-149 312q-22 49 -43 69t-63 20h-77v-319q0 -43 21 -57t67 -14v-6h-282z" />
    <glyph glyph-name=".notdef" horiz-adv-x="275" 
 />
    <glyph glyph-name=".null" horiz-adv-x="0" 
 />
    <glyph glyph-name="nonmarkingreturn" horiz-adv-x="333" 
 />
    <glyph glyph-name="space" unicode=" " horiz-adv-x="228" 
 />
    <glyph glyph-name="exclam" unicode="!" horiz-adv-x="242" 
d="M117 190q-6 95 -23 173t-30.5 123t-13.5 68q0 34 20 55t50 21t50.5 -21t20.5 -55q0 -23 -13.5 -68t-30 -123t-22.5 -173h-8zM121 -8q-29 0 -48.5 20t-19.5 48t19.5 48t48.5 20t48.5 -20t19.5 -48t-19.5 -48t-48.5 -20z" />
    <glyph glyph-name="quotedbl" unicode="&#x22;" horiz-adv-x="371" 
d="M94 372q-9 53 -31.5 116.5t-22.5 83.5q0 25 16 41.5t42 16.5q27 0 42.5 -16t15.5 -42q0 -20 -22.5 -83.5t-31.5 -116.5h-8zM268 372q-9 53 -31.5 116.5t-22.5 83.5q0 25 16 41.5t42 16.5q27 0 42.5 -16t15.5 -42q0 -20 -22.5 -83.5t-31.5 -116.5h-8z" />
    <glyph glyph-name="numbersign" unicode="#" horiz-adv-x="533" 
d="M85 0l40 181h-91v9h93l53 239h-99v10h102l40 179h11l-40 -179h209l40 179h11l-40 -179h86v-10h-89l-53 -239h95v-9h-97l-40 -181h-11l40 181h-209l-40 -181h-11zM138 190h209l53 239h-209z" />
    <glyph glyph-name="dollar" unicode="$" horiz-adv-x="547" 
d="M268 -105v93q-102 1 -165.5 43.5t-63.5 98.5q0 30 19 50.5t49 20.5q29 0 48.5 -20t19.5 -49q0 -25 -15.5 -44.5t-39.5 -24.5q39 -68 148 -68v266q-6 2 -18 7q-32 12 -48.5 19.5l-44 20.5t-41.5 26t-30 31.5t-23 41.5t-7 51q0 78 56.5 124.5t155.5 47.5v66h10v-66
q93 -1 150 -40.5t57 -93.5q0 -32 -19 -52t-49 -20q-29 0 -48.5 20t-19.5 49q0 25 14.5 44t37.5 24q-36 62 -123 62v-242q4 -2 30 -11.5t32.5 -12.5t30 -13t31.5 -15.5t26.5 -17t26 -20.5l20 -23t17 -28t9 -31.5t4.5 -37.5q0 -81 -59 -131.5t-168 -51.5v-93h-10zM413 120
q0 52 -34.5 81t-100.5 56v-261q67 4 101 39.5t34 84.5zM146 511q0 -47 31.5 -74.5t90.5 -51.5v237q-59 -3 -90.5 -34.5t-31.5 -76.5z" />
    <glyph glyph-name="percent" unicode="%" horiz-adv-x="725" 
d="M192 300q-65 0 -112 44.5t-47 119.5t47 119.5t112 44.5q42 0 79 -20t58 -56q35 -11 67 -11q74 0 161 40q4 8 9 23t9.5 22.5t13.5 7.5q16 0 16 -18q0 -24 -40 -40l-424 -585l-8 6l416 572q-79 -36 -151 -36q-36 0 -64 9q17 -36 17 -78q0 -75 -46.5 -119.5t-112.5 -44.5z
M531 -10q-65 0 -112 44.5t-47 119.5t47 119.5t112 44.5q66 0 112.5 -44.5t46.5 -119.5t-46.5 -119.5t-112.5 -44.5zM531 -4q70 0 70 158q0 157 -70 157q-69 0 -69 -157q0 -158 69 -158zM192 306q70 0 70 158q0 86 -20 123q-20 18 -31 29q-8 5 -19 5q-69 0 -69 -157
q0 -158 69 -158z" />
    <glyph glyph-name="ampersand" unicode="&#x26;" horiz-adv-x="754" 
d="M283 -12q-105 0 -171 43t-66 116q0 61 45 96t130 66l-20 19q-80 78 -80 151q0 68 60 109.5t153 41.5q89 0 139.5 -36.5t50.5 -91.5q0 -23 -10 -42t-22 -31t-37 -24.5t-38.5 -17.5t-44.5 -15.5t-38 -12.5l209 -200q22 48 26 99q2 38 -16.5 54t-79.5 16v7h224v-7
q-71 0 -93 -31q-9 -13 -25 -61q-16 -53 -29 -84l86 -83q38 -37 60.5 -49.5t55.5 -12.5v-7h-210l-60 58q-73 -70 -199 -70zM323 2q89 0 153 61l-249 240q-62 -46 -62 -139q0 -69 39 -115.5t119 -46.5zM334 623q-46 0 -72.5 -29t-26.5 -76q0 -62 72 -131l23 -24q97 56 97 150
q0 48 -23 79t-70 31z" />
    <glyph glyph-name="quotesingle" unicode="'" horiz-adv-x="197" 
d="M94 372q-9 53 -31.5 116.5t-22.5 83.5q0 25 16 41.5t42 16.5q27 0 42.5 -16t15.5 -42q0 -20 -22.5 -83.5t-31.5 -116.5h-8z" />
    <glyph glyph-name="parenleft" unicode="(" horiz-adv-x="329" 
d="M332 -182q-6 4 -31.5 23l-37.5 28t-38 30.5t-40.5 35.5t-37.5 39t-36 46t-29.5 50.5t-25.5 58t-15 63t-6 70.5t6 70.5t15 63t25.5 58t29.5 50.5t36 46t37.5 39t40.5 35.5t38 30.5l37.5 28t31.5 23l3 -5q-33 -24 -63 -60t-60 -89t-48 -128.5t-18 -161.5q0 -113 32.5 -208
t72 -146.5t84.5 -85.5z" />
    <glyph glyph-name="parenright" unicode=")" horiz-adv-x="329" 
d="M-3 -182l-3 4q33 24 63 60.5t59.5 89.5t47.5 128.5t18 161.5q0 113 -32.5 208t-71.5 146t-84 85l3 5q6 -4 31.5 -23l37.5 -28t38 -30.5t40.5 -35.5t37.5 -39t36 -46t29.5 -50.5t25.5 -58t15 -63t6 -70.5t-6 -70.5t-15 -63t-25.5 -58t-29.5 -50.5t-36 -46t-37.5 -39
t-40.5 -35.5t-38 -30.5l-37.5 -28t-31.5 -23z" />
    <glyph glyph-name="asterisk" unicode="*" horiz-adv-x="417" 
d="M61 549q9 15 24.5 19t29.5 -4q9 -5 33.5 -37.5t50.5 -55.5l-2 -4q-33 11 -73 16t-49 10q-34 20 -14 56zM61 378q-9 16 -5 31.5t19 23.5q9 5 49 10t73 16l2 -4q-26 -22 -50 -55t-34 -38q-13 -8 -29 -4t-25 20zM209 293q-19 0 -30 11t-11 28q0 11 16 48t22 71h5
q7 -34 22.5 -71t15.5 -48q0 -17 -11 -28t-29 -11zM356 378q-9 -16 -25 -20t-29 4q-10 5 -34 38t-50 55l2 4q33 -11 73.5 -16t49.5 -10q14 -8 18 -23.5t-5 -31.5zM356 549q19 -36 -14 -56q-9 -5 -49 -10t-73 -16l-2 4q26 23 50.5 55.5t33.5 37.5q14 8 29.5 4t24.5 -19z
M209 634q18 0 29 -11.5t11 -28.5q0 -10 -15.5 -47t-22.5 -71h-5q-6 34 -22 70.5t-16 47.5q0 17 11 28.5t30 11.5z" />
    <glyph glyph-name="plus" unicode="+" horiz-adv-x="523" 
d="M257 22v218h-218v10h218v218h9v-218h218v-10h-218v-218h-9z" />
    <glyph glyph-name="comma" unicode="," horiz-adv-x="244" 
d="M39 -133l-3 5q48 17 82 56t35 84q-15 -12 -38 -12q-26 0 -45 19t-19 45q0 27 19.5 45.5t49.5 18.5q33 0 52 -23.5t19 -59.5q0 -53 -39.5 -102.5t-112.5 -75.5z" />
    <glyph glyph-name="hyphen" unicode="-" horiz-adv-x="383" 
d="M59 216v36h264v-36h-264z" />
    <glyph glyph-name="period" unicode="." horiz-adv-x="238" 
d="M119 -8q-29 0 -48.5 20t-19.5 48t19.5 48t48.5 20t48.5 -20t19.5 -48t-19.5 -48t-48.5 -20z" />
    <glyph glyph-name="slash" unicode="/" horiz-adv-x="441" 
d="M32 -166l-8 4l383 859l9 -4z" />
    <glyph glyph-name="zero" unicode="0" horiz-adv-x="608" 
d="M304 -12q-118 0 -186.5 90.5t-68.5 230.5t68.5 230.5t186.5 90.5t186.5 -90.5t68.5 -230.5t-68.5 -230.5t-186.5 -90.5zM304 -5q34 0 59.5 27t39 74t20 99.5t6.5 113.5t-6.5 113.5t-20 99.5t-39 74t-59.5 27t-59.5 -27t-39 -74t-20 -99.5t-6.5 -113.5t6.5 -113.5
t20 -99.5t39 -74t59.5 -27z" />
    <glyph glyph-name="one" unicode="1" horiz-adv-x="385" 
d="M42 0v6q59 0 82.5 21.5t23.5 77.5v393q0 26 -9 38t-35 12h-72v6q135 9 231 65l4 -1v-518q0 -56 22 -75t78 -19v-6h-325z" />
    <glyph glyph-name="two" unicode="2" horiz-adv-x="562" 
d="M65 0q-22 90 27 154q21 30 58.5 61.5t72.5 57t68.5 56t54 71t20.5 88.5q0 58 -29 95.5t-90 37.5q-91 0 -127 -83q27 -2 45 -22t18 -48q0 -30 -20 -50.5t-49 -20.5q-31 0 -50 22.5t-19 53.5q0 58 62.5 107.5t166.5 49.5q95 0 158 -44t63 -119q0 -49 -30.5 -85.5
t-79.5 -61.5t-101 -47t-105.5 -55t-83.5 -73q-17 -24 -25 -55q26 71 125 71q42 0 110.5 -22.5t103.5 -22.5q88 0 88 82q0 21 -4 40h7q10 -40 10 -88q0 -66 -25.5 -112.5t-82.5 -46.5q-36 0 -70.5 23t-57.5 50.5t-56 50.5t-67 23q-40 0 -61.5 -27t-21.5 -69q0 -24 6 -42h-9z
" />
    <glyph glyph-name="three" unicode="3" horiz-adv-x="568" 
d="M270 -12q-100 0 -163 40t-63 95q0 31 19 52.5t48 21.5t49 -20.5t20 -50.5q0 -26 -16.5 -45.5t-40.5 -24.5q33 -60 117 -60q75 0 112.5 46t37.5 118q0 75 -41 113.5t-116 40.5q-32 -1 -52.5 -6t-21.5 -5q-7 0 -13 4.5t-6 10.5q0 16 19 16q4 0 11 -3t22 -6t40 -2
q68 1 103 45t35 111q0 63 -32 102.5t-93 39.5q-74 0 -110 -60q24 -5 40 -24.5t16 -44.5q0 -29 -19.5 -49.5t-48.5 -20.5t-48 20.5t-19 51.5q0 56 61 96t158 40t161 -40.5t64 -113.5q0 -72 -63.5 -112.5t-166.5 -42.5h-6v-4h6q107 0 178.5 -39t71.5 -119q0 -82 -73 -126.5
t-177 -44.5z" />
    <glyph glyph-name="four" unicode="4" horiz-adv-x="566" 
d="M213 0v6q59 0 82.5 21.5t23.5 77.5v57h-301l-2 6l97 101q39 37 69.5 97.5t30.5 121.5q0 97 -75 140q91 2 156 -30t65 -87q0 -40 -32.5 -77t-102 -90t-97.5 -79l-97 -94h289v108l114 110h5v-218q38 1 59 6.5t22 5.5q19 0 19 -16q0 -6 -6 -10.5t-13 -4.5q-3 0 -11.5 2.5
t-26 5t-43.5 2.5v-62q0 -56 22 -75t78 -19v-6h-325z" />
    <glyph glyph-name="five" unicode="5" horiz-adv-x="554" 
d="M256 -12q-97 0 -158 39.5t-61 95.5q0 32 19.5 53t49.5 21t48.5 -20t18.5 -50q0 -27 -16.5 -46.5t-40.5 -23.5q33 -61 111 -61t116 54.5t38 130.5q0 79 -40.5 124t-112.5 45q-63 0 -127 -32q-6 -35 -24 -35q-14 0 -14 14q0 15 31 27l28 294q11 0 39.5 -1.5t45.5 -2.5
t46 -2t48.5 -0.5t45 1.5t43.5 4.5t36 7.5t30.5 11.5t19.5 16.5q16 -39 16 -67q0 -48 -32 -70t-83 -22q-99 0 -251 75l-25 -243q83 38 164 38q107 0 176.5 -50t69.5 -135q0 -87 -72.5 -139t-182.5 -52z" />
    <glyph glyph-name="six" unicode="6" horiz-adv-x="598" 
d="M310 -12q-70 0 -123 27.5t-81.5 73.5t-42.5 98t-14 110q0 142 76.5 237.5t206.5 95.5q85 0 139 -40t54 -94q0 -32 -19 -53t-49 -21q-29 0 -48.5 20t-19.5 49q0 25 15.5 44t38.5 24q-25 64 -97 64q-53 0 -90.5 -33.5t-55 -89t-24 -115t-3.5 -123.5q12 59 58 94t115 35
q90 0 147 -56.5t57 -140.5q0 -88 -65.5 -147t-174.5 -59zM305 -6q61 0 92.5 59t31.5 141q0 79 -28 129t-87 50q-57 0 -99 -47.5t-41 -137.5q1 -77 35.5 -135.5t95.5 -58.5z" />
    <glyph glyph-name="seven" unicode="7" horiz-adv-x="487" 
d="M154 0q3 27 8 52.5t16 54l18 47.5t26 51t26 46t33 50.5t32.5 46.5t38 52.5l37.5 50.5q53 62 63 81l-2 2q-14 -21 -25 -33t-32.5 -22.5t-49.5 -10.5t-97 16t-105 16q-50 0 -71 -25.5t-23 -80.5h-8v224h8l4 -151h2q7 77 28 118t72 41q32 0 64.5 -19t55 -41t53 -41t58.5 -19
q40 0 60.5 30.5t20.5 61.5q0 6 -2 20h9q2 -10 2 -19q0 -20 -7.5 -43t-13.5 -36t-23 -43.5t-21 -38.5q-60 -116 -88.5 -213t-35.5 -225h-131z" />
    <glyph glyph-name="eight" unicode="8" horiz-adv-x="608" 
d="M304 -12q-126 0 -190.5 48.5t-64.5 122.5q0 66 54 111.5t161 53.5q-95 7 -146.5 47t-51.5 102q0 71 63.5 114t174.5 43t174.5 -43t63.5 -114q0 -62 -51.5 -102t-146.5 -47q107 -8 161 -53.5t54 -111.5q0 -74 -64.5 -122.5t-190.5 -48.5zM304 -5q64 0 95 44.5t31 117.5
t-31.5 118.5t-94.5 45.5q-64 0 -95 -45.5t-31 -118.5t31 -117.5t95 -44.5zM304 623q-57 0 -83.5 -41t-26.5 -107t26.5 -107t83.5 -41q56 0 83 41t27 107t-27 107t-83 41z" />
    <glyph glyph-name="nine" unicode="9" horiz-adv-x="598" 
d="M263 -12q-87 0 -141 39.5t-54 93.5q0 33 18.5 54t48.5 21q29 0 49 -20.5t20 -49.5q0 -25 -15.5 -44t-39.5 -24q31 -63 104 -63q47 0 81.5 26t51.5 67t28 90.5t11 96.5v86q-13 -59 -58 -94t-115 -35q-89 0 -146 54.5t-57 138.5q0 89 66 147t173 58q70 0 122.5 -27
t81.5 -72t43 -97.5t14 -110.5q0 -142 -75 -238.5t-211 -96.5zM295 623q-61 0 -93 -57.5t-32 -137.5q0 -83 31.5 -129.5t87.5 -46.5q55 0 94.5 45.5t39.5 132.5q0 78 -33 135.5t-95 57.5z" />
    <glyph glyph-name="colon" unicode=":" horiz-adv-x="249" 
d="M125 -8q-29 0 -49 20t-20 48t20 48t49 20t48.5 -20t19.5 -48t-19.5 -48t-48.5 -20zM125 273q-29 0 -49 20.5t-20 48.5t20 48t49 20t48.5 -20t19.5 -48q0 -29 -20 -49t-48 -20z" />
    <glyph glyph-name="semicolon" unicode=";" horiz-adv-x="263" 
d="M132 273q-28 0 -48.5 20.5t-20.5 48.5t20 48t49 20q28 0 48 -20t20 -48q0 -29 -20 -49t-48 -20zM51 -133l-3 5q48 17 82 56t35 84q-15 -12 -38 -12q-26 0 -45 19t-19 45q0 27 19.5 45.5t49.5 18.5q33 0 52 -23.5t19 -59.5q0 -53 -39.5 -102.5t-112.5 -75.5z" />
    <glyph glyph-name="less" unicode="&#x3c;" horiz-adv-x="470" 
d="M418 45l-388 196v7l388 197v-11l-376 -189l376 -190v-10z" />
    <glyph glyph-name="equal" unicode="=" horiz-adv-x="574" 
d="M64 347v10h445v-10h-445zM64 134v9h445v-9h-445z" />
    <glyph glyph-name="greater" unicode="&#x3e;" horiz-adv-x="470" 
d="M52 45v10l376 190l-376 189v11l388 -197v-7z" />
    <glyph glyph-name="question" unicode="?" horiz-adv-x="517" 
d="M234 190l-4 102q130 34 130 169q0 70 -32.5 115.5t-97.5 45.5q-82 0 -120 -67q24 -5 40.5 -24t16.5 -45q0 -29 -20 -49.5t-48 -20.5q-29 0 -48 20.5t-19 51.5q0 56 63 99t158 43q100 0 165 -48t65 -122q0 -39 -21.5 -69.5t-62 -50t-74 -30.5t-81.5 -22l-4 -98h-6zM239 -8
q-29 0 -48.5 20t-19.5 48t19.5 48t48.5 20t48.5 -20t19.5 -48t-19.5 -48t-48.5 -20z" />
    <glyph glyph-name="at" unicode="@" horiz-adv-x="805" 
d="M331 52q-54 0 -83 36t-29 95q0 89 59.5 152.5t150.5 63.5q65 0 92 -37l89 32l4 -4l-51 -223q-6 -22 -6 -45q0 -55 47 -55q56 0 96.5 54t40.5 141q0 128 -88 218.5t-219 90.5q-143 0 -244 -108t-101 -262q0 -134 79 -225.5t207 -91.5q126 0 222 74l4 -5q-100 -80 -227 -80
q-139 0 -234.5 94t-95.5 236q0 106 56 195t145.5 138.5t187.5 49.5q139 0 230.5 -95.5t91.5 -229.5q0 -91 -44.5 -149t-121.5 -58q-101 0 -117 70q-66 -72 -141 -72zM382 82q42 0 89 51q-2 10 -2 15q0 20 5 40l35 153q-20 48 -60 48q-57 0 -94.5 -70.5t-37.5 -142.5
q0 -43 16.5 -68.5t48.5 -25.5z" />
    <glyph glyph-name="A" unicode="A" horiz-adv-x="666" 
d="M-36 0v6q20 0 38 5.5t31.5 12.5t27.5 23t21.5 25.5t19.5 33l16.5 32.5t16 36.5l14.5 34.5l177 413h6l220 -483q28 -62 59 -97.5t76 -35.5v-6h-329v6q53 0 69 34t-9 92l-34 76h-224l-8 -21q-69 -181 74 -181v-6h-262zM165 218h215l-110 250z" />
    <glyph glyph-name="B" unicode="B" horiz-adv-x="661" 
d="M29 0v6q56 0 73 19t17 75v417q0 56 -17 75t-73 19v7h313q253 0 253 -151q0 -137 -220 -145v-3q241 -7 241 -155q0 -76 -60.5 -120t-191.5 -44h-335zM244 7h95q71 0 108 46t37 113t-38 108t-115 41h-87v-308zM244 323h72q76 0 112 39t36 104q0 60 -32 102t-102 42h-86
v-287z" />
    <glyph glyph-name="C" unicode="C" horiz-adv-x="679" 
d="M396 -12q-164 0 -258.5 89t-94.5 229q0 144 98 234t252 90q29 0 78 -4.5t72.5 -5t71.5 7.5l17 -203l-5 -1q-43 103 -98 151t-132 48q-76 0 -127 -46t-71.5 -114.5t-20.5 -154.5q0 -63 11.5 -117t36 -99.5t67 -71.5t98.5 -26q159 0 249 211h5l-33 -187q-99 -30 -216 -30z
" />
    <glyph glyph-name="D" unicode="D" horiz-adv-x="750" 
d="M29 0v6q56 0 73 19t17 75v417q0 56 -17 75t-73 19v7h321q164 0 260 -84t96 -225q0 -142 -96 -225.5t-260 -83.5h-321zM244 7h93q119 0 176.5 85.5t57.5 216.5q0 84 -22.5 149.5t-76.5 108.5t-135 43h-93v-603z" />
    <glyph glyph-name="E" unicode="E" horiz-adv-x="630" 
d="M29 0v6q56 0 73 19t17 75v417q0 56 -17 75t-73 19v7h526l14 -193l-5 -1q-21 94 -75.5 140t-172.5 46h-72v-298h23q90 0 132.5 33t56.5 105h5v-283h-5q-14 72 -56.5 104.5t-132.5 32.5h-23v-297h81q63 0 108 15.5t72.5 46t42 61.5t27.5 77l5 -1l-19 -206h-532z" />
    <glyph glyph-name="F" unicode="F" horiz-adv-x="593" 
d="M29 0v6q56 0 73 19t17 75v417q0 56 -17 75t-73 19v7h524l13 -200l-5 -1q-21 95 -77 144t-170 49h-70v-306h21q89 0 132 35t56 108h5v-293h-5q-13 72 -56 107t-132 35h-21v-191q0 -58 21 -78.5t79 -20.5v-6h-315z" />
    <glyph glyph-name="G" unicode="G" horiz-adv-x="769" 
d="M413 -12q-182 0 -276 90t-94 225q0 147 104 237t256 90q27 0 80.5 -4.5t80.5 -5t76 7.5l17 -198l-5 -1q-38 98 -101 146t-142 48q-114 0 -172.5 -91.5t-58.5 -230.5q0 -131 55.5 -218.5t171.5 -87.5q74 0 149 40v151q0 56 -19 78t-78 22v7h305v-7q-55 0 -71 -18.5
t-16 -73.5v-163q-137 -43 -262 -43z" />
    <glyph glyph-name="H" unicode="H" horiz-adv-x="793" 
d="M29 0v6q56 0 73 19t17 75v417q0 56 -17 75t-73 19v7h305v-7q-56 0 -73 -19t-17 -75v-199h305v199q0 56 -17 75t-73 19v7h305v-7q-56 0 -73 -19t-17 -75v-417q0 -56 17 -75t73 -19v-6h-305v6q56 0 73 19t17 75v209h-305v-209q0 -56 17 -75t73 -19v-6h-305z" />
    <glyph glyph-name="I" unicode="I" horiz-adv-x="363" 
d="M29 0v6q56 0 73 19t17 75v417q0 56 -17 75t-73 19v7h305v-7q-56 0 -73 -19t-17 -75v-417q0 -56 17 -75t73 -19v-6h-305z" />
    <glyph glyph-name="J" unicode="J" horiz-adv-x="350" 
d="M14 -167l-3 4q60 31 81 74t21 103v503q0 56 -17 75t-73 19v7h304v-7q-56 0 -73 -19t-17 -75v-481q0 -75 -63.5 -126t-159.5 -77z" />
    <glyph glyph-name="K" unicode="K" horiz-adv-x="708" 
d="M29 0v6q56 0 73 19t17 75v417q0 56 -17 75t-73 19v7h305v-7q-56 0 -73 -19t-17 -75v-259l176 177q88 88 88 133q0 43 -78 43v7h280v-7q-73 0 -148 -55q-41 -31 -133 -123l-37 -39l210 -301q61 -87 123 -87v-6h-211l-210 307l-60 -61v-146q0 -56 17 -75t73 -19v-6h-305z
" />
    <glyph glyph-name="L" unicode="L" horiz-adv-x="592" 
d="M29 0v6q56 0 73 19t17 75v417q0 56 -17 75t-73 19v7h315v-7q-59 0 -79.5 -20.5t-20.5 -78.5v-505h64q115 0 172 54.5t79 151.5l5 -1l-14 -212h-521z" />
    <glyph glyph-name="M" unicode="M" horiz-adv-x="907" 
d="M0 0v6q58 0 85 23.5t42 90.5t23 213l8 117q5 85 -20.5 123t-99.5 38v7h230l213 -444l184 444h198v-7q-57 0 -74.5 -28t-14.5 -87l18 -377q3 -62 22.5 -87.5t74.5 -25.5v-6h-309v6q54 0 72 26t15 82l-22 430l-220 -526h-6l-247 503l-13 -188q-12 -138 -5 -210.5
t28.5 -94.5t77.5 -22v-6h-260z" />
    <glyph glyph-name="N" unicode="N" horiz-adv-x="724" 
d="M15 0v6q30 0 50 4.5t34.5 21t22 35.5t12 60.5t5.5 82.5t1 115v135q0 80 -25 115.5t-95 35.5v7h202l364 -425v99q0 74 -1 115t-5.5 82.5t-12 60.5t-22 35.5t-34.5 21t-50 4.5v7h260v-7q-30 0 -50 -4.5t-34.5 -21t-22 -35.5t-12 -60.5t-5.5 -82.5t-1 -115v-297l-5 -2
l-441 512v-180q0 -74 1 -115t5.5 -82.5t12 -60.5t22 -35.5t34.5 -21t50 -4.5v-6h-260z" />
    <glyph glyph-name="O" unicode="O" horiz-adv-x="757" 
d="M378 -12q-146 0 -241 91.5t-95 229.5t95 229.5t241 91.5t241 -91.5t95 -229.5t-95 -229.5t-241 -91.5zM378 -4q55 0 96 26t63 71.5t32 99t10 116.5t-10 116t-32 98.5t-62.5 71.5t-96.5 26t-96.5 -26t-62 -71.5t-31.5 -98.5t-10 -116t10 -116t32 -99t62.5 -72t95.5 -26z
" />
    <glyph glyph-name="P" unicode="P" horiz-adv-x="619" 
d="M29 0v6q56 0 73 19t17 75v417q0 56 -17 75t-73 19v7h307q134 0 197.5 -48.5t63.5 -129.5t-63 -129t-198 -48h-45v7h23q77 0 113.5 48.5t36.5 121.5q0 72 -36.5 121t-113.5 49h-70v-510q0 -56 17 -75t73 -19v-6h-305z" />
    <glyph glyph-name="Q" unicode="Q" horiz-adv-x="757" 
d="M211 -134l-6 4q4 4 21 24.5t23.5 27l23 22t28 22t29 13.5t36.5 9q-142 4 -233 95t-91 226q0 138 95 229.5t241 91.5t241 -91.5t95 -229.5q0 -132 -87 -222t-223 -98q52 -5 135.5 -56.5t131.5 -51.5q62 0 99 59l6 -3q-20 -35 -37.5 -58.5t-51.5 -46t-72 -22.5
q-43 0 -96 28.5l-106 57t-95 28.5q-61 0 -107 -58zM378 -4q55 0 96 26t63 71.5t32 99t10 116.5t-10 116t-32 98.5t-62.5 71.5t-96.5 26t-96.5 -26t-62 -71.5t-31.5 -98.5t-10 -116t10 -116t32 -99t62.5 -72t95.5 -26z" />
    <glyph glyph-name="R" unicode="R" horiz-adv-x="695" 
d="M29 0v6q56 0 73 19t17 75v417q0 56 -17 75t-73 19v7h309q135 0 204.5 -42t69.5 -120q0 -147 -250 -156v-4q45 -1 77.5 -4.5t55 -14t36 -20t23.5 -30t14.5 -35.5t13 -46.5t15.5 -52.5q16 -50 35.5 -68.5t62.5 -18.5v-6h-195q-18 35 -36 105q-4 14 -11 42l-9.5 38t-9 30
t-10.5 26.5t-12.5 19t-16.5 16t-20.5 9.5t-27.5 7.5t-34 1.5h-69v-195q0 -56 17 -75t73 -19v-6h-305zM244 302h79q79 0 119.5 43.5t40.5 111.5t-41 110.5t-123 42.5h-75v-308z" />
    <glyph glyph-name="S" unicode="S" horiz-adv-x="568" 
d="M275 -12q-88 0 -209 26l-11 188l6 1q16 -41 24.5 -61t28 -53.5t39 -50t52 -30t72.5 -13.5q71 0 107.5 34t36.5 85q0 49 -37 82t-89.5 52.5l-105 41t-89.5 63.5t-37 105q0 79 56 125.5t164 46.5q30 0 71.5 -4.5t61.5 -5.5t63 5l12 -194l-5 -1q-14 36 -22 54t-27 49.5
t-37.5 47.5t-48 29t-65.5 13q-61 0 -94 -31.5t-33 -78.5t37 -78.5t90 -51t106 -42t90 -65.5t37 -107q0 -84 -62.5 -132.5t-181.5 -48.5z" />
    <glyph glyph-name="T" unicode="T" horiz-adv-x="652" 
d="M164 0v6q58 0 79 20.5t21 78.5v505h-8q-55 0 -94 -16t-63 -49t-37 -64t-27 -81l-6 1l18 217h558l18 -217l-6 -1q-14 50 -27 81t-37 64t-63 49t-94 16h-8v-505q0 -58 21 -78.5t79 -20.5v-6h-324z" />
    <glyph glyph-name="U" unicode="U" horiz-adv-x="698" 
d="M354 -12q-108 0 -177.5 53.5t-69.5 167.5v300q0 57 -17 79.5t-73 22.5v7h305v-7q-56 0 -73 -22.5t-17 -79.5v-322q0 -184 155 -184q83 0 132.5 51.5t49.5 148.5v101q0 84 -2 130.5t-8.5 86.5t-21 56.5t-36 25t-56.5 8.5v7h258v-7q-84 0 -104 -55.5t-20 -251.5v-101
q0 -105 -58 -160t-167 -55z" />
    <glyph glyph-name="V" unicode="V" horiz-adv-x="652" 
d="M326 -5l-212 485q-14 32 -23.5 50t-25.5 39.5t-37 31.5t-47 10v7h327v-7q-57 -1 -71 -35.5t11 -89.5l139 -335l91 229q42 106 42 155q0 76 -87 76v7h252v-7q-77 0 -123 -74q-24 -39 -75 -162l-154 -380h-7z" />
    <glyph glyph-name="W" unicode="W" horiz-adv-x="975" 
d="M316 -5l-202 485q-12 29 -21.5 47t-25.5 40t-37.5 33t-48.5 11v7h312v-7q-101 0 -55 -115l137 -344l114 292l-13 36q-24 63 -54.5 97t-75.5 34v7h318v-7q-106 0 -61 -125l118 -328l83 223q37 101 37 154q0 76 -86 76v7h253v-7q-79 0 -124 -72q-20 -33 -71 -163l-145 -381
h-7l-166 433l-172 -433h-7z" />
    <glyph glyph-name="X" unicode="X" horiz-adv-x="689" 
d="M-26 0v6q76 0 155 72q57 54 130 157l35 47l-115 179q-30 47 -50.5 74t-54 51.5t-68.5 24.5v7h333v-7q-40 0 -54 -18.5t-8 -43.5t26 -56l85 -133l26 35q79 111 79 159q0 57 -74 57v7h286v-7q-77 0 -154 -68q-58 -54 -132 -155l-26 -36l129 -201q43 -66 85.5 -105.5
t89.5 -39.5v-6h-332v6q55 0 61 35t-28 82l-99 152l-32 -45q-78 -113 -78 -160q0 -30 20.5 -47t60.5 -17v-6h-296z" />
    <glyph glyph-name="Y" unicode="Y" horiz-adv-x="667" 
d="M178 0v6q59 0 79.5 26t20.5 88v131l-149 244q-35 56 -67.5 86t-72.5 30v7h324v-7q-53 0 -64.5 -29.5t19.5 -80.5l125 -209h2l52 88q76 130 76 172q0 59 -85 59v7h261v-7q-79 0 -133 -65q-22 -26 -112 -171l-52 -87v-168q0 -62 20.5 -88t79.5 -26v-6h-324z" />
    <glyph glyph-name="Z" unicode="Z" horiz-adv-x="611" 
d="M31 0l-1 2l390 608h-167q-76 0 -125 -56t-74 -142h-5l15 206h501l2 -2l-391 -608h189q138 0 200 204l5 -1l-19 -211h-520z" />
    <glyph glyph-name="bracketleft" unicode="[" horiz-adv-x="306" 
d="M66 -168v860h238v-7h-94q-47 0 -47 -43v-761q0 -43 47 -43h94v-6h-238z" />
    <glyph glyph-name="backslash" unicode="\" horiz-adv-x="441" 
d="M408 -166l-384 859l9 4l383 -859z" />
    <glyph glyph-name="bracketright" unicode="]" horiz-adv-x="306" 
d="M1 -168v6h94q47 0 47 43v761q0 43 -47 43h-94v7h239v-860h-239z" />
    <glyph glyph-name="asciicircum" unicode="^" horiz-adv-x="473" 
d="M46 337l-4 3l191 295h7l190 -295l-4 -3l-190 183z" />
    <glyph glyph-name="underscore" unicode="_" horiz-adv-x="516" 
d="M0 -58v9h516v-9h-516z" />
    <glyph glyph-name="grave" unicode="`" horiz-adv-x="328" 
d="M266 472l-56 29.5l-51.5 26.5t-36 20t-26.5 18q-18 15 -21 34t9 33q13 15 32 15t37 -16q11 -9 26.5 -30t43 -62l45.5 -66z" />
    <glyph glyph-name="a" unicode="a" horiz-adv-x="512" 
d="M177 -11q-63 0 -101 31t-38 83q0 57 46.5 86t119.5 29q59 0 112 -17v101q0 53 -19 82t-67 29q-60 0 -93 -50q18 -7 29 -23t11 -35q0 -26 -17.5 -43t-43.5 -17q-27 0 -43.5 19t-16.5 45q0 45 50.5 77.5t128.5 32.5q50 0 92 -14t72.5 -48.5t30.5 -86.5v-220q0 -35 28 -35
q35 0 67 58l6 -4q-46 -78 -116 -78q-38 0 -62.5 18.5t-32.5 49.5q-51 -70 -143 -70zM227 13q48 0 89 53v127q-46 13 -71 13q-89 0 -89 -99q0 -43 18.5 -68.5t52.5 -25.5z" />
    <glyph glyph-name="b" unicode="b" horiz-adv-x="539" 
d="M282 -11q-71 0 -119 35l-89 -35l-3 2v582q0 38 -15 53.5t-55 15.5v6l184 20v-315q56 66 137 66q82 0 130.5 -62t48.5 -149q0 -95 -59.5 -157t-159.5 -62zM264 -4q59 0 87.5 60.5t28.5 143.5q0 82 -27 134.5t-82 52.5q-48 0 -86 -45v-288q20 -58 79 -58z" />
    <glyph glyph-name="c" unicode="c" horiz-adv-x="469" 
d="M248 -11q-97 0 -154 61t-57 151q0 98 66 158t159 60q76 0 123 -38.5t47 -87.5q0 -30 -18 -49t-45 -19t-45 18.5t-18 45.5q0 24 15 41.5t38 21.5q-23 60 -84 60q-59 0 -88.5 -58.5t-29.5 -141.5q0 -95 35.5 -148.5t99.5 -53.5q46 0 82.5 26.5t58.5 67.5l6 -3
q-61 -112 -191 -112z" />
    <glyph glyph-name="d" unicode="d" horiz-adv-x="549" 
d="M219 -11q-81 0 -131 62.5t-50 150.5q0 94 57.5 155.5t150.5 61.5q68 0 107 -36v190q0 40 -18.5 54.5t-61.5 14.5v6l194 20v-593q0 -38 15 -53.5t55 -15.5v-6h-182v57q-55 -68 -136 -68zM270 20q48 0 83 46v271q-6 30 -28.5 51.5t-55.5 21.5q-52 0 -81 -61.5t-29 -140.5
q0 -81 28 -134.5t83 -53.5z" />
    <glyph glyph-name="e" unicode="e" horiz-adv-x="487" 
d="M254 -11q-102 0 -159.5 63t-57.5 153q0 94 61.5 154t155.5 60q85 0 140 -50.5t57 -141.5h-294q-2 -101 34 -159t106 -58q90 0 147 94l6 -4q-69 -111 -196 -111zM253 412q-43 0 -68 -52.5t-28 -123.5h177q0 26 -2.5 50.5t-10 56t-25 50.5t-43.5 19z" />
    <glyph glyph-name="f" unicode="f" horiz-adv-x="340" 
d="M20 0v6q42 0 61 15.5t19 55.5v319h-85v12h85v73q0 86 52 132t130 46q70 0 109 -34t39 -76q0 -28 -17.5 -45.5t-42.5 -17.5t-42.5 18t-17.5 44q0 22 13 39t33 22q-18 44 -63 44q-39 0 -59 -33t-20 -87v-125h113v-12h-113v-319q0 -43 21 -57t67 -14v-6h-282z" />
    <glyph glyph-name="g" unicode="g" horiz-adv-x="468" 
d="M219 -174q-91 0 -148 22t-57 64q0 24 21 41.5t43 24.5t46 10q-65 17 -65 63q0 57 84 86q-50 17 -77.5 52.5t-27.5 81.5q0 65 53 106.5t139 41.5q54 0 102 -20q10 18 21 40.5l16.5 33.5t12.5 22.5t13 17t13 8.5q14 7 29 2t23 -19q15 -26 -8 -49q-9 -8 -23.5 -16t-47 -23
l-43.5 -20q83 -42 83 -125q0 -65 -52.5 -106.5t-138.5 -41.5q-45 0 -81 12q-26 -11 -26 -30q0 -18 34 -24t82.5 -7.5t97.5 -7t83 -31.5t34 -74q0 -64 -59.5 -99.5t-175.5 -35.5zM230 413q-76 0 -76 -142t76 -142t76 142t-76 142zM227 -168q84 0 121 26.5t37 58.5
q0 21 -16.5 33.5t-45.5 17t-59.5 6.5l-68 4.5t-61.5 8.5q-55 -19 -55 -66q0 -89 148 -89z" />
    <glyph glyph-name="h" unicode="h" 
d="M13 0v6q40 0 55 15.5t15 53.5v498q0 38 -15 53.5t-55 15.5v6l184 20v-333q82 84 161 84q51 0 85 -33t34 -99v-212q0 -38 15 -53.5t55 -15.5v-6h-249v6q36 0 50.5 15.5t14.5 53.5v221q0 82 -66 82q-49 0 -100 -53v-250q0 -38 15 -53.5t55 -15.5v-6h-254z" />
    <glyph glyph-name="i" unicode="i" horiz-adv-x="289" 
d="M144 489q-30 0 -50.5 19t-20.5 49t20.5 48.5t50.5 18.5t50 -18.5t20 -48.5t-20 -49t-50 -19zM21 0v6q40 0 55 15.5t15 53.5v248q0 38 -15 53.5t-55 15.5v6l184 20v-343q0 -38 15 -53.5t55 -15.5v-6h-254z" />
    <glyph glyph-name="j" unicode="j" horiz-adv-x="272" 
d="M3 -176l-3 3q31 17 49.5 35.5t26 42t9.5 41t2 48.5v329q0 38 -17 53.5t-58 15.5v6l189 20v-403q0 -130 -198 -191zM139 489q-30 0 -50.5 19t-20.5 49q0 29 20.5 48t50.5 19t50.5 -18.5t20.5 -48.5t-20.5 -49t-50.5 -19z" />
    <glyph glyph-name="k" unicode="k" horiz-adv-x="534" 
d="M13 0v6q40 0 55 15.5t15 53.5v498q0 38 -15 53.5t-55 15.5v6l184 20v-492l94 94q61 59 61 93q0 38 -66 38v7h233v-7q-65 0 -122 -43q-38 -27 -78 -69l-10 -10l141 -210q43 -63 99 -63v-6h-183l-136 199l-33 -33v-91q0 -38 15 -53.5t55 -15.5v-6h-254z" />
    <glyph glyph-name="l" unicode="l" horiz-adv-x="282" 
d="M14 0v6q40 0 55 15.5t15 53.5v498q0 38 -15 53.5t-55 15.5v6l184 20v-593q0 -38 15 -53.5t55 -15.5v-6h-254z" />
    <glyph glyph-name="m" unicode="m" horiz-adv-x="819" 
d="M20 0v6q40 0 55 15.5t15 53.5v248q0 38 -15 53.5t-55 15.5v6l179 20v-83q80 84 157 84q40 0 69.5 -21.5t39.5 -64.5q81 86 159 86q51 0 83 -32.5t32 -99.5v-212q0 -38 15 -53.5t55 -15.5v-6h-247v6q36 0 50.5 15.5t14.5 53.5v221q0 82 -64 82q-47 0 -96 -53q3 -18 3 -38
v-212q0 -38 14.5 -53.5t52.5 -15.5v-6h-243v6q36 0 50.5 15.5t14.5 53.5v221q0 82 -64 82q-45 0 -93 -50v-253q0 -38 14.5 -53.5t50.5 -15.5v-6h-247z" />
    <glyph glyph-name="n" unicode="n" horiz-adv-x="564" 
d="M20 0v6q40 0 55 15.5t15 53.5v248q0 38 -15 53.5t-55 15.5v6l182 20v-85q81 86 163 86q52 0 85.5 -32.5t33.5 -99.5v-212q0 -38 15 -53.5t55 -15.5v-6h-249v6q36 0 50.5 15.5t14.5 53.5v221q0 82 -66 82q-47 0 -100 -53v-250q0 -38 14.5 -53.5t50.5 -15.5v-6h-249z" />
    <glyph glyph-name="o" unicode="o" horiz-adv-x="531" 
d="M265 -11q-94 0 -161 58t-67 157t67 157t161 58t161 -58t67 -157t-67 -157t-161 -58zM265 -3q106 0 106 207t-106 207q-105 0 -105 -207t105 -207z" />
    <glyph glyph-name="p" unicode="p" horiz-adv-x="550" 
d="M13 -163v6q40 0 55 16.5t15 54.5v407q0 38 -15 54.5t-55 16.5v6l181 20v-68q56 69 136 69q81 0 131 -63t50 -152q0 -93 -56 -154t-150 -61q-73 0 -108 35v-114q0 -37 17.5 -52t57.5 -15v-6h-259zM280 387q-50 0 -83 -46v-254q0 -40 24 -65t60 -25q52 0 80.5 60.5
t28.5 140.5q0 83 -27.5 136t-82.5 53z" />
    <glyph glyph-name="q" unicode="q" horiz-adv-x="538" 
d="M278 -163v6q41 0 58 16t17 55v139q-54 -64 -136 -64t-130.5 62t-48.5 148q0 95 60 157.5t158 62.5q73 0 122 -38l85 36h4v-503q0 -38 15 -54.5t55 -16.5v-6h-259zM275 411q-59 0 -87.5 -60.5t-28.5 -143.5q0 -82 27 -134t82 -52q49 0 85 43v292q-22 55 -78 55z" />
    <glyph glyph-name="r" unicode="r" horiz-adv-x="415" 
d="M20 0v6q40 0 55 16.5t15 54.5v244q0 38 -15 54.5t-55 16.5v6l182 20v-130q19 55 54 93t79 38q33 0 51 -20t18 -48t-19 -47t-45 -19q-29 0 -48.5 21.5t-15.5 51.5q-47 -17 -72 -77v-204q0 -39 17 -55t58 -16v-6h-259z" />
    <glyph glyph-name="s" unicode="s" horiz-adv-x="425" 
d="M206 -11q-66 0 -154 18l-6 128l5 1q12 -28 18.5 -41t21 -36t28.5 -34.5t36.5 -20.5t48.5 -9q47 0 69 22.5t22 51.5q0 31 -25 51t-61.5 32.5t-72.5 27t-61 43.5t-25 73q0 57 42 90t121 33q22 0 52.5 -3t45.5 -4t46 4l7 -134l-5 -1q-11 26 -22 45t-28 41t-40.5 34t-51.5 12
q-39 0 -59.5 -21t-20.5 -49q0 -29 25.5 -49t61.5 -32.5t72.5 -27.5t62 -44.5t25.5 -72.5q0 -60 -46.5 -94t-131.5 -34z" />
    <glyph glyph-name="t" unicode="t" horiz-adv-x="340" 
d="M202 -10q-53 0 -85 31.5t-32 90.5v284h-71v12h71v106l114 21v-127h124v-12h-124v-299q0 -77 55 -77q46 0 90 57l5 -4q-66 -83 -147 -83z" />
    <glyph glyph-name="u" unicode="u" 
d="M199 -11q-52 0 -85.5 32.5t-33.5 99.5v200q0 38 -15 54.5t-55 16.5v6l184 20v-306q0 -82 66 -82q46 0 100 52v239q0 38 -14.5 54.5t-50.5 16.5v6l179 20v-341q0 -38 15 -54.5t55 -16.5v-6h-182v74q-83 -85 -163 -85z" />
    <glyph glyph-name="v" unicode="v" horiz-adv-x="488" 
d="M242 -7l-150 314q-22 48 -45.5 71t-60.5 23v7h277v-7q-49 0 -60.5 -22.5t8.5 -63.5l85 -194l38 92q43 100 43 139q0 49 -64 49v7h192v-7q-63 0 -100 -57q-14 -22 -64 -136l-93 -215h-6z" />
    <glyph glyph-name="w" unicode="w" horiz-adv-x="740" 
d="M245 -7l-150 314q-22 48 -45.5 71t-60.5 23v7h265v-7q-44 0 -53 -22.5t11 -63.5l86 -196l73 177l-8 17q-20 46 -37.5 67t-47.5 21v7h257v-7q-48 0 -60 -22.5t7 -63.5l73 -189l36 93q40 103 40 135q0 47 -62 47v7h188v-7q-66 0 -100 -54q-15 -24 -58 -132l-91 -222h-6
l-125 289l-126 -289h-6z" />
    <glyph glyph-name="x" unicode="x" horiz-adv-x="500" 
d="M-11 0v6q58 0 111 49q32 30 84 100l22 31l-72 116q-32 51 -60 75t-68 24v7h264v-7q-37 0 -44.5 -21.5t12.5 -51.5l53 -84l18 24q47 65 47 95q0 38 -60 38v7h200v-7q-58 0 -105 -47q-17 -16 -78 -93l-17 -23l83 -131q33 -51 62 -76t68 -25v-6h-269v6q39 0 46.5 23.5
t-14.5 53.5l-61 97l-22 -32q-50 -68 -48 -101q0 -41 61 -41v-6h-213z" />
    <glyph glyph-name="y" unicode="y" horiz-adv-x="493" 
d="M89 -174q-49 0 -49 39q0 25 25.5 36.5t57.5 13.5t66 17t48 45l8 18l-149 312q-21 47 -45 70.5t-60 23.5v7h277v-7q-49 0 -61 -22.5t8 -63.5l85 -196l36 85q46 114 46 147q0 50 -64 50v7h193v-7q-66 0 -102 -60q-12 -18 -66 -142l-102 -232q-62 -141 -152 -141z" />
    <glyph glyph-name="z" unicode="z" horiz-adv-x="457" 
d="M37 0l-3 3l253 398h-86q-56 0 -95 -47t-58 -110h-6l16 164h354l3 -4l-252 -396h93q101 0 158 154l6 -1l-17 -161h-366z" />
    <glyph glyph-name="braceleft" unicode="{" horiz-adv-x="339" 
d="M328 -174q-106 0 -153.5 27.5t-47.5 84.5q0 23 10 75.5t10 89.5q0 84 -38.5 119.5t-118.5 35.5v7q80 0 118.5 36t38.5 119q0 38 -10 90t-10 75q0 58 47.5 85.5t153.5 27.5v-6q-72 -1 -97.5 -21t-25.5 -64q0 -42 24.5 -122t24.5 -109q0 -59 -53.5 -82.5t-157.5 -29.5v-5
q53 -5 86.5 -10.5t64.5 -17.5t45.5 -33t14.5 -51q0 -29 -24.5 -109t-24.5 -122q0 -43 25.5 -63.5t97.5 -21.5v-5z" />
    <glyph glyph-name="bar" unicode="|" horiz-adv-x="141" 
d="M66 -168v860h9v-860h-9z" />
    <glyph glyph-name="braceright" unicode="}" horiz-adv-x="339" 
d="M10 -169q72 1 97.5 21.5t25.5 63.5q0 42 -24.5 122t-24.5 109q0 30 14.5 51t45.5 33t64.5 17.5t86.5 10.5v5q-104 6 -157.5 29.5t-53.5 82.5q0 29 24.5 109t24.5 122q0 44 -25.5 64t-97.5 21v6q107 0 154 -27.5t47 -85.5q0 -23 -10 -75t-10 -90q0 -83 39 -119t118 -36v-7
q-79 0 -118 -35.5t-39 -119.5q0 -37 10 -89.5t10 -75.5q0 -57 -47 -84.5t-154 -27.5v5z" />
    <glyph glyph-name="asciitilde" unicode="~" horiz-adv-x="470" 
d="M69 182l-5 1q15 71 36 107t65 36q32 0 88 -30.5t84 -30.5q51 0 68 65l5 -2q-7 -33 -13.5 -54t-18 -43.5t-28.5 -33.5t-41 -11q-32 0 -88 30.5t-84 30.5q-51 0 -68 -65z" />
    <glyph glyph-name="exclamdown" unicode="&#xa1;" horiz-adv-x="230" 
d="M115 -228q-30 0 -50.5 20.5t-20.5 54.5q0 23 13.5 68t30.5 123.5t23 173.5h8q6 -95 22.5 -173.5t30 -123.5t13.5 -68q0 -34 -19.5 -54.5t-50.5 -20.5zM114 410q28 0 48.5 -20t20.5 -49q0 -28 -20 -48t-49 -20q-28 0 -48 19.5t-20 48.5t20 49t48 20z" />
    <glyph glyph-name="cent" unicode="&#xa2;" horiz-adv-x="486" 
d="M259 13v94q-100 0 -157.5 61t-57.5 151q0 96 63 155.5t153 62.5v83h9v-83q76 0 123 -38.5t47 -87.5q0 -30 -18 -49t-45 -19t-45 18.5t-18 45.5q0 24 15 41.5t38 21.5q-23 60 -84 60q-59 0 -88.5 -58.5t-29.5 -141.5q0 -95 35.5 -148.5t99.5 -53.5q46 0 82.5 26.5
t58.5 67.5l6 -3q-61 -106 -178 -112v-94h-9z" />
    <glyph glyph-name="sterling" unicode="&#xa3;" horiz-adv-x="606" 
d="M132 -7q-37 0 -58 19t-21 49q0 35 29 55t80 20q21 0 53 -5q-5 28 -17 57.5t-36 73t-32 59.5h-85v9h80q-31 67 -31 120q0 82 65.5 131t166.5 49q100 0 159 -45t59 -101q0 -33 -19.5 -54t-48.5 -21q-28 0 -48 21t-20 50q0 27 17 46.5t43 22.5q-35 72 -118 72
q-69 0 -101 -46.5t-32 -122.5q0 -38 18 -122h185v-9h-183q21 -92 21 -135q0 -32 -6 -62q139 -26 171 -26q121 0 124 124h6q8 -233 -120 -233q-38 0 -67.5 19t-61.5 50t-57 45q-27 -110 -115 -110zM130 0q43 0 67.5 33.5t19.5 83.5q-24 10 -60 10q-46 0 -70.5 -18t-24.5 -48
q0 -26 17.5 -43.5t50.5 -17.5z" />
    <glyph glyph-name="yen" unicode="&#xa5;" horiz-adv-x="735" 
d="M206 0v6q59 0 79.5 26t20.5 88v77h-165v9h165v48l-44 75h-121v9h116l-93 157q-34 57 -64.5 86.5t-71.5 29.5v7h310v-7q-51 0 -63 -28.5t18 -81.5l118 -209h2l63 110q60 104 60 150q0 59 -86 59v7h256v-7q-78 0 -133 -71q-14 -17 -89 -143l-35 -59h134v-9h-140l-25 -44
v-79h165v-9h-165v-77q0 -62 20.5 -88t79.5 -26v-6h-312z" />
    <glyph glyph-name="brokenbar" unicode="&#xa6;" horiz-adv-x="149" 
d="M70 -168v400h9v-400h-9zM70 342v350h9v-350h-9z" />
    <glyph glyph-name="section" unicode="&#xa7;" horiz-adv-x="470" 
d="M228 -71q-78 0 -127 32t-49 74q0 23 16 38.5t38 15.5q23 0 39 -16t16 -39q0 -19 -11.5 -34t-29.5 -20q32 -46 101 -46q53 0 79.5 24t26.5 58q0 32 -28 55t-68 38l-80 31t-68 45t-28 70t27.5 69t83.5 56q-43 21 -67 48t-24 70q0 59 46 95.5t123 36.5q73 0 116 -31t43 -73
q0 -25 -15.5 -39.5t-38.5 -14.5q-22 0 -37.5 15.5t-15.5 38.5q0 20 11.5 35t30.5 19q-28 45 -89 45q-46 0 -72.5 -23.5t-26.5 -57.5q0 -33 28 -56.5t67.5 -38.5l79 -31.5t67.5 -46t28 -71.5q0 -39 -26 -66.5t-83 -56.5q43 -21 67 -48t24 -69q0 -58 -46.5 -94.5t-127.5 -36.5
zM304 180q46 31 46 70q0 21 -10 37.5t-30.5 29t-39 20.5t-49.5 20l-48 19q-48 -26 -48 -71q0 -21 10 -37t30.5 -28t40 -20.5t50 -20t48.5 -19.5z" />
    <glyph glyph-name="dieresis" unicode="&#xa8;" horiz-adv-x="475" 
d="M149 491q-25 0 -43 18t-18 43t17.5 43t42.5 18t43 -18t18 -43t-18 -43t-42 -18zM326 491q-25 0 -42.5 18t-17.5 43t17.5 43t42.5 18t43 -18t18 -43t-18 -43t-43 -18z" />
    <glyph glyph-name="copyright" unicode="&#xa9;" horiz-adv-x="733" 
d="M366 -12q-133 0 -227 94t-94 227t94 227t227 94t227 -94t94 -227t-94 -227t-227 -94zM366 -3q129 0 220.5 91.5t91.5 220.5t-91.5 220.5t-220.5 91.5q-128 0 -219.5 -91.5t-91.5 -220.5t91.5 -220.5t219.5 -91.5zM389 129q-104 0 -159.5 49t-55.5 129q0 82 58.5 132
t151.5 50q18 0 47.5 -2.5t43.5 -2.5t42 4l10 -120h-3q-48 117 -133 117q-60 0 -87.5 -50.5t-27.5 -124.5q0 -75 27 -126t86 -51q90 0 143 127l3 -1l-20 -113q-55 -17 -126 -17z" />
    <glyph glyph-name="ordfeminine" unicode="&#xaa;" horiz-adv-x="514" 
d="M184 281q-51 0 -82.5 25.5t-31.5 67.5q0 48 37.5 71t98.5 23q45 0 91 -13v83q0 91 -70 91q-49 0 -76 -41q32 -12 32 -48q0 -21 -14 -35t-35 -14q-23 0 -36 16t-13 37q0 37 41 63.5t105 26.5q65 0 111.5 -30t46.5 -92v-181q0 -28 23 -28q30 0 56 47l4 -3q-35 -64 -94 -64
q-63 0 -78 56q-41 -58 -116 -58zM224 301q41 0 73 43v104q-28 10 -58 10q-74 0 -74 -80q0 -36 15.5 -56.5t43.5 -20.5zM58 212v9h396v-9h-396z" />
    <glyph glyph-name="guillemotleft" unicode="&#xab;" horiz-adv-x="585" 
d="M314 23l-289 199v3l289 200l3 -5l-214 -196l214 -197zM547 23l-289 199v3l289 200l3 -5l-213 -196l213 -197z" />
    <glyph glyph-name="uni00AD" unicode="&#xad;" horiz-adv-x="361" 
d="M51 220v25h259v-25h-259z" />
    <glyph glyph-name="registered" unicode="&#xae;" horiz-adv-x="407" 
d="M203 339q-65 0 -110.5 45.5t-45.5 110.5t45.5 110.5t110.5 45.5t110.5 -45.5t45.5 -110.5t-45.5 -110.5t-110.5 -45.5zM203 347q61 0 104.5 43.5t43.5 104.5t-43.5 104.5t-104.5 43.5t-104.5 -43.5t-43.5 -104.5t43.5 -104.5t104.5 -43.5zM124 418v2q13 0 17 4.5t4 18.5
v103q0 14 -4 18.5t-17 4.5v3h84q69 0 69 -41q0 -36 -65 -38v-1q14 0 23.5 -1.5t15 -3.5t9.5 -7.5t5 -9t3.5 -13.5t4.5 -16q4 -12 9 -16.5t16 -4.5v-2h-56q-1 2 -9 28q-5 22 -7.5 29t-8.5 11.5t-19 4.5h-16v-48q0 -14 4.5 -18.5t17.5 -4.5v-2h-80zM182 494h19q37 0 37 37
q0 38 -38 38h-18v-75z" />
    <glyph glyph-name="macron" unicode="&#xaf;" horiz-adv-x="424" 
d="M73 500v34h278v-34h-278z" />
    <glyph glyph-name="degree" unicode="&#xb0;" horiz-adv-x="369" 
d="M184 388q-57 0 -101 32.5t-44 93.5t44 94t101 33t101.5 -33t44.5 -94t-44.5 -93.5t-101.5 -32.5zM184 393q65 0 65 121t-65 121q-64 0 -64 -121t64 -121z" />
    <glyph glyph-name="plusminus" unicode="&#xb1;" horiz-adv-x="570" 
d="M280 102v218h-217v10h217v218h10v-218h217v-10h-217v-218h-10zM63 0v9h445v-9h-445z" />
    <glyph glyph-name="twosuperior" unicode="&#xb2;" horiz-adv-x="373" 
d="M43 335q-14 57 20 98q16 20 48 45l57.5 43.5t45.5 49.5t20 67q0 37 -18.5 59.5t-55.5 22.5q-56 0 -79 -50q18 -2 30 -15t12 -31q0 -20 -13.5 -33.5t-33.5 -13.5q-22 0 -35 15t-13 35q0 37 42 68t111 31q63 0 105 -27.5t42 -75.5q0 -37 -30 -63t-69.5 -39.5t-87.5 -37
t-74 -52.5q-13 -16 -19 -35q19 43 87 43q26 0 70 -12t66 -12q58 0 58 52q0 11 -3 24h5q7 -22 7 -58q0 -44 -17 -74t-55 -30q-25 0 -48 14.5t-38.5 32t-37 32t-43.5 14.5q-26 0 -40 -17t-14 -43q0 -19 4 -27h-6z" />
    <glyph glyph-name="threesuperior" unicode="&#xb3;" horiz-adv-x="375" 
d="M179 328q-67 0 -109 24.5t-42 59.5q0 20 13.5 34.5t33.5 14.5t34 -13.5t14 -33.5q0 -17 -11 -30.5t-27 -16.5q20 -34 69 -34q46 0 70.5 28.5t24.5 72.5q0 93 -100 95q-14 0 -24 -1.5t-15.5 -3t-7.5 -1.5q-12 0 -12 9q0 10 11 10q2 0 16 -4t30 -4q45 0 67.5 28t22.5 69
t-20.5 65t-58.5 24q-45 0 -66 -35q16 -3 26.5 -16t10.5 -30q0 -20 -13.5 -33t-33.5 -13t-33 13.5t-13 33.5q0 36 40.5 61t105.5 25q66 0 108 -26t42 -71q0 -46 -44 -71t-113 -25h-4v-2h4q73 0 121 -24.5t48 -73.5q0 -50 -48 -77.5t-117 -27.5z" />
    <glyph glyph-name="acute" unicode="&#xb4;" horiz-adv-x="328" 
d="M69 473l-2 2l36 51.5l33 47.5l25 34t21 24q18 16 37 16t32 -15q12 -14 9 -33t-21 -34q-11 -10 -32 -21.5l-69 -36z" />
    <glyph glyph-name="mu" unicode="&#xb5;" horiz-adv-x="580" 
d="M139 -195q-18 0 -31 9.5t-21 28.5t-13 36.5t-6.5 45.5t-2 43.5t-0.5 40.5v393l114 13v-303q0 -82 66 -82q46 0 100 52v320l114 13v-344q0 -57 43 -57q20 0 46 17l2 -6q-51 -35 -108 -35q-95 0 -95 84q-83 -85 -163 -85q-89 0 -112 79v-42q0 -32 16.5 -61t36 -47t36 -39
t16.5 -39q0 -15 -9.5 -25t-28.5 -10z" />
    <glyph glyph-name="paragraph" unicode="&#xb6;" horiz-adv-x="491" 
d="M246 -59v341q-100 0 -157.5 47.5t-57.5 118.5q0 73 59 121.5t151 48.5h211v-8h-59v-669h-9v669h-128v-669h-10z" />
    <glyph glyph-name="periodcentered" unicode="&#xb7;" horiz-adv-x="243" 
d="M122 171q-29 0 -49 20t-20 48t20 48t49 20q28 0 48 -19.5t20 -48.5t-20 -48.5t-48 -19.5z" />
    <glyph glyph-name="cedilla" unicode="&#xb8;" horiz-adv-x="327" 
d="M151 -219q-71 0 -116 32l3 5q35 -22 78 -22q36 0 57.5 20t21.5 51q0 28 -16.5 46t-46.5 18q-18 0 -38 -8l-2 2l65 70l9 -2l-53 -57q23 7 55 7q52 0 83 -20.5t31 -57.5q0 -43 -39 -63.5t-92 -20.5z" />
    <glyph glyph-name="onesuperior" unicode="&#xb9;" horiz-adv-x="246" 
d="M21 335v4q37 0 52.5 13.5t15.5 50.5v238q0 32 -28 32h-45v3q92 8 158 43l3 -1v-319q0 -36 14 -48t49 -12v-4h-219z" />
    <glyph glyph-name="ordmasculine" unicode="&#xba;" horiz-adv-x="507" 
d="M253 281q-78 0 -133 48t-55 128q0 81 55 129t133 48q79 0 134 -48t55 -129q0 -80 -55.5 -128t-133.5 -48zM253 288q84 0 84 169q0 171 -84 171q-83 0 -83 -171q0 -169 83 -169zM65 212v9h377v-9h-377z" />
    <glyph glyph-name="guillemotright" unicode="&#xbb;" horiz-adv-x="585" 
d="M38 23l-3 4l213 197l-213 196l3 5l289 -200v-3zM271 23l-3 4l214 197l-214 196l3 5l289 -200v-3z" />
    <glyph glyph-name="onequarter" unicode="&#xbc;" horiz-adv-x="816" 
d="M48 235v4q37 0 52.5 13.5t15.5 50.5v238q0 32 -28 32h-45v3q92 8 158 43l3 -1v-319q0 -36 14 -48t49 -12v-4h-219zM188 -9l-7 4l438 632l7 -4zM564 0v4q37 0 53 13.5t16 50.5v32h-196l-2 3l60 57q26 24 45.5 61.5t19.5 75.5q0 62 -50 93q62 2 108.5 -18.5t46.5 -57.5
q0 -26 -24 -50.5t-71 -56t-67 -48.5l-58 -53h188v63l84 76h3v-139q24 0 38 3.5t15 3.5q12 0 12 -10q0 -9 -12 -9l-15 3q-15 3 -38 3v-36q0 -36 14.5 -48t49.5 -12v-4h-220z" />
    <glyph glyph-name="onehalf" unicode="&#xbd;" horiz-adv-x="833" 
d="M499 0q-13 57 20 98q16 20 48 45l57.5 43.5t46 49.5t20.5 67t-19 59t-56 23q-57 0 -78 -50q18 -2 30 -15t12 -31q0 -20 -14 -33.5t-34 -13.5q-21 0 -34 15t-13 35q0 37 41.5 68t111.5 31q63 0 105 -27.5t42 -75.5q0 -37 -30.5 -63t-69.5 -39.5t-87.5 -37t-74.5 -52.5
q-13 -16 -19 -35q21 43 88 43q26 0 70 -12t66 -12q58 0 58 52q0 10 -3 24h5q7 -28 7 -58q0 -43 -17 -73.5t-55 -30.5q-25 0 -48.5 14.5t-38.5 32t-37 32t-44 14.5q-26 0 -40 -17t-14 -43q0 -15 4 -27h-6zM43 235v4q37 0 52.5 13.5t15.5 50.5v238q0 32 -28 32h-45v3
q92 8 158 43l3 -1v-319q0 -36 14 -48t49 -12v-4h-219zM183 -9l-7 4l438 632l7 -4z" />
    <glyph glyph-name="threequarters" unicode="&#xbe;" horiz-adv-x="873" 
d="M193 228q-67 0 -109 24.5t-42 59.5q0 20 13.5 34.5t33.5 14.5t34 -13.5t14 -33.5q0 -17 -11 -30.5t-27 -16.5q20 -34 69 -34q46 0 70.5 28.5t24.5 72.5q0 93 -100 95q-14 0 -24 -1.5t-15.5 -3t-7.5 -1.5q-12 0 -12 9q0 10 11 10q2 0 16 -4t30 -4q45 0 67.5 28t22.5 69
t-20.5 65t-58.5 24q-45 0 -66 -35q16 -3 26.5 -16t10.5 -30q0 -20 -13.5 -33t-33.5 -13t-33 13.5t-13 33.5q0 36 40.5 61t105.5 25q66 0 108 -26t42 -71q0 -46 -44 -71t-113 -25h-4v-2h4q73 0 121 -24.5t48 -73.5q0 -50 -48 -77.5t-117 -27.5zM245 -9l-7 4l438 632l7 -4z
M621 0v4q37 0 53 13.5t16 50.5v32h-196l-2 3l60 57q26 24 45.5 61.5t19.5 75.5q0 62 -50 93q62 2 108.5 -18.5t46.5 -57.5q0 -26 -24 -50.5t-71 -56t-67 -48.5l-58 -53h188v63l84 76h3v-139q25 0 39 4l14 3q12 0 12 -10q0 -9 -12 -9l-15 3q-15 3 -38 3v-36q0 -36 14.5 -48
t49.5 -12v-4h-220z" />
    <glyph glyph-name="questiondown" unicode="&#xbf;" horiz-adv-x="508" 
d="M259 -228q-100 0 -165 48t-65 122q0 32 16 58t38 43t58.5 32t62.5 22.5t64 16.5l4 98h6l4 -103q-129 -34 -129 -168q0 -71 32.5 -116.5t97.5 -45.5q82 0 120 68q-25 4 -41 23.5t-16 45.5q0 29 19.5 49.5t47.5 20.5t47.5 -21t19.5 -52q0 -56 -62.5 -98.5t-158.5 -42.5z
M273 410q29 0 49 -20t20 -49q0 -28 -20 -48t-49 -20t-48.5 19.5t-19.5 48.5t20 49t48 20z" />
    <glyph glyph-name="Agrave" unicode="&#xc0;" horiz-adv-x="666" 
d="M-36 0v6q20 0 38 5.5t31.5 12.5t27.5 23t21.5 25.5t19.5 33l16.5 32.5t16 36.5l14.5 34.5l177 413h6l220 -483q28 -62 59 -97.5t76 -35.5v-6h-329v6q53 0 69 34t-9 92l-34 76h-224l-8 -21q-69 -181 74 -181v-6h-262zM165 218h215l-110 250zM418 672l-56 29.5l-51.5 26.5
t-36 20t-26.5 18q-18 15 -21 34t9 33q13 15 32 15t37 -16q11 -9 26.5 -30t43 -62l45.5 -66z" />
    <glyph glyph-name="Aacute" unicode="&#xc1;" horiz-adv-x="666" 
d="M-36 0v6q20 0 38 5.5t31.5 12.5t27.5 23t21.5 25.5t19.5 33l16.5 32.5t16 36.5l14.5 34.5l177 413h6l220 -483q28 -62 59 -97.5t76 -35.5v-6h-329v6q53 0 69 34t-9 92l-34 76h-224l-8 -21q-69 -181 74 -181v-6h-262zM165 218h215l-110 250zM251 673l-2 2l36 51.5l33 47.5
l25 34t21 24q18 16 37 16t32 -15q12 -14 9 -33t-21 -34q-11 -10 -32 -21.5l-69 -36z" />
    <glyph glyph-name="Acircumflex" unicode="&#xc2;" horiz-adv-x="666" 
d="M-36 0v6q20 0 38 5.5t31.5 12.5t27.5 23t21.5 25.5t19.5 33l16.5 32.5t16 36.5l14.5 34.5l177 413h6l220 -483q28 -62 59 -97.5t76 -35.5v-6h-329v6q53 0 69 34t-9 92l-34 76h-224l-8 -21q-69 -181 74 -181v-6h-262zM165 218h215l-110 250zM183 666l-2 2l112 144
q14 20 36 20q21 0 36 -20l111 -144l-2 -2l-145 80z" />
    <glyph glyph-name="Atilde" unicode="&#xc3;" horiz-adv-x="666" 
d="M-36 0v6q20 0 38 5.5t31.5 12.5t27.5 23t21.5 25.5t19.5 33l16.5 32.5t16 36.5l14.5 34.5l177 413h6l220 -483q28 -62 59 -97.5t76 -35.5v-6h-329v6q53 0 69 34t-9 92l-34 76h-224l-8 -21q-69 -181 74 -181v-6h-262zM165 218h215l-110 250zM179 686q2 21 4 36t7.5 36.5
t13.5 35t22.5 23.5t33.5 10q26 0 78.5 -27t79.5 -27q29 0 39.5 16.5t14.5 44.5l5 -1q-4 -39 -10 -65.5t-24.5 -50.5t-47.5 -24q-26 0 -78.5 27t-79.5 27q-29 0 -39.5 -17t-13.5 -44h-5z" />
    <glyph glyph-name="Adieresis" unicode="&#xc4;" horiz-adv-x="666" 
d="M-36 0v6q20 0 38 5.5t31.5 12.5t27.5 23t21.5 25.5t19.5 33l16.5 32.5t16 36.5l14.5 34.5l177 413h6l220 -483q28 -62 59 -97.5t76 -35.5v-6h-329v6q53 0 69 34t-9 92l-34 76h-224l-8 -21q-69 -181 74 -181v-6h-262zM165 218h215l-110 250zM239 691q-25 0 -43 18t-18 43
t17.5 43t42.5 18t43 -18t18 -43t-18 -43t-42 -18zM416 691q-25 0 -42.5 18t-17.5 43t17.5 43t42.5 18t43 -18t18 -43t-18 -43t-43 -18z" />
    <glyph glyph-name="Aring" unicode="&#xc5;" horiz-adv-x="666" 
d="M-36 0v6q20 0 38 5.5t31.5 12.5t27.5 23t21.5 25.5t19.5 33l16.5 32.5t16 36.5l14.5 34.5l177 413h6l220 -483q28 -62 59 -97.5t76 -35.5v-6h-329v6q53 0 69 34t-9 92l-34 76h-224l-8 -21q-69 -181 74 -181v-6h-262zM165 218h215l-110 250zM328 664q-50 0 -82.5 27.5
t-32.5 70.5q0 44 32.5 71.5t82.5 27.5t82 -27.5t32 -71.5q0 -43 -32 -70.5t-82 -27.5zM328 668q39 0 39 94t-39 94q-41 0 -41 -94t41 -94z" />
    <glyph glyph-name="AE" unicode="&#xc6;" horiz-adv-x="996" 
d="M-41 0v6q29 0 58.5 13t52 29.5t49.5 47t43 52l42 57.5l266 381q-17 25 -75 25v7h526l14 -193l-5 -1q-21 94 -75.5 140t-172.5 46h-72v-298h23q90 0 132.5 33t56.5 105h5v-283h-5q-14 72 -56.5 104.5t-132.5 32.5h-23v-297h81q63 0 108 15.5t72.5 46t42 61.5t27.5 77l5 -1
l-19 -206h-532v6q56 0 73 19t17 75v121h-258l-15 -23q-29 -41 -44 -74.5t-15.5 -60.5t20.5 -42t63 -15v-6h-277zM233 230h252v287q0 45 -10 61z" />
    <glyph glyph-name="Ccedilla" unicode="&#xc7;" horiz-adv-x="679" 
d="M357 -219q-69 0 -116 32l4 5q33 -22 77 -22q37 0 58 20t21 51q0 28 -16.5 46t-46.5 18q-17 0 -37 -8l-3 2l60 65q-147 10 -231 97t-84 219q0 144 98 234t252 90q29 0 78 -4.5t72.5 -5t71.5 7.5l17 -203l-5 -1q-43 103 -98 151t-132 48q-76 0 -127 -46t-71.5 -114.5
t-20.5 -154.5q0 -63 11.5 -117t36 -99.5t67 -71.5t98.5 -26q159 0 249 211h5l-33 -187q-116 -35 -244 -29l-49 -53q23 7 55 7q52 0 83 -20.5t31 -57.5q0 -43 -39 -63.5t-92 -20.5z" />
    <glyph glyph-name="Egrave" unicode="&#xc8;" horiz-adv-x="630" 
d="M29 0v6q56 0 73 19t17 75v417q0 56 -17 75t-73 19v7h526l14 -193l-5 -1q-21 94 -75.5 140t-172.5 46h-72v-298h23q90 0 132.5 33t56.5 105h5v-283h-5q-14 72 -56.5 104.5t-132.5 32.5h-23v-297h81q63 0 108 15.5t72.5 46t42 61.5t27.5 77l5 -1l-19 -206h-532zM404 672
l-69.5 36.5t-67.5 36t-33 21.5q-18 15 -20.5 34t9.5 33q12 15 31.5 15t37.5 -16q11 -9 26 -29.5t43.5 -63l44.5 -65.5z" />
    <glyph glyph-name="Eacute" unicode="&#xc9;" horiz-adv-x="630" 
d="M29 0v6q56 0 73 19t17 75v417q0 56 -17 75t-73 19v7h526l14 -193l-5 -1q-21 94 -75.5 140t-172.5 46h-72v-298h23q90 0 132.5 33t56.5 105h5v-283h-5q-14 72 -56.5 104.5t-132.5 32.5h-23v-297h81q63 0 108 15.5t72.5 46t42 61.5t27.5 77l5 -1l-19 -206h-532zM255 673
l-2 2l46 65.5l42.5 61t26.5 30.5q18 16 37.5 16t31.5 -15q12 -14 9.5 -33t-20.5 -34q-9 -7 -27.5 -18t-35.5 -20l-52 -26.5z" />
    <glyph glyph-name="Ecircumflex" unicode="&#xca;" horiz-adv-x="630" 
d="M29 0v6q56 0 73 19t17 75v417q0 56 -17 75t-73 19v7h526l14 -193l-5 -1q-21 94 -75.5 140t-172.5 46h-72v-298h23q90 0 132.5 33t56.5 105h5v-283h-5q-14 72 -56.5 104.5t-132.5 32.5h-23v-297h81q63 0 108 15.5t72.5 46t42 61.5t27.5 77l5 -1l-19 -206h-532zM178 666
l-2 2l112 144q14 20 36 20q21 0 36 -20l111 -144l-2 -2l-145 80z" />
    <glyph glyph-name="Edieresis" unicode="&#xcb;" horiz-adv-x="630" 
d="M29 0v6q56 0 73 19t17 75v417q0 56 -17 75t-73 19v7h526l14 -193l-5 -1q-21 94 -75.5 140t-172.5 46h-72v-298h23q90 0 132.5 33t56.5 105h5v-283h-5q-14 72 -56.5 104.5t-132.5 32.5h-23v-297h81q63 0 108 15.5t72.5 46t42 61.5t27.5 77l5 -1l-19 -206h-532zM242 691
q-25 0 -43 18t-18 43t17.5 43t42.5 18t43 -17.5t18 -43.5q0 -25 -17.5 -43t-42.5 -18zM420 691q-25 0 -43 18t-18 43t17.5 43t42.5 18t43 -17.5t18 -43.5q0 -25 -17.5 -43t-42.5 -18z" />
    <glyph glyph-name="Igrave" unicode="&#xcc;" horiz-adv-x="363" 
d="M29 0v6q56 0 73 19t17 75v417q0 56 -17 75t-73 19v7h305v-7q-56 0 -73 -19t-17 -75v-417q0 -56 17 -75t73 -19v-6h-305zM266 672l-69.5 36.5t-67.5 36t-33 21.5q-18 15 -20.5 34t9.5 33q12 15 31.5 15t37.5 -16q11 -9 26 -29.5t43.5 -63l44.5 -65.5z" />
    <glyph glyph-name="Iacute" unicode="&#xcd;" horiz-adv-x="363" 
d="M29 0v6q56 0 73 19t17 75v417q0 56 -17 75t-73 19v7h305v-7q-56 0 -73 -19t-17 -75v-417q0 -56 17 -75t73 -19v-6h-305zM93 673l-2 2l46 65.5l42.5 61t26.5 30.5q18 16 37.5 16t31.5 -15q12 -14 9.5 -33t-20.5 -34q-9 -7 -27.5 -18t-35.5 -20l-52 -26.5z" />
    <glyph glyph-name="Icircumflex" unicode="&#xce;" horiz-adv-x="363" 
d="M29 0v6q56 0 73 19t17 75v417q0 56 -17 75t-73 19v7h305v-7q-56 0 -73 -19t-17 -75v-417q0 -56 17 -75t73 -19v-6h-305zM36 666l-2 2l111 144q15 20 36 20q22 0 36 -20l112 -144l-2 -2l-146 80z" />
    <glyph glyph-name="Idieresis" unicode="&#xcf;" horiz-adv-x="363" 
d="M29 0v6q56 0 73 19t17 75v417q0 56 -17 75t-73 19v7h305v-7q-56 0 -73 -19t-17 -75v-417q0 -56 17 -75t73 -19v-6h-305zM93 691q-25 0 -43 18t-18 43t17.5 43t42.5 18q26 0 43.5 -17.5t17.5 -43.5q0 -25 -17.5 -43t-42.5 -18zM271 691q-25 0 -43 18t-18 43t17.5 43
t42.5 18q26 0 43.5 -17.5t17.5 -43.5q0 -25 -17.5 -43t-42.5 -18z" />
    <glyph glyph-name="Eth" unicode="&#xd0;" horiz-adv-x="751" 
d="M30 0v6q56 0 73 19t17 75v206h-78v9h78v202q0 56 -17 75t-73 19v7h320q164 0 260.5 -84t96.5 -225t-96.5 -225t-260.5 -84h-320zM244 7h93q62 0 108.5 24.5t73.5 67t40 95.5t13 115q0 84 -22.5 149.5t-76.5 108.5t-135 43h-94v-295h173v-9h-173v-299z" />
    <glyph glyph-name="Ntilde" unicode="&#xd1;" horiz-adv-x="724" 
d="M15 0v6q30 0 50 4.5t34.5 21t22 35.5t12 60.5t5.5 82.5t1 115v135q0 80 -25 115.5t-95 35.5v7h202l364 -425v99q0 74 -1 115t-5.5 82.5t-12 60.5t-22 35.5t-34.5 21t-50 4.5v7h260v-7q-30 0 -50 -4.5t-34.5 -21t-22 -35.5t-12 -60.5t-5.5 -82.5t-1 -115v-297l-5 -2
l-441 512v-180q0 -74 1 -115t5.5 -82.5t12 -60.5t22 -35.5t34.5 -21t50 -4.5v-6h-260zM227 686q3 28 6 46.5t11.5 43.5t24.5 38t40 13q26 0 78.5 -27t79.5 -27q29 0 39.5 16.5t13.5 44.5l5 -1q-11 -140 -82 -140q-25 0 -77.5 27t-79.5 27q-29 0 -39.5 -16.5t-14.5 -44.5h-5z
" />
    <glyph glyph-name="Ograve" unicode="&#xd2;" horiz-adv-x="757" 
d="M378 -12q-146 0 -241 91.5t-95 229.5t95 229.5t241 91.5t241 -91.5t95 -229.5t-95 -229.5t-241 -91.5zM378 -4q55 0 96 26t63 71.5t32 99t10 116.5t-10 116t-32 98.5t-62.5 71.5t-96.5 26t-96.5 -26t-62 -71.5t-31.5 -98.5t-10 -116t10 -116t32 -99t62.5 -72t95.5 -26z
M459 682l-56 29.5l-51.5 26.5t-36 20t-26.5 18q-18 15 -21 34t9 33q13 15 32 15t37 -16q11 -9 26.5 -30t43 -62l45.5 -66z" />
    <glyph glyph-name="Oacute" unicode="&#xd3;" horiz-adv-x="757" 
d="M378 -12q-146 0 -241 91.5t-95 229.5t95 229.5t241 91.5t241 -91.5t95 -229.5t-95 -229.5t-241 -91.5zM378 -4q55 0 96 26t63 71.5t32 99t10 116.5t-10 116t-32 98.5t-62.5 71.5t-96.5 26t-96.5 -26t-62 -71.5t-31.5 -98.5t-10 -116t10 -116t32 -99t62.5 -72t95.5 -26z
M292 683l-2 2l36 51.5l33 47.5l25 34t21 24q18 16 37 16t32 -15q12 -14 9 -33t-21 -34q-11 -10 -32 -21.5l-69 -36z" />
    <glyph glyph-name="Ocircumflex" unicode="&#xd4;" horiz-adv-x="757" 
d="M378 -12q-146 0 -241 91.5t-95 229.5t95 229.5t241 91.5t241 -91.5t95 -229.5t-95 -229.5t-241 -91.5zM378 -4q55 0 96 26t63 71.5t32 99t10 116.5t-10 116t-32 98.5t-62.5 71.5t-96.5 26t-96.5 -26t-62 -71.5t-31.5 -98.5t-10 -116t10 -116t32 -99t62.5 -72t95.5 -26z
M232 676l-2 2l112 144q14 20 36 20q21 0 36 -20l111 -144l-2 -2l-145 80z" />
    <glyph glyph-name="Otilde" unicode="&#xd5;" horiz-adv-x="757" 
d="M378 -12q-146 0 -241 91.5t-95 229.5t95 229.5t241 91.5t241 -91.5t95 -229.5t-95 -229.5t-241 -91.5zM378 -4q55 0 96 26t63 71.5t32 99t10 116.5t-10 116t-32 98.5t-62.5 71.5t-96.5 26t-96.5 -26t-62 -71.5t-31.5 -98.5t-10 -116t10 -116t32 -99t62.5 -72t95.5 -26z
M224 696q3 28 6 46.5t11.5 43.5t24.5 38t40 13q26 0 78.5 -27t79.5 -27q29 0 39.5 16.5t13.5 44.5l5 -1q-11 -140 -82 -140q-25 0 -77.5 27t-79.5 27q-29 0 -39.5 -16.5t-14.5 -44.5h-5z" />
    <glyph glyph-name="Odieresis" unicode="&#xd6;" horiz-adv-x="757" 
d="M378 -12q-146 0 -241 91.5t-95 229.5t95 229.5t241 91.5t241 -91.5t95 -229.5t-95 -229.5t-241 -91.5zM378 -4q55 0 96 26t63 71.5t32 99t10 116.5t-10 116t-32 98.5t-62.5 71.5t-96.5 26t-96.5 -26t-62 -71.5t-31.5 -98.5t-10 -116t10 -116t32 -99t62.5 -72t95.5 -26z
M290 701q-25 0 -43 18t-18 43t17.5 43t42.5 18t43 -18t18 -43t-18 -43t-42 -18zM467 701q-25 0 -42.5 18t-17.5 43t17.5 43t42.5 18t43 -18t18 -43t-18 -43t-43 -18z" />
    <glyph glyph-name="multiply" unicode="&#xd7;" horiz-adv-x="463" 
d="M53 59l-7 6l179 179l-179 179l7 6l179 -178l178 178l7 -6l-179 -179l179 -179l-7 -6l-178 179z" />
    <glyph glyph-name="Oslash" unicode="&#xd8;" horiz-adv-x="757" 
d="M379 -12q-121 0 -210 65l-64 -75l-7 6l63 75q-118 92 -118 250q0 138 95 229.5t241 91.5q120 0 209 -66l64 75l8 -7l-63 -74q56 -44 87 -109t31 -140q0 -138 -95 -229.5t-241 -91.5zM379 -4q55 0 95.5 26t62.5 71.5t32 99t10 116.5q0 115 -33 189l-331 -390
q50 -112 164 -112zM379 621q-56 0 -96.5 -26t-62.5 -71.5t-32 -98.5t-10 -116q0 -112 33 -191l331 391q-50 112 -163 112z" />
    <glyph glyph-name="Ugrave" unicode="&#xd9;" horiz-adv-x="698" 
d="M354 -12q-108 0 -177.5 53.5t-69.5 167.5v300q0 57 -17 79.5t-73 22.5v7h305v-7q-56 0 -73 -22.5t-17 -79.5v-322q0 -184 155 -184q83 0 132.5 51.5t49.5 148.5v101q0 84 -2 130.5t-8.5 86.5t-21 56.5t-36 25t-56.5 8.5v7h258v-7q-84 0 -104 -55.5t-20 -251.5v-101
q0 -105 -58 -160t-167 -55zM442 672l-56 29.5l-51.5 26.5t-36 20t-26.5 18q-18 15 -21 34t9 33q13 15 32 15t37 -16q11 -9 26.5 -30t43 -62l45.5 -66z" />
    <glyph glyph-name="Uacute" unicode="&#xda;" horiz-adv-x="698" 
d="M354 -12q-108 0 -177.5 53.5t-69.5 167.5v300q0 57 -17 79.5t-73 22.5v7h305v-7q-56 0 -73 -22.5t-17 -79.5v-322q0 -184 155 -184q83 0 132.5 51.5t49.5 148.5v101q0 84 -2 130.5t-8.5 86.5t-21 56.5t-36 25t-56.5 8.5v7h258v-7q-84 0 -104 -55.5t-20 -251.5v-101
q0 -105 -58 -160t-167 -55zM300 673l-2 2l46 65.5l42.5 61t26.5 30.5q18 16 37.5 16t31.5 -15q12 -14 9.5 -33t-20.5 -34q-9 -7 -27.5 -18t-35.5 -20l-52 -26.5z" />
    <glyph glyph-name="Ucircumflex" unicode="&#xdb;" horiz-adv-x="698" 
d="M354 -12q-108 0 -177.5 53.5t-69.5 167.5v300q0 57 -17 79.5t-73 22.5v7h305v-7q-56 0 -73 -22.5t-17 -79.5v-322q0 -184 155 -184q83 0 132.5 51.5t49.5 148.5v101q0 84 -2 130.5t-8.5 86.5t-21 56.5t-36 25t-56.5 8.5v7h258v-7q-84 0 -104 -55.5t-20 -251.5v-101
q0 -105 -58 -160t-167 -55zM222 666l-2 2l111 144q15 20 36 20q22 0 36 -20l112 -144l-2 -2l-146 80z" />
    <glyph glyph-name="Udieresis" unicode="&#xdc;" horiz-adv-x="698" 
d="M354 -12q-108 0 -177.5 53.5t-69.5 167.5v300q0 57 -17 79.5t-73 22.5v7h305v-7q-56 0 -73 -22.5t-17 -79.5v-322q0 -184 155 -184q83 0 132.5 51.5t49.5 148.5v101q0 84 -2 130.5t-8.5 86.5t-21 56.5t-36 25t-56.5 8.5v7h258v-7q-84 0 -104 -55.5t-20 -251.5v-101
q0 -105 -58 -160t-167 -55zM282 691q-25 0 -43 18t-18 43t17.5 43t42.5 18t43 -18t18 -43t-18 -43t-42 -18zM459 691q-25 0 -42.5 18t-17.5 43t17.5 43t42.5 18t43 -18t18 -43t-18 -43t-43 -18z" />
    <glyph glyph-name="Yacute" unicode="&#xdd;" horiz-adv-x="667" 
d="M178 0v6q59 0 79.5 26t20.5 88v131l-149 244q-35 56 -67.5 86t-72.5 30v7h324v-7q-53 0 -64.5 -29.5t19.5 -80.5l125 -209h2l52 88q76 130 76 172q0 59 -85 59v7h261v-7q-79 0 -133 -65q-22 -26 -112 -171l-52 -87v-168q0 -62 20.5 -88t79.5 -26v-6h-324zM282 673l-2 2
l46 65.5l42.5 61t26.5 30.5q18 16 37.5 16t31.5 -15q12 -14 9.5 -33t-20.5 -34q-9 -7 -27.5 -18t-35.5 -20l-52 -26.5z" />
    <glyph glyph-name="Thorn" unicode="&#xde;" horiz-adv-x="623" 
d="M29 0v6q56 0 73 19t17 75v417q0 56 -17 75t-73 19v7h305v-7q-56 0 -73 -19t-17 -75v-24h92q134 0 197.5 -48.5t63.5 -129.5t-63 -129t-198 -48h-45v7h23q77 0 113.5 48.5t36.5 121.5q0 72 -36.5 121t-113.5 49h-70v-385q0 -56 17 -75t73 -19v-6h-305z" />
    <glyph glyph-name="germandbls" unicode="&#xdf;" horiz-adv-x="622" 
d="M20 0v6q42 0 61 15.5t19 55.5v319h-85v12h85v68q0 87 57.5 135t147.5 48q52 0 93 -18t65.5 -49.5t39 -64.5t21.5 -71l-28 -4.5t-31.5 -5.5t-28 -6.5t-28 -10t-20.5 -13.5t-16 -19t-5 -25q0 -28 24 -51t57.5 -41l67.5 -38t58 -52.5t24 -73.5q0 -57 -44.5 -92t-131.5 -35
q-69 0 -143 18l-6 128l5 1q1 -2 8 -18t9.5 -21l10 -20t12.5 -21.5l14 -18.5t18 -17.5l20.5 -12.5t25 -9.5t28.5 -2.5q45 0 64.5 23.5t19.5 52.5t-23 53t-56 42.5l-66 38t-56 49.5t-23 67q0 48 36 76t103 45q-20 211 -122 211q-42 0 -64.5 -32.5t-22.5 -87.5v-533h-194z" />
    <glyph glyph-name="agrave" unicode="&#xe0;" horiz-adv-x="512" 
d="M177 -11q-63 0 -101 31t-38 83q0 57 46.5 86t119.5 29q59 0 112 -17v101q0 53 -19 82t-67 29q-60 0 -93 -50q18 -7 29 -23t11 -35q0 -26 -17.5 -43t-43.5 -17q-27 0 -43.5 19t-16.5 45q0 45 50.5 77.5t128.5 32.5q50 0 92 -14t72.5 -48.5t30.5 -86.5v-220q0 -35 28 -35
q35 0 67 58l6 -4q-46 -78 -116 -78q-38 0 -62.5 18.5t-32.5 49.5q-51 -70 -143 -70zM227 13q48 0 89 53v127q-46 13 -71 13q-89 0 -89 -99q0 -43 18.5 -68.5t52.5 -25.5zM328 472l-56 29.5l-51.5 26.5t-36 20t-26.5 18q-18 15 -21 34t9 33q13 15 32 15t37 -16
q11 -9 26.5 -30t43 -62l45.5 -66z" />
    <glyph glyph-name="aacute" unicode="&#xe1;" horiz-adv-x="512" 
d="M177 -11q-63 0 -101 31t-38 83q0 57 46.5 86t119.5 29q59 0 112 -17v101q0 53 -19 82t-67 29q-60 0 -93 -50q18 -7 29 -23t11 -35q0 -26 -17.5 -43t-43.5 -17q-27 0 -43.5 19t-16.5 45q0 45 50.5 77.5t128.5 32.5q50 0 92 -14t72.5 -48.5t30.5 -86.5v-220q0 -35 28 -35
q35 0 67 58l6 -4q-46 -78 -116 -78q-38 0 -62.5 18.5t-32.5 49.5q-51 -70 -143 -70zM227 13q48 0 89 53v127q-46 13 -71 13q-89 0 -89 -99q0 -43 18.5 -68.5t52.5 -25.5zM165 473l-2 2l46 65.5l42.5 61t26.5 30.5q18 16 37.5 16t31.5 -15q12 -14 9.5 -33t-20.5 -34
q-9 -7 -27.5 -18t-35.5 -20l-52 -26.5z" />
    <glyph glyph-name="acircumflex" unicode="&#xe2;" horiz-adv-x="512" 
d="M177 -11q-63 0 -101 31t-38 83q0 57 46.5 86t119.5 29q59 0 112 -17v101q0 53 -19 82t-67 29q-60 0 -93 -50q18 -7 29 -23t11 -35q0 -26 -17.5 -43t-43.5 -17q-27 0 -43.5 19t-16.5 45q0 45 50.5 77.5t128.5 32.5q50 0 92 -14t72.5 -48.5t30.5 -86.5v-220q0 -35 28 -35
q35 0 67 58l6 -4q-46 -78 -116 -78q-38 0 -62.5 18.5t-32.5 49.5q-51 -70 -143 -70zM227 13q48 0 89 53v127q-46 13 -71 13q-89 0 -89 -99q0 -43 18.5 -68.5t52.5 -25.5zM99 466l-2 2l111 144q15 20 36 20q22 0 36 -20l112 -144l-2 -2l-146 80z" />
    <glyph glyph-name="atilde" unicode="&#xe3;" horiz-adv-x="512" 
d="M177 -11q-63 0 -101 31t-38 83q0 57 46.5 86t119.5 29q59 0 112 -17v101q0 53 -19 82t-67 29q-60 0 -93 -50q18 -7 29 -23t11 -35q0 -26 -17.5 -43t-43.5 -17q-27 0 -43.5 19t-16.5 45q0 45 50.5 77.5t128.5 32.5q50 0 92 -14t72.5 -48.5t30.5 -86.5v-220q0 -35 28 -35
q35 0 67 58l6 -4q-46 -78 -116 -78q-38 0 -62.5 18.5t-32.5 49.5q-51 -70 -143 -70zM227 13q48 0 89 53v127q-46 13 -71 13q-89 0 -89 -99q0 -43 18.5 -68.5t52.5 -25.5zM95 486q2 21 4 36t7.5 36.5t13.5 35t22.5 23.5t33.5 10q26 0 78.5 -27t79.5 -27q29 0 39.5 16.5
t14.5 44.5l5 -1q-4 -39 -10 -65.5t-24.5 -50.5t-47.5 -24q-26 0 -78.5 27t-79.5 27q-29 0 -39.5 -17t-13.5 -44h-5z" />
    <glyph glyph-name="adieresis" unicode="&#xe4;" horiz-adv-x="512" 
d="M177 -11q-63 0 -101 31t-38 83q0 57 46.5 86t119.5 29q59 0 112 -17v101q0 53 -19 82t-67 29q-60 0 -93 -50q18 -7 29 -23t11 -35q0 -26 -17.5 -43t-43.5 -17q-27 0 -43.5 19t-16.5 45q0 45 50.5 77.5t128.5 32.5q50 0 92 -14t72.5 -48.5t30.5 -86.5v-220q0 -35 28 -35
q35 0 67 58l6 -4q-46 -78 -116 -78q-38 0 -62.5 18.5t-32.5 49.5q-51 -70 -143 -70zM227 13q48 0 89 53v127q-46 13 -71 13q-89 0 -89 -99q0 -43 18.5 -68.5t52.5 -25.5zM155 491q-25 0 -43 18t-18 43t17.5 43t42.5 18t43 -18t18 -43t-18 -43t-42 -18zM332 491
q-25 0 -42.5 18t-17.5 43t17.5 43t42.5 18t43 -18t18 -43t-18 -43t-43 -18z" />
    <glyph glyph-name="aring" unicode="&#xe5;" horiz-adv-x="512" 
d="M177 -11q-63 0 -101 31t-38 83q0 57 46.5 86t119.5 29q59 0 112 -17v101q0 53 -19 82t-67 29q-60 0 -93 -50q18 -7 29 -23t11 -35q0 -26 -17.5 -43t-43.5 -17q-27 0 -43.5 19t-16.5 45q0 45 50.5 77.5t128.5 32.5q50 0 92 -14t72.5 -48.5t30.5 -86.5v-220q0 -35 28 -35
q35 0 67 58l6 -4q-46 -78 -116 -78q-38 0 -62.5 18.5t-32.5 49.5q-51 -70 -143 -70zM227 13q48 0 89 53v127q-46 13 -71 13q-89 0 -89 -99q0 -43 18.5 -68.5t52.5 -25.5zM240 464q-50 0 -82 27.5t-32 70.5q0 44 32 71.5t82 27.5t82.5 -27.5t32.5 -71.5q0 -43 -32.5 -70.5
t-82.5 -27.5zM240 468q40 0 40 94t-40 94t-40 -94t40 -94z" />
    <glyph glyph-name="ae" unicode="&#xe6;" horiz-adv-x="758" 
d="M179 -11q-65 0 -103.5 31t-38.5 83q0 57 46.5 86t119.5 29q59 0 112 -17v101q0 53 -19 82t-67 29q-61 0 -92 -50q18 -7 29 -23t11 -35q0 -25 -17.5 -42.5t-43.5 -17.5q-27 0 -43.5 19t-16.5 45q0 45 50 77.5t128 32.5q101 0 148 -57q57 57 144 57q84 0 139 -50.5
t57 -141.5h-294q-2 -101 34 -159t106 -58q90 0 147 94l6 -4q-69 -111 -197 -111q-121 0 -175 88q-65 -88 -170 -88zM234 13q61 0 110 72q-27 46 -29 108q-45 13 -70 13q-43 0 -66.5 -24.5t-23.5 -71.5q0 -45 21 -71t58 -26zM524 412q-43 0 -68 -52.5t-28 -123.5h179
q0 25 -3 50.5t-10.5 56.5t-25.5 50t-44 19z" />
    <glyph glyph-name="ccedilla" unicode="&#xe7;" horiz-adv-x="469" 
d="M223 -219q-71 0 -116 32l3 5q35 -22 78 -22q36 0 57.5 20t21.5 51q0 28 -16.5 46t-46.5 18q-18 0 -38 -8l-2 2l59 65q-86 8 -136 67.5t-50 143.5q0 98 66 158t159 60q76 0 123 -38.5t47 -87.5q0 -30 -18 -49t-45 -19t-45 18.5t-18 45.5q0 24 15 41.5t38 21.5
q-23 60 -84 60q-59 0 -88.5 -58.5t-29.5 -141.5q0 -95 35.5 -148.5t99.5 -53.5q46 0 82.5 26.5t58.5 67.5l6 -3q-71 -118 -205 -111l-49 -54q23 7 55 7q52 0 83 -20.5t31 -57.5q0 -43 -39 -63.5t-92 -20.5z" />
    <glyph glyph-name="egrave" unicode="&#xe8;" horiz-adv-x="487" 
d="M254 -11q-102 0 -159.5 63t-57.5 153q0 94 61.5 154t155.5 60q85 0 140 -50.5t57 -141.5h-294q-2 -101 34 -159t106 -58q90 0 147 94l6 -4q-69 -111 -196 -111zM253 412q-43 0 -68 -52.5t-28 -123.5h177q0 26 -2.5 50.5t-10 56t-25 50.5t-43.5 19zM335 472l-56 29.5
l-51.5 26.5t-36 20t-26.5 18q-18 15 -21 34t9 33q13 15 32 15t37 -16q11 -9 26.5 -30t43 -62l45.5 -66z" />
    <glyph glyph-name="eacute" unicode="&#xe9;" horiz-adv-x="487" 
d="M254 -11q-102 0 -159.5 63t-57.5 153q0 94 61.5 154t155.5 60q85 0 140 -50.5t57 -141.5h-294q-2 -101 34 -159t106 -58q90 0 147 94l6 -4q-69 -111 -196 -111zM253 412q-43 0 -68 -52.5t-28 -123.5h177q0 26 -2.5 50.5t-10 56t-25 50.5t-43.5 19zM169 473l-2 2l46 65.5
l42.5 61t26.5 30.5q18 16 37.5 16t31.5 -15q12 -14 9.5 -33t-20.5 -34q-9 -7 -27.5 -18t-35.5 -20l-52 -26.5z" />
    <glyph glyph-name="ecircumflex" unicode="&#xea;" horiz-adv-x="487" 
d="M254 -11q-102 0 -159.5 63t-57.5 153q0 94 61.5 154t155.5 60q85 0 140 -50.5t57 -141.5h-294q-2 -101 34 -159t106 -58q90 0 147 94l6 -4q-69 -111 -196 -111zM253 412q-43 0 -68 -52.5t-28 -123.5h177q0 26 -2.5 50.5t-10 56t-25 50.5t-43.5 19zM105 466l-2 2l112 144
q14 20 36 20q21 0 36 -20l111 -144l-2 -2l-145 80z" />
    <glyph glyph-name="edieresis" unicode="&#xeb;" horiz-adv-x="487" 
d="M254 -11q-102 0 -159.5 63t-57.5 153q0 94 61.5 154t155.5 60q85 0 140 -50.5t57 -141.5h-294q-2 -101 34 -159t106 -58q90 0 147 94l6 -4q-69 -111 -196 -111zM253 412q-43 0 -68 -52.5t-28 -123.5h177q0 26 -2.5 50.5t-10 56t-25 50.5t-43.5 19zM164 491q-25 0 -43 18
t-18 43t17.5 43t42.5 18t43 -18t18 -43t-18 -43t-42 -18zM341 491q-25 0 -42.5 18t-17.5 43t17.5 43t42.5 18t43 -18t18 -43t-18 -43t-43 -18z" />
    <glyph glyph-name="igrave" unicode="&#xec;" horiz-adv-x="289" 
d="M21 0v6q40 0 55 15.5t15 53.5v248q0 38 -15 53.5t-55 15.5v6l184 20v-343q0 -38 15 -53.5t55 -15.5v-6h-254zM224 472l-56 29.5l-51.5 26.5t-36 20t-26.5 18q-18 15 -21 34t9 33q13 15 32 15t37 -16q11 -9 26.5 -30t43 -62l45.5 -66z" />
    <glyph glyph-name="iacute" unicode="&#xed;" horiz-adv-x="289" 
d="M21 0v6q40 0 55 15.5t15 53.5v248q0 38 -15 53.5t-55 15.5v6l184 20v-343q0 -38 15 -53.5t55 -15.5v-6h-254zM52 473l-2 2l46 65.5l42.5 61t26.5 30.5q18 16 37.5 16t31.5 -15q12 -14 9.5 -33t-20.5 -34q-9 -7 -27.5 -18t-35.5 -20l-52 -26.5z" />
    <glyph glyph-name="icircumflex" unicode="&#xee;" horiz-adv-x="290" 
d="M22 0v6q40 0 55 15.5t15 53.5v248q0 38 -15 53.5t-55 15.5v6l184 20v-343q0 -38 15 -53.5t55 -15.5v-6h-254zM-5 466l-2 2l111 144q15 20 36 20q22 0 36 -20l112 -144l-2 -2l-146 80z" />
    <glyph glyph-name="idieresis" unicode="&#xef;" horiz-adv-x="289" 
d="M21 0v6q40 0 55 15.5t15 53.5v248q0 38 -15 53.5t-55 15.5v6l184 20v-343q0 -38 15 -53.5t55 -15.5v-6h-254zM51 491q-25 0 -43 18t-18 43t17.5 43t42.5 18t43 -18t18 -43t-18 -43t-42 -18zM228 491q-25 0 -42.5 18t-17.5 43t17.5 43t42.5 18t43 -18t18 -43t-18 -43
t-43 -18z" />
    <glyph glyph-name="eth" unicode="&#xf0;" horiz-adv-x="539" 
d="M262 -12q-105 0 -164.5 57t-59.5 148q0 95 63 150t158 55q51 0 97 -21q-29 104 -96 178l-151 -83l-5 7l150 82q-50 54 -125 95l3 6q90 -49 145 -89l114 63l4 -8l-110 -60q212 -154 212 -339q0 -100 -58 -170.5t-177 -70.5zM262 -4q43 0 69.5 36.5t35 82.5t8.5 103
q0 82 -17 147q-32 20 -70 20q-67 0 -98.5 -54.5t-31.5 -144.5q0 -36 4.5 -67t15.5 -60t32.5 -46t51.5 -17z" />
    <glyph glyph-name="ntilde" unicode="&#xf1;" horiz-adv-x="564" 
d="M20 0v6q40 0 55 15.5t15 53.5v248q0 38 -15 53.5t-55 15.5v6l182 20v-85q81 86 163 86q52 0 85.5 -32.5t33.5 -99.5v-212q0 -38 15 -53.5t55 -15.5v-6h-249v6q36 0 50.5 15.5t14.5 53.5v221q0 82 -66 82q-47 0 -100 -53v-250q0 -38 14.5 -53.5t50.5 -15.5v-6h-249z
M139 486q3 28 6 46.5t11.5 43.5t24.5 38t40 13q26 0 78.5 -27t79.5 -27q29 0 39.5 16.5t13.5 44.5l5 -1q-11 -140 -82 -140q-25 0 -77.5 27t-79.5 27q-29 0 -39.5 -16.5t-14.5 -44.5h-5z" />
    <glyph glyph-name="ograve" unicode="&#xf2;" horiz-adv-x="531" 
d="M265 -11q-94 0 -161 58t-67 157t67 157t161 58t161 -58t67 -157t-67 -157t-161 -58zM265 -3q106 0 106 207t-106 207q-105 0 -105 -207t105 -207zM346 472l-69.5 36.5t-67.5 36t-33 21.5q-18 15 -20.5 34t9.5 33q12 15 31.5 15t37.5 -16q11 -9 26 -29.5t43.5 -63
l44.5 -65.5z" />
    <glyph glyph-name="oacute" unicode="&#xf3;" horiz-adv-x="531" 
d="M265 -11q-94 0 -161 58t-67 157t67 157t161 58t161 -58t67 -157t-67 -157t-161 -58zM265 -3q106 0 106 207t-106 207q-105 0 -105 -207t105 -207zM187 473l-2 2l36 51.5l33 47.5l25 34t21 24q18 16 37 16t32 -15q12 -14 9 -33t-21 -34q-11 -10 -32 -21.5l-69 -36z" />
    <glyph glyph-name="ocircumflex" unicode="&#xf4;" horiz-adv-x="531" 
d="M265 -11q-94 0 -161 58t-67 157t67 157t161 58t161 -58t67 -157t-67 -157t-161 -58zM265 -3q106 0 106 207t-106 207q-105 0 -105 -207t105 -207zM120 466l-2 2l112 144q14 20 36 20q21 0 36 -20l111 -144l-2 -2l-145 80z" />
    <glyph glyph-name="otilde" unicode="&#xf5;" horiz-adv-x="531" 
d="M265 -11q-94 0 -161 58t-67 157t67 157t161 58t161 -58t67 -157t-67 -157t-161 -58zM265 -3q106 0 106 207t-106 207q-105 0 -105 -207t105 -207zM116 486q3 28 6 46.5t11.5 43.5t24.5 38t40 13q26 0 78.5 -27t79.5 -27q29 0 39.5 16.5t13.5 44.5l5 -1q-11 -140 -82 -140
q-25 0 -77.5 27t-79.5 27q-29 0 -39.5 -16.5t-14.5 -44.5h-5z" />
    <glyph glyph-name="odieresis" unicode="&#xf6;" horiz-adv-x="531" 
d="M265 -11q-94 0 -161 58t-67 157t67 157t161 58t161 -58t67 -157t-67 -157t-161 -58zM265 -3q106 0 106 207t-106 207q-105 0 -105 -207t105 -207zM177 491q-25 0 -43 18t-18 43t17.5 43t42.5 18q26 0 43.5 -17.5t17.5 -43.5q0 -25 -17.5 -43t-42.5 -18zM355 491
q-25 0 -43 18t-18 43t17.5 43t42.5 18q26 0 43.5 -17.5t17.5 -43.5q0 -25 -17.5 -43t-42.5 -18z" />
    <glyph glyph-name="divide" unicode="&#xf7;" horiz-adv-x="580" 
d="M290 363q-19 0 -33 14t-14 33q0 20 13.5 33.5t33.5 13.5t33.5 -13.5t13.5 -33.5q0 -19 -14 -33t-33 -14zM290 34q-19 0 -33 14t-14 33t13.5 32.5t33.5 13.5t33.5 -13.5t13.5 -32.5t-14 -33t-33 -14zM67 240v10h445v-10h-445z" />
    <glyph glyph-name="oslash" unicode="&#xf8;" horiz-adv-x="531" 
d="M265 -11q-83 0 -144 44l-46 -52l-6 5l45 52q-77 61 -77 166q0 99 67 157t161 58q82 0 144 -45l46 53l6 -5l-46 -53q78 -60 78 -165q0 -99 -67 -157t-161 -58zM265 -3q106 0 106 207q0 63 -13 103l-183 -215q22 -95 90 -95zM265 411q-105 0 -105 -207q0 -66 12 -103
l183 215q-23 95 -90 95z" />
    <glyph glyph-name="ugrave" unicode="&#xf9;" 
d="M199 -11q-52 0 -85.5 32.5t-33.5 99.5v200q0 38 -15 54.5t-55 16.5v6l184 20v-306q0 -82 66 -82q46 0 100 52v239q0 38 -14.5 54.5t-50.5 16.5v6l179 20v-341q0 -38 15 -54.5t55 -16.5v-6h-182v74q-83 -85 -163 -85zM337 472l-69.5 36.5t-67.5 36t-33 21.5
q-18 15 -20.5 34t9.5 33q12 15 31.5 15t37.5 -16q11 -9 26 -29.5t43.5 -63l44.5 -65.5z" />
    <glyph glyph-name="uacute" unicode="&#xfa;" 
d="M199 -11q-52 0 -85.5 32.5t-33.5 99.5v200q0 38 -15 54.5t-55 16.5v6l184 20v-306q0 -82 66 -82q46 0 100 52v239q0 38 -14.5 54.5t-50.5 16.5v6l179 20v-341q0 -38 15 -54.5t55 -16.5v-6h-182v74q-83 -85 -163 -85zM196 473l-2 2l36 51.5l33 47.5l25 34t21 24
q18 16 37 16t32 -15q12 -14 9 -33t-21 -34q-11 -10 -32 -21.5l-69 -36z" />
    <glyph glyph-name="ucircumflex" unicode="&#xfb;" 
d="M199 -11q-52 0 -85.5 32.5t-33.5 99.5v200q0 38 -15 54.5t-55 16.5v6l184 20v-306q0 -82 66 -82q46 0 100 52v239q0 38 -14.5 54.5t-50.5 16.5v6l179 20v-341q0 -38 15 -54.5t55 -16.5v-6h-182v74q-83 -85 -163 -85zM123 466l-2 2l112 144q14 20 36 20q21 0 36 -20
l111 -144l-2 -2l-145 80z" />
    <glyph glyph-name="udieresis" unicode="&#xfc;" 
d="M199 -11q-52 0 -85.5 32.5t-33.5 99.5v200q0 38 -15 54.5t-55 16.5v6l184 20v-306q0 -82 66 -82q46 0 100 52v239q0 38 -14.5 54.5t-50.5 16.5v6l179 20v-341q0 -38 15 -54.5t55 -16.5v-6h-182v74q-83 -85 -163 -85zM181 491q-25 0 -43 18t-18 43t17.5 43t42.5 18t43 -18
t18 -43t-18 -43t-42 -18zM358 491q-25 0 -42.5 18t-17.5 43t17.5 43t42.5 18t43 -18t18 -43t-18 -43t-43 -18z" />
    <glyph glyph-name="yacute" unicode="&#xfd;" horiz-adv-x="493" 
d="M89 -174q-49 0 -49 39q0 25 25.5 36.5t57.5 13.5t66 17t48 45l8 18l-149 312q-21 47 -45 70.5t-60 23.5v7h277v-7q-49 0 -61 -22.5t8 -63.5l85 -196l36 85q46 114 46 147q0 50 -64 50v7h193v-7q-66 0 -102 -60q-12 -18 -66 -142l-102 -232q-62 -141 -152 -141zM197 473
l-2 2l46 65.5l42.5 61t26.5 30.5q18 16 37.5 16t31.5 -15q12 -14 9.5 -33t-20.5 -34q-9 -7 -27.5 -18t-35.5 -20l-52 -26.5z" />
    <glyph glyph-name="thorn" unicode="&#xfe;" horiz-adv-x="532" 
d="M287 -11q-73 0 -108 35v-114q0 -37 17.5 -52t57.5 -15v-6h-259v6q40 0 55 16.5t15 54.5v659q0 38 -15 53.5t-55 15.5v6l184 20v-315q55 66 134 66q81 0 131 -63t50 -152q0 -93 -56 -154t-151 -61zM263 -3q53 0 81.5 60.5t28.5 140.5q0 83 -27.5 136t-82.5 53
q-49 0 -84 -46v-270q5 -30 28 -52t56 -22z" />
    <glyph glyph-name="ydieresis" unicode="&#xff;" horiz-adv-x="493" 
d="M89 -174q-49 0 -49 39q0 25 25.5 36.5t57.5 13.5t66 17t48 45l8 18l-149 312q-21 47 -45 70.5t-60 23.5v7h277v-7q-49 0 -61 -22.5t8 -63.5l85 -196l36 85q46 114 46 147q0 50 -64 50v7h193v-7q-66 0 -102 -60q-12 -18 -66 -142l-102 -232q-62 -141 -152 -141zM181 491
q-25 0 -43 18t-18 43t17.5 43t42.5 18t43 -18t18 -43t-18 -43t-42 -18zM358 491q-25 0 -42.5 18t-17.5 43t17.5 43t42.5 18t43 -18t18 -43t-18 -43t-43 -18z" />
    <glyph glyph-name="Amacron" unicode="&#x100;" horiz-adv-x="666" 
d="M-36 0v6q20 0 38 5.5t31.5 12.5t27.5 23t21.5 25.5t19.5 33l16.5 32.5t16 36.5l14.5 34.5l177 413h6l220 -483q28 -62 59 -97.5t76 -35.5v-6h-329v6q53 0 69 34t-9 92l-34 76h-224l-8 -21q-69 -181 74 -181v-6h-262zM165 218h215l-110 250zM188 700v34h279v-34h-279z" />
    <glyph glyph-name="amacron" unicode="&#x101;" horiz-adv-x="512" 
d="M177 -11q-63 0 -101 31t-38 83q0 57 46.5 86t119.5 29q59 0 112 -17v101q0 53 -19 82t-67 29q-60 0 -93 -50q18 -7 29 -23t11 -35q0 -26 -17.5 -43t-43.5 -17q-27 0 -43.5 19t-16.5 45q0 45 50.5 77.5t128.5 32.5q50 0 92 -14t72.5 -48.5t30.5 -86.5v-220q0 -35 28 -35
q35 0 67 58l6 -4q-46 -78 -116 -78q-38 0 -62.5 18.5t-32.5 49.5q-51 -70 -143 -70zM227 13q48 0 89 53v127q-46 13 -71 13q-89 0 -89 -99q0 -43 18.5 -68.5t52.5 -25.5zM103 500v34h278v-34h-278z" />
    <glyph glyph-name="Abreve" unicode="&#x102;" horiz-adv-x="666" 
d="M-36 0v6q20 0 38 5.5t31.5 12.5t27.5 23t21.5 25.5t19.5 33l16.5 32.5t16 36.5l14.5 34.5l177 413h6l220 -483q28 -62 59 -97.5t76 -35.5v-6h-329v6q53 0 69 34t-9 92l-34 76h-224l-8 -21q-69 -181 74 -181v-6h-262zM165 218h215l-110 250zM328 676q-34 0 -59 16.5
t-37 42.5t-17.5 52t-5.5 53h2q19 -83 117 -83t117 83h3q0 -27 -5.5 -53t-18 -52t-37.5 -42.5t-59 -16.5z" />
    <glyph glyph-name="abreve" unicode="&#x103;" horiz-adv-x="512" 
d="M177 -11q-63 0 -101 31t-38 83q0 57 46.5 86t119.5 29q59 0 112 -17v101q0 53 -19 82t-67 29q-60 0 -93 -50q18 -7 29 -23t11 -35q0 -26 -17.5 -43t-43.5 -17q-27 0 -43.5 19t-16.5 45q0 45 50.5 77.5t128.5 32.5q50 0 92 -14t72.5 -48.5t30.5 -86.5v-220q0 -35 28 -35
q35 0 67 58l6 -4q-46 -78 -116 -78q-38 0 -62.5 18.5t-32.5 49.5q-51 -70 -143 -70zM227 13q48 0 89 53v127q-46 13 -71 13q-89 0 -89 -99q0 -43 18.5 -68.5t52.5 -25.5zM242 476q-34 0 -59 16.5t-37.5 42.5t-18 52t-5.5 53h3q19 -83 117 -83t117 83h2q0 -27 -5.5 -53
t-17.5 -52t-37 -42.5t-59 -16.5z" />
    <glyph glyph-name="Aogonek" unicode="&#x104;" horiz-adv-x="666" 
d="M518 -216q-49 0 -77 21t-28 59q0 16 5 30t16.5 26.5t21 21t29 18.5t29 14.5t32.5 13.5t29 12h-217v6q53 0 69 34t-9 92l-34 76h-224l-8 -21q-69 -181 74 -181v-6h-262v6q20 0 38 5.5t31.5 12.5t27.5 23t21.5 25.5t19.5 33l16.5 32.5t16 36.5l14.5 34.5l177 413h6
l220 -483q28 -62 59 -97.5t76 -35.5v-6h-97q-39 -21 -62 -47t-23 -70q0 -78 78 -78q26 0 50 8l2 -5q-57 -24 -117 -24zM165 218h215l-110 250z" />
    <glyph glyph-name="aogonek" unicode="&#x105;" horiz-adv-x="512" 
d="M177 -11q-63 0 -101 31t-38 83q0 57 46.5 86t119.5 29q59 0 112 -17v101q0 53 -19 82t-67 29q-60 0 -93 -50q18 -7 29 -23t11 -35q0 -26 -17.5 -43t-43.5 -17q-27 0 -43.5 19t-16.5 45q0 45 50.5 77.5t128.5 32.5q50 0 92 -14t72.5 -48.5t30.5 -86.5v-220q0 -35 28 -35
q35 0 67 58l6 -4q-44 -75 -107 -76q-72 -43 -72 -110q0 -78 78 -78q26 0 50 8l2 -5q-55 -24 -116 -24q-49 0 -77 21t-28 59q0 25 11.5 45t36 36t43 25t50.5 22q-66 6 -82 67q-51 -70 -143 -70zM227 13q48 0 89 53v127q-46 13 -71 13q-89 0 -89 -99q0 -43 18.5 -68.5
t52.5 -25.5z" />
    <glyph glyph-name="Cacute" unicode="&#x106;" horiz-adv-x="679" 
d="M396 -12q-164 0 -258.5 89t-94.5 229q0 144 98 234t252 90q29 0 78 -4.5t72.5 -5t71.5 7.5l17 -203l-5 -1q-43 103 -98 151t-132 48q-76 0 -127 -46t-71.5 -114.5t-20.5 -154.5q0 -63 11.5 -117t36 -99.5t67 -71.5t98.5 -26q159 0 249 211h5l-33 -187q-99 -30 -216 -30z
M309 673l-2 2l46 65.5l42.5 61t26.5 30.5q18 16 37.5 16t31.5 -15q12 -14 9.5 -33t-20.5 -34q-9 -7 -27.5 -18t-35.5 -20l-52 -26.5z" />
    <glyph glyph-name="cacute" unicode="&#x107;" horiz-adv-x="469" 
d="M248 -11q-97 0 -154 61t-57 151q0 98 66 158t159 60q76 0 123 -38.5t47 -87.5q0 -30 -18 -49t-45 -19t-45 18.5t-18 45.5q0 24 15 41.5t38 21.5q-23 60 -84 60q-59 0 -88.5 -58.5t-29.5 -141.5q0 -95 35.5 -148.5t99.5 -53.5q46 0 82.5 26.5t58.5 67.5l6 -3
q-61 -112 -191 -112zM183 473l-2 2l36 51.5l33 47.5l25 34t21 24q18 16 37 16t32 -15q12 -14 9 -33t-21 -34q-11 -10 -32 -21.5l-69 -36z" />
    <glyph glyph-name="Ccircumflex" unicode="&#x108;" horiz-adv-x="679" 
d="M396 -12q-164 0 -258.5 89t-94.5 229q0 144 98 234t252 90q29 0 78 -4.5t72.5 -5t71.5 7.5l17 -203l-5 -1q-43 103 -98 151t-132 48q-76 0 -127 -46t-71.5 -114.5t-20.5 -154.5q0 -63 11.5 -117t36 -99.5t67 -71.5t98.5 -26q159 0 249 211h5l-33 -187q-99 -30 -216 -30z
M243 666l-2 2l112 144q14 20 36 20q21 0 36 -20l111 -144l-2 -2l-145 80z" />
    <glyph glyph-name="ccircumflex" unicode="&#x109;" horiz-adv-x="469" 
d="M248 -11q-97 0 -154 61t-57 151q0 98 66 158t159 60q76 0 123 -38.5t47 -87.5q0 -30 -18 -49t-45 -19t-45 18.5t-18 45.5q0 24 15 41.5t38 21.5q-23 60 -84 60q-59 0 -88.5 -58.5t-29.5 -141.5q0 -95 35.5 -148.5t99.5 -53.5q46 0 82.5 26.5t58.5 67.5l6 -3
q-61 -112 -191 -112zM100 466l-2 2l111 144q15 20 36 20q22 0 36 -20l112 -144l-2 -2l-146 80z" />
    <glyph glyph-name="Cdotaccent" unicode="&#x10a;" horiz-adv-x="679" 
d="M396 -12q-164 0 -258.5 89t-94.5 229q0 144 98 234t252 90q29 0 78 -4.5t72.5 -5t71.5 7.5l17 -203l-5 -1q-43 103 -98 151t-132 48q-76 0 -127 -46t-71.5 -114.5t-20.5 -154.5q0 -63 11.5 -117t36 -99.5t67 -71.5t98.5 -26q159 0 249 211h5l-33 -187q-99 -30 -216 -30z
M390 691q-26 0 -45 19t-19 45t19 45t45 19t45 -19t19 -45t-19 -45t-45 -19z" />
    <glyph glyph-name="cdotaccent" unicode="&#x10b;" horiz-adv-x="469" 
d="M248 -11q-97 0 -154 61t-57 151q0 98 66 158t159 60q76 0 123 -38.5t47 -87.5q0 -30 -18 -49t-45 -19t-45 18.5t-18 45.5q0 24 15 41.5t38 21.5q-23 60 -84 60q-59 0 -88.5 -58.5t-29.5 -141.5q0 -95 35.5 -148.5t99.5 -53.5q46 0 82.5 26.5t58.5 67.5l6 -3
q-61 -112 -191 -112zM255 491q-26 0 -45 19t-19 45t19 45t45 19t45 -19t19 -45t-19 -45t-45 -19z" />
    <glyph glyph-name="Ccaron" unicode="&#x10c;" horiz-adv-x="679" 
d="M396 -12q-164 0 -258.5 89t-94.5 229q0 144 98 234t252 90q29 0 78 -4.5t72.5 -5t71.5 7.5l17 -203l-5 -1q-43 103 -98 151t-132 48q-76 0 -127 -46t-71.5 -114.5t-20.5 -154.5q0 -63 11.5 -117t36 -99.5t67 -71.5t98.5 -26q159 0 249 211h5l-33 -187q-99 -30 -216 -30z
M395 665q-22 0 -36 20l-112 144l2 2l146 -80l145 80l2 -2l-111 -144q-15 -20 -36 -20z" />
    <glyph glyph-name="ccaron" unicode="&#x10d;" horiz-adv-x="469" 
d="M248 -11q-97 0 -154 61t-57 151q0 98 66 158t159 60q76 0 123 -38.5t47 -87.5q0 -30 -18 -49t-45 -19t-45 18.5t-18 45.5q0 24 15 41.5t38 21.5q-23 60 -84 60q-59 0 -88.5 -58.5t-29.5 -141.5q0 -95 35.5 -148.5t99.5 -53.5q46 0 82.5 26.5t58.5 67.5l6 -3
q-61 -112 -191 -112zM250 465q-22 0 -36 20l-112 144l2 2l146 -80l145 80l2 -2l-111 -144q-15 -20 -36 -20z" />
    <glyph glyph-name="Dcaron" unicode="&#x10e;" horiz-adv-x="750" 
d="M29 0v6q56 0 73 19t17 75v417q0 56 -17 75t-73 19v7h321q164 0 260 -84t96 -225q0 -142 -96 -225.5t-260 -83.5h-321zM244 7h93q119 0 176.5 85.5t57.5 216.5q0 84 -22.5 149.5t-76.5 108.5t-135 43h-93v-603zM381 665q-22 0 -36 20l-112 144l2 2l146 -80l145 80l2 -2
l-111 -144q-15 -20 -36 -20z" />
    <glyph glyph-name="dcaron" unicode="&#x10f;" horiz-adv-x="564" 
d="M538 453l-3 1q1 20 3 53.5t3 52.5t3.5 38.5t5.5 28.5q6 19 23.5 29.5t35.5 3.5t24.5 -25t-1.5 -37q-3 -7 -9 -18t-16 -26.5l-19.5 -29l-24.5 -35.5zM219 -11q-81 0 -131 62.5t-50 150.5q0 94 57.5 155.5t150.5 61.5q68 0 107 -36v190q0 40 -18.5 54.5t-61.5 14.5v6
l194 20v-593q0 -38 15 -53.5t55 -15.5v-6h-182v57q-55 -68 -136 -68zM270 20q48 0 83 46v271q-6 30 -28.5 51.5t-55.5 21.5q-52 0 -81 -61.5t-29 -140.5q0 -81 28 -134.5t83 -53.5z" />
    <glyph glyph-name="Dcroat" unicode="&#x110;" horiz-adv-x="751" 
d="M30 0v6q56 0 73 19t17 75v206h-78v9h78v202q0 56 -17 75t-73 19v7h320q164 0 260.5 -84t96.5 -225t-96.5 -225t-260.5 -84h-320zM244 7h93q62 0 108.5 24.5t73.5 67t40 95.5t13 115q0 84 -22.5 149.5t-76.5 108.5t-135 43h-94v-295h173v-9h-173v-299z" />
    <glyph glyph-name="dcroat" unicode="&#x111;" horiz-adv-x="549" 
d="M205 500v9h148v64q0 40 -18.5 54.5t-61.5 14.5v6l194 20v-159h69v-9h-69v-425q0 -38 15 -53.5t55 -15.5v-6h-182v57q-55 -68 -136 -68t-131 62.5t-50 150.5q0 94 57.5 155.5t150.5 61.5q68 0 107 -36v117h-148zM270 20q48 0 83 46v271q-6 30 -28.5 51.5t-55.5 21.5
q-52 0 -81 -61.5t-29 -140.5q0 -81 28 -134.5t83 -53.5z" />
    <glyph glyph-name="Emacron" unicode="&#x112;" horiz-adv-x="630" 
d="M29 0v6q56 0 73 19t17 75v417q0 56 -17 75t-73 19v7h526l14 -193l-5 -1q-21 94 -75.5 140t-172.5 46h-72v-298h23q90 0 132.5 33t56.5 105h5v-283h-5q-14 72 -56.5 104.5t-132.5 32.5h-23v-297h81q63 0 108 15.5t72.5 46t42 61.5t27.5 77l5 -1l-19 -206h-532zM183 700v34
h278v-34h-278z" />
    <glyph glyph-name="emacron" unicode="&#x113;" horiz-adv-x="487" 
d="M254 -11q-102 0 -159.5 63t-57.5 153q0 94 61.5 154t155.5 60q85 0 140 -50.5t57 -141.5h-294q-2 -101 34 -159t106 -58q90 0 147 94l6 -4q-69 -111 -196 -111zM253 412q-43 0 -68 -52.5t-28 -123.5h177q0 26 -2.5 50.5t-10 56t-25 50.5t-43.5 19zM112 500v34h278v-34
h-278z" />
    <glyph glyph-name="Ebreve" unicode="&#x114;" horiz-adv-x="630" 
d="M29 0v6q56 0 73 19t17 75v417q0 56 -17 75t-73 19v7h526l14 -193l-5 -1q-21 94 -75.5 140t-172.5 46h-72v-298h23q90 0 132.5 33t56.5 105h5v-283h-5q-14 72 -56.5 104.5t-132.5 32.5h-23v-297h81q63 0 108 15.5t72.5 46t42 61.5t27.5 77l5 -1l-19 -206h-532zM326 676
q-34 0 -59 16.5t-37 42.5t-17.5 52t-5.5 53h2q19 -83 117 -83t117 83h3q0 -27 -5.5 -53t-18 -52t-37.5 -42.5t-59 -16.5z" />
    <glyph glyph-name="ebreve" unicode="&#x115;" horiz-adv-x="487" 
d="M254 -11q-102 0 -159.5 63t-57.5 153q0 94 61.5 154t155.5 60q85 0 140 -50.5t57 -141.5h-294q-2 -101 34 -159t106 -58q90 0 147 94l6 -4q-69 -111 -196 -111zM253 412q-43 0 -68 -52.5t-28 -123.5h177q0 26 -2.5 50.5t-10 56t-25 50.5t-43.5 19zM253 476
q-34 0 -59 16.5t-37.5 42.5t-18 52t-5.5 53h3q19 -83 117 -83t117 83h2q0 -27 -5.5 -53t-17.5 -52t-37 -42.5t-59 -16.5z" />
    <glyph glyph-name="Edotaccent" unicode="&#x116;" horiz-adv-x="630" 
d="M29 0v6q56 0 73 19t17 75v417q0 56 -17 75t-73 19v7h526l14 -193l-5 -1q-21 94 -75.5 140t-172.5 46h-72v-298h23q90 0 132.5 33t56.5 105h5v-283h-5q-14 72 -56.5 104.5t-132.5 32.5h-23v-297h81q63 0 108 15.5t72.5 46t42 61.5t27.5 77l5 -1l-19 -206h-532zM329 691
q-27 0 -45.5 19t-18.5 45t18.5 45t45.5 19q26 0 45 -19t19 -45t-19 -45t-45 -19z" />
    <glyph glyph-name="edotaccent" unicode="&#x117;" horiz-adv-x="487" 
d="M254 -11q-102 0 -159.5 63t-57.5 153q0 94 61.5 154t155.5 60q85 0 140 -50.5t57 -141.5h-294q-2 -101 34 -159t106 -58q90 0 147 94l6 -4q-69 -111 -196 -111zM253 412q-43 0 -68 -52.5t-28 -123.5h177q0 26 -2.5 50.5t-10 56t-25 50.5t-43.5 19zM252 491
q-27 0 -45.5 19t-18.5 45t18.5 45t45.5 19q26 0 45 -19t19 -45t-19 -45t-45 -19z" />
    <glyph glyph-name="Eogonek" unicode="&#x118;" horiz-adv-x="630" 
d="M29 0v6q56 0 73 19t17 75v417q0 56 -17 75t-73 19v7h526l14 -193l-5 -1q-21 94 -75.5 140t-172.5 46h-72v-298h23q90 0 132.5 33t56.5 105h5v-283h-5q-14 72 -56.5 104.5t-132.5 32.5h-23v-297h81q63 0 108 15.5t72.5 46t42 61.5t27.5 77l5 -1l-19 -206h-58
q-39 -21 -62 -47t-23 -70q0 -78 78 -78q26 0 50 8l2 -5q-57 -24 -117 -24q-49 0 -77 21t-28 59q0 16 5 30t16.5 26.5t21 21t29 18.5t29 14.5t32.5 13.5t29 12h-459z" />
    <glyph glyph-name="eogonek" unicode="&#x119;" horiz-adv-x="487" 
d="M281 -216q-48 0 -76.5 21t-28.5 59q0 20 8 37t26 31.5t31.5 23t42 23t39.5 21.5q-31 -11 -69 -11q-102 0 -159.5 63t-57.5 153q0 94 61.5 154t155.5 60q85 0 140 -50.5t57 -141.5h-294q-2 -101 34 -159t106 -58q90 0 147 94l6 -4q-21 -33 -40 -51t-52 -36
q-25 -14 -41 -26.5t-32.5 -40t-16.5 -62.5q0 -79 78 -79q26 0 50 8l2 -5q-57 -24 -117 -24zM253 412q-43 0 -68 -52.5t-28 -123.5h177q0 26 -2.5 50.5t-10 56t-25 50.5t-43.5 19z" />
    <glyph glyph-name="Ecaron" unicode="&#x11a;" horiz-adv-x="630" 
d="M29 0v6q56 0 73 19t17 75v417q0 56 -17 75t-73 19v7h526l14 -193l-5 -1q-21 94 -75.5 140t-172.5 46h-72v-298h23q90 0 132.5 33t56.5 105h5v-283h-5q-14 72 -56.5 104.5t-132.5 32.5h-23v-297h81q63 0 108 15.5t72.5 46t42 61.5t27.5 77l5 -1l-19 -206h-532zM334 665
q-22 0 -36 20l-112 144l2 2l146 -80l145 80l2 -2l-111 -144q-15 -20 -36 -20z" />
    <glyph glyph-name="ecaron" unicode="&#x11b;" horiz-adv-x="487" 
d="M254 -11q-102 0 -159.5 63t-57.5 153q0 94 61.5 154t155.5 60q85 0 140 -50.5t57 -141.5h-294q-2 -101 34 -159t106 -58q90 0 147 94l6 -4q-69 -111 -196 -111zM253 412q-43 0 -68 -52.5t-28 -123.5h177q0 26 -2.5 50.5t-10 56t-25 50.5t-43.5 19zM252 465q-22 0 -36 20
l-112 144l2 2l146 -80l145 80l2 -2l-111 -144q-15 -20 -36 -20z" />
    <glyph glyph-name="Gcircumflex" unicode="&#x11c;" horiz-adv-x="769" 
d="M413 -12q-182 0 -276 90t-94 225q0 147 104 237t256 90q27 0 80.5 -4.5t80.5 -5t76 7.5l17 -198l-5 -1q-38 98 -101 146t-142 48q-114 0 -172.5 -91.5t-58.5 -230.5q0 -131 55.5 -218.5t171.5 -87.5q74 0 149 40v151q0 56 -19 78t-78 22v7h305v-7q-55 0 -71 -18.5
t-16 -73.5v-163q-137 -43 -262 -43zM255 666l-2 2l112 144q14 20 36 20q21 0 36 -20l111 -144l-2 -2l-145 80z" />
    <glyph glyph-name="gcircumflex" unicode="&#x11d;" horiz-adv-x="511" 
d="M219 -174q-91 0 -148 22t-57 64q0 24 21 41.5t43 24.5t46 10q-65 17 -65 63q0 57 84 86q-50 17 -77.5 52.5t-27.5 81.5q0 65 53 106.5t139 41.5q52 0 94 -17q116 27 130 27q21 0 33 -10.5t12 -27.5t-11.5 -28.5t-29.5 -11.5t-57 20.5t-66 25.5q86 -40 86 -126
q0 -65 -52.5 -106.5t-138.5 -41.5q-45 0 -81 12q-26 -11 -26 -30q0 -18 34 -24t82.5 -7.5t97.5 -7t83 -31.5t34 -74q0 -64 -59.5 -99.5t-175.5 -35.5zM230 413q-76 0 -76 -142t76 -142t76 142t-76 142zM227 -168q84 0 121 26.5t37 58.5q0 21 -16.5 33.5t-45.5 17t-59.5 6.5
l-68 4.5t-61.5 8.5q-55 -19 -55 -66q0 -89 148 -89zM84 471l-2 2l112 144q14 20 36 20q21 0 36 -20l111 -144l-2 -2l-145 80z" />
    <glyph glyph-name="Gbreve" unicode="&#x11e;" horiz-adv-x="769" 
d="M413 -12q-182 0 -276 90t-94 225q0 147 104 237t256 90q27 0 80.5 -4.5t80.5 -5t76 7.5l17 -198l-5 -1q-38 98 -101 146t-142 48q-114 0 -172.5 -91.5t-58.5 -230.5q0 -131 55.5 -218.5t171.5 -87.5q74 0 149 40v151q0 56 -19 78t-78 22v7h305v-7q-55 0 -71 -18.5
t-16 -73.5v-163q-137 -43 -262 -43zM413 676q-34 0 -59 16.5t-37 42.5t-17.5 52t-5.5 53h2q19 -83 117 -83t117 83h3q0 -27 -5.5 -53t-18 -52t-37.5 -42.5t-59 -16.5z" />
    <glyph glyph-name="gbreve" unicode="&#x11f;" horiz-adv-x="468" 
d="M219 -174q-91 0 -148 22t-57 64q0 24 21 41.5t43 24.5t46 10q-65 17 -65 63q0 57 84 86q-50 17 -77.5 52.5t-27.5 81.5q0 65 53 106.5t139 41.5q54 0 102 -20q10 18 21 40.5l16.5 33.5t12.5 22.5t13 17t13 8.5q14 7 29 2t23 -19q15 -26 -8 -49q-9 -8 -23.5 -16t-47 -23
l-43.5 -20q83 -42 83 -125q0 -65 -52.5 -106.5t-138.5 -41.5q-45 0 -81 12q-26 -11 -26 -30q0 -18 34 -24t82.5 -7.5t97.5 -7t83 -31.5t34 -74q0 -64 -59.5 -99.5t-175.5 -35.5zM230 413q-76 0 -76 -142t76 -142t76 142t-76 142zM227 -168q84 0 121 26.5t37 58.5
q0 21 -16.5 33.5t-45.5 17t-59.5 6.5l-68 4.5t-61.5 8.5q-55 -19 -55 -66q0 -89 148 -89zM229 476q-34 0 -59 16.5t-37 42.5t-17.5 52t-5.5 53h2q19 -83 117 -83t117 83h3q0 -27 -5.5 -53t-18 -52t-37.5 -42.5t-59 -16.5z" />
    <glyph glyph-name="Gdotaccent" unicode="&#x120;" horiz-adv-x="769" 
d="M413 -12q-182 0 -276 90t-94 225q0 147 104 237t256 90q27 0 80.5 -4.5t80.5 -5t76 7.5l17 -198l-5 -1q-38 98 -101 146t-142 48q-114 0 -172.5 -91.5t-58.5 -230.5q0 -131 55.5 -218.5t171.5 -87.5q74 0 149 40v151q0 56 -19 78t-78 22v7h305v-7q-55 0 -71 -18.5
t-16 -73.5v-163q-137 -43 -262 -43zM411 691q-27 0 -45.5 19t-18.5 45t18.5 45t45.5 19q26 0 45 -19t19 -45t-19 -45t-45 -19z" />
    <glyph glyph-name="gdotaccent" unicode="&#x121;" horiz-adv-x="468" 
d="M219 -174q-91 0 -148 22t-57 64q0 24 21 41.5t43 24.5t46 10q-65 17 -65 63q0 57 84 86q-50 17 -77.5 52.5t-27.5 81.5q0 65 53 106.5t139 41.5q54 0 102 -20q10 18 21 40.5l16.5 33.5t12.5 22.5t13 17t13 8.5q14 7 29 2t23 -19q15 -26 -8 -49q-9 -8 -23.5 -16t-47 -23
l-43.5 -20q83 -42 83 -125q0 -65 -52.5 -106.5t-138.5 -41.5q-45 0 -81 12q-26 -11 -26 -30q0 -18 34 -24t82.5 -7.5t97.5 -7t83 -31.5t34 -74q0 -64 -59.5 -99.5t-175.5 -35.5zM230 413q-76 0 -76 -142t76 -142t76 142t-76 142zM227 -168q84 0 121 26.5t37 58.5
q0 21 -16.5 33.5t-45.5 17t-59.5 6.5l-68 4.5t-61.5 8.5q-55 -19 -55 -66q0 -89 148 -89zM229 491q-27 0 -45.5 19t-18.5 45t18.5 45t45.5 19q26 0 45 -19t19 -45t-19 -45t-45 -19z" />
    <glyph glyph-name="uni0122" unicode="&#x122;" horiz-adv-x="769" 
d="M413 -12q-182 0 -276 90t-94 225q0 147 104 237t256 90q27 0 80.5 -4.5t80.5 -5t76 7.5l17 -198l-5 -1q-38 98 -101 146t-142 48q-114 0 -172.5 -91.5t-58.5 -230.5q0 -131 55.5 -218.5t171.5 -87.5q74 0 149 40v151q0 56 -19 78t-78 22v7h305v-7q-55 0 -71 -18.5
t-16 -73.5v-163q-137 -43 -262 -43zM333 -319l-3 5q44 15 75 51t32 77q-14 -11 -34 -11q-24 0 -41 17t-17 40q0 24 18 41t45 17q29 0 46.5 -21t17.5 -54q0 -48 -36 -93t-103 -69z" />
    <glyph glyph-name="uni0123" unicode="&#x123;" horiz-adv-x="468" 
d="M219 -174q-91 0 -148 22t-57 64q0 24 21 41.5t43 24.5t46 10q-65 17 -65 63q0 57 84 86q-50 17 -77.5 52.5t-27.5 81.5q0 65 53 106.5t139 41.5q54 0 102 -20q10 18 21 40.5l16.5 33.5t12.5 22.5t13 17t13 8.5q14 7 29 2t23 -19q15 -26 -8 -49q-9 -8 -23.5 -16t-47 -23
l-43.5 -20q83 -42 83 -125q0 -65 -52.5 -106.5t-138.5 -41.5q-45 0 -81 12q-26 -11 -26 -30q0 -18 34 -24t82.5 -7.5t97.5 -7t83 -31.5t34 -74q0 -64 -59.5 -99.5t-175.5 -35.5zM230 413q-76 0 -76 -142t76 -142t76 142t-76 142zM227 -168q84 0 121 26.5t37 58.5
q0 21 -16.5 33.5t-45.5 17t-59.5 6.5l-68 4.5t-61.5 8.5q-55 -19 -55 -66q0 -89 148 -89zM306 721l3 -5q-44 -16 -75 -51.5t-32 -76.5q14 11 34 11q24 0 41 -17t17 -41t-18 -41t-45 -17q-29 0 -46.5 21.5t-17.5 54.5q0 47 36 92.5t103 69.5z" />
    <glyph glyph-name="Hcircumflex" unicode="&#x124;" horiz-adv-x="793" 
d="M29 0v6q56 0 73 19t17 75v417q0 56 -17 75t-73 19v7h305v-7q-56 0 -73 -19t-17 -75v-199h305v199q0 56 -17 75t-73 19v7h305v-7q-56 0 -73 -19t-17 -75v-417q0 -56 17 -75t73 -19v-6h-305v6q56 0 73 19t17 75v209h-305v-209q0 -56 17 -75t73 -19v-6h-305zM251 666l-2 2
l111 144q15 20 36 20q22 0 36 -20l112 -144l-2 -2l-146 80z" />
    <glyph glyph-name="hcircumflex" unicode="&#x125;" 
d="M13 0v6q40 0 55 15.5t15 53.5v498q0 38 -15 53.5t-55 15.5v6l184 20v-333q82 84 161 84q51 0 85 -33t34 -99v-212q0 -38 15 -53.5t55 -15.5v-6h-249v6q36 0 50.5 15.5t14.5 53.5v221q0 82 -66 82q-49 0 -100 -53v-250q0 -38 15 -53.5t55 -15.5v-6h-254zM121 703l-2 2
l112 145q15 20 36 20q19 0 36 -20l111 -145l-2 -2l-145 80z" />
    <glyph glyph-name="Hbar" unicode="&#x126;" horiz-adv-x="793" 
d="M44 452v9h75v56q0 56 -17 75t-73 19v7h305v-7q-56 0 -73 -19t-17 -75v-56h305v56q0 56 -17 75t-73 19v7h305v-7q-56 0 -73 -19t-17 -75v-56h75v-9h-75v-352q0 -56 17 -75t73 -19v-6h-305v6q56 0 73 19t17 75v209h-305v-209q0 -56 17 -75t73 -19v-6h-305v6q56 0 73 19
t17 75v352h-75zM244 318h305v134h-305v-134z" />
    <glyph glyph-name="hbar" unicode="&#x127;" 
d="M14 500v9h69v64q0 38 -15 53.5t-55 15.5v6l184 20v-159h147v-9h-147v-165q82 84 161 84q51 0 85 -33t34 -99v-212q0 -38 15 -53.5t55 -15.5v-6h-249v6q36 0 50.5 15.5t14.5 53.5v221q0 82 -66 82q-49 0 -100 -53v-250q0 -38 15 -53.5t55 -15.5v-6h-254v6q40 0 55 15.5
t15 53.5v425h-69z" />
    <glyph glyph-name="Itilde" unicode="&#x128;" horiz-adv-x="363" 
d="M29 0v6q56 0 73 19t17 75v417q0 56 -17 75t-73 19v7h305v-7q-56 0 -73 -19t-17 -75v-417q0 -56 17 -75t73 -19v-6h-305zM36 686q2 21 4 36t7.5 36.5t13.5 35t22.5 23.5t33.5 10q26 0 78.5 -27t79.5 -27q29 0 39.5 16.5t14.5 44.5l5 -1q-4 -39 -10 -65.5t-24.5 -50.5
t-47.5 -24q-26 0 -78.5 27t-79.5 27q-29 0 -39.5 -17t-13.5 -44h-5z" />
    <glyph glyph-name="itilde" unicode="&#x129;" horiz-adv-x="289" 
d="M21 0v6q40 0 55 15.5t15 53.5v248q0 38 -15 53.5t-55 15.5v6l184 20v-343q0 -38 15 -53.5t55 -15.5v-6h-254zM-8 486q3 28 6 46.5t11.5 43.5t24.5 38t40 13q26 0 78.5 -27t79.5 -27q29 0 39.5 16.5t13.5 44.5l5 -1q-11 -140 -82 -140q-25 0 -77.5 27t-79.5 27
q-29 0 -39.5 -16.5t-14.5 -44.5h-5z" />
    <glyph glyph-name="Imacron" unicode="&#x12a;" horiz-adv-x="363" 
d="M29 0v6q56 0 73 19t17 75v417q0 56 -17 75t-73 19v7h305v-7q-56 0 -73 -19t-17 -75v-417q0 -56 17 -75t73 -19v-6h-305zM42 700v34h279v-34h-279z" />
    <glyph glyph-name="imacron" unicode="&#x12b;" horiz-adv-x="289" 
d="M21 0v6q40 0 55 15.5t15 53.5v248q0 38 -15 53.5t-55 15.5v6l184 20v-343q0 -38 15 -53.5t55 -15.5v-6h-254zM3 500v34h278v-34h-278z" />
    <glyph glyph-name="Ibreve" unicode="&#x12c;" horiz-adv-x="363" 
d="M29 0v6q56 0 73 19t17 75v417q0 56 -17 75t-73 19v7h305v-7q-56 0 -73 -19t-17 -75v-417q0 -56 17 -75t73 -19v-6h-305zM181 676q-34 0 -59 16.5t-37 42.5t-17.5 52t-5.5 53h2q19 -83 117 -83t117 83h3q0 -27 -5.5 -53t-18 -52t-37.5 -42.5t-59 -16.5z" />
    <glyph glyph-name="ibreve" unicode="&#x12d;" horiz-adv-x="289" 
d="M21 0v6q40 0 55 15.5t15 53.5v248q0 38 -15 53.5t-55 15.5v6l184 20v-343q0 -38 15 -53.5t55 -15.5v-6h-254zM144 476q-34 0 -59 16.5t-37 42.5t-17.5 52t-5.5 53h2q19 -83 117 -83t117 83h3q0 -27 -5.5 -53t-18 -52t-37.5 -42.5t-59 -16.5z" />
    <glyph glyph-name="Iogonek" unicode="&#x12e;" horiz-adv-x="363" 
d="M29 0v6q56 0 73 19t17 75v417q0 56 -17 75t-73 19v7h305v-7q-56 0 -73 -19t-17 -75v-417q0 -56 17 -75t73 -19v-6h-90q-39 -21 -62 -47t-23 -70q0 -78 78 -78q26 0 50 8l2 -5q-57 -24 -117 -24q-49 0 -77 21t-28 59q0 16 5 30t16.5 26.5t21 21t29 18.5t29 14.5t32.5 13.5
t29 12h-200z" />
    <glyph glyph-name="iogonek" unicode="&#x12f;" horiz-adv-x="290" 
d="M22 0v6q40 0 55 15.5t15 53.5v248q0 38 -15 53.5t-55 15.5v6l184 20v-343q0 -38 15 -53.5t55 -15.5v-6h-65q-39 -21 -62 -47t-23 -70q0 -78 78 -78q26 0 50 8l2 -5q-57 -24 -117 -24q-49 0 -77 21t-28 59q0 16 5 30t16.5 26.5t21 21t29 18.5t29 14.5t32.5 13.5t29 12
h-174zM144 489q-30 0 -50.5 19t-20.5 49q0 29 20.5 48t50.5 19t50.5 -18.5t20.5 -48.5t-20.5 -49t-50.5 -19z" />
    <glyph glyph-name="Idotaccent" unicode="&#x130;" horiz-adv-x="363" 
d="M29 0v6q56 0 73 19t17 75v417q0 56 -17 75t-73 19v7h305v-7q-56 0 -73 -19t-17 -75v-417q0 -56 17 -75t73 -19v-6h-305zM181 691q-27 0 -45.5 19t-18.5 45t18.5 45t45.5 19q26 0 45 -19t19 -45t-19 -45t-45 -19z" />
    <glyph glyph-name="dotlessi" unicode="&#x131;" horiz-adv-x="289" 
d="M21 0v6q40 0 55 15.5t15 53.5v248q0 38 -15 53.5t-55 15.5v6l184 20v-343q0 -38 15 -53.5t55 -15.5v-6h-254z" />
    <glyph glyph-name="Jcircumflex" unicode="&#x134;" horiz-adv-x="350" 
d="M14 -167l-3 4q60 31 81 74t21 103v503q0 56 -17 75t-73 19v7h304v-7q-56 0 -73 -19t-17 -75v-481q0 -75 -63.5 -126t-159.5 -77zM29 666l-2 2l112 144q14 20 36 20q21 0 36 -20l111 -144l-2 -2l-145 80z" />
    <glyph glyph-name="jcircumflex" unicode="&#x135;" horiz-adv-x="272" 
d="M3 -176l-3 3q31 17 49.5 35.5t26 42t9.5 41t2 48.5v329q0 38 -17 53.5t-58 15.5v6l189 20v-403q0 -130 -198 -191zM-8 466l-2 2l111 144q15 20 36 20q22 0 36 -20l112 -144l-2 -2l-146 80z" />
    <glyph glyph-name="uni0136" unicode="&#x136;" horiz-adv-x="708" 
d="M29 0v6q56 0 73 19t17 75v417q0 56 -17 75t-73 19v7h305v-7q-56 0 -73 -19t-17 -75v-259l176 177q88 88 88 133q0 43 -78 43v7h280v-7q-73 0 -148 -55q-41 -31 -133 -123l-37 -39l210 -301q61 -87 123 -87v-6h-211l-210 307l-60 -61v-146q0 -56 17 -75t73 -19v-6h-305z
M314 -319l-3 5q44 15 75 51t32 77q-14 -11 -34 -11q-24 0 -41 17t-17 40q0 24 18 41t45 17q29 0 46.5 -21t17.5 -54q0 -48 -36 -93t-103 -69z" />
    <glyph glyph-name="uni0137" unicode="&#x137;" horiz-adv-x="534" 
d="M13 0v6q40 0 55 15.5t15 53.5v498q0 38 -15 53.5t-55 15.5v6l184 20v-492l94 94q61 59 61 93q0 38 -66 38v7h233v-7q-65 0 -122 -43q-38 -27 -78 -69l-10 -10l141 -210q43 -63 99 -63v-6h-183l-136 199l-33 -33v-91q0 -38 15 -53.5t55 -15.5v-6h-254zM218 -319l-3 5
q44 15 75 51t32 77q-16 -11 -34 -11q-24 0 -41 17t-17 40q0 24 17.5 41t44.5 17q30 0 47 -21t17 -54q0 -48 -35.5 -93.5t-102.5 -68.5z" />
    <glyph glyph-name="kgreenlandic" unicode="&#x138;" horiz-adv-x="541" 
d="M20 0v6q40 0 55 15.5t15 53.5v248q0 38 -15 53.5t-55 15.5v6l184 20v-242l94 94q61 59 61 93q0 38 -65 38v7h232v-7q-64 0 -121 -43q-33 -23 -79 -69l-10 -10l141 -210q43 -63 99 -63v-6h-182l-136 199l-34 -33v-91q0 -38 15 -53.5t55 -15.5v-6h-254z" />
    <glyph glyph-name="Lacute" unicode="&#x139;" horiz-adv-x="592" 
d="M29 0v6q56 0 73 19t17 75v417q0 56 -17 75t-73 19v7h315v-7q-59 0 -79.5 -20.5t-20.5 -78.5v-505h64q115 0 172 54.5t79 151.5l5 -1l-14 -212h-521zM158 673l-2 2l36 51.5l33 47.5l25 34t21 24q18 16 37 16t32 -15q12 -14 9 -33t-21 -34q-11 -10 -32 -21.5l-69 -36z" />
    <glyph glyph-name="lacute" unicode="&#x13a;" horiz-adv-x="282" 
d="M14 0v6q40 0 55 15.5t15 53.5v498q0 38 -15 53.5t-55 15.5v6l184 20v-593q0 -38 15 -53.5t55 -15.5v-6h-254zM52 703l-2 2l45.5 65.5l43.5 62t26 29.5q18 16 37.5 16t31.5 -15q12 -13 9.5 -32.5t-20.5 -34.5q-11 -9 -33 -21l-67.5 -35.5z" />
    <glyph glyph-name="uni013B" unicode="&#x13b;" horiz-adv-x="592" 
d="M29 0v6q56 0 73 19t17 75v417q0 56 -17 75t-73 19v7h315v-7q-59 0 -79.5 -20.5t-20.5 -78.5v-505h64q115 0 172 54.5t79 151.5l5 -1l-14 -212h-521zM257 -319l-3 5q44 15 75 51t32 77q-14 -11 -34 -11q-24 0 -41 17t-17 40q0 24 18 41t45 17q29 0 46.5 -21t17.5 -54
q0 -48 -36 -93t-103 -69z" />
    <glyph glyph-name="uni013C" unicode="&#x13c;" horiz-adv-x="282" 
d="M14 0v6q40 0 55 15.5t15 53.5v498q0 38 -15 53.5t-55 15.5v6l184 20v-593q0 -38 15 -53.5t55 -15.5v-6h-254zM69 -319l-3 5q44 15 75 51t32 77q-16 -11 -34 -11q-24 0 -41 17t-17 40q0 24 17.5 41t44.5 17q30 0 47 -21t17 -54q0 -48 -35.5 -93.5t-102.5 -68.5z" />
    <glyph glyph-name="Lcaron" unicode="&#x13d;" horiz-adv-x="594" 
d="M431 418l-3 1q1 20 3 53.5t3 52.5t3.5 38.5t5.5 28.5q6 19 23.5 29.5t35.5 3.5t24.5 -25t-1.5 -37q-3 -7 -9 -18t-16 -26.5l-19.5 -29l-24.5 -35.5zM29 0v6q56 0 73 19t17 75v417q0 56 -17 75t-73 19v7h315v-7q-59 0 -79.5 -20.5t-20.5 -78.5v-505h64q115 0 172 54.5
t79 151.5l5 -1l-14 -212h-521z" />
    <glyph glyph-name="lcaron" unicode="&#x13e;" horiz-adv-x="296" 
d="M269 453l-3 1q1 20 3 53.5t3 52.5t3.5 38.5t5.5 28.5q6 19 23.5 29.5t35.5 3.5t24.5 -25t-1.5 -37q-3 -7 -9 -18t-16 -26.5l-19.5 -29l-24.5 -35.5zM14 0v6q40 0 55 15.5t15 53.5v498q0 38 -15 53.5t-55 15.5v6l184 20v-593q0 -38 15 -53.5t55 -15.5v-6h-254z" />
    <glyph glyph-name="Ldot" unicode="&#x13f;" horiz-adv-x="592" 
d="M29 0v6q56 0 73 19t17 75v417q0 56 -17 75t-73 19v7h315v-7q-59 0 -79.5 -20.5t-20.5 -78.5v-505h64q115 0 172 54.5t79 151.5l5 -1l-14 -212h-521zM458 294q-27 0 -45.5 19t-18.5 45t18.5 45t45.5 19q26 0 45 -19t19 -45t-19 -45t-45 -19z" />
    <glyph glyph-name="ldot" unicode="&#x140;" horiz-adv-x="364" 
d="M14 0v6q40 0 55 15.5t15 53.5v498q0 38 -15 53.5t-55 15.5v6l184 20v-593q0 -38 15 -53.5t55 -15.5v-6h-254zM322 234q-26 0 -45 19t-19 45t19 45t45 19t45 -19t19 -45t-19 -45t-45 -19z" />
    <glyph glyph-name="Lslash" unicode="&#x141;" horiz-adv-x="593" 
d="M30 252l-3 9l93 34v222q0 56 -17 75t-73 19v7h315v-7q-59 0 -79.5 -20.5t-20.5 -78.5v-173l147 54l3 -9l-150 -55v-322h64q115 0 172 54.5t79 151.5l5 -1l-14 -212h-521v6q56 0 73 19t17 75v185z" />
    <glyph glyph-name="lslash" unicode="&#x142;" horiz-adv-x="289" 
d="M12 254l-4 8l80 37v274q0 38 -15 53.5t-55 15.5v6l184 20v-319l78 36l4 -8l-82 -38v-264q0 -38 15 -53.5t55 -15.5v-6h-254v6q40 0 55 15.5t15 53.5v214z" />
    <glyph glyph-name="Nacute" unicode="&#x143;" horiz-adv-x="724" 
d="M15 0v6q30 0 50 4.5t34.5 21t22 35.5t12 60.5t5.5 82.5t1 115v135q0 80 -25 115.5t-95 35.5v7h202l364 -425v99q0 74 -1 115t-5.5 82.5t-12 60.5t-22 35.5t-34.5 21t-50 4.5v7h260v-7q-30 0 -50 -4.5t-34.5 -21t-22 -35.5t-12 -60.5t-5.5 -82.5t-1 -115v-297l-5 -2
l-441 512v-180q0 -74 1 -115t5.5 -82.5t12 -60.5t22 -35.5t34.5 -21t50 -4.5v-6h-260zM323 673l-2 2l36 51.5l33 47.5l25 34t21 24q18 16 37 16t32 -15q12 -14 9 -33t-21 -34q-11 -10 -32 -21.5l-69 -36z" />
    <glyph glyph-name="nacute" unicode="&#x144;" horiz-adv-x="564" 
d="M20 0v6q40 0 55 15.5t15 53.5v248q0 38 -15 53.5t-55 15.5v6l182 20v-85q81 86 163 86q52 0 85.5 -32.5t33.5 -99.5v-212q0 -38 15 -53.5t55 -15.5v-6h-249v6q36 0 50.5 15.5t14.5 53.5v221q0 82 -66 82q-47 0 -100 -53v-250q0 -38 14.5 -53.5t50.5 -15.5v-6h-249z
M209 473l-2 2l36 51.5l33 47.5l25 34t21 24q18 16 37 16t32 -15q12 -14 9 -33t-21 -34q-11 -10 -32 -21.5l-69 -36z" />
    <glyph glyph-name="uni0145" unicode="&#x145;" horiz-adv-x="724" 
d="M15 0v6q30 0 50 4.5t34.5 21t22 35.5t12 60.5t5.5 82.5t1 115v135q0 80 -25 115.5t-95 35.5v7h202l364 -425v99q0 74 -1 115t-5.5 82.5t-12 60.5t-22 35.5t-34.5 21t-50 4.5v7h260v-7q-30 0 -50 -4.5t-34.5 -21t-22 -35.5t-12 -60.5t-5.5 -82.5t-1 -115v-297l-5 -2
l-441 512v-180q0 -74 1 -115t5.5 -82.5t12 -60.5t22 -35.5t34.5 -21t50 -4.5v-6h-260zM304 -319l-3 5q44 15 75 51t32 77q-16 -11 -34 -11q-24 0 -41 17t-17 40q0 24 17.5 41t44.5 17q30 0 47 -21t17 -54q0 -48 -35.5 -93.5t-102.5 -68.5z" />
    <glyph glyph-name="uni0146" unicode="&#x146;" horiz-adv-x="564" 
d="M20 0v6q40 0 55 15.5t15 53.5v248q0 38 -15 53.5t-55 15.5v6l182 20v-85q81 86 163 86q52 0 85.5 -32.5t33.5 -99.5v-212q0 -38 15 -53.5t55 -15.5v-6h-249v6q36 0 50.5 15.5t14.5 53.5v221q0 82 -66 82q-47 0 -100 -53v-250q0 -38 14.5 -53.5t50.5 -15.5v-6h-249z
M218 -319l-3 5q44 15 75 51t32 77q-16 -11 -34 -11q-24 0 -41 17t-17 40q0 24 17.5 41t44.5 17q30 0 47 -21t17 -54q0 -48 -35.5 -93.5t-102.5 -68.5z" />
    <glyph glyph-name="Ncaron" unicode="&#x147;" horiz-adv-x="724" 
d="M15 0v6q30 0 50 4.5t34.5 21t22 35.5t12 60.5t5.5 82.5t1 115v135q0 80 -25 115.5t-95 35.5v7h202l364 -425v99q0 74 -1 115t-5.5 82.5t-12 60.5t-22 35.5t-34.5 21t-50 4.5v7h260v-7q-30 0 -50 -4.5t-34.5 -21t-22 -35.5t-12 -60.5t-5.5 -82.5t-1 -115v-297l-5 -2
l-441 512v-180q0 -74 1 -115t5.5 -82.5t12 -60.5t22 -35.5t34.5 -21t50 -4.5v-6h-260zM383 665q-21 0 -36 20l-111 144l2 2l145 -80l146 80l2 -2l-112 -144q-14 -20 -36 -20z" />
    <glyph glyph-name="ncaron" unicode="&#x148;" horiz-adv-x="564" 
d="M20 0v6q40 0 55 15.5t15 53.5v248q0 38 -15 53.5t-55 15.5v6l182 20v-85q81 86 163 86q52 0 85.5 -32.5t33.5 -99.5v-212q0 -38 15 -53.5t55 -15.5v-6h-249v6q36 0 50.5 15.5t14.5 53.5v221q0 82 -66 82q-47 0 -100 -53v-250q0 -38 14.5 -53.5t50.5 -15.5v-6h-249z
M286 465q-21 0 -36 20l-111 144l2 2l145 -80l146 80l2 -2l-112 -144q-14 -20 -36 -20z" />
    <glyph glyph-name="Eng" unicode="&#x14a;" horiz-adv-x="724" 
d="M15 0v6q30 0 50 4.5t34.5 21t22 35.5t12 60.5t5.5 82.5t1 115v135q0 80 -25 115.5t-95 35.5v7h202l364 -425v99q0 74 -1 115t-5.5 82.5t-12 60.5t-22 35.5t-34.5 21t-50 4.5v7h260v-7q-30 0 -50 -4.5t-34.5 -21t-22 -35.5t-12 -60.5t-5.5 -82.5t-1 -115v-246
q0 -80 -62 -134t-161 -79l-3 5q81 30 114 76t33 112v50l-367 429v-180q0 -74 1 -115t5.5 -82.5t12 -60.5t22 -35.5t34.5 -21t50 -4.5v-6h-260z" />
    <glyph glyph-name="eng" unicode="&#x14b;" horiz-adv-x="546" 
d="M21 0v6q40 0 55 15.5t15 53.5v248q0 38 -15 53.5t-55 15.5v6l181 20v-85q84 86 164 86q51 0 85 -33t34 -99v-272q0 -130 -198 -191l-3 3q31 17 49.5 35.5t26 42t9.5 41t2 48.5v302q0 82 -66 82q-49 0 -100 -53v-250q0 -38 14.5 -53.5t50.5 -15.5v-6h-249z" />
    <glyph glyph-name="Omacron" unicode="&#x14c;" horiz-adv-x="757" 
d="M378 -12q-146 0 -241 91.5t-95 229.5t95 229.5t241 91.5t241 -91.5t95 -229.5t-95 -229.5t-241 -91.5zM378 -4q55 0 96 26t63 71.5t32 99t10 116.5t-10 116t-32 98.5t-62.5 71.5t-96.5 26t-96.5 -26t-62 -71.5t-31.5 -98.5t-10 -116t10 -116t32 -99t62.5 -72t95.5 -26z
M239 700v34h278v-34h-278z" />
    <glyph glyph-name="omacron" unicode="&#x14d;" horiz-adv-x="531" 
d="M265 -11q-94 0 -161 58t-67 157t67 157t161 58t161 -58t67 -157t-67 -157t-161 -58zM265 -3q106 0 106 207t-106 207q-105 0 -105 -207t105 -207zM126 500v34h279v-34h-279z" />
    <glyph glyph-name="Obreve" unicode="&#x14e;" horiz-adv-x="757" 
d="M378 -12q-146 0 -241 91.5t-95 229.5t95 229.5t241 91.5t241 -91.5t95 -229.5t-95 -229.5t-241 -91.5zM378 -4q55 0 96 26t63 71.5t32 99t10 116.5t-10 116t-32 98.5t-62.5 71.5t-96.5 26t-96.5 -26t-62 -71.5t-31.5 -98.5t-10 -116t10 -116t32 -99t62.5 -72t95.5 -26z
M378 676q-34 0 -59 16.5t-37.5 42.5t-18 52t-5.5 53h3q19 -83 117 -83t117 83h2q0 -27 -5.5 -53t-17.5 -52t-37 -42.5t-59 -16.5z" />
    <glyph glyph-name="obreve" unicode="&#x14f;" horiz-adv-x="531" 
d="M265 -11q-94 0 -161 58t-67 157t67 157t161 58t161 -58t67 -157t-67 -157t-161 -58zM265 -3q106 0 106 207t-106 207q-105 0 -105 -207t105 -207zM265 476q-34 0 -59 16.5t-37 42.5t-17.5 52t-5.5 53h2q19 -83 117 -83t117 83h3q0 -27 -5.5 -53t-18 -52t-37.5 -42.5
t-59 -16.5z" />
    <glyph glyph-name="Ohungarumlaut" unicode="&#x150;" horiz-adv-x="757" 
d="M378 -12q-146 0 -241 91.5t-95 229.5t95 229.5t241 91.5t241 -91.5t95 -229.5t-95 -229.5t-241 -91.5zM378 -4q55 0 96 26t63 71.5t32 99t10 116.5t-10 116t-32 98.5t-62.5 71.5t-96.5 26t-96.5 -26t-62 -71.5t-31.5 -98.5t-10 -116t10 -116t32 -99t62.5 -72t95.5 -26z
M262 671l-2 1l23 52l22 49t17 34t15 25q12 17 29.5 20t30.5 -7q32 -25 3 -61q-6 -8 -21 -21t-29 -24l-42.5 -33zM424 671l-2 1l23 52l22 49t17 34t15 25q12 17 29.5 20t30.5 -7q32 -25 3 -61q-6 -8 -21 -21t-29 -24l-42.5 -33z" />
    <glyph glyph-name="ohungarumlaut" unicode="&#x151;" horiz-adv-x="531" 
d="M265 -11q-94 0 -161 58t-67 157t67 157t161 58t161 -58t67 -157t-67 -157t-161 -58zM265 -3q106 0 106 207t-106 207q-105 0 -105 -207t105 -207zM142 471l-2 1q10 21 23.5 52l21.5 48.5l16.5 34.5t14.5 25q13 17 30.5 20t29.5 -7q32 -24 4 -61q-6 -8 -21 -21t-29 -24
l-42.5 -33zM304 471l-2 1q65 146 76 160q13 17 30.5 20t29.5 -7q32 -24 4 -61q-9 -10 -26.5 -25t-55.5 -44t-56 -44z" />
    <glyph glyph-name="OE" unicode="&#x152;" horiz-adv-x="1039" 
d="M378 -12q-147 0 -241 90t-94 231t94.5 231t240.5 90q16 0 78 -6t80 -6h428l14 -193l-5 -1q-21 94 -75.5 140t-172.5 46h-72v-298h23q90 0 132.5 33t56.5 105h5v-283h-5q-14 72 -56.5 104.5t-132.5 32.5h-23v-297h81q63 0 108 15.5t72.5 46t42 61.5t27.5 77l5 -1l-19 -206
h-433q-16 0 -78.5 -6t-80.5 -6zM378 -4q150 0 150 114v397q0 114 -150 114q-56 0 -96.5 -26t-62 -71.5t-31.5 -98.5t-10 -116t10 -116t31.5 -99t62 -72t96.5 -26z" />
    <glyph glyph-name="oe" unicode="&#x153;" horiz-adv-x="822" 
d="M266 -11q-96 0 -162.5 58t-66.5 157t66.5 157t162.5 58q106 0 166 -72q58 72 158 72q84 0 139 -50.5t56 -141.5h-294q-2 -101 34.5 -159t105.5 -58q92 0 147 94l6 -4q-67 -111 -196 -111q-104 0 -158 68q-60 -68 -164 -68zM266 -3q106 0 106 207t-106 207t-106 -207
t106 -207zM587 412q-43 0 -67.5 -52t-27.5 -124h179q-1 26 -3.5 50.5t-10.5 56t-26 50.5t-44 19z" />
    <glyph glyph-name="Racute" unicode="&#x154;" horiz-adv-x="695" 
d="M29 0v6q56 0 73 19t17 75v417q0 56 -17 75t-73 19v7h309q135 0 204.5 -42t69.5 -120q0 -147 -250 -156v-4q45 -1 77.5 -4.5t55 -14t36 -20t23.5 -30t14.5 -35.5t13 -46.5t15.5 -52.5q16 -50 35.5 -68.5t62.5 -18.5v-6h-195q-18 35 -36 105q-4 14 -11 42l-9.5 38t-9 30
t-10.5 26.5t-12.5 19t-16.5 16t-20.5 9.5t-27.5 7.5t-34 1.5h-69v-195q0 -56 17 -75t73 -19v-6h-305zM244 302h79q79 0 119.5 43.5t40.5 111.5t-41 110.5t-123 42.5h-75v-308zM275 673l-2 2l46 65.5l42.5 61t26.5 30.5q18 16 37.5 16t31.5 -15q12 -14 9.5 -33t-20.5 -34
q-9 -7 -27.5 -18t-35.5 -20l-52 -26.5z" />
    <glyph glyph-name="racute" unicode="&#x155;" horiz-adv-x="415" 
d="M20 0v6q40 0 55 16.5t15 54.5v244q0 38 -15 54.5t-55 16.5v6l182 20v-130q19 55 54 93t79 38q33 0 51 -20t18 -48t-19 -47t-45 -19q-29 0 -48.5 21.5t-15.5 51.5q-47 -17 -72 -77v-204q0 -39 17 -55t58 -16v-6h-259zM155 473l-2 2l46 65.5l42.5 61t26.5 30.5
q18 16 37.5 16t31.5 -15q12 -14 9.5 -33t-20.5 -34q-9 -7 -27.5 -18t-35.5 -20l-52 -26.5z" />
    <glyph glyph-name="uni0156" unicode="&#x156;" horiz-adv-x="695" 
d="M29 0v6q56 0 73 19t17 75v417q0 56 -17 75t-73 19v7h309q135 0 204.5 -42t69.5 -120q0 -147 -250 -156v-4q45 -1 77.5 -4.5t55 -14t36 -20t23.5 -30t14.5 -35.5t13 -46.5t15.5 -52.5q16 -50 35.5 -68.5t62.5 -18.5v-6h-195q-18 35 -36 105q-4 14 -11 42l-9.5 38t-9 30
t-10.5 26.5t-12.5 19t-16.5 16t-20.5 9.5t-27.5 7.5t-34 1.5h-69v-195q0 -56 17 -75t73 -19v-6h-305zM244 302h79q79 0 119.5 43.5t40.5 111.5t-41 110.5t-123 42.5h-75v-308zM299 -319l-3 5q44 15 75 51t32 77q-14 -11 -34 -11q-24 0 -41 17t-17 40q0 24 18 41t45 17
q29 0 46.5 -21t17.5 -54q0 -48 -36 -93t-103 -69z" />
    <glyph glyph-name="uni0157" unicode="&#x157;" horiz-adv-x="415" 
d="M20 0v6q40 0 55 16.5t15 54.5v244q0 38 -15 54.5t-55 16.5v6l182 20v-130q19 55 54 93t79 38q33 0 51 -20t18 -48t-19 -47t-45 -19q-29 0 -48.5 21.5t-15.5 51.5q-47 -17 -72 -77v-204q0 -39 17 -55t58 -16v-6h-259zM74 -319l-3 5q44 15 75 51t32 77q-14 -11 -34 -11
q-24 0 -41 17t-17 40q0 24 18 41t45 17q29 0 46.5 -21t17.5 -54q0 -48 -36 -93t-103 -69z" />
    <glyph glyph-name="Rcaron" unicode="&#x158;" horiz-adv-x="695" 
d="M29 0v6q56 0 73 19t17 75v417q0 56 -17 75t-73 19v7h309q135 0 204.5 -42t69.5 -120q0 -147 -250 -156v-4q45 -1 77.5 -4.5t55 -14t36 -20t23.5 -30t14.5 -35.5t13 -46.5t15.5 -52.5q16 -50 35.5 -68.5t62.5 -18.5v-6h-195q-18 35 -36 105q-4 14 -11 42l-9.5 38t-9 30
t-10.5 26.5t-12.5 19t-16.5 16t-20.5 9.5t-27.5 7.5t-34 1.5h-69v-195q0 -56 17 -75t73 -19v-6h-305zM244 302h79q79 0 119.5 43.5t40.5 111.5t-41 110.5t-123 42.5h-75v-308zM343 665q-22 0 -36 20l-112 144l2 2l146 -80l145 80l2 -2l-111 -144q-15 -20 -36 -20z" />
    <glyph glyph-name="rcaron" unicode="&#x159;" horiz-adv-x="415" 
d="M20 0v6q40 0 55 16.5t15 54.5v244q0 38 -15 54.5t-55 16.5v6l182 20v-130q19 55 54 93t79 38q33 0 51 -20t18 -48t-19 -47t-45 -19q-29 0 -48.5 21.5t-15.5 51.5q-47 -17 -72 -77v-204q0 -39 17 -55t58 -16v-6h-259zM224 465q-21 0 -36 20l-111 144l2 2l145 -80l146 80
l2 -2l-112 -144q-14 -20 -36 -20z" />
    <glyph glyph-name="Sacute" unicode="&#x15a;" horiz-adv-x="568" 
d="M275 -12q-88 0 -209 26l-11 188l6 1q16 -41 24.5 -61t28 -53.5t39 -50t52 -30t72.5 -13.5q71 0 107.5 34t36.5 85q0 49 -37 82t-89.5 52.5l-105 41t-89.5 63.5t-37 105q0 79 56 125.5t164 46.5q30 0 71.5 -4.5t61.5 -5.5t63 5l12 -194l-5 -1q-14 36 -22 54t-27 49.5
t-37.5 47.5t-48 29t-65.5 13q-61 0 -94 -31.5t-33 -78.5t37 -78.5t90 -51t106 -42t90 -65.5t37 -107q0 -84 -62.5 -132.5t-181.5 -48.5zM234 673l-2 2l46 65.5l42.5 61t26.5 30.5q18 16 37.5 16t31.5 -15q12 -14 9.5 -33t-20.5 -34q-9 -7 -27.5 -18t-35.5 -20l-52 -26.5z
" />
    <glyph glyph-name="sacute" unicode="&#x15b;" horiz-adv-x="425" 
d="M206 -11q-66 0 -154 18l-6 128l5 1q12 -28 18.5 -41t21 -36t28.5 -34.5t36.5 -20.5t48.5 -9q47 0 69 22.5t22 51.5q0 31 -25 51t-61.5 32.5t-72.5 27t-61 43.5t-25 73q0 57 42 90t121 33q22 0 52.5 -3t45.5 -4t46 4l7 -134l-5 -1q-11 26 -22 45t-28 41t-40.5 34t-51.5 12
q-39 0 -59.5 -21t-20.5 -49q0 -29 25.5 -49t61.5 -32.5t72.5 -27.5t62 -44.5t25.5 -72.5q0 -60 -46.5 -94t-131.5 -34zM141 473l-2 2l36 51.5l33 47.5l25 34t21 24q18 16 37 16t32 -15q12 -14 9 -33t-21 -34q-11 -10 -32 -21.5l-69 -36z" />
    <glyph glyph-name="Scircumflex" unicode="&#x15c;" horiz-adv-x="568" 
d="M275 -12q-88 0 -209 26l-11 188l6 1q16 -41 24.5 -61t28 -53.5t39 -50t52 -30t72.5 -13.5q71 0 107.5 34t36.5 85q0 49 -37 82t-89.5 52.5l-105 41t-89.5 63.5t-37 105q0 79 56 125.5t164 46.5q30 0 71.5 -4.5t61.5 -5.5t63 5l12 -194l-5 -1q-14 36 -22 54t-27 49.5
t-37.5 47.5t-48 29t-65.5 13q-61 0 -94 -31.5t-33 -78.5t37 -78.5t90 -51t106 -42t90 -65.5t37 -107q0 -84 -62.5 -132.5t-181.5 -48.5zM146 666l-2 2l111 144q15 20 36 20q22 0 36 -20l112 -144l-2 -2l-146 80z" />
    <glyph glyph-name="scircumflex" unicode="&#x15d;" horiz-adv-x="425" 
d="M206 -11q-66 0 -154 18l-6 128l5 1q12 -28 18.5 -41t21 -36t28.5 -34.5t36.5 -20.5t48.5 -9q47 0 69 22.5t22 51.5q0 31 -25 51t-61.5 32.5t-72.5 27t-61 43.5t-25 73q0 57 42 90t121 33q22 0 52.5 -3t45.5 -4t46 4l7 -134l-5 -1q-11 26 -22 45t-28 41t-40.5 34t-51.5 12
q-39 0 -59.5 -21t-20.5 -49q0 -29 25.5 -49t61.5 -32.5t72.5 -27.5t62 -44.5t25.5 -72.5q0 -60 -46.5 -94t-131.5 -34zM69 466l-2 2l112 144q14 20 36 20q21 0 36 -20l111 -144l-2 -2l-145 80z" />
    <glyph glyph-name="Scedilla" unicode="&#x15e;" horiz-adv-x="568" 
d="M267 -219q-71 0 -116 32l3 5q35 -22 78 -22q36 0 57.5 20t21.5 51q0 28 -16.5 46t-46.5 18q-18 0 -38 -8l-2 2l57 63q-79 1 -199 26l-11 188l6 1q16 -41 24.5 -61t28 -53.5t39 -50t52 -30t72.5 -13.5q71 0 107.5 34t36.5 85q0 49 -37 82t-89.5 52.5l-105 41t-89.5 63.5
t-37 105q0 79 56 125.5t164 46.5q30 0 71.5 -4.5t61.5 -5.5t63 5l12 -194l-5 -1q-14 36 -22 54t-27 49.5t-37.5 47.5t-48 29t-65.5 13q-61 0 -94 -31.5t-33 -78.5t37 -78.5t90 -51t106 -42t90 -65.5t37 -107q0 -84 -61.5 -132t-181.5 -49l-47 -52q23 7 55 7q52 0 83 -20.5
t31 -57.5q0 -43 -39 -63.5t-92 -20.5z" />
    <glyph glyph-name="scedilla" unicode="&#x15f;" horiz-adv-x="425" 
d="M189 -219q-71 0 -116 32l3 5q35 -22 78 -22q36 0 57.5 20t21.5 51q0 28 -16.5 46t-46.5 18q-18 0 -38 -8l-2 2l59 64q-59 2 -137 18l-6 128l5 1q12 -28 18.5 -41t21 -36t28.5 -34.5t36.5 -20.5t48.5 -9q47 0 69 22.5t22 51.5q0 31 -25 51t-61.5 32.5t-72.5 27t-61 43.5
t-25 73q0 57 42 90t121 33q22 0 52.5 -3t45.5 -4t46 4l7 -134l-5 -1q-11 26 -22 45t-28 41t-40.5 34t-51.5 12q-39 0 -59.5 -21t-20.5 -49q0 -29 25.5 -49t61.5 -32.5t72.5 -27.5t62 -44.5t25.5 -72.5q0 -61 -47.5 -95t-137.5 -33l-48 -53q23 7 55 7q52 0 83 -20.5t31 -57.5
q0 -43 -39 -63.5t-92 -20.5z" />
    <glyph glyph-name="Scaron" unicode="&#x160;" horiz-adv-x="568" 
d="M275 -12q-88 0 -209 26l-11 188l6 1q16 -41 24.5 -61t28 -53.5t39 -50t52 -30t72.5 -13.5q71 0 107.5 34t36.5 85q0 49 -37 82t-89.5 52.5l-105 41t-89.5 63.5t-37 105q0 79 56 125.5t164 46.5q30 0 71.5 -4.5t61.5 -5.5t63 5l12 -194l-5 -1q-14 36 -22 54t-27 49.5
t-37.5 47.5t-48 29t-65.5 13q-61 0 -94 -31.5t-33 -78.5t37 -78.5t90 -51t106 -42t90 -65.5t37 -107q0 -84 -62.5 -132.5t-181.5 -48.5zM292 675q-22 0 -36 20l-112 144l2 2l146 -80l145 80l2 -2l-111 -144q-15 -20 -36 -20z" />
    <glyph glyph-name="scaron" unicode="&#x161;" horiz-adv-x="425" 
d="M206 -11q-66 0 -154 18l-6 128l5 1q12 -28 18.5 -41t21 -36t28.5 -34.5t36.5 -20.5t48.5 -9q47 0 69 22.5t22 51.5q0 31 -25 51t-61.5 32.5t-72.5 27t-61 43.5t-25 73q0 57 42 90t121 33q22 0 52.5 -3t45.5 -4t46 4l7 -134l-5 -1q-11 26 -22 45t-28 41t-40.5 34t-51.5 12
q-39 0 -59.5 -21t-20.5 -49q0 -29 25.5 -49t61.5 -32.5t72.5 -27.5t62 -44.5t25.5 -72.5q0 -60 -46.5 -94t-131.5 -34zM213 465q-21 0 -36 20l-111 144l2 2l145 -80l146 80l2 -2l-112 -144q-14 -20 -36 -20z" />
    <glyph glyph-name="uni0162" unicode="&#x162;" horiz-adv-x="652" 
d="M164 0v6q58 0 79 20.5t21 78.5v505h-8q-55 0 -94 -16t-63 -49t-37 -64t-27 -81l-6 1l18 217h558l18 -217l-6 -1q-14 50 -27 81t-37 64t-63 49t-94 16h-8v-505q0 -58 21 -78.5t79 -20.5v-6h-173l-49 -54q23 7 55 7q52 0 83 -20.5t31 -57.5q0 -43 -39 -63.5t-92 -20.5
q-69 0 -116 32l4 5q33 -22 77 -22q37 0 58 20t21 51q0 28 -16.5 46t-46.5 18q-17 0 -37 -8l-3 2l60 65h-141z" />
    <glyph glyph-name="uni0163" unicode="&#x163;" horiz-adv-x="340" 
d="M180 -219q-69 0 -116 32l4 5q33 -22 77 -22q37 0 58 20t21 51q0 28 -16.5 46t-46.5 18q-17 0 -37 -8l-3 2l61 66q-45 6 -71 36.5t-26 84.5v284h-71v12h71v106l114 21v-127h124v-12h-124v-299q0 -77 55 -77q46 0 90 57l5 -4q-73 -90 -157 -82l-50 -55q23 7 55 7
q52 0 83 -20.5t31 -57.5q0 -43 -39 -63.5t-92 -20.5z" />
    <glyph glyph-name="Tcaron" unicode="&#x164;" horiz-adv-x="652" 
d="M164 0v6q58 0 79 20.5t21 78.5v505h-8q-55 0 -94 -16t-63 -49t-37 -64t-27 -81l-6 1l18 217h558l18 -217l-6 -1q-14 50 -27 81t-37 64t-63 49t-94 16h-8v-505q0 -58 21 -78.5t79 -20.5v-6h-324zM326 665q-21 0 -36 20l-111 144l2 2l145 -80l146 80l2 -2l-112 -144
q-14 -20 -36 -20z" />
    <glyph glyph-name="tcaron" unicode="&#x165;" horiz-adv-x="340" 
d="M270 471l-3 1q2 25 4.5 68.5t4.5 68t6 36.5q7 19 24 29.5t35 3.5q18 -6 25 -24t-1 -38t-95 -145zM202 -10q-53 0 -85 31.5t-32 90.5v284h-71v12h71v106l114 21v-127h124v-12h-124v-299q0 -77 55 -77q46 0 90 57l5 -4q-66 -83 -147 -83z" />
    <glyph glyph-name="Tbar" unicode="&#x166;" horiz-adv-x="653" 
d="M125 298v9h139v303h-7q-55 0 -94 -16t-63.5 -49t-37.5 -64t-27 -81l-5 1l17 217h559l17 -217l-5 -1q-14 50 -27 81t-37.5 64t-63.5 49t-94 16h-7v-303h140v-9h-140v-193q0 -58 21 -78.5t79 -20.5v-6h-325v6q58 0 79 20.5t21 78.5v193h-139z" />
    <glyph glyph-name="tbar" unicode="&#x167;" horiz-adv-x="341" 
d="M20 238v9h65v149h-70v12h70v106l114 21v-127h125v-12h-125v-149h116v-9h-116v-141q0 -77 56 -77q44 0 90 57l5 -4q-68 -83 -147 -83q-54 0 -86 31.5t-32 90.5v126h-65z" />
    <glyph glyph-name="Utilde" unicode="&#x168;" horiz-adv-x="698" 
d="M354 -12q-108 0 -177.5 53.5t-69.5 167.5v300q0 57 -17 79.5t-73 22.5v7h305v-7q-56 0 -73 -22.5t-17 -79.5v-322q0 -184 155 -184q83 0 132.5 51.5t49.5 148.5v101q0 84 -2 130.5t-8.5 86.5t-21 56.5t-36 25t-56.5 8.5v7h258v-7q-84 0 -104 -55.5t-20 -251.5v-101
q0 -105 -58 -160t-167 -55zM225 686q2 21 4 36t7.5 36.5t13.5 35t22.5 23.5t33.5 10q26 0 78.5 -27t79.5 -27q29 0 39.5 16.5t14.5 44.5l5 -1q-4 -39 -10 -65.5t-24.5 -50.5t-47.5 -24q-26 0 -78.5 27t-79.5 27q-29 0 -39.5 -17t-13.5 -44h-5z" />
    <glyph glyph-name="utilde" unicode="&#x169;" 
d="M199 -11q-52 0 -85.5 32.5t-33.5 99.5v200q0 38 -15 54.5t-55 16.5v6l184 20v-306q0 -82 66 -82q46 0 100 52v239q0 38 -14.5 54.5t-50.5 16.5v6l179 20v-341q0 -38 15 -54.5t55 -16.5v-6h-182v74q-83 -85 -163 -85zM122 486q2 21 4 36t7.5 36.5t13.5 35t22.5 23.5
t33.5 10q26 0 78.5 -27t79.5 -27q29 0 39.5 16.5t14.5 44.5l5 -1q-4 -39 -10 -65.5t-24.5 -50.5t-47.5 -24q-26 0 -78.5 27t-79.5 27q-29 0 -39.5 -17t-13.5 -44h-5z" />
    <glyph glyph-name="Umacron" unicode="&#x16a;" horiz-adv-x="698" 
d="M354 -12q-108 0 -177.5 53.5t-69.5 167.5v300q0 57 -17 79.5t-73 22.5v7h305v-7q-56 0 -73 -22.5t-17 -79.5v-322q0 -184 155 -184q83 0 132.5 51.5t49.5 148.5v101q0 84 -2 130.5t-8.5 86.5t-21 56.5t-36 25t-56.5 8.5v7h258v-7q-84 0 -104 -55.5t-20 -251.5v-101
q0 -105 -58 -160t-167 -55zM232 700v34h279v-34h-279z" />
    <glyph glyph-name="umacron" unicode="&#x16b;" 
d="M199 -11q-52 0 -85.5 32.5t-33.5 99.5v200q0 38 -15 54.5t-55 16.5v6l184 20v-306q0 -82 66 -82q46 0 100 52v239q0 38 -14.5 54.5t-50.5 16.5v6l179 20v-341q0 -38 15 -54.5t55 -16.5v-6h-182v74q-83 -85 -163 -85zM125 500v34h279v-34h-279z" />
    <glyph glyph-name="Ubreve" unicode="&#x16c;" horiz-adv-x="698" 
d="M354 -12q-108 0 -177.5 53.5t-69.5 167.5v300q0 57 -17 79.5t-73 22.5v7h305v-7q-56 0 -73 -22.5t-17 -79.5v-322q0 -184 155 -184q83 0 132.5 51.5t49.5 148.5v101q0 84 -2 130.5t-8.5 86.5t-21 56.5t-36 25t-56.5 8.5v7h258v-7q-84 0 -104 -55.5t-20 -251.5v-101
q0 -105 -58 -160t-167 -55zM371 676q-34 0 -59 16.5t-37.5 42.5t-18 52t-5.5 53h3q19 -83 117 -83t117 83h2q0 -27 -5.5 -53t-17.5 -52t-37 -42.5t-59 -16.5z" />
    <glyph glyph-name="ubreve" unicode="&#x16d;" 
d="M199 -11q-52 0 -85.5 32.5t-33.5 99.5v200q0 38 -15 54.5t-55 16.5v6l184 20v-306q0 -82 66 -82q46 0 100 52v239q0 38 -14.5 54.5t-50.5 16.5v6l179 20v-341q0 -38 15 -54.5t55 -16.5v-6h-182v74q-83 -85 -163 -85zM267 476q-34 0 -59 16.5t-37 42.5t-17.5 52t-5.5 53h2
q19 -83 117 -83t117 83h3q0 -27 -5.5 -53t-18 -52t-37.5 -42.5t-59 -16.5z" />
    <glyph glyph-name="Uring" unicode="&#x16e;" horiz-adv-x="698" 
d="M354 -12q-108 0 -177.5 53.5t-69.5 167.5v300q0 57 -17 79.5t-73 22.5v7h305v-7q-56 0 -73 -22.5t-17 -79.5v-322q0 -184 155 -184q83 0 132.5 51.5t49.5 148.5v101q0 84 -2 130.5t-8.5 86.5t-21 56.5t-36 25t-56.5 8.5v7h258v-7q-84 0 -104 -55.5t-20 -251.5v-101
q0 -105 -58 -160t-167 -55zM371 664q-50 0 -82.5 27.5t-32.5 70.5q0 44 32.5 71.5t82.5 27.5t82 -27.5t32 -71.5q0 -43 -32 -70.5t-82 -27.5zM371 668q39 0 39 94t-39 94q-41 0 -41 -94t41 -94z" />
    <glyph glyph-name="uring" unicode="&#x16f;" 
d="M199 -11q-52 0 -85.5 32.5t-33.5 99.5v200q0 38 -15 54.5t-55 16.5v6l184 20v-306q0 -82 66 -82q46 0 100 52v239q0 38 -14.5 54.5t-50.5 16.5v6l179 20v-341q0 -38 15 -54.5t55 -16.5v-6h-182v74q-83 -85 -163 -85zM268 464q-50 0 -82 27.5t-32 70.5q0 44 32 71.5
t82 27.5t82.5 -27.5t32.5 -71.5q0 -43 -32.5 -70.5t-82.5 -27.5zM268 468q40 0 40 94t-40 94t-40 -94t40 -94z" />
    <glyph glyph-name="Uhungarumlaut" unicode="&#x170;" horiz-adv-x="698" 
d="M354 -12q-108 0 -177.5 53.5t-69.5 167.5v300q0 57 -17 79.5t-73 22.5v7h305v-7q-56 0 -73 -22.5t-17 -79.5v-322q0 -184 155 -184q83 0 132.5 51.5t49.5 148.5v101q0 84 -2 130.5t-8.5 86.5t-21 56.5t-36 25t-56.5 8.5v7h258v-7q-84 0 -104 -55.5t-20 -251.5v-101
q0 -105 -58 -160t-167 -55zM248 671l-2 1l23 52l22 49t17 34t15 25q12 17 29.5 20t30.5 -7q32 -25 3 -61q-6 -8 -21 -21t-29 -24l-42.5 -33zM410 671l-2 1l23 52l22 49t17 34t15 25q12 17 29.5 20t30.5 -7q32 -25 3 -61q-6 -8 -21 -21t-29 -24l-42.5 -33z" />
    <glyph glyph-name="uhungarumlaut" unicode="&#x171;" 
d="M199 -11q-52 0 -85.5 32.5t-33.5 99.5v200q0 38 -15 54.5t-55 16.5v6l184 20v-306q0 -82 66 -82q46 0 100 52v239q0 38 -14.5 54.5t-50.5 16.5v6l179 20v-341q0 -38 15 -54.5t55 -16.5v-6h-182v74q-83 -85 -163 -85zM138 471l-2 1q10 21 23.5 52l21.5 48.5l16.5 34.5
t14.5 25q13 17 30.5 20t29.5 -7q32 -24 4 -61q-6 -8 -21 -21t-29 -24l-42.5 -33zM300 471l-2 1q65 146 76 160q13 17 30.5 20t29.5 -7q32 -24 4 -61q-9 -10 -26.5 -25t-55.5 -44t-56 -44z" />
    <glyph glyph-name="Uogonek" unicode="&#x172;" horiz-adv-x="698" 
d="M378 -216q-49 0 -77 21t-28 59q0 25 12 45.5t37 37t42.5 24.5l50.5 22q-24 -5 -61 -5q-108 0 -177.5 53.5t-69.5 167.5v300q0 57 -17 79.5t-73 22.5v7h305v-7q-56 0 -73 -22.5t-17 -79.5v-322q0 -184 155 -184q83 0 132.5 51.5t49.5 148.5v101q0 84 -2.5 131t-8.5 86.5
t-20.5 56t-36 25t-56.5 8.5v7h258v-7q-84 0 -104 -55.5t-20 -251.5v-101q0 -148 -122 -200q-19 -8 -30 -14.5t-28 -20.5t-26 -35.5t-9 -48.5q0 -79 78 -79q26 0 50 8l2 -5q-55 -24 -116 -24z" />
    <glyph glyph-name="uogonek" unicode="&#x173;" 
d="M414 -216q-49 0 -77 21t-28 59q0 16 5 30t16.5 26.5t20.5 21t29 18.5t29 14l32.5 14l28.5 12h-108v74q-83 -85 -163 -85q-52 0 -85.5 32.5t-33.5 99.5v200q0 38 -15 54.5t-55 16.5v6l184 20v-306q0 -82 66 -82q46 0 100 52v239q0 38 -14.5 54.5t-50.5 16.5v6l179 20v-341
q0 -38 15 -54.5t55 -16.5v-6h-58q-40 -21 -63 -47t-23 -70q0 -78 78 -78q26 0 50 8l2 -5q-55 -24 -116 -24z" />
    <glyph glyph-name="Wcircumflex" unicode="&#x174;" horiz-adv-x="975" 
d="M316 -5l-202 485q-12 29 -21.5 47t-25.5 40t-37.5 33t-48.5 11v7h312v-7q-101 0 -55 -115l137 -344l114 292l-13 36q-24 63 -54.5 97t-75.5 34v7h318v-7q-106 0 -61 -125l118 -328l83 223q37 101 37 154q0 76 -86 76v7h253v-7q-79 0 -124 -72q-20 -33 -71 -163l-145 -381
h-7l-166 433l-172 -433h-7zM361 666l-2 2l111 144q15 20 36 20q22 0 36 -20l112 -144l-2 -2l-146 80z" />
    <glyph glyph-name="wcircumflex" unicode="&#x175;" horiz-adv-x="740" 
d="M245 -7l-150 314q-22 48 -45.5 71t-60.5 23v7h265v-7q-44 0 -53 -22.5t11 -63.5l86 -196l73 177l-8 17q-20 46 -37.5 67t-47.5 21v7h257v-7q-48 0 -60 -22.5t7 -63.5l73 -189l36 93q40 103 40 135q0 47 -62 47v7h188v-7q-66 0 -100 -54q-15 -24 -58 -132l-91 -222h-6
l-125 289l-126 -289h-6zM248 466l-2 2l111 144q15 20 36 20q22 0 36 -20l112 -144l-2 -2l-146 80z" />
    <glyph glyph-name="Ycircumflex" unicode="&#x176;" horiz-adv-x="667" 
d="M178 0v6q59 0 79.5 26t20.5 88v131l-149 244q-35 56 -67.5 86t-72.5 30v7h324v-7q-53 0 -64.5 -29.5t19.5 -80.5l125 -209h2l52 88q76 130 76 172q0 59 -85 59v7h261v-7q-79 0 -133 -65q-22 -26 -112 -171l-52 -87v-168q0 -62 20.5 -88t79.5 -26v-6h-324zM209 666l-2 2
l111 144q15 20 36 20q22 0 36 -20l112 -144l-2 -2l-146 80z" />
    <glyph glyph-name="ycircumflex" unicode="&#x177;" horiz-adv-x="493" 
d="M89 -174q-49 0 -49 39q0 25 25.5 36.5t57.5 13.5t66 17t48 45l8 18l-149 312q-21 47 -45 70.5t-60 23.5v7h277v-7q-49 0 -61 -22.5t8 -63.5l85 -196l36 85q46 114 46 147q0 50 -64 50v7h193v-7q-66 0 -102 -60q-12 -18 -66 -142l-102 -232q-62 -141 -152 -141zM122 466
l-2 2l111 144q15 20 36 20q22 0 36 -20l112 -144l-2 -2l-146 80z" />
    <glyph glyph-name="Ydieresis" unicode="&#x178;" horiz-adv-x="667" 
d="M178 0v6q59 0 79.5 26t20.5 88v131l-149 244q-35 56 -67.5 86t-72.5 30v7h324v-7q-53 0 -64.5 -29.5t19.5 -80.5l125 -209h2l52 88q76 130 76 172q0 59 -85 59v7h261v-7q-79 0 -133 -65q-22 -26 -112 -171l-52 -87v-168q0 -62 20.5 -88t79.5 -26v-6h-324zM268 691
q-25 0 -43 18t-18 43t17.5 43t42.5 18t43 -17.5t18 -43.5q0 -25 -17.5 -43t-42.5 -18zM446 691q-25 0 -43 18t-18 43t17.5 43t42.5 18t43 -17.5t18 -43.5q0 -25 -17.5 -43t-42.5 -18z" />
    <glyph glyph-name="Zacute" unicode="&#x179;" horiz-adv-x="611" 
d="M31 0l-1 2l390 608h-167q-76 0 -125 -56t-74 -142h-5l15 206h501l2 -2l-391 -608h189q138 0 200 204l5 -1l-19 -211h-520zM261 673l-2 2l46 65.5l42.5 61t26.5 30.5q18 16 37.5 16t31.5 -15q12 -14 9.5 -33t-20.5 -34q-9 -7 -27.5 -18t-35.5 -20l-52 -26.5z" />
    <glyph glyph-name="zacute" unicode="&#x17a;" horiz-adv-x="457" 
d="M37 0l-3 3l253 398h-86q-56 0 -95 -47t-58 -110h-6l16 164h354l3 -4l-252 -396h93q101 0 158 154l6 -1l-17 -161h-366zM176 473l-2 2l46 65.5l42.5 61t26.5 30.5q18 16 37.5 16t31.5 -15q12 -14 9.5 -33t-20.5 -34q-9 -7 -27.5 -18t-35.5 -20l-52 -26.5z" />
    <glyph glyph-name="Zdotaccent" unicode="&#x17b;" horiz-adv-x="611" 
d="M31 0l-1 2l390 608h-167q-76 0 -125 -56t-74 -142h-5l15 206h501l2 -2l-391 -608h189q138 0 200 204l5 -1l-19 -211h-520zM320 691q-27 0 -45.5 19t-18.5 45t18.5 45t45.5 19q26 0 45 -19t19 -45t-19 -45t-45 -19z" />
    <glyph glyph-name="zdotaccent" unicode="&#x17c;" horiz-adv-x="457" 
d="M37 0l-3 3l253 398h-86q-56 0 -95 -47t-58 -110h-6l16 164h354l3 -4l-252 -396h93q101 0 158 154l6 -1l-17 -161h-366zM239 491q-26 0 -45 19t-19 45t19 45t45 19t45 -19t19 -45t-19 -45t-45 -19z" />
    <glyph glyph-name="Zcaron" unicode="&#x17d;" horiz-adv-x="611" 
d="M31 0l-1 2l390 608h-167q-76 0 -125 -56t-74 -142h-5l15 206h501l2 -2l-391 -608h189q138 0 200 204l5 -1l-19 -211h-520zM316 665q-22 0 -36 20l-112 144l2 2l146 -80l145 80l2 -2l-111 -144q-15 -20 -36 -20z" />
    <glyph glyph-name="zcaron" unicode="&#x17e;" horiz-adv-x="457" 
d="M37 0l-3 3l253 398h-86q-56 0 -95 -47t-58 -110h-6l16 164h354l3 -4l-252 -396h93q101 0 158 154l6 -1l-17 -161h-366zM237 465q-22 0 -36 20l-112 144l2 2l146 -80l145 80l2 -2l-111 -144q-15 -20 -36 -20z" />
    <glyph glyph-name="AEacute" unicode="&#x1fc;" horiz-adv-x="996" 
d="M-41 0v6q29 0 58.5 13t52 29.5t49.5 47t43 52l42 57.5l266 381q-17 25 -75 25v7h526l14 -193l-5 -1q-21 94 -75.5 140t-172.5 46h-72v-298h23q90 0 132.5 33t56.5 105h5v-283h-5q-14 72 -56.5 104.5t-132.5 32.5h-23v-297h81q63 0 108 15.5t72.5 46t42 61.5t27.5 77l5 -1
l-19 -206h-532v6q56 0 73 19t17 75v121h-258l-15 -23q-29 -41 -44 -74.5t-15.5 -60.5t20.5 -42t63 -15v-6h-277zM233 230h252v287q0 45 -10 61zM596 673l-2 2l36 51.5l33 47.5l25 34t21 24q18 16 37 16t32 -15q12 -14 9 -33t-21 -34q-11 -10 -32 -21.5l-69 -36z" />
    <glyph glyph-name="aeacute" unicode="&#x1fd;" horiz-adv-x="758" 
d="M179 -11q-65 0 -103.5 31t-38.5 83q0 57 46.5 86t119.5 29q59 0 112 -17v101q0 53 -19 82t-67 29q-61 0 -92 -50q18 -7 29 -23t11 -35q0 -25 -17.5 -42.5t-43.5 -17.5q-27 0 -43.5 19t-16.5 45q0 45 50 77.5t128 32.5q101 0 148 -57q57 57 144 57q84 0 139 -50.5
t57 -141.5h-294q-2 -101 34 -159t106 -58q90 0 147 94l6 -4q-69 -111 -197 -111q-121 0 -175 88q-65 -88 -170 -88zM234 13q61 0 110 72q-27 46 -29 108q-45 13 -70 13q-43 0 -66.5 -24.5t-23.5 -71.5q0 -45 21 -71t58 -26zM524 412q-43 0 -68 -52.5t-28 -123.5h179
q0 25 -3 50.5t-10.5 56.5t-25.5 50t-44 19zM319 473l-2 2l46 65.5l42.5 61t26.5 30.5q18 16 37.5 16t31.5 -15q12 -14 9.5 -33t-20.5 -34q-9 -7 -27.5 -18t-35.5 -20l-52 -26.5z" />
    <glyph glyph-name="Oslashacute" unicode="&#x1fe;" horiz-adv-x="757" 
d="M292 683l-2 2l46 65.5l42.5 61t26.5 30.5q18 16 37.5 16t31.5 -15q12 -14 9.5 -33t-20.5 -34q-9 -7 -27.5 -18t-35.5 -20l-52 -26.5zM379 -12q-121 0 -210 65l-64 -75l-7 6l63 75q-118 92 -118 250q0 138 95 229.5t241 91.5q120 0 209 -66l64 75l8 -7l-63 -74
q56 -44 87 -109t31 -140q0 -138 -95 -229.5t-241 -91.5zM379 -4q55 0 95.5 26t62.5 71.5t32 99t10 116.5q0 115 -33 189l-331 -390q50 -112 164 -112zM379 621q-56 0 -96.5 -26t-62.5 -71.5t-32 -98.5t-10 -116q0 -112 33 -191l331 391q-50 112 -163 112z" />
    <glyph glyph-name="oslashacute" unicode="&#x1ff;" horiz-adv-x="531" 
d="M186 473l-2 2l46 65.5l42.5 61t26.5 30.5q18 16 37.5 16t31.5 -15q12 -14 9.5 -33t-20.5 -34q-9 -7 -27.5 -18t-35.5 -20l-52 -26.5zM265 -11q-83 0 -144 44l-46 -52l-6 5l45 52q-77 61 -77 166q0 99 67 157t161 58q82 0 144 -45l46 53l6 -5l-46 -53q78 -60 78 -165
q0 -99 -67 -157t-161 -58zM265 -3q106 0 106 207q0 63 -13 103l-183 -215q22 -95 90 -95zM265 411q-105 0 -105 -207q0 -66 12 -103l183 215q-23 95 -90 95z" />
    <glyph glyph-name="uni0218" unicode="&#x218;" horiz-adv-x="568" 
d="M275 -12q-88 0 -209 26l-11 188l6 1q16 -41 24.5 -61t28 -53.5t39 -50t52 -30t72.5 -13.5q71 0 107.5 34t36.5 85q0 49 -37 82t-89.5 52.5l-105 41t-89.5 63.5t-37 105q0 79 56 125.5t164 46.5q30 0 71.5 -4.5t61.5 -5.5t63 5l12 -194l-5 -1q-14 36 -22 54t-27 49.5
t-37.5 47.5t-48 29t-65.5 13q-61 0 -94 -31.5t-33 -78.5t37 -78.5t90 -51t106 -42t90 -65.5t37 -107q0 -84 -62.5 -132.5t-181.5 -48.5zM218 -319l-3 5q44 15 75 51t32 77q-14 -11 -34 -11q-24 0 -41 17t-17 40q0 24 18 41t45 17q29 0 46.5 -21t17.5 -54q0 -48 -36 -93
t-103 -69z" />
    <glyph glyph-name="uni0219" unicode="&#x219;" horiz-adv-x="425" 
d="M206 -11q-66 0 -154 18l-6 128l5 1q12 -28 18.5 -41t21 -36t28.5 -34.5t36.5 -20.5t48.5 -9q47 0 69 22.5t22 51.5q0 31 -25 51t-61.5 32.5t-72.5 27t-61 43.5t-25 73q0 57 42 90t121 33q22 0 52.5 -3t45.5 -4t46 4l7 -134l-5 -1q-11 26 -22 45t-28 41t-40.5 34t-51.5 12
q-39 0 -59.5 -21t-20.5 -49q0 -29 25.5 -49t61.5 -32.5t72.5 -27.5t62 -44.5t25.5 -72.5q0 -60 -46.5 -94t-131.5 -34zM147 -319l-3 5q44 15 75 51t32 77q-16 -11 -34 -11q-24 0 -41 17t-17 40q0 24 17.5 41t44.5 17q30 0 47 -21t17 -54q0 -48 -35.5 -93.5t-102.5 -68.5z
" />
    <glyph glyph-name="uni021A" unicode="&#x21a;" horiz-adv-x="652" 
d="M164 0v6q58 0 79 20.5t21 78.5v505h-8q-55 0 -94 -16t-63 -49t-37 -64t-27 -81l-6 1l18 217h558l18 -217l-6 -1q-14 50 -27 81t-37 64t-63 49t-94 16h-8v-505q0 -58 21 -78.5t79 -20.5v-6h-324zM258 -319l-3 5q44 15 75 51t32 77q-16 -11 -34 -11q-24 0 -41 17t-17 40
q0 24 17.5 41t44.5 17q30 0 47 -21t17 -54q0 -48 -35.5 -93.5t-102.5 -68.5z" />
    <glyph glyph-name="uni021B" unicode="&#x21b;" horiz-adv-x="340" 
d="M202 -10q-53 0 -85 31.5t-32 90.5v284h-71v12h71v106l114 21v-127h124v-12h-124v-299q0 -77 55 -77q46 0 90 57l5 -4q-66 -83 -147 -83zM126 -319l-3 5q44 15 75 51t32 77q-16 -11 -34 -11q-24 0 -41 17t-17 40q0 24 17.5 41t44.5 17q30 0 47 -21t17 -54
q0 -48 -35.5 -93.5t-102.5 -68.5z" />
    <glyph glyph-name="circumflex" unicode="&#x2c6;" horiz-adv-x="442" 
d="M76 466l-2 2l112 144q14 20 36 20q21 0 36 -20l111 -144l-2 -2l-145 80z" />
    <glyph glyph-name="caron" unicode="&#x2c7;" horiz-adv-x="433" 
d="M222 465q-22 0 -36 20l-112 144l2 2l146 -80l145 80l2 -2l-111 -144q-15 -20 -36 -20z" />
    <glyph glyph-name="breve" unicode="&#x2d8;" horiz-adv-x="353" 
d="M178 476q-34 0 -59 16.5t-37 42.5t-17.5 52t-5.5 53h2q19 -83 117 -83t117 83h3q0 -27 -5.5 -53t-18 -52t-37.5 -42.5t-59 -16.5z" />
    <glyph glyph-name="dotaccent" unicode="&#x2d9;" horiz-adv-x="292" 
d="M151 491q-27 0 -45.5 19t-18.5 45t18.5 45t45.5 19q26 0 45 -19t19 -45t-19 -45t-45 -19z" />
    <glyph glyph-name="ring" unicode="&#x2da;" horiz-adv-x="329" 
d="M164 464q-50 0 -82 27.5t-32 70.5q0 44 32 71.5t82 27.5t82.5 -27.5t32.5 -71.5q0 -43 -32.5 -70.5t-82.5 -27.5zM164 468q40 0 40 94t-40 94t-40 -94t40 -94z" />
    <glyph glyph-name="ogonek" unicode="&#x2db;" horiz-adv-x="343" 
d="M170 -216q-49 0 -77 21t-28 59q0 24 12 44.5t35.5 35.5t43.5 25t50 22t42 18l3 -5q-28 -14 -45 -26t-33 -37t-16 -58q0 -78 78 -78q26 0 50 8l2 -5q-57 -24 -117 -24z" />
    <glyph glyph-name="tilde" unicode="&#x2dc;" horiz-adv-x="405" 
d="M58 486q3 28 6 46.5t11.5 43.5t24.5 38t40 13q26 0 78.5 -27t79.5 -27q29 0 39.5 16.5t13.5 44.5l5 -1q-11 -140 -82 -140q-25 0 -77.5 27t-79.5 27q-29 0 -39.5 -16.5t-14.5 -44.5h-5z" />
    <glyph glyph-name="hungarumlaut" unicode="&#x2dd;" horiz-adv-x="461" 
d="M79 471l-2 1l23 52l22 49t17 34t15 25q12 17 29.5 20t30.5 -7q32 -25 3 -61q-6 -8 -21 -21t-29 -24l-42.5 -33zM241 471l-2 1l23 52l22 49t17 34t15 25q12 17 29.5 20t30.5 -7q32 -25 3 -61q-6 -8 -21 -21t-29 -24l-42.5 -33z" />
    <glyph glyph-name="Wgrave" unicode="&#x1e80;" horiz-adv-x="975" 
d="M316 -5l-202 485q-12 29 -21.5 47t-25.5 40t-37.5 33t-48.5 11v7h312v-7q-101 0 -55 -115l137 -344l114 292l-13 36q-24 63 -54.5 97t-75.5 34v7h318v-7q-106 0 -61 -125l118 -328l83 223q37 101 37 154q0 76 -86 76v7h253v-7q-79 0 -124 -72q-20 -33 -71 -163l-145 -381
h-7l-166 433l-172 -433h-7zM574 672l-69.5 36.5t-67.5 36t-33 21.5q-18 15 -20.5 34t9.5 33q12 15 31.5 15t37.5 -16q11 -9 26 -29.5t43.5 -63l44.5 -65.5z" />
    <glyph glyph-name="wgrave" unicode="&#x1e81;" horiz-adv-x="740" 
d="M245 -7l-150 314q-22 48 -45.5 71t-60.5 23v7h265v-7q-44 0 -53 -22.5t11 -63.5l86 -196l73 177l-8 17q-20 46 -37.5 67t-47.5 21v7h257v-7q-48 0 -60 -22.5t7 -63.5l73 -189l36 93q40 103 40 135q0 47 -62 47v7h188v-7q-66 0 -100 -54q-15 -24 -58 -132l-91 -222h-6
l-125 289l-126 -289h-6zM450 472l-56 29.5l-51.5 26.5t-36 20t-26.5 18q-18 15 -21 34t9 33q13 15 32 15t37 -16q11 -9 26.5 -30t43 -62l45.5 -66z" />
    <glyph glyph-name="Wacute" unicode="&#x1e82;" horiz-adv-x="975" 
d="M316 -5l-202 485q-12 29 -21.5 47t-25.5 40t-37.5 33t-48.5 11v7h312v-7q-101 0 -55 -115l137 -344l114 292l-13 36q-24 63 -54.5 97t-75.5 34v7h318v-7q-106 0 -61 -125l118 -328l83 223q37 101 37 154q0 76 -86 76v7h253v-7q-79 0 -124 -72q-20 -33 -71 -163l-145 -381
h-7l-166 433l-172 -433h-7zM444 673l-2 2l36 51.5l33 47.5l25 34t21 24q18 16 37 16t32 -15q12 -14 9 -33t-21 -34q-11 -10 -32 -21.5l-69 -36z" />
    <glyph glyph-name="wacute" unicode="&#x1e83;" horiz-adv-x="740" 
d="M245 -7l-150 314q-22 48 -45.5 71t-60.5 23v7h265v-7q-44 0 -53 -22.5t11 -63.5l86 -196l73 177l-8 17q-20 46 -37.5 67t-47.5 21v7h257v-7q-48 0 -60 -22.5t7 -63.5l73 -189l36 93q40 103 40 135q0 47 -62 47v7h188v-7q-66 0 -100 -54q-15 -24 -58 -132l-91 -222h-6
l-125 289l-126 -289h-6zM333 473l-2 2l36 51.5l33 47.5l25 34t21 24q18 16 37 16t32 -15q12 -14 9 -33t-21 -34q-11 -10 -32 -21.5l-69 -36z" />
    <glyph glyph-name="Wdieresis" unicode="&#x1e84;" horiz-adv-x="975" 
d="M316 -5l-202 485q-12 29 -21.5 47t-25.5 40t-37.5 33t-48.5 11v7h312v-7q-101 0 -55 -115l137 -344l114 292l-13 36q-24 63 -54.5 97t-75.5 34v7h318v-7q-106 0 -61 -125l118 -328l83 223q37 101 37 154q0 76 -86 76v7h253v-7q-79 0 -124 -72q-20 -33 -71 -163l-145 -381
h-7l-166 433l-172 -433h-7zM417 691q-25 0 -43 18t-18 43t17.5 43t42.5 18t43 -18t18 -43t-18 -43t-42 -18zM594 691q-25 0 -42.5 18t-17.5 43t17.5 43t42.5 18t43 -18t18 -43t-18 -43t-43 -18z" />
    <glyph glyph-name="wdieresis" unicode="&#x1e85;" horiz-adv-x="740" 
d="M245 -7l-150 314q-22 48 -45.5 71t-60.5 23v7h265v-7q-44 0 -53 -22.5t11 -63.5l86 -196l73 177l-8 17q-20 46 -37.5 67t-47.5 21v7h257v-7q-48 0 -60 -22.5t7 -63.5l73 -189l36 93q40 103 40 135q0 47 -62 47v7h188v-7q-66 0 -100 -54q-15 -24 -58 -132l-91 -222h-6
l-125 289l-126 -289h-6zM293 491q-25 0 -43 18t-18 43t17.5 43t42.5 18t43 -18t18 -43t-18 -43t-42 -18zM470 491q-25 0 -42.5 18t-17.5 43t17.5 43t42.5 18t43 -18t18 -43t-18 -43t-43 -18z" />
    <glyph glyph-name="Ygrave" unicode="&#x1ef2;" horiz-adv-x="667" 
d="M178 0v6q59 0 79.5 26t20.5 88v131l-149 244q-35 56 -67.5 86t-72.5 30v7h324v-7q-53 0 -64.5 -29.5t19.5 -80.5l125 -209h2l52 88q76 130 76 172q0 59 -85 59v7h261v-7q-79 0 -133 -65q-22 -26 -112 -171l-52 -87v-168q0 -62 20.5 -88t79.5 -26v-6h-324zM411 672
l-69.5 36.5t-67.5 36t-33 21.5q-18 15 -20.5 34t9.5 33q12 15 31.5 15t37.5 -16q11 -9 26 -29.5t43.5 -63l44.5 -65.5z" />
    <glyph glyph-name="ygrave" unicode="&#x1ef3;" horiz-adv-x="493" 
d="M89 -174q-49 0 -49 39q0 25 25.5 36.5t57.5 13.5t66 17t48 45l8 18l-149 312q-21 47 -45 70.5t-60 23.5v7h277v-7q-49 0 -61 -22.5t8 -63.5l85 -196l36 85q46 114 46 147q0 50 -64 50v7h193v-7q-66 0 -102 -60q-12 -18 -66 -142l-102 -232q-62 -141 -152 -141zM330 472
l-69.5 36.5t-67.5 36t-33 21.5q-18 15 -20.5 34t9.5 33q12 15 31.5 15t37.5 -16q11 -9 26 -29.5t43.5 -63l44.5 -65.5z" />
    <glyph glyph-name="endash" unicode="&#x2013;" horiz-adv-x="577" 
d="M59 216v36h458v-36h-458z" />
    <glyph glyph-name="emdash" unicode="&#x2014;" horiz-adv-x="873" 
d="M59 216v36h754v-36h-754z" />
    <glyph glyph-name="quoteleft" unicode="&#x2018;" horiz-adv-x="232" 
d="M193 667l3 -5q-48 -17 -82.5 -56t-35.5 -84q16 12 38 12q27 0 46 -19t19 -45q0 -27 -20 -45.5t-50 -18.5q-32 0 -51.5 23.5t-19.5 59.5q0 53 39.5 102.5t113.5 75.5z" />
    <glyph glyph-name="quoteright" unicode="&#x2019;" horiz-adv-x="238" 
d="M52 405l-3 5q48 17 82.5 56t35.5 84q-16 -12 -38 -12q-27 0 -46 19t-19 45q0 27 20 45.5t50 18.5q32 0 51.5 -23.5t19.5 -59.5q0 -53 -39.5 -102.5t-113.5 -75.5z" />
    <glyph glyph-name="quotesinglbase" unicode="&#x201a;" horiz-adv-x="244" 
d="M39 -133l-3 5q48 17 82 56t35 84q-15 -12 -38 -12q-26 0 -45 19t-19 45q0 27 19.5 45.5t49.5 18.5q33 0 52 -23.5t19 -59.5q0 -53 -39.5 -102.5t-112.5 -75.5z" />
    <glyph glyph-name="quotedblleft" unicode="&#x201c;" horiz-adv-x="434" 
d="M193 667l3 -5q-48 -17 -82.5 -56t-35.5 -84q16 12 38 12q27 0 46 -19t19 -45q0 -27 -20 -45.5t-50 -18.5q-32 0 -51.5 23.5t-19.5 59.5q0 53 39.5 102.5t113.5 75.5zM395 667l3 -5q-48 -17 -82.5 -56t-35.5 -84q16 12 38 12q27 0 46 -19t19 -45q0 -27 -20 -45.5
t-50 -18.5q-32 0 -51.5 23.5t-19.5 59.5q0 53 39.5 102.5t113.5 75.5z" />
    <glyph glyph-name="quotedblright" unicode="&#x201d;" horiz-adv-x="440" 
d="M52 405l-3 5q48 17 82.5 56t35.5 84q-16 -12 -38 -12q-27 0 -46 19t-19 45q0 27 20 45.5t50 18.5q32 0 51.5 -23.5t19.5 -59.5q0 -53 -39.5 -102.5t-113.5 -75.5zM254 405l-3 5q48 17 82.5 56t35.5 84q-17 -12 -38 -12q-27 0 -46 19t-19 45q0 27 20 45.5t50 18.5
q32 0 51.5 -23.5t19.5 -59.5q0 -53 -39.5 -102.5t-113.5 -75.5z" />
    <glyph glyph-name="quotedblbase" unicode="&#x201e;" horiz-adv-x="446" 
d="M39 -133l-3 5q48 17 82 56t35 84q-15 -12 -38 -12q-26 0 -45 19t-19 45q0 27 19.5 45.5t49.5 18.5q33 0 52 -23.5t19 -59.5q0 -53 -39.5 -102.5t-112.5 -75.5zM241 -133l-3 5q48 17 82 56t35 84q-15 -12 -38 -12q-26 0 -45 19t-19 45q0 27 19.5 45.5t49.5 18.5
q33 0 52 -23.5t19 -59.5q0 -53 -39.5 -102.5t-112.5 -75.5z" />
    <glyph glyph-name="dagger" unicode="&#x2020;" horiz-adv-x="513" 
d="M256 -173q-54 0 -54 71q0 30 12.5 97t25 175.5t13.5 235.5q-71 0 -104.5 -10.5t-40.5 -24t-13 -48.5q-1 -9 -6 -9q-13 0 -27.5 31.5t-14.5 61.5q0 23 11 36t30 13q16 0 70.5 -21.5t94.5 -22.5q-1 39 -23.5 105.5t-22.5 86.5q0 26 13.5 40.5t35.5 14.5t36 -14.5t14 -40.5
q0 -20 -22.5 -86t-23.5 -106q39 1 93 22.5t72 21.5t29 -13t11 -36q0 -29 -14.5 -61t-26.5 -32q-6 0 -7 9q-4 23 -6 31.5t-10.5 21.5t-24.5 17.5t-44 8.5t-72 4q0 -127 12.5 -235t25 -176t12.5 -98q0 -70 -54 -70z" />
    <glyph glyph-name="daggerdbl" unicode="&#x2021;" horiz-adv-x="513" 
d="M256 -182q-22 0 -35.5 14.5t-13.5 40.5q0 20 22.5 86t23.5 105q-40 -1 -94.5 -22t-70.5 -21q-41 0 -41 49q0 29 14.5 60.5t27.5 31.5q5 0 6 -9q4 -27 8 -38t19 -23.5t46 -16.5t85 -4q-2 31 -18.5 86.5t-16.5 80.5t16.5 80.5t18.5 87.5q-71 0 -104.5 -10.5t-40.5 -24
t-13 -48.5q-1 -9 -6 -9q-13 0 -27.5 31.5t-14.5 61.5q0 23 11 36t30 13q16 0 70.5 -21.5t94.5 -22.5q-1 39 -23.5 105.5t-22.5 86.5q0 26 13.5 40.5t35.5 14.5t36 -14.5t14 -40.5q0 -20 -22.5 -86t-23.5 -106q39 1 93 22.5t72 21.5t29 -13t11 -36q0 -29 -14.5 -61t-26.5 -32
q-6 0 -7 9q-4 23 -6 31.5t-10.5 21.5t-24.5 17.5t-44 8.5t-72 4q1 -31 20.5 -86.5t19.5 -81.5t-19.5 -81t-20.5 -86q44 0 72 3.5t44 8t24.5 17.5t10.5 21.5t6 31.5q1 9 7 9q12 0 26.5 -31.5t14.5 -60.5q0 -49 -40 -49q-18 0 -72 21t-93 22q1 -39 23.5 -105.5t22.5 -85.5
q0 -26 -14 -40.5t-36 -14.5z" />
    <glyph glyph-name="bullet" unicode="&#x2022;" horiz-adv-x="354" 
d="M177 144q-41 0 -70 29t-29 70t29 70t70 29t70 -29t29 -70t-29 -70t-70 -29z" />
    <glyph glyph-name="ellipsis" unicode="&#x2026;" horiz-adv-x="798" 
d="M119 -8q-29 0 -48.5 20t-19.5 48t19.5 48t48.5 20t48.5 -20t19.5 -48t-19.5 -48t-48.5 -20zM399 -8q-29 0 -48.5 20t-19.5 48t19.5 48t48.5 20t48.5 -20t19.5 -48t-19.5 -48t-48.5 -20zM679 -8q-29 0 -48.5 20t-19.5 48t19.5 48t48.5 20t48.5 -20t19.5 -48t-19.5 -48
t-48.5 -20z" />
    <glyph glyph-name="perthousand" unicode="&#x2030;" horiz-adv-x="1090" 
d="M192 300q-65 0 -112 44.5t-47 119.5t47 119.5t112 44.5q42 0 79 -20t58 -56q35 -11 67 -11q74 0 161 40q4 8 9 23t9.5 22.5t13.5 7.5q16 0 16 -18q0 -24 -40 -40l-424 -585l-8 6l416 572q-79 -36 -151 -36q-36 0 -64 9q17 -36 17 -78q0 -75 -46.5 -119.5t-112.5 -44.5z
M898 -10q-65 0 -112 44.5t-47 119.5t47 119.5t112 44.5q66 0 112.5 -44.5t46.5 -119.5t-46.5 -119.5t-112.5 -44.5zM531 -10q-65 0 -112 44.5t-47 119.5t47 119.5t112 44.5q66 0 112.5 -44.5t46.5 -119.5t-46.5 -119.5t-112.5 -44.5zM898 -4q70 0 70 158q0 157 -70 157
q-69 0 -69 -157q0 -158 69 -158zM531 -4q70 0 70 158q0 157 -70 157q-69 0 -69 -157q0 -158 69 -158zM192 306q70 0 70 158q0 86 -20 123q-20 18 -31 29q-8 5 -19 5q-69 0 -69 -157q0 -158 69 -158z" />
    <glyph glyph-name="guilsinglleft" unicode="&#x2039;" horiz-adv-x="352" 
d="M314 23l-289 199v3l289 200l3 -5l-214 -196l214 -197z" />
    <glyph glyph-name="guilsinglright" unicode="&#x203a;" horiz-adv-x="352" 
d="M38 23l-3 4l213 197l-213 196l3 5l289 -200v-3z" />
    <glyph glyph-name="fraction" unicode="&#x2044;" horiz-adv-x="160" 
d="M-136 -9l-7 4l438 632l7 -4z" />
    <glyph glyph-name="uni2070" unicode="&#x2070;" horiz-adv-x="401" 
d="M200 328q-77 0 -122.5 55.5t-45.5 143.5q0 87 45.5 143t122.5 56q78 0 123 -55.5t45 -143.5t-45 -143.5t-123 -55.5zM200 332q73 0 73 195q0 194 -73 194t-73 -194q0 -195 73 -195z" />
    <glyph glyph-name="uni2074" unicode="&#x2074;" horiz-adv-x="370" 
d="M135 335v4q37 0 53 13.5t16 50.5v32h-197l-1 3l59 57q26 24 45.5 61.5t19.5 75.5q0 63 -50 93q62 2 108.5 -18.5t46.5 -57.5q0 -27 -23.5 -50.5t-71.5 -56t-67 -48.5l-58 -53h189v63l84 76h3v-139q24 0 37.5 3.5t14.5 3.5q12 0 12 -10q0 -9 -12 -9q-2 0 -7 1.5t-16.5 3
t-28.5 1.5v-36q0 -36 14 -48t49 -12v-4h-219z" />
    <glyph glyph-name="uni2075" unicode="&#x2075;" horiz-adv-x="364" 
d="M168 328q-65 0 -105 24.5t-40 59.5q0 21 13.5 35t34.5 14q20 0 33 -13.5t13 -32.5t-10.5 -32t-26.5 -15q23 -35 65 -35q47 0 71.5 34.5t24.5 81.5t-25 75t-70 28q-44 0 -81 -21q-5 -21 -15 -21q-9 0 -9 9q0 10 20 17l17 182q5 0 32 -2t44 -3t46 -1t48 3t38 9.5t29 17.5
q9 -27 9 -45q0 -33 -23.5 -48.5t-57.5 -15.5q-59 0 -163 53l-15 -149q55 25 109 25q69 0 115.5 -31t46.5 -85q0 -55 -48 -86.5t-120 -31.5z" />
    <glyph glyph-name="uni2076" unicode="&#x2076;" horiz-adv-x="394" 
d="M204 328q-46 0 -80.5 16.5t-54 44.5t-28.5 60.5t-9 68.5q0 90 50.5 149t136.5 59q57 0 92.5 -25t35.5 -60q0 -20 -13 -34t-33 -14t-33.5 13t-13.5 33q0 16 9.5 28.5t24.5 16.5q-15 37 -58 37q-41 0 -68 -36.5t-36 -85.5t-6 -103q8 38 36.5 60t73.5 22q58 0 95 -34.5
t37 -87.5q0 -55 -43 -91.5t-115 -36.5zM200 332q39 0 57 36.5t18 86.5t-17 81t-51 31t-60 -29.5t-26 -87.5q1 -49 21.5 -83.5t57.5 -34.5z" />
    <glyph glyph-name="uni2077" unicode="&#x2077;" horiz-adv-x="320" 
d="M99 335q2 19 7 38.5t9.5 33.5t17 36t17.5 31.5t23.5 34t22.5 30.5t26.5 34t25.5 32q6 7 17 18.5t19.5 21.5t14.5 20l-2 1q-11 -16 -18.5 -24t-22.5 -15.5t-35 -7.5q-16 0 -60.5 9t-68.5 9q-31 0 -45 -15.5t-16 -51.5h-5v148h5l4 -99h1q4 34 8.5 53.5t19 36t38.5 16.5
q32 0 78.5 -38.5t72.5 -38.5t40 19.5t14 38.5q0 6 -2 12h6q1 -4 1 -12q0 -18 -6.5 -35.5t-22 -42.5t-19.5 -33q-65 -126 -72 -260h-93z" />
    <glyph glyph-name="uni2078" unicode="&#x2078;" horiz-adv-x="405" 
d="M202 328q-87 0 -128.5 30t-41.5 75q0 42 34.5 70t108.5 33q-64 4 -98 29t-34 63q0 45 41.5 71.5t117.5 26.5t118 -26.5t42 -71.5q0 -38 -34 -63t-98 -29q73 -5 108 -33.5t35 -69.5q0 -45 -42 -75t-129 -30zM202 332q37 0 56.5 27t19.5 74q0 46 -19.5 73.5t-56.5 27.5
t-56.5 -27.5t-19.5 -73.5q0 -47 19.5 -74t56.5 -27zM202 721q-65 0 -65 -91q0 -92 65 -92q66 0 66 92q0 91 -66 91z" />
    <glyph glyph-name="uni2079" unicode="&#x2079;" horiz-adv-x="395" 
d="M174 328q-58 0 -93.5 24.5t-35.5 59.5q0 20 12.5 34t33.5 14q20 0 34 -13.5t14 -32.5q0 -16 -10 -28.5t-25 -16.5q17 -37 61 -37q36 0 60 23.5t33.5 61.5t12.5 72t2 69q-9 -36 -37 -57.5t-72 -21.5q-57 0 -94.5 33.5t-37.5 85.5q0 56 43 92t115 36q88 0 130.5 -55.5
t42.5 -135.5q0 -88 -50 -147.5t-139 -59.5zM195 721q-39 0 -57.5 -35.5t-18.5 -83.5q0 -54 20.5 -82t52.5 -28q33 0 56.5 28t23.5 84q0 49 -19.5 83t-57.5 34z" />
    <glyph glyph-name="uni2080" unicode="&#x2080;" horiz-adv-x="401" 
d="M200 -107q-77 0 -122.5 55.5t-45.5 143.5q0 87 45.5 143t122.5 56q78 0 123 -55.5t45 -143.5t-45 -143.5t-123 -55.5zM200 -103q73 0 73 195q0 194 -73 194t-73 -194q0 -195 73 -195z" />
    <glyph glyph-name="uni2081" unicode="&#x2081;" horiz-adv-x="246" 
d="M20 -100v4q37 0 52.5 13.5t15.5 50.5v238q0 32 -28 32h-45v3q92 8 158 43l3 -1v-319q0 -36 14 -48t49 -12v-4h-219z" />
    <glyph glyph-name="uni2082" unicode="&#x2082;" horiz-adv-x="373" 
d="M43 -100q-14 57 20 98q16 20 48 45l57.5 43.5t45.5 49.5t20 67q0 37 -18.5 59.5t-55.5 22.5q-56 0 -79 -50q18 -2 30 -15t12 -31q0 -20 -13.5 -33.5t-33.5 -13.5q-22 0 -35 15t-13 35q0 37 42 68t111 31q63 0 105 -27.5t42 -75.5q0 -37 -30 -63t-69.5 -39.5t-87.5 -37
t-74 -52.5q-14 -15 -20 -36q20 44 88 44q26 0 70 -12t66 -12q58 0 58 52q0 10 -3 24h5q7 -22 7 -58q0 -44 -17 -74t-55 -30q-25 0 -48 14.5t-38.5 32t-37 32t-43.5 14.5q-26 0 -40 -17t-14 -43q0 -19 4 -27h-6z" />
    <glyph glyph-name="uni2083" unicode="&#x2083;" horiz-adv-x="375" 
d="M179 -107q-67 0 -109 24.5t-42 59.5q0 20 13.5 34.5t33.5 14.5t34 -13.5t14 -33.5q0 -17 -11 -30.5t-27 -16.5q20 -34 69 -34q46 0 70.5 28.5t24.5 72.5q0 93 -100 95q-14 0 -24 -1.5t-15.5 -3t-7.5 -1.5q-12 0 -12 9q0 10 11 10q2 0 16 -4t30 -4q45 0 67.5 28t22.5 69
t-20.5 65t-58.5 24q-45 0 -66 -35q16 -3 26.5 -16t10.5 -30q0 -20 -13.5 -33t-33.5 -13t-33 13.5t-13 33.5q0 36 40.5 61t105.5 25q66 0 108 -26t42 -71q0 -46 -44 -71t-113 -25h-4v-2h4q73 0 121 -24.5t48 -73.5q0 -50 -48 -77.5t-117 -27.5z" />
    <glyph glyph-name="uni2084" unicode="&#x2084;" horiz-adv-x="370" 
d="M134 -100v4q37 0 53 13.5t16 50.5v32h-196l-2 3l60 57q26 24 45.5 61.5t19.5 75.5q0 62 -50 93q62 2 108.5 -18.5t46.5 -57.5q0 -26 -24 -50.5t-71 -56t-67 -48.5l-58 -53h188v63l84 76h3v-139q24 0 38 3.5t15 3.5q12 0 12 -10q0 -9 -12 -9l-15 3q-15 3 -38 3v-36
q0 -36 14.5 -48t49.5 -12v-4h-220z" />
    <glyph glyph-name="uni2085" unicode="&#x2085;" horiz-adv-x="364" 
d="M168 -107q-65 0 -105 24.5t-40 59.5q0 21 13.5 35t34.5 14q20 0 33 -13.5t13 -32.5t-10.5 -32t-26.5 -15q23 -35 65 -35q47 0 71.5 34.5t24.5 81.5t-25 75t-70 28q-44 0 -81 -21q-5 -21 -15 -21q-9 0 -9 9q0 10 20 17l17 182q5 0 32 -2t44 -3t46 -1t48 3t38 9.5t29 17.5
q9 -27 9 -45q0 -33 -23.5 -48.5t-57.5 -15.5q-59 0 -163 53l-15 -149q55 25 109 25q69 0 115.5 -31t46.5 -85q0 -55 -48 -86.5t-120 -31.5z" />
    <glyph glyph-name="uni2086" unicode="&#x2086;" horiz-adv-x="394" 
d="M204 -107q-46 0 -80.5 16.5t-54 44.5t-28.5 60.5t-9 68.5q0 90 50.5 149t136.5 59q57 0 92.5 -25t35.5 -60q0 -20 -13 -34t-33 -14t-33.5 13t-13.5 33q0 36 34 45q-15 37 -58 37q-41 0 -68 -36.5t-36 -85.5t-6 -103q8 38 36.5 60t73.5 22q58 0 95 -34.5t37 -87.5
q0 -55 -43 -91.5t-115 -36.5zM200 -103q39 0 57 36.5t18 86.5t-17 81t-51 31t-60 -29.5t-26 -87.5q1 -49 21.5 -83.5t57.5 -34.5z" />
    <glyph glyph-name="uni2087" unicode="&#x2087;" horiz-adv-x="320" 
d="M99 -100q2 19 7 38.5t9.5 33.5t17 36t17.5 31.5t23.5 34t22.5 30.5t26.5 34t25.5 32q6 7 17 18.5t19.5 21.5t14.5 20l-2 1q-11 -16 -18.5 -24t-22.5 -15.5t-35 -7.5q-16 0 -60.5 9t-68.5 9q-31 0 -45 -15.5t-16 -51.5h-5v148h5l4 -99h1q4 34 8.5 53.5t19 36t38.5 16.5
q32 0 78.5 -38.5t72.5 -38.5t40 19.5t14 38.5q0 6 -2 12h6q1 -4 1 -12q0 -18 -6.5 -35.5t-22 -42.5t-19.5 -33q-65 -126 -72 -260h-93z" />
    <glyph glyph-name="uni2088" unicode="&#x2088;" horiz-adv-x="405" 
d="M202 -107q-87 0 -128.5 30t-41.5 75q0 42 34.5 70t108.5 33q-64 4 -98 29t-34 63q0 45 41.5 71.5t117.5 26.5t118 -26.5t42 -71.5q0 -38 -34 -63t-98 -29q73 -5 108 -33.5t35 -69.5q0 -45 -42 -75t-129 -30zM202 -103q37 0 56.5 27t19.5 74q0 46 -19.5 73.5t-56.5 27.5
t-56.5 -27.5t-19.5 -73.5q0 -47 19.5 -74t56.5 -27zM202 286q-65 0 -65 -91q0 -92 65 -92q66 0 66 92q0 91 -66 91z" />
    <glyph glyph-name="uni2089" unicode="&#x2089;" horiz-adv-x="395" 
d="M174 -107q-58 0 -93.5 24.5t-35.5 59.5q0 20 12.5 34t33.5 14q20 0 34 -13.5t14 -32.5q0 -16 -10 -28.5t-25 -16.5q17 -37 61 -37q36 0 60 23.5t33.5 61.5t12.5 72t2 69q-9 -36 -37 -57.5t-72 -21.5q-57 0 -94.5 33.5t-37.5 85.5q0 56 43 92t115 36q88 0 130.5 -55.5
t42.5 -135.5q0 -88 -50 -147.5t-139 -59.5zM195 286q-39 0 -57.5 -35.5t-18.5 -83.5q0 -54 20.5 -82t52.5 -28q33 0 56.5 28t23.5 84q0 49 -19.5 83t-57.5 34z" />
    <glyph glyph-name="Euro" unicode="&#x20ac;" horiz-adv-x="659" 
d="M380 -12q-110 0 -186.5 68t-93.5 186h-66v9h65q-2 34 -2 52q0 44 6 72h-69v9h70q23 113 101.5 179.5t188.5 66.5q99 0 156 -50t57 -108q0 -33 -20 -54.5t-49 -21.5q-28 0 -48 21t-20 50q0 28 17.5 48t43.5 23q-30 84 -119 84q-82 0 -129 -65.5t-60 -172.5h211v-9h-212
q-3 -34 -3 -67q0 -17 2 -57h213v-9h-212q10 -104 55 -172.5t130 -68.5q129 0 199 160l7 -3q-38 -85 -92.5 -127.5t-140.5 -42.5z" />
    <glyph glyph-name="uni2116" unicode="&#x2116;" horiz-adv-x="1144" 
d="M905 171q-75 0 -128.5 46t-53.5 124t53.5 124.5t128.5 46.5t128.5 -46.5t53.5 -124.5t-53.5 -124t-128.5 -46zM138 -122q-48 0 -78 38t-30 96q43 -41 99 -41q64 0 94 42t30 128v319q0 80 -25 115.5t-95 35.5v7h197l309 -425v301q0 111 30.5 179.5t94.5 68.5
q47 0 77.5 -37t30.5 -94q-45 38 -99 38q-124 0 -124 -170v-484l-6 -2l-380 512v-379q0 -110 -31 -179t-94 -69zM905 177q74 0 74 164t-74 164t-74 -164t74 -164zM718 36v9h375v-9h-375zM718 106v9h375v-9h-375z" />
    <glyph glyph-name="uni2117" unicode="&#x2117;" horiz-adv-x="733" 
d="M205 132v3q31 0 41 11.5t10 43.5v237q0 32 -10 43.5t-41 11.5v4h195q80 0 119 -28.5t39 -74.5q0 -101 -158 -101h-31v4h13q82 0 82 97q0 42 -19 70t-63 28h-37v-291q0 -32 10 -43.5t40 -11.5v-3h-190zM366 -12q-133 0 -227 94t-94 227t94 227t227 94t227 -94t94 -227
t-94 -227t-227 -94zM366 -3q129 0 220.5 91.5t91.5 220.5t-91.5 220.5t-220.5 91.5q-128 0 -219.5 -91.5t-91.5 -220.5t91.5 -220.5t219.5 -91.5z" />
    <glyph glyph-name="trademark" unicode="&#x2122;" horiz-adv-x="837" 
d="M111 333q26 0 36 9.5t10 39.5v232h-4q-44 0 -65 -26t-35 -73h-3l8 103h268l8 -103h-3q-15 48 -36 73.5t-66 25.5h-3v-232q0 -30 10 -39.5t37 -9.5v-3h-162v3zM357 333q37 0 50.5 25.5t19.5 106.5l5 72q2 41 -9.5 59t-46.5 18v4h119l93 -195l82 195h99v-4q-25 0 -33 -13.5
t-6 -42.5l7 -168q2 -31 11 -44t34 -13v-3h-152v3q24 0 32.5 13t7.5 40l-11 191l-102 -241h-2l-115 234l-8 -104q-6 -83 3 -108t46 -25v-3h-124v3z" />
    <glyph glyph-name="minus" unicode="&#x2212;" horiz-adv-x="573" 
d="M64 241v9h445v-9h-445z" />
    <glyph glyph-name="notequal" unicode="&#x2260;" horiz-adv-x="574" 
d="M125 -2l-8 5l95 161h-151v9h157l121 204h-278v10h284l99 167l8 -5l-96 -162h150v-10h-156l-121 -204h277v-9h-283z" />
    <glyph glyph-name="s_t" unicode="&#xfb06;" horiz-adv-x="743" 
d="M206 -11q-66 0 -154 18l-6 128l5 1q12 -28 18.5 -41t21 -36t28.5 -34.5t36.5 -20.5t48.5 -9q47 0 69 22.5t22 51.5q0 31 -25 51t-61.5 32.5t-72.5 27t-61 43.5t-25 73q0 57 42 90t121 33q9 0 72 -6q-39 45 -39 108q0 74 52.5 126t127.5 52q72 0 123.5 -48t51.5 -120v-123
h125v-12h-125v-299q0 -77 56 -77q44 0 90 57l5 -4q-68 -83 -147 -83q-54 0 -86 31.5t-32 90.5v284h-52v8q77 0 117 27.5t40 98.5q0 68 -49.5 114.5t-116.5 46.5q-70 0 -120.5 -51t-50.5 -118q0 -61 44 -110q29 -2 58 4l7 -134l-5 -1q-11 26 -22 45t-28 41t-40.5 34t-51.5 12
q-39 0 -59.5 -21t-20.5 -49q0 -29 25.5 -49t61.5 -32.5t72.5 -27.5t62 -44.5t25.5 -72.5q0 -60 -46.5 -94t-131.5 -34z" />
    <glyph glyph-name="c_k" horiz-adv-x="980" 
d="M248 -11q-97 0 -154 61t-57 151q0 98 66 158t159 60q28 0 52 -6q-37 38 -37 72q0 20 11.5 37.5t26.5 29t44.5 24.5t49.5 19.5l58 18.5l44 13.5l36.5 11t27 9l22.5 8t16.5 6.5t15 7.5t11.5 8.5l3 -2v-500l94 94q61 59 61 93q0 38 -65 38v7h232v-7q-61 0 -121 -43
q-37 -27 -79 -69l-10 -10l141 -210q43 -63 99 -63v-6h-182l-136 199l-34 -33v-91q0 -38 15 -53.5t55 -15.5v-6h-254v6q40 0 55 15.5t15 53.5v550q-10 -4 -30 -10t-28 -9l-47 -15t-41.5 -15t-39.5 -18t-28.5 -19.5t-22 -24.5t-6.5 -29q0 -33 44 -77q47 -15 74.5 -47t27.5 -68
q0 -30 -18 -49t-45 -19t-45 18.5t-18 45.5q0 24 15 41.5t38 21.5q-23 60 -84 60q-59 0 -88.5 -58.5t-29.5 -141.5q0 -95 35.5 -148.5t99.5 -53.5q46 0 82.5 26.5t58.5 67.5l6 -3q-61 -112 -191 -112z" />
    <glyph glyph-name="c_t" horiz-adv-x="790" 
d="M248 -11q-97 0 -154 61t-57 151q0 98 66 158t159 60q42 0 78 -14q-47 47 -47 116q0 74 52.5 126t127.5 52q72 0 123.5 -48t51.5 -120v-123h125v-12h-125v-299q0 -77 56 -77q44 0 90 57l5 -4q-68 -83 -147 -83q-54 0 -86 31.5t-32 90.5v284h-52v8q77 0 117 27.5t40 98.5
q0 68 -49.5 114.5t-116.5 46.5q-70 0 -120.5 -51t-50.5 -118q0 -77 65 -130q65 -40 65 -99q0 -30 -18 -49t-45 -19t-45 18.5t-18 45.5q0 24 15 41.5t38 21.5q-23 60 -84 60q-59 0 -88.5 -58.5t-29.5 -141.5q0 -95 35.5 -148.5t99.5 -53.5q46 0 82.5 26.5t58.5 67.5l6 -3
q-61 -112 -191 -112z" />
    <glyph glyph-name="r_k" horiz-adv-x="922" 
d="M20 0v6q40 0 55 16.5t15 54.5v244q0 38 -15 54.5t-55 16.5v6l182 20v-130q30 91 92 121q-40 42 -40 80q0 46 41 74t114 51l51.5 16l50.5 15.5t38.5 14.5t32.5 18l3 -2v-500l94 94q61 59 61 93q0 38 -65 38v7h232v-7q-61 0 -121 -43q-37 -27 -79 -69l-10 -10l141 -210
q43 -63 99 -63v-6h-182l-136 199l-34 -33v-91q0 -38 15 -53.5t55 -15.5v-6h-254v6q40 0 55 15.5t15 53.5v550q-35 -12 -58 -19q-73 -22 -111.5 -49t-38.5 -69q0 -33 40 -75q15 6 32 6q33 0 51 -20t18 -48t-19 -47t-45 -19q-29 0 -48.5 21.5t-15.5 51.5q-47 -17 -72 -77v-204
q0 -39 17 -55t58 -16v-6h-259z" />
    <glyph glyph-name="t_t" horiz-adv-x="663" 
d="M202 -10q-53 0 -85 31.5t-32 90.5v284h-71v12h71v106l114 21v-127h208v106l114 21v-127h125v-12h-125v-299q0 -77 56 -77q44 0 90 57l5 -4q-68 -83 -147 -83q-54 0 -86 31.5t-32 90.5v284h-208v-299q0 -77 55 -77q46 0 90 57l5 -4q-66 -83 -147 -83z" />
    <glyph glyph-name="F_i" horiz-adv-x="1018" 
d="M254 0v6q56 0 73 19t17 75v493q-50 6 -67 6q-164 0 -164 -118q0 -69 58 -111q-66 8 -112 39t-46 83q0 116 227 116q91 0 245.5 -28t208.5 -28q87 0 123 34.5t36 85.5q0 64 -58 108q66 -8 112 -39t46 -83q0 -59 -59 -87t-161 -28q-85 0 -264 32v-271h21q89 0 132 35
t56 108h5v-293h-5q-13 72 -56 107t-132 35h-21v-191q0 -58 21 -78.5t79 -20.5v-6h-315zM750 0v6q40 0 55 15.5t15 53.5v248q0 38 -15 53.5t-55 15.5v6l184 20v-343q0 -38 15 -53.5t55 -15.5v-6h-254z" />
    <glyph glyph-name="T_h" horiz-adv-x="1195" 
d="M243 6q58 0 79 20.5t21 78.5v505q-51 7 -77 7q-154 0 -154 -119q0 -68 58 -110q-66 8 -112 38.5t-46 83.5q0 59 60 87t161 28q75 0 218.5 -21t190.5 -21q155 0 155 117q0 65 -58 112q66 -8 112 -39t46 -83q0 -57 -62 -87v-268q82 84 161 84q51 0 85 -33t34 -99v-212
q0 -38 15 -53.5t55 -15.5v-6h-249v6q36 0 50.5 15.5t14.5 53.5v221q0 82 -66 82q-49 0 -100 -53v-250q0 -38 15 -53.5t55 -15.5v-6h-254v6q40 0 55 15.5t15 53.5v504q-20 -5 -54 -5q-68 0 -199 19v-488q0 -58 21 -78.5t79 -20.5v-6h-325v6z" />
    <glyph glyph-name="C_o" horiz-adv-x="1122" 
d="M706 36v9h374v-9h-374zM893 171q-75 0 -128.5 46t-53.5 124t53.5 124.5t128.5 46.5t128.5 -46.5t53.5 -124.5t-53.5 -124t-128.5 -46zM893 177q74 0 74 164t-74 164t-74 -164t74 -164zM706 106v9h374v-9h-374zM396 -12q-164 0 -258.5 89t-94.5 229q0 144 98 234t252 90
q29 0 78 -4.5t72.5 -5t71.5 7.5l17 -203l-5 -1q-43 103 -98 151t-132 48q-76 0 -127 -46t-71.5 -114.5t-20.5 -154.5q0 -63 11.5 -117t36 -99.5t67 -71.5t98.5 -26q159 0 249 211h5l-33 -187q-99 -30 -216 -30z" />
    <glyph glyph-name="zero.op" horiz-adv-x="599" 
d="M299 -12q-110 0 -179.5 73.5t-69.5 185.5q0 113 70 186.5t179 73.5t179 -73.5t70 -186.5q0 -112 -69.5 -185.5t-179.5 -73.5zM299 -5q62 0 92 70t30 182t-30 182.5t-92 70.5t-91.5 -70t-29.5 -183q0 -112 29.5 -182t91.5 -70z" />
    <glyph glyph-name="one.op" horiz-adv-x="400" 
d="M56 0v6q59 0 82.5 21.5t23.5 77.5v270q0 26 -9.5 38.5t-35.5 12.5h-71v5q139 11 230 66l5 -2v-395q0 -56 22 -75t78 -19v-6h-325z" />
    <glyph glyph-name="two.op" horiz-adv-x="551" 
d="M72 0q-22 77 22 133q22 30 69.5 60t87.5 50.5t72 58.5t32 87t-28.5 79.5t-81.5 30.5q-81 0 -119 -72q25 -3 42 -21.5t17 -44.5q0 -28 -19 -47t-47 -19q-30 0 -48 21t-18 49q0 53 60.5 97.5t160.5 44.5q88 0 148 -37t60 -101q0 -42 -29.5 -70.5t-76.5 -45t-96.5 -30.5
t-100 -38t-77.5 -57q-13 -16 -17 -34q30 50 110 50q41 1 106.5 -20.5t97.5 -21.5q84 0 84 76q0 19 -4 35h8q9 -38 9 -76q0 -61 -24.5 -103t-78.5 -42q-35 0 -68 20.5t-55 45t-53.5 45t-64.5 20.5t-52.5 -19.5t-23.5 -50.5q-4 -26 5 -53h-9z" />
    <glyph glyph-name="three.op" horiz-adv-x="569" 
d="M270 -135q-100 0 -163 40t-63 95q0 31 19 52.5t48 21.5t49 -20.5t20 -50.5q0 -26 -16.5 -45.5t-40.5 -24.5q33 -60 117 -60q75 0 112.5 46t37.5 118q0 75 -41 113.5t-116 40.5q-32 -1 -52.5 -6t-21.5 -5q-7 0 -13 4.5t-6 10.5q0 16 19 16q4 0 11 -3t22 -6t40 -2
q68 1 103 45t35 111q0 63 -32 102.5t-93 39.5q-74 0 -110 -60q24 -5 40 -24.5t16 -44.5q0 -29 -19.5 -49.5t-48.5 -20.5t-48 20.5t-19 51.5q0 56 61 96t158 40t161 -40.5t64 -113.5q0 -72 -63.5 -112.5t-166.5 -42.5h-6v-4h6q107 0 178.5 -39t71.5 -119q0 -82 -73 -126.5
t-177 -44.5z" />
    <glyph glyph-name="four.op" horiz-adv-x="559" 
d="M217 -124v7q59 0 82.5 21t23.5 77v58h-302l-2 5l98 101q39 38 69 98t30 121q0 97 -74 141q92 2 156.5 -30.5t64.5 -87.5q0 -40 -33 -77t-102 -89t-98 -79l-96 -95h289v108l114 111h5v-219q38 1 59 6.5t22 5.5q19 0 19 -16q0 -6 -6 -10.5t-13 -4.5q-3 0 -11.5 2.5t-26 5
t-43.5 2.5v-61q0 -56 22 -75t78 -19v-7h-325z" />
    <glyph glyph-name="five.op" horiz-adv-x="556" 
d="M256 -135q-97 0 -158 40t-61 96q0 32 19.5 53t49.5 21q29 0 48 -20.5t19 -49.5q0 -27 -16.5 -47t-40.5 -24q33 -60 111 -60t116 54.5t38 129.5q0 80 -40.5 125t-112.5 45q-61 0 -127 -33q-5 -34 -24 -34q-14 0 -14 14q0 15 31 27l28 293q12 0 51.5 -2t61 -2.5t59 -1t61 2
t50.5 6.5t44.5 12.5t26.5 20.5q16 -41 16 -68q0 -91 -115 -91q-101 0 -251 74l-25 -242q81 37 164 37q107 0 176.5 -50t69.5 -134q0 -87 -73 -139.5t-182 -52.5z" />
    <glyph glyph-name="six.op" horiz-adv-x="598" 
d="M310 -12q-70 0 -123 27.5t-81.5 73.5t-42.5 98t-14 110q0 142 76.5 237.5t206.5 95.5q85 0 139 -40t54 -94q0 -32 -19 -53t-49 -21q-29 0 -48.5 20t-19.5 49q0 25 15.5 44t38.5 24q-25 64 -97 64q-53 0 -90.5 -33.5t-55 -89t-24 -115t-3.5 -123.5q12 59 58 94t115 35
q90 0 147 -56.5t57 -140.5q0 -88 -65.5 -147t-174.5 -59zM305 -6q61 0 92.5 59t31.5 141q0 79 -28 129t-87 50q-57 0 -99 -47.5t-41 -137.5q1 -77 35.5 -135.5t95.5 -58.5z" />
    <glyph glyph-name="seven.op" horiz-adv-x="502" 
d="M159 -124q3 27 8 53t16 54.5t17.5 47t26 51t26.5 45.5t33.5 50.5l32.5 46.5t38.5 52.5l37.5 50.5q2 2 16 18t18.5 22t13 18.5t14.5 23.5l-2 1q-20 -32 -43 -48.5t-63 -16.5q-28 0 -97 15.5t-105 15.5q-51 0 -71.5 -25.5t-22.5 -79.5h-9v223h9l4 -151h1q4 37 9 62t16 49.5
t29.5 36.5t45.5 12q26 0 52 -12.5t47 -30l41.5 -35t44 -30t47.5 -12.5q39 0 59.5 30.5t20.5 60.5q0 14 -1 20h9q1 -5 1 -18q0 -20 -7 -43t-14 -37.5t-22 -41.5t-21 -40q-60 -115 -88.5 -212t-36.5 -226h-131z" />
    <glyph glyph-name="eight.op" horiz-adv-x="608" 
d="M304 -12q-126 0 -190.5 48.5t-64.5 122.5q0 66 54 111.5t161 53.5q-95 7 -146.5 47t-51.5 102q0 71 63.5 114t174.5 43t174.5 -43t63.5 -114q0 -62 -51.5 -102t-146.5 -47q107 -8 161 -53.5t54 -111.5q0 -74 -64.5 -122.5t-190.5 -48.5zM304 -5q64 0 95 44.5t31 117.5
t-31.5 118.5t-94.5 45.5q-64 0 -95 -45.5t-31 -118.5t31 -117.5t95 -44.5zM304 623q-57 0 -83.5 -41t-26.5 -107t26.5 -107t83.5 -41q56 0 83 41t27 107t-27 107t-83 41z" />
    <glyph glyph-name="nine.op" horiz-adv-x="598" 
d="M263 -135q-87 0 -141 39.5t-54 93.5q0 33 18.5 54t48.5 21q29 0 49 -20.5t20 -49.5q0 -25 -15.5 -44t-39.5 -24q31 -63 104 -63q47 0 81.5 26t51.5 67t28 90.5t11 96.5v86q-13 -59 -58 -94t-115 -35q-89 0 -146 54.5t-57 138.5q0 89 66 147t173 58q70 0 122.5 -27
t81.5 -72t43 -97.5t14 -110.5q0 -142 -75 -238.5t-211 -96.5zM295 500q-61 0 -93 -57.5t-32 -137.5q0 -83 31.5 -129.5t87.5 -46.5q55 0 94.5 45.5t39.5 132.5q0 78 -33 135.5t-95 57.5z" />
    <glyph glyph-name="A.alt" horiz-adv-x="1097" 
d="M243 -157q-104 0 -172 49.5t-68 128.5q0 87 79 137.5t175 39.5q-64 -16 -99 -61.5t-35 -110.5q0 -73 42 -119t115 -46q86 0 147 66.5t114 191.5l210 491h-130q-67 0 -104.5 -37.5t-37.5 -92.5q0 -70 50 -111q-63 5 -103 38.5t-40 82.5q0 59 59.5 93.5t158.5 34.5h161
l218 -479q28 -62 58.5 -97.5t76.5 -35.5v-6h-329v6q53 0 69 34t-10 92l-34 76h-223l-38 -90q-28 -67 -51.5 -109t-59.5 -84t-85 -62t-114 -20zM595 218h215l-110 250z" />
    <glyph glyph-name="B.alt" horiz-adv-x="847" 
d="M215 0v6q56 0 73 19t17 75v510h-56q-67 0 -104.5 -37.5t-37.5 -92.5q0 -70 50 -111q-63 5 -103 38.5t-40 82.5q0 59 59.5 93.5t158.5 34.5h296q253 0 253 -151q0 -137 -220 -145v-3q241 -7 241 -155q0 -76 -60.5 -120t-191.5 -44h-335zM430 7h95q71 0 108 46t37 113
t-38 108t-115 41h-87v-308zM430 323h72q76 0 112 39t36 104q0 60 -32 102t-102 42h-86v-287z" />
    <glyph glyph-name="C.alt" horiz-adv-x="679" 
d="M386 -12q-154 0 -249 90t-95 229q0 142 99 232.5t249 90.5q115 0 184 -52t69 -111q0 -30 -19 -52.5t-49 -22.5q-29 0 -49 20.5t-20 50.5q0 26 16 46t41 24q-53 90 -165 90q-76 0 -127 -46t-72 -115t-21 -158q0 -48 6.5 -91.5t22 -84t40 -70t62 -47t85.5 -17.5
q113 0 170 86q-24 5 -39.5 24.5t-15.5 45.5q0 29 20 49.5t49 20.5q31 0 50 -22.5t19 -52.5q0 -58 -72 -107.5t-189 -49.5z" />
    <glyph glyph-name="D.alt" horiz-adv-x="936" 
d="M215 0v6q56 0 73 19t17 75v510h-56q-67 0 -104.5 -37.5t-37.5 -92.5q0 -70 50 -111q-63 5 -103 38.5t-40 82.5q0 59 59.5 93.5t158.5 34.5h304q164 0 260 -84t96 -225q0 -142 -96 -225.5t-260 -83.5h-321zM430 7h93q119 0 176.5 85.5t57.5 216.5q0 84 -22.5 149.5
t-76.5 108.5t-135 43h-93v-603z" />
    <glyph glyph-name="E.alt" horiz-adv-x="816" 
d="M215 0v6q56 0 73 19t17 75v510h-56q-67 0 -104.5 -37.5t-37.5 -92.5q0 -70 50 -111q-63 5 -103 38.5t-40 82.5q0 59 59.5 93.5t158.5 34.5h509l14 -193l-5 -1q-21 94 -75.5 140t-172.5 46h-72v-298h23q90 0 132.5 33t56.5 105h5v-283h-5q-14 72 -56.5 104.5t-132.5 32.5
h-23v-297h81q63 0 108 15.5t72.5 46t42 61.5t27.5 77l5 -1l-19 -206h-532z" />
    <glyph glyph-name="F.alt" horiz-adv-x="779" 
d="M215 0v6q56 0 73 19t17 75v510h-56q-67 0 -104.5 -37.5t-37.5 -92.5q0 -70 50 -111q-63 5 -103 38.5t-40 82.5q0 59 59.5 93.5t158.5 34.5h507l13 -200l-5 -1q-21 95 -77 144t-170 49h-70v-306h21q89 0 132 35t56 108h5v-293h-5q-13 72 -56 107t-132 35h-21v-191
q0 -58 21 -78.5t79 -20.5v-6h-315z" />
    <glyph glyph-name="G.alt" horiz-adv-x="771" 
d="M412 -12q-93 0 -165.5 25.5t-116 70t-66 100t-22.5 118.5q0 147 108.5 237.5t265.5 90.5q119 0 191 -50t72 -110q0 -29 -18.5 -52.5t-49.5 -23.5q-30 0 -50 20.5t-20 50.5q0 26 16 45.5t40 23.5q-55 89 -175 89q-119 0 -181.5 -91.5t-62.5 -232.5q0 -61 12.5 -113.5
t38.5 -96.5t71 -69t105 -25q72 0 149 40v151q0 56 -19 78t-78 22v7h304v-7q-54 0 -70 -18.5t-16 -73.5v-261q0 -75 -62 -126t-158 -78l-3 4q60 31 81 74t21 103v92q-79 -14 -142 -14z" />
    <glyph glyph-name="H.alt" horiz-adv-x="1142" 
d="M280 -157q-129 0 -201 51.5t-72 130.5q0 84 76.5 131t174.5 39q-132 -33 -132 -173q0 -75 38.5 -123t118.5 -48q185 0 185 272v487h-56q-67 0 -104.5 -37.5t-37.5 -92.5q0 -70 50 -111q-63 5 -103 38.5t-40 82.5q0 59 59.5 93.5t158.5 34.5h288v-7q-56 0 -73 -19t-17 -75
v-199h305v199q0 56 -17 75t-73 19v7h305v-7q-56 0 -73 -19t-17 -75v-417q0 -56 17 -75t73 -19v-6h-305v6q56 0 73 19t17 75v209h-305v-186q0 -132 -81.5 -206t-231.5 -74z" />
    <glyph glyph-name="I.alt" horiz-adv-x="549" 
d="M215 0v6q56 0 73 19t17 75v510h-56q-67 0 -104.5 -37.5t-37.5 -92.5q0 -70 50 -111q-63 5 -103 38.5t-40 82.5q0 59 59.5 93.5t158.5 34.5h288v-7q-56 0 -73 -19t-17 -75v-417q0 -56 17 -75t73 -19v-6h-305z" />
    <glyph glyph-name="J.alt" horiz-adv-x="705" 
d="M280 -157q-129 0 -201 51.5t-72 130.5q0 84 76.5 131t174.5 39q-132 -33 -132 -173q0 -75 38.5 -123t118.5 -48q185 0 185 272v487h-56q-67 0 -104.5 -37.5t-37.5 -92.5q0 -70 50 -111q-63 5 -103 38.5t-40 82.5q0 59 59.5 93.5t158.5 34.5h288v-7q-56 0 -73 -19t-17 -75
v-394q0 -132 -81.5 -206t-231.5 -74z" />
    <glyph glyph-name="K.alt" horiz-adv-x="869" 
d="M215 0v6q56 0 73 19t17 75v510h-56q-67 0 -104.5 -37.5t-37.5 -92.5q0 -70 50 -111q-63 5 -103 38.5t-40 82.5q0 59 59.5 93.5t158.5 34.5h288v-7q-56 0 -73 -19t-17 -75v-259l176 177q88 88 88 133q0 43 -78 43v7h280v-7q-74 0 -147 -55q-40 -29 -134 -123l-38 -40
l226 -319q1 -1 21.5 -31l27 -39l27.5 -38t33.5 -41t34.5 -35.5t39.5 -35t40 -25t45 -19t45.5 -5.5q34 0 77 19l2 -5q-82 -42 -165 -42q-97 0 -174.5 54t-154.5 168l-212 308l-60 -61v-146q0 -56 17 -75t73 -19v-6h-305z" />
    <glyph glyph-name="L.alt" horiz-adv-x="581" 
d="M224 -82v7q48 0 64 18.5t16 78.5v588h-56q-67 0 -104.5 -37.5t-37.5 -92.5q0 -70 50 -111q-63 5 -103 38.5t-40 82.5q0 59 59.5 93.5t158.5 34.5h298v-7q-59 0 -79.5 -20.5t-20.5 -78.5v-610q89 -20 224 -104l53.5 -35t57.5 -36.5t52 -28.5t59.5 -23t57.5 -7
q77 0 121.5 49.5t44.5 126.5q0 70 -33 110q70 -23 103.5 -67.5t33.5 -95.5q0 -69 -54 -115.5t-145 -46.5q-38 0 -73.5 8t-74.5 27.5t-64 34t-73 46l-72 46.5q-206 129 -375 129q-18 0 -48 -2z" />
    <glyph glyph-name="M.alt" horiz-adv-x="1304" 
d="M251 -157q-108 0 -177 49.5t-69 129.5q0 59 38.5 102.5t96 62t119.5 11.5q-63 -17 -98.5 -60t-35.5 -110q0 -73 43.5 -118t121.5 -45q95 0 164.5 69.5t78.5 200.5l31 475h-122q-67 0 -104.5 -37.5t-37.5 -92.5q0 -70 50 -111q-63 5 -102.5 38.5t-39.5 82.5
q0 59 59.5 93.5t158.5 34.5h239l213 -444l184 444h198v-7q-57 0 -74.5 -28t-14.5 -87l18 -377q3 -62 22.5 -87.5t74.5 -25.5v-6h-309v6q54 0 72 26t15 82l-22 430l-220 -526h-6l-248 505l-24 -389q-9 -137 -85 -214t-208 -77z" />
    <glyph glyph-name="N.alt" horiz-adv-x="1115" 
d="M253 -157q-107 0 -177 49.5t-70 129.5q0 87 79 137t175 39q-63 -17 -98.5 -60.5t-35.5 -108.5q0 -73 44 -118.5t121 -45.5q97 0 169 72t72 203v470h-99q-67 0 -104.5 -37.5t-37.5 -92.5q0 -70 50 -111q-63 5 -102.5 38.5t-39.5 82.5q0 59 59.5 93.5t158.5 34.5h197
l364 -425v99q0 74 -1 115t-5.5 82.5t-12 60.5t-22 35.5t-34.5 21t-50 4.5v7h260v-7q-30 0 -50 -4.5t-34.5 -21t-22 -35.5t-12 -60.5t-5.5 -82.5t-1 -115v-297l-6 -2l-440 512v-366q0 -136 -78 -216t-211 -80z" />
    <glyph glyph-name="O.alt" horiz-adv-x="758" 
d="M379 -12q-144 0 -240 90.5t-96 230.5q0 141 96 231t244 90q97 0 160.5 -36.5t63.5 -102.5q0 -60 -49.5 -90.5t-120.5 -30.5q-26 0 -46 4q57 8 87 43t30 85q0 51 -29 85t-98 34q-57 0 -98 -25.5t-63 -71t-32 -98t-10 -116.5t10 -117.5t32.5 -99t62.5 -71.5t96 -26
q55 0 95.5 26t62.5 70.5t32 96.5t10 112q0 36 -5 78q64 41 64 113q0 14 -5 31q82 -87 82 -214q0 -140 -96 -230.5t-240 -90.5z" />
    <glyph glyph-name="P.alt" horiz-adv-x="805" 
d="M215 0v6q56 0 73 19t17 75v510h-56q-67 0 -104.5 -37.5t-37.5 -92.5q0 -70 50 -111q-63 5 -103 38.5t-40 82.5q0 59 59.5 93.5t158.5 34.5h290q134 0 197.5 -48.5t63.5 -129.5t-63 -129t-198 -48h-45v7h23q77 0 113.5 48.5t36.5 121.5q0 72 -36.5 121t-113.5 49h-70v-510
q0 -56 17 -75t73 -19v-6h-305z" />
    <glyph glyph-name="Q.alt" horiz-adv-x="747" 
d="M825 -360q-80 0 -146.5 38t-147.5 110q-12 10 -45.5 40.5l-46.5 42t-41 33t-45.5 30t-41 16t-45.5 7.5q-33 0 -66 -17.5t-40 -17.5q-17 0 -17 15q0 10 11 13.5t36 6t41 6.5q32 10 63 22q59 23 104.5 51.5t86.5 71t63 103.5t22 136q0 49 -10 94t-31.5 87t-62.5 67.5
t-97 25.5q-55 0 -96.5 -24.5t-64 -64.5t-33.5 -84t-11 -91q0 -117 61.5 -181.5t147.5 -64.5q30 0 57 9q-41 -37 -128 -37q-113 0 -190.5 73t-77.5 186q0 124 93.5 206t243.5 82t242.5 -83t92.5 -210q0 -70 -32 -129t-91.5 -102.5t-132.5 -76t-167 -58.5q45 9 94 9
q68 0 121.5 -27.5t128.5 -95.5l31.5 -28l31 -27.5l27.5 -24t28 -23l26 -19.5t27 -18l25 -13t26.5 -11t25.5 -5.5t27 -2.5q65 0 127 65l4 -3q-87 -107 -208 -107z" />
    <glyph glyph-name="R.alt" horiz-adv-x="882" 
d="M215 6q56 0 73 19t17 75v510h-56q-67 0 -104.5 -37.5t-37.5 -92.5q0 -70 50 -111q-63 5 -103 38.5t-40 82.5q0 59 59.5 93.5t158.5 34.5h292q135 0 204.5 -42t69.5 -120q0 -147 -250 -156v-3h24q49 0 78.5 -5.5t53.5 -25.5t39 -42.5t41 -71.5l33.5 -65.5l33 -64.5
t31.5 -57t34.5 -53.5t35.5 -42t40.5 -35t44.5 -19.5t53 -8q25 0 57 9l1 -4q-67 -28 -140 -28q-100 0 -168 61.5t-132 184.5q-21 38 -80 165q-21 44 -31.5 60.5t-32 28t-57.5 11.5h-77v-195q0 -56 17 -75t73 -19v-6h-305v6zM510 302q78 0 118.5 44t40.5 111q0 68 -41 110.5
t-123 42.5h-75v-308h80z" />
    <glyph glyph-name="S.alt" horiz-adv-x="572" 
d="M283 -12q-107 0 -174.5 42.5t-67.5 98.5q0 31 20 52.5t49 21.5q28 0 48 -20.5t20 -49.5q0 -26 -16 -45.5t-40 -24.5q49 -68 153 -68q72 0 111 34t39 86q0 36 -19.5 62.5t-51.5 43.5t-70 32l-76 31.5t-70 37t-51.5 54.5t-19.5 78q0 80 60 128t165 48q96 0 157 -39t61 -95
q0 -31 -19 -51.5t-48 -20.5q-28 0 -47.5 19.5t-19.5 48.5q0 25 14.5 44t37.5 25q-44 62 -131 62q-64 0 -99 -32t-35 -79q0 -46 37 -77.5t90 -51.5t106 -42.5t90 -65t37 -104.5q0 -84 -64 -133.5t-176 -49.5z" />
    <glyph glyph-name="T.alt" horiz-adv-x="800" 
d="M243 0v6q58 0 79 20.5t21 78.5v503q-70 8 -92 8q-75 0 -107 -34.5t-32 -84.5q0 -68 58 -109q-67 8 -112.5 39t-45.5 83q0 58 57.5 86.5t146.5 28.5q66 0 207 -21t183 -21q76 0 108.5 35t32.5 83q0 64 -58 111q67 -8 112.5 -39t45.5 -83q0 -58 -57 -87.5t-146 -29.5
q-68 0 -176 16v-484q0 -58 21 -78.5t79 -20.5v-6h-325z" />
    <glyph glyph-name="U.alt" horiz-adv-x="886" 
d="M541 -12q-107 0 -176.5 53.5t-69.5 167.5v401h-48q-67 0 -104.5 -37.5t-37.5 -92.5q0 -70 50 -111q-63 5 -102.5 38.5t-39.5 82.5q0 59 59.5 93.5t158.5 34.5h278v-7q-56 0 -73 -22.5t-17 -79.5v-322q0 -184 155 -184q84 0 133.5 51.5t49.5 148.5v101q0 84 -2.5 130.5
t-8.5 86t-21 56.5t-36 25.5t-57 8.5v7h259v-7q-30 0 -50 -4.5t-34 -20.5t-21.5 -34.5t-12 -58.5t-5.5 -79t-1 -110v-101q0 -105 -58.5 -160t-167.5 -55z" />
    <glyph glyph-name="V.alt" horiz-adv-x="647" 
d="M326 -5l-212 485q-14 32 -23.5 50t-25.5 39.5t-37 31.5t-47 10v7h327v-7q-57 -1 -71 -35.5t11 -89.5l155 -373l55.5 96t53 104.5t45.5 123t16 112.5q0 88 -49 127.5t-147 20.5q50 79 131 79q52 0 87 -36t35 -109q0 -49 -18.5 -112.5t-39.5 -114t-63.5 -126.5
t-62.5 -108.5l-66 -103.5l-46 -71h-8z" />
    <glyph glyph-name="W.alt" horiz-adv-x="963" 
d="M316 -5l-202 485q-12 29 -21.5 47t-25.5 40t-37.5 33t-48.5 11v7h312v-7q-101 0 -55 -115l137 -344l114 292l-13 36q-48 131 -130 131v7h318v-7q-106 0 -61 -125l133 -371q147 261 147 429q0 190 -201 153q50 79 132 79q53 0 89.5 -36.5t36.5 -112.5q0 -207 -271 -632h-8
l-166 433l-172 -433h-7z" />
    <glyph glyph-name="X.alt" horiz-adv-x="1085" 
d="M249 -117q-102 0 -169.5 49.5t-67.5 129.5q0 59 38.5 102.5t96 62t119.5 11.5q-64 -16 -99 -61.5t-35 -110.5q0 -72 42 -115.5t116 -43.5q48 0 94 20t86.5 57.5t70.5 73t65 85.5l92 128l-123 190q-30 47 -50.5 74t-54 51.5t-68.5 24.5v7h333v-7q-39 0 -53.5 -18
t-8.5 -43.5t26 -56.5l85 -133l26 35q79 110 79 159q0 57 -74 57v7h286v-7q-76 0 -154 -68q-50 -46 -132 -155l-26 -36l129 -201q43 -66 85.5 -105.5t89.5 -39.5v-6h-332v6q55 0 61 35t-28 82l-91 140l-90 -126q-37 -51 -59.5 -79t-60 -67t-70 -58.5t-78 -34.5t-96.5 -15z
" />
    <glyph glyph-name="Y.alt" horiz-adv-x="610" 
d="M178 0v6q59 0 79.5 26t20.5 88v131l-149 244q-35 56 -67.5 86t-72.5 30v7h324v-7q-53 0 -64.5 -29.5t19.5 -80.5l130 -218q77 92 115 157.5t38 129.5q0 72 -50.5 109.5t-145.5 17.5q50 79 133 79q51 0 85.5 -34.5t34.5 -101.5q0 -38 -14 -80t-28.5 -71t-48.5 -74t-48 -61
l-53 -60q-9 -11 -14 -16v-158q0 -62 20.5 -88t79.5 -26v-6h-324z" />
    <glyph glyph-name="Z.alt" horiz-adv-x="569" 
d="M26 -82l-1 2l379 690h-167q-76 0 -125 -56t-74 -142h-5l15 206h501l2 -2l-385 -699q128 -19 289 -119l55.5 -35.5l58 -37t51.5 -28t59 -22.5t56 -7q77 0 121.5 49.5t44.5 126.5q0 70 -33 110q70 -23 103.5 -67.5t33.5 -95.5q0 -69 -54 -115.5t-145 -46.5q-38 0 -73.5 8
t-74.5 27.5t-64.5 34t-74 46.5l-72.5 47q-97 60 -186.5 94t-186.5 34q-26 0 -48 -2z" />
    <glyph glyph-name="d.alt" horiz-adv-x="549" 
d="M219 -11q-81 0 -131 62.5t-50 150.5q0 94 57.5 155.5t150.5 61.5q68 0 107 -36v118q-206 14 -347.5 96.5t-141.5 189.5q0 61 51 108.5t135 65.5q-74 -71 -74 -170q0 -72 33.5 -126t90.5 -85t119 -47.5t134 -21.5v22q3 112 69.5 174.5t165.5 62.5q74 0 107 -33t33 -83
q0 -146 -261 -156v-423q0 -38 15 -53.5t55 -15.5v-6h-182v57q-55 -68 -136 -68zM270 20q48 0 83 46v271q-6 30 -28.5 51.5t-55.5 21.5q-52 0 -81 -61.5t-29 -140.5q0 -81 28 -134.5t83 -53.5zM467 507q131 5 191 44.5t60 103.5q0 49 -32 77t-83 28q-136 0 -136 -192v-61z
" />
    <glyph glyph-name="d.alt1" horiz-adv-x="549" 
d="M219 -11q-81 0 -131 62.5t-50 150.5q0 94 57.5 155.5t150.5 61.5q68 0 107 -36v157q0 48 14 87q-60 25 -185.5 94.5t-227 111t-187.5 41.5q-91 0 -143.5 -46.5t-52.5 -118.5q0 -44 22.5 -87.5t66.5 -75.5q-91 6 -146 55t-55 119q0 77 65.5 128.5t181.5 51.5
q106 0 220.5 -44t252.5 -120.5t192 -99.5q23 61 72 92.5t110 31.5q55 0 83 -23.5t28 -62.5q0 -42 -31.5 -66.5t-88.5 -24.5q-40 0 -77 10v-518q0 -38 15 -53.5t55 -15.5v-6h-182v57q-55 -68 -136 -68zM270 20q48 0 83 46v271q-6 30 -28.5 51.5t-55.5 21.5q-52 0 -81 -61.5
t-29 -140.5q0 -81 28 -134.5t83 -53.5zM467 601q37 -10 75 -10q54 0 83 23.5t29 59.5q0 33 -23 55t-64 22q-53 0 -75.5 -38.5t-24.5 -111.5z" />
    <glyph glyph-name="h.alt" 
d="M13 0v6q40 0 55 15.5t15 53.5v435q0 22 3 42q-66 26 -145.5 73.5t-146 93t-135.5 88t-137.5 69t-127.5 26.5q-82 0 -125.5 -46t-43.5 -117q0 -98 79 -163q-89 19 -140 65.5t-51 111.5q0 72 59.5 124.5t164.5 52.5q72 0 150.5 -27.5t153.5 -73t146 -93l153 -97.5t148 -77
q15 97 72.5 147.5t148.5 50.5q79 0 117 -34t38 -85q0 -60 -51 -95t-136 -35q-35 0 -80 7v-183q82 84 161 84q51 0 85 -33t34 -99v-212q0 -38 15 -53.5t55 -15.5v-6h-249v6q36 0 50.5 15.5t14.5 53.5v221q0 82 -66 82q-49 0 -100 -53v-250q0 -38 15 -53.5t55 -15.5v-6h-254z
M197 527q42 -8 79 -8q81 0 129.5 33.5t48.5 89.5q0 48 -36 78t-92 30q-40 0 -67 -16t-40 -47t-17.5 -63t-4.5 -76v-21z" />
    <glyph glyph-name="h.alt1" horiz-adv-x="538" 
d="M13 0v6q40 0 55 15.5t15 53.5v498q0 38 -15 53.5t-55 15.5v6l184 20v-333q82 84 161 84q51 0 85 -33t34 -99v-369q45 7 81 7q84 0 135 -32.5t51 -93.5q0 -52 -38.5 -87.5t-119.5 -35.5q-92 0 -148.5 52t-69.5 145q-80 -32 -188.5 -99.5l-191 -123.5t-188 -100t-195.5 -44
q-109 0 -168 53t-59 126q0 63 48 110.5t133 64.5q-69 -64 -69 -156q0 -75 46 -120t132 -45q77 0 169.5 41t168.5 94t178 116t182 94q-3 18 -3 40v372q0 82 -66 82q-49 0 -100 -53v-250q0 -38 15 -53.5t55 -15.5v-6h-254zM477 -91v-16q0 -47 4 -79.5t16.5 -64t39 -47.5
t66.5 -16q59 0 95 31.5t36 80.5q0 56 -48 87.5t-127 31.5q-39 0 -82 -8z" />
    <glyph glyph-name="l.alt" horiz-adv-x="282" 
d="M14 0v6q40 0 55 15.5t15 53.5v437q0 22 3 40q-66 26 -145.5 73.5t-146 93t-135.5 88t-137.5 69t-127.5 26.5q-82 0 -125.5 -46t-43.5 -117q0 -98 79 -163q-89 19 -140 65.5t-51 111.5q0 72 59.5 124.5t164.5 52.5q72 0 150.5 -27.5t153.5 -73t146 -93l153 -97.5t148 -77
q15 97 72.5 147.5t148.5 50.5q79 0 117 -34t38 -85q0 -60 -51 -95t-136 -35q-34 0 -80 7v-443q0 -38 15 -53.5t55 -15.5v-6h-254zM198 527q42 -8 79 -8q81 0 129.5 33.5t48.5 89.5q0 48 -36 78t-92 30q-40 0 -67 -16t-40 -47t-17.5 -63t-4.5 -76v-21z" />
    <glyph glyph-name="l.alt1" horiz-adv-x="282" 
d="M14 0v6q40 0 55 15.5t15 53.5v444q-45 -8 -85 -8q-84 0 -131 32.5t-47 92.5q0 52 41 88t122 36q185 0 209 -196q78 33 186 100.5l189.5 123t184.5 99t190 43.5q105 0 165 -52.5t60 -124.5q0 -65 -51 -111.5t-140 -65.5q79 64 79 165q0 70 -42 115.5t-126 45.5
q-73 0 -164.5 -41.5t-167.5 -94.5t-179 -116.5t-182 -95.5q3 -17 3 -38v-441q0 -38 15 -53.5t55 -15.5v-6h-254zM84 528v28q0 36 -1.5 60t-8 52t-19 44t-35 27t-54.5 11q-57 0 -96 -32.5t-39 -81.5q0 -55 44.5 -86t123.5 -31q41 0 85 9z" />
    <glyph glyph-name="y.alt" horiz-adv-x="493" 
d="M7 -275q-55 0 -87.5 26.5t-32.5 68.5q0 48 38 72.5t85 24.5q66 0 164 -61q21 36 69 138l-148 313q-22 48 -46 71t-60 23v7h277v-7q-49 0 -60.5 -22.5t8.5 -63.5l85 -196l35 85q47 113 47 148q0 49 -64 49v7h192v-7q-63 0 -102 -60q-10 -16 -65 -142l-98 -221
q-35 -76 -64 -126q38 -24 113.5 -79.5l126 -90.5t122 -64.5t133.5 -29.5q49 0 85.5 17t55.5 44t27.5 55.5t8.5 58.5q0 94 -79 143q85 -10 138 -55.5t53 -110.5q0 -68 -57 -122.5t-173 -54.5q-64 0 -128 18.5t-124.5 52.5t-106.5 66l-106 77t-93 66q-36 -60 -74.5 -89
t-94.5 -29zM8 -267q52 0 89.5 28.5t71.5 86.5q-97 61 -159 61q-45 0 -79 -23.5t-34 -65.5q0 -39 30 -63t81 -24z" />
    <glyph glyph-name="A.sc" horiz-adv-x="612" 
d="M-24 0v6q56 0 89.5 40.5t71.5 125.5l162 358h7l195 -402q29 -62 57 -92t67 -30v-6h-303v6q49 0 61.5 31.5t-10.5 78.5l-26 59h-198l-6 -14q-33 -66 -16 -110.5t85 -44.5v-6h-236zM153 183h190l-95 214z" />
    <glyph glyph-name="B.sc" horiz-adv-x="616" 
d="M33 0v6q47 0 63.5 18.5t16.5 66.5v342q0 49 -16.5 67.5t-63.5 18.5v6h288q231 0 231 -127q0 -118 -214 -124v-3q233 -6 233 -133q0 -63 -56 -100.5t-174 -37.5h-308zM233 7h82q64 0 96.5 39t32.5 96q0 56 -33.5 91t-102.5 35h-75v-261zM233 275h60q67 0 99.5 33t32.5 89
q0 51 -27 86t-90 35h-75v-243z" />
    <glyph glyph-name="C.sc" horiz-adv-x="626" 
d="M368 -10q-151 0 -237.5 72.5t-86.5 194.5q0 128 91 203t231 75q26 0 69.5 -4t64 -4t63.5 7l16 -174l-5 -1q-38 86 -86 128t-116 42q-98 0 -148 -76.5t-50 -190.5t49 -190t144 -76q138 0 220 180l4 -1l-31 -160q-88 -25 -192 -25z" />
    <glyph glyph-name="D.sc" horiz-adv-x="695" 
d="M33 0v6q47 0 63.5 18.5t16.5 66.5v342q0 49 -16.5 67.5t-63.5 18.5v6h296q149 0 235 -70.5t86 -191.5t-86 -192t-235 -71h-296zM233 7h83q106 0 155 72t49 184q0 111 -49 183t-155 72h-83v-511z" />
    <glyph glyph-name="E.sc" horiz-adv-x="584" 
d="M33 0v6q47 0 63.5 18.5t16.5 66.5v342q0 49 -16.5 67.5t-63.5 18.5v6h479l12 -165l-5 -1q-18 79 -72 119t-156 40h-58v-253h24q78 0 115 29t51 89h4v-242h-4q-14 60 -51 88.5t-115 28.5h-24v-251h65q104 0 156 45.5t75 124.5l5 -1l-17 -176h-484z" />
    <glyph glyph-name="F.sc" horiz-adv-x="552" 
d="M33 0v6q47 0 63.5 18.5t16.5 66.5v342q0 49 -16.5 67.5t-63.5 18.5v6h476l13 -177l-6 -1q-39 171 -219 171h-64v-259h22q77 0 114.5 31t50.5 92h5v-252h-5q-13 61 -50.5 91.5t-114.5 30.5h-22v-157q0 -50 20.5 -69.5t69.5 -19.5v-6h-290z" />
    <glyph glyph-name="G.sc" horiz-adv-x="710" 
d="M374 -10q-156 0 -243 72.5t-87 193.5q0 128 94 203.5t234 75.5q26 0 74.5 -4t72.5 -4.5t68 6.5l16 -169l-4 -1q-72 166 -217 166q-104 0 -156 -77.5t-52 -196.5q0 -52 10.5 -96t32.5 -82t62.5 -59.5t94.5 -21.5q65 0 129 31v126q0 49 -19 69.5t-67 20.5v6h280v-6
q-47 0 -62.5 -17.5t-15.5 -66.5v-136q-125 -33 -245 -33z" />
    <glyph glyph-name="H.sc" horiz-adv-x="735" 
d="M33 0v6q47 0 63.5 18.5t16.5 66.5v342q0 49 -16.5 67.5t-63.5 18.5v6h280v-6q-47 0 -63.5 -18.5t-16.5 -67.5v-163h269v163q0 49 -16.5 67.5t-63.5 18.5v6h280v-6q-47 0 -63.5 -18.5t-16.5 -67.5v-342q0 -48 16.5 -66.5t63.5 -18.5v-6h-280v6q47 0 63.5 18.5t16.5 66.5
v170h-269v-170q0 -48 16.5 -66.5t63.5 -18.5v-6h-280z" />
    <glyph glyph-name="I.sc" horiz-adv-x="346" 
d="M33 0v6q47 0 63.5 18.5t16.5 66.5v342q0 49 -16.5 67.5t-63.5 18.5v6h280v-6q-47 0 -63.5 -18.5t-16.5 -67.5v-342q0 -48 16.5 -66.5t63.5 -18.5v-6h-280z" />
    <glyph glyph-name="J.sc" horiz-adv-x="335" 
d="M19 -142l-2 4q56 29 73 63.5t17 87.5v420q0 49 -16.5 67.5t-62.5 18.5v6h280v-6q-47 0 -64 -18.5t-17 -67.5v-402q0 -63 -59 -106.5t-149 -66.5z" />
    <glyph glyph-name="K.sc" horiz-adv-x="653" 
d="M33 0v6q47 0 63.5 18.5t16.5 66.5v342q0 49 -16.5 67.5t-63.5 18.5v6h280v-6q-47 0 -63.5 -18.5t-16.5 -67.5v-219l147 139q90 86 90 127q0 39 -70 39v6h251v-6q-65 0 -136 -52q-40 -29 -116 -105l-25 -25l184 -258q31 -43 53 -58t56 -15v-6h-200l-180 255l-54 -52v-112
q0 -48 16.5 -66.5t63.5 -18.5v-6h-280z" />
    <glyph glyph-name="L.sc" horiz-adv-x="554" 
d="M33 0v6q47 0 63.5 18.5t16.5 66.5v342q0 49 -16.5 67.5t-63.5 18.5v6h290v-6q-48 0 -69 -19.5t-21 -69.5v-423h52q191 0 232 180h5l-13 -187h-476z" />
    <glyph glyph-name="M.sc" horiz-adv-x="835" 
d="M6 0v6q49 0 74 22t38 79t21 176l7 84q6 86 -14.5 119t-86.5 33v6h208l191 -367l162 367h182v-6q-50 0 -67 -24t-13 -84l18 -295q5 -66 22 -88t64 -22v-6h-283v6q52 0 68 22t12 82l-22 347l-197 -443h-5l-223 426l-14 -157q-11 -113 -4 -174.5t28 -82t71 -20.5v-6h-237z
" />
    <glyph glyph-name="N.sc" horiz-adv-x="663" 
d="M21 0v6q73 0 91 48.5t18 223.5v97q0 78 -21 111t-83 33v6h182l327 -352v74q0 175 -17.5 223.5t-91.5 48.5v6h228v-6q-74 0 -91.5 -48.5t-17.5 -223.5v-251l-5 -1l-401 429v-146q0 -175 17.5 -223.5t92.5 -48.5v-6h-228z" />
    <glyph glyph-name="O.sc" horiz-adv-x="696" 
d="M348 -10q-132 0 -218.5 78t-86.5 195q0 116 86.5 194t218.5 78q131 0 217.5 -78t86.5 -194q0 -117 -86.5 -195t-217.5 -78zM348 -3q64 0 104.5 40t54.5 96t14 130q0 73 -14 129t-54.5 95.5t-104.5 39.5q-49 0 -84 -22t-54 -60.5t-27.5 -83t-8.5 -98.5t8.5 -99t27.5 -84
t54 -61t84 -22z" />
    <glyph glyph-name="P.sc" horiz-adv-x="579" 
d="M33 0v6q47 0 63.5 18.5t16.5 66.5v342q0 49 -16.5 67.5t-63.5 18.5v6h284q122 0 179 -41t57 -110t-57 -110t-179 -41h-44v7h21q68 0 99.5 41t31.5 103t-31.5 103t-99.5 41h-61v-427q0 -48 16.5 -66.5t63.5 -18.5v-6h-280z" />
    <glyph glyph-name="Q.sc" horiz-adv-x="696" 
d="M185 -125l-4 3q31 36 49.5 55t47 36.5t58.5 20.5q-128 4 -210.5 81.5t-82.5 191.5q0 116 86.5 194t218.5 78q131 0 217.5 -78t86.5 -194q0 -112 -80 -189t-204 -83q44 -4 122 -47t124 -43q56 0 93 58l5 -3q-22 -35 -39 -56.5t-48 -42.5t-64 -21q-42 0 -134 47.5
t-140 47.5q-57 0 -102 -56zM348 -3q64 0 104 39.5t54.5 96t14.5 130.5q0 54 -8.5 99t-27.5 83.5t-54 60t-83 21.5q-49 0 -84 -22t-54 -60.5t-27.5 -83t-8.5 -98.5t8.5 -99t27.5 -84t54 -61t84 -22z" />
    <glyph glyph-name="R.sc" horiz-adv-x="640" 
d="M33 0v6q47 0 63.5 18.5t16.5 66.5v342q0 49 -16.5 67.5t-63.5 18.5v6h290q121 0 180 -37t59 -103q0 -121 -220 -133v-3q41 -1 70.5 -4.5t49.5 -12.5t31.5 -17.5t20 -26t12 -29.5t10 -37.5t11.5 -42.5q13 -42 29.5 -57.5t56.5 -15.5v-6h-185q-14 24 -26 77l-10 45t-9 39.5
t-9 30.5t-13 25.5t-18.5 16t-27.5 11.5t-38 3h-64v-157q0 -48 16.5 -66.5t63.5 -18.5v-6h-280zM233 254h74q69 1 100 37.5t31 92.5q0 57 -32 95t-103 39h-70v-264z" />
    <glyph glyph-name="S.sc" horiz-adv-x="528" 
d="M256 -10q-79 0 -191 22l-10 160l5 1q18 -43 30.5 -66t36 -53t55.5 -44t75 -14q61 0 93 28.5t32 70.5q0 40 -33 67t-80 43.5t-94 35.5t-80 55t-33 89q0 70 53.5 110t147.5 40q24 0 62.5 -3.5t57.5 -4.5t59 5l11 -166l-5 -1q-16 38 -28.5 60.5t-34 50t-51 40.5t-67.5 13
q-54 0 -82.5 -26t-28.5 -63q0 -38 33.5 -64.5t81 -43t94.5 -36t80.5 -57t33.5 -92.5q0 -74 -58 -115.5t-165 -41.5z" />
    <glyph glyph-name="T.sc" horiz-adv-x="603" 
d="M151 0v6q49 0 69.5 19t20.5 70v423h-12q-80 0 -124 -46t-67 -130l-5 1l12 182h512l13 -182l-6 -1q-23 84 -67 130t-124 46h-12v-423q0 -50 20.5 -69.5t69.5 -19.5v-6h-300z" />
    <glyph glyph-name="U.sc" horiz-adv-x="645" 
d="M329 -10q-100 0 -163.5 45.5t-63.5 142.5v249q0 50 -17 71t-63 21v6h280v-6q-46 0 -63 -21t-17 -71v-267q0 -158 139 -158q73 0 117.5 43.5t44.5 126.5v82q0 62 -1 96t-4.5 68.5t-10 50.5t-19.5 29t-30 17t-44 4v6h227v-6q-74 0 -91.5 -47.5t-17.5 -217.5v-81
q0 -91 -52 -137t-151 -46z" />
    <glyph glyph-name="V.sc" horiz-adv-x="599" 
d="M300 -5l-191 411q-27 59 -51.5 86t-66.5 27v6h298v-6q-48 0 -61 -28.5t9 -75.5l121 -280l49 114q67 160 67 204q0 66 -77 66v6h225v-6q-73 0 -113 -65q-18 -28 -95 -210l-108 -249h-6z" />
    <glyph glyph-name="W.sc" horiz-adv-x="896" 
d="M290 -5l-182 411q-24 56 -49 84.5t-68 28.5v6h286v-6q-86 0 -46 -96l118 -281l101 240l-8 24q-22 59 -48 86t-65 27v6h292v-6q-48 0 -61.5 -28.5t5.5 -75.5l102 -271l42 106q61 159 61 200q1 33 -18 51t-60 18v6h226v-6q-72 0 -109 -58q-6 -9 -11.5 -19.5t-14 -31
l-15 -37l-22.5 -57l-29 -71.5l-102 -250h-6l-153 375l-160 -375h-6z" />
    <glyph glyph-name="X.sc" horiz-adv-x="618" 
d="M-20 0v6q72 0 139 63q33 32 106 125l38 46l-107 155q-31 45 -48.5 67t-44.5 39.5t-57 17.5v6h311v-6q-50 0 -59.5 -29.5t19.5 -70.5l73 -108l31 38q68 89 68 122q0 48 -68 48v6h244v-6q-66 0 -135 -62q-39 -35 -102 -114l-33 -39l118 -171q43 -63 77.5 -95t75.5 -32v-6
h-305v6q45 0 54.5 28t-21.5 75l-86 124l-36 -45q-67 -86 -67 -128q0 -24 20 -39t58 -15v-6h-263z" />
    <glyph glyph-name="Y.sc" horiz-adv-x="601" 
d="M157 0v6q48 0 69.5 20t21.5 71v117l-133 202q-35 55 -60.5 79t-61.5 24v6h296v-6q-48 0 -56.5 -28.5t15.5 -62.5l112 -181h2l44 77q60 105 60 144q0 51 -71 51v6h221v-6q-59 0 -105 -52q-29 -32 -97 -147l-46 -78v-145q0 -51 21 -71t69 -20v-6h-301z" />
    <glyph glyph-name="Z.sc" horiz-adv-x="567" 
d="M34 0l-1 2l344 516h-116q-76 0 -130.5 -48.5t-75.5 -120.5h-6l15 176h456l2 -2l-346 -516h137q78 0 129.5 49t77.5 125h5l-17 -181h-474z" />
    <glyph glyph-name="exclam.sc" horiz-adv-x="245" 
d="M119 161q-7 96 -36 189t-29 113q0 33 19 52.5t49 19.5t49 -19.5t19 -52.5q0 -20 -29 -113t-36 -189h-6zM123 -8q-27 0 -46 18t-19 43t19 42.5t46 17.5q26 0 45 -17.5t19 -42.5t-19 -43t-45 -18z" />
    <glyph glyph-name="exclamdown.sc" horiz-adv-x="245" 
d="M123 -8q-30 0 -49 19.5t-19 52.5q0 20 28.5 113t35.5 189h7q7 -96 35.5 -189t28.5 -113q0 -33 -18.5 -52.5t-48.5 -19.5zM122 535q26 0 45 -18t19 -43t-19 -42.5t-45 -17.5q-27 0 -46 17.5t-19 42.5t19 43t46 18z" />
    <glyph glyph-name="question.sc" horiz-adv-x="470" 
d="M212 163l-5 86q113 31 113 143q0 59 -28.5 97.5t-85.5 38.5q-70 0 -104 -57q23 -4 38 -21t15 -40q0 -26 -18.5 -43.5t-45.5 -17.5t-44 18.5t-17 45.5q0 48 56 84.5t145 36.5q93 0 150 -40.5t57 -102.5q0 -33 -20 -59t-54.5 -41.5t-65 -25t-66.5 -18.5q-7 -1 -10 -2
l-4 -82h-6zM217 -8q-27 0 -46 18t-19 43t19 42.5t46 17.5t46 -17.5t19 -42.5t-19 -43t-46 -18z" />
    <glyph glyph-name="questiondown.sc" horiz-adv-x="470" 
d="M239 -7q-93 0 -150 40.5t-57 102.5q0 33 20 59t54.5 41.5t65 25t66.5 18.5q7 1 10 2l4 82h6l5 -86q-113 -31 -113 -143q0 -59 28.5 -97.5t85.5 -38.5q70 0 104 57q-23 4 -38 21t-15 40q0 26 18.5 43.5t45.5 17.5t44 -18.5t17 -45.5q0 -48 -56 -84.5t-145 -36.5zM253 535
q27 0 46 -18t19 -43t-19 -42.5t-46 -17.5t-46 17.5t-19 42.5t19 43t46 18z" />
    <glyph glyph-name="bracketleft.sc" horiz-adv-x="316" 
d="M69 -143v731h218v-7h-82q-41 0 -41 -36v-646q0 -36 41 -36h82v-6h-218z" />
    <glyph glyph-name="bracketright.sc" horiz-adv-x="316" 
d="M29 -143v6h82q41 0 41 36v646q0 36 -41 36h-82v7h218v-731h-218z" />
    <glyph glyph-name="braceleft.sc" horiz-adv-x="349" 
d="M316 -148q-97 0 -141 21t-44 74q0 19 9 65.5t9 77.5q0 69 -34 99t-103 30v7q69 0 103 30t34 99q0 31 -9 77t-9 66q0 52 44 73.5t141 21.5v-6q-62 -1 -84 -18t-22 -55q0 -37 20.5 -103t20.5 -90q0 -50 -47 -69t-147 -27v-5q102 -9 148 -27.5t46 -68.5q0 -24 -20.5 -90
t-20.5 -103q0 -38 22 -55.5t84 -18.5v-5z" />
    <glyph glyph-name="braceright.sc" horiz-adv-x="349" 
d="M33 -148v5q62 1 84 18.5t22 55.5q0 37 -20.5 103t-20.5 90q0 50 46 68.5t148 27.5v5q-49 4 -80 9t-59.5 15t-41.5 27.5t-13 44.5q0 24 20.5 90t20.5 103q0 38 -22 55t-84 18v6q97 0 141 -21.5t44 -73.5q0 -20 -9 -66t-9 -77q0 -69 34 -99t103 -30v-7q-69 0 -103 -30
t-34 -99q0 -31 9 -77.5t9 -65.5q0 -53 -44 -74t-141 -21z" />
    <glyph glyph-name="parenleft.sc" horiz-adv-x="328" 
d="M306 -155l-42.5 26.5t-46.5 32.5t-51.5 43t-45 51t-41 63.5t-25.5 74t-11 87.5q0 62 20.5 118.5t45.5 92.5t69 74t66 52.5l62 39.5l3 -5q-64 -46 -111.5 -137.5t-47.5 -234.5t47.5 -235.5t111.5 -138.5z" />
    <glyph glyph-name="parenright.sc" horiz-adv-x="328" 
d="M22 -155l-3 4q64 46 111.5 138.5t47.5 235.5t-47.5 234.5t-111.5 137.5l3 5l62 -39.5t66 -52.5t69 -74t45.5 -92.5t20.5 -118.5q0 -45 -11 -87.5t-25.5 -74t-41 -63.5t-45 -51t-51.5 -43t-46.5 -32.5z" />
    <glyph glyph-name="dollar.sc" horiz-adv-x="506" 
d="M248 -89v79q-91 1 -147.5 36.5t-56.5 83.5q0 26 17 44t45 18q27 0 45 -17t18 -43q0 -22 -14 -39t-36 -22q35 -55 129 -55v223q-6 2 -27 10t-28 11l-25.5 11t-26 12.5l-22 13.5t-21 16l-16 18t-13.5 22t-7.5 25t-3.5 30q0 67 50.5 106t139.5 40v57h9v-57q82 0 134 -33.5
t52 -80.5q0 -27 -17 -44.5t-44 -17.5q-28 0 -46 17t-18 43q0 22 13 38.5t34 20.5q-33 52 -108 52v-202q6 -2 27 -10l29 -11t27.5 -11t28 -13t24 -15t23 -18l18 -19.5t15.5 -23.5t8.5 -27.5t3.5 -32.5q0 -69 -53.5 -112.5t-150.5 -43.5v-79h-9zM373 100q0 44 -29 68t-87 47
v-219q58 4 87 33.5t29 70.5zM145 435q0 -38 26.5 -61.5t76.5 -42.5v197q-51 -2 -77 -28.5t-26 -64.5z" />
    <glyph glyph-name="Euro.sc" horiz-adv-x="600" 
d="M344 -10q-100 0 -168.5 58t-83.5 158h-58v7h57q-2 30 -2 45q0 36 5 61h-60v7h61q20 96 91.5 152t170.5 56q89 0 140 -42.5t51 -92.5q0 -29 -17.5 -47.5t-45.5 -18.5q-27 0 -45.5 18t-18.5 45q0 24 16 41t40 20q-26 72 -103 72q-72 0 -112.5 -56t-51.5 -147h178v-7h-179
q-3 -27 -3 -57q0 -31 2 -49h180v-7h-179q9 -88 47.5 -146.5t114.5 -58.5q115 0 177 139l7 -3q-34 -73 -83 -110t-128 -37z" />
    <glyph glyph-name="yen.sc" horiz-adv-x="661" 
d="M187 0v5q49 0 68.5 22.5t19.5 74.5v65h-145v8h145v39l-42 66h-103v8h98l-86 136q-29 47 -55.5 71t-59.5 24v6h282v-6q-43 0 -53.5 -24.5t14.5 -67.5l106 -178h1l44 77q57 96 60 140q2 25 -15 39t-58 14v6h226v-6q-72 0 -123 -65q-18 -23 -82 -130l-20 -36h115v-8h-121
l-20 -36v-69h141v-8h-141v-65q0 -53 19 -75t69 -22v-5h-284z" />
    <glyph glyph-name="sterling.sc" horiz-adv-x="553" 
d="M124 -6q-33 0 -52 16.5t-19 42.5q0 30 26.5 47.5t73.5 17.5q17 0 47 -5q-5 24 -17 49.5t-33.5 60.5t-29.5 50h-78v7h73q-28 56 -28 102q0 70 59.5 111t151.5 41q91 0 144.5 -38.5t53.5 -86.5q0 -28 -18 -47t-45 -19q-26 0 -44.5 18t-18.5 44q0 24 15 41t39 21
q-30 61 -103 61q-115 0 -115 -145q0 -36 13 -103h155v-7h-154q15 -81 15 -112q0 -24 -5 -52q127 -22 152 -22q110 0 113 108h5q8 -204 -107 -204q-34 0 -60.5 17t-54.5 43.5t-51 38.5q-24 -96 -103 -96zM122 0q39 0 61 29t18 73q-20 8 -53 8q-41 0 -64 -15.5t-23 -41.5
q0 -23 16 -38t45 -15z" />
    <glyph glyph-name="ampersand.sc" horiz-adv-x="692" 
d="M257 -10q-94 0 -153.5 36.5t-59.5 97.5q0 51 41 81t118 56l-19 17q-72 63 -72 129q0 59 54.5 93t139.5 34q82 0 127.5 -30t45.5 -77q0 -19 -9 -35t-20.5 -26.5t-33 -20.5t-34.5 -14.5t-38.5 -12.5t-32.5 -10l182 -171q17 39 22 82q3 32 -13.5 46t-72.5 14v6h201v-6
q-57 0 -74 -15t-32 -62q-18 -55 -25 -69l80 -74q34 -31 54 -42t48 -11v-6h-199l-49 47q-65 -57 -176 -57zM297 2q75 0 130 50l-219 204q-51 -38 -51 -116q0 -60 35.5 -99t104.5 -39zM306 529q-39 0 -61.5 -24.5t-22.5 -63.5q0 -51 64 -110l22 -20q79 45 79 125q0 41 -20 67
t-61 26z" />
    <glyph glyph-name="Agrave.sc" horiz-adv-x="612" 
d="M-24 0v6q56 0 89.5 40.5t71.5 125.5l162 358h7l195 -402q29 -62 57 -92t67 -30v-6h-303v6q49 0 61.5 31.5t-10.5 78.5l-26 59h-198l-6 -14q-33 -66 -16 -110.5t85 -44.5v-6h-236zM153 183h190l-95 214zM389 572l-69.5 36.5t-67.5 36t-33 21.5q-18 15 -20.5 34t9.5 33
q12 15 31.5 15t37.5 -16q11 -9 26 -29.5t43.5 -63l44.5 -65.5z" />
    <glyph glyph-name="Aacute.sc" horiz-adv-x="612" 
d="M-24 0v6q56 0 89.5 40.5t71.5 125.5l162 358h7l195 -402q29 -62 57 -92t67 -30v-6h-303v6q49 0 61.5 31.5t-10.5 78.5l-26 59h-198l-6 -14q-33 -66 -16 -110.5t85 -44.5v-6h-236zM153 183h190l-95 214zM221 573l-2 2l46 65.5l42.5 61t26.5 30.5q18 16 37.5 16t31.5 -15
q12 -14 9.5 -33t-20.5 -34q-9 -7 -27.5 -18t-35.5 -20l-52 -26.5z" />
    <glyph glyph-name="Acircumflex.sc" horiz-adv-x="612" 
d="M-24 0v6q56 0 89.5 40.5t71.5 125.5l162 358h7l195 -402q29 -62 57 -92t67 -30v-6h-303v6q49 0 61.5 31.5t-10.5 78.5l-26 59h-198l-6 -14q-33 -66 -16 -110.5t85 -44.5v-6h-236zM153 183h190l-95 214zM157 566l-2 2l112 144q14 20 36 20q21 0 36 -20l111 -144l-2 -2
l-145 80z" />
    <glyph glyph-name="Adieresis.sc" horiz-adv-x="612" 
d="M-24 0v6q56 0 89.5 40.5t71.5 125.5l162 358h7l195 -402q29 -62 57 -92t67 -30v-6h-303v6q49 0 61.5 31.5t-10.5 78.5l-26 59h-198l-6 -14q-33 -66 -16 -110.5t85 -44.5v-6h-236zM153 183h190l-95 214zM215 591q-25 0 -43 18t-18 43t17.5 43t42.5 18t43 -18t18 -43
t-18 -43t-42 -18zM392 591q-25 0 -42.5 18t-17.5 43t17.5 43t42.5 18t43 -18t18 -43t-18 -43t-43 -18z" />
    <glyph glyph-name="Atilde.sc" horiz-adv-x="612" 
d="M-24 0v6q56 0 89.5 40.5t71.5 125.5l162 358h7l195 -402q29 -62 57 -92t67 -30v-6h-303v6q49 0 61.5 31.5t-10.5 78.5l-26 59h-198l-6 -14q-33 -66 -16 -110.5t85 -44.5v-6h-236zM153 183h190l-95 214zM154 586q3 28 6 46.5t11.5 43.5t24.5 38t40 13q26 0 78.5 -27
t79.5 -27q29 0 39.5 16.5t13.5 44.5l5 -1q-11 -140 -82 -140q-25 0 -77.5 27t-79.5 27q-29 0 -39.5 -16.5t-14.5 -44.5h-5z" />
    <glyph glyph-name="Aring.sc" horiz-adv-x="612" 
d="M-24 0v6q56 0 89.5 40.5t71.5 125.5l162 358h7l195 -402q29 -62 57 -92t67 -30v-6h-303v6q49 0 61.5 31.5t-10.5 78.5l-26 59h-198l-6 -14q-33 -66 -16 -110.5t85 -44.5v-6h-236zM153 183h190l-95 214zM302 564q-50 0 -82 27.5t-32 70.5q0 44 32 71.5t82 27.5t82.5 -27.5
t32.5 -71.5q0 -43 -32.5 -70.5t-82.5 -27.5zM302 568q40 0 40 94t-40 94t-40 -94t40 -94z" />
    <glyph glyph-name="AE.sc" horiz-adv-x="919" 
d="M-26 0v6q56 0 106.5 43t109.5 122l240 326q-15 22 -62 22v6h479l13 -165l-6 -1q-18 79 -71.5 119t-156.5 40h-58v-253h25q78 0 115 29t50 89h5v-242h-5q-13 60 -50 88.5t-115 28.5h-25v-251h66q104 0 156 45.5t74 124.5l5 -1l-17 -176h-484v6q47 0 63.5 18.5t16.5 66.5
v98h-235l-15 -22q-30 -41 -40 -77t7.5 -60t64.5 -24v-6h-256zM219 197h229v236q0 40 -14 58z" />
    <glyph glyph-name="Ccedilla.sc" horiz-adv-x="626" 
d="M325 -219q-71 0 -116 32l3 5q35 -22 78 -22q36 0 57.5 20t21.5 51q0 28 -16.5 46t-46.5 18q-18 0 -38 -8l-2 2l61 67q-132 9 -207.5 80t-75.5 185q0 128 91 203t231 75q26 0 69.5 -4t64 -4t63.5 7l16 -174l-5 -1q-38 86 -86 128t-116 42q-98 0 -148 -76.5t-50 -190.5
t49 -190t144 -76q138 0 220 180l4 -1l-31 -160q-109 -30 -223 -24l-50 -55q23 7 55 7q52 0 83 -20.5t31 -57.5q0 -43 -39 -63.5t-92 -20.5z" />
    <glyph glyph-name="Egrave.sc" horiz-adv-x="584" 
d="M33 0v6q47 0 63.5 18.5t16.5 66.5v342q0 49 -16.5 67.5t-63.5 18.5v6h479l12 -165l-5 -1q-18 79 -72 119t-156 40h-58v-253h24q78 0 115 29t51 89h4v-242h-4q-14 60 -51 88.5t-115 28.5h-24v-251h65q104 0 156 45.5t75 124.5l5 -1l-17 -176h-484zM387 572l-56 29.5
l-51.5 26.5t-36 20t-26.5 18q-18 15 -21 34t9 33q13 15 32 15t37 -16q11 -9 26.5 -30t43 -62l45.5 -66z" />
    <glyph glyph-name="Eacute.sc" horiz-adv-x="584" 
d="M33 0v6q47 0 63.5 18.5t16.5 66.5v342q0 49 -16.5 67.5t-63.5 18.5v6h479l12 -165l-5 -1q-18 79 -72 119t-156 40h-58v-253h24q78 0 115 29t51 89h4v-242h-4q-14 60 -51 88.5t-115 28.5h-24v-251h65q104 0 156 45.5t75 124.5l5 -1l-17 -176h-484zM221 573l-2 2l46 65.5
l42.5 61t26.5 30.5q18 16 37.5 16t31.5 -15q12 -14 9.5 -33t-20.5 -34q-9 -7 -27.5 -18t-35.5 -20l-52 -26.5z" />
    <glyph glyph-name="Ecircumflex.sc" horiz-adv-x="584" 
d="M33 0v6q47 0 63.5 18.5t16.5 66.5v342q0 49 -16.5 67.5t-63.5 18.5v6h479l12 -165l-5 -1q-18 79 -72 119t-156 40h-58v-253h24q78 0 115 29t51 89h4v-242h-4q-14 60 -51 88.5t-115 28.5h-24v-251h65q104 0 156 45.5t75 124.5l5 -1l-17 -176h-484zM155 566l-2 2l112 144
q14 20 36 20q21 0 36 -20l111 -144l-2 -2l-145 80z" />
    <glyph glyph-name="Edieresis.sc" horiz-adv-x="584" 
d="M33 0v6q47 0 63.5 18.5t16.5 66.5v342q0 49 -16.5 67.5t-63.5 18.5v6h479l12 -165l-5 -1q-18 79 -72 119t-156 40h-58v-253h24q78 0 115 29t51 89h4v-242h-4q-14 60 -51 88.5t-115 28.5h-24v-251h65q104 0 156 45.5t75 124.5l5 -1l-17 -176h-484zM218 591q-25 0 -43 18
t-18 43t17.5 43t42.5 18t43 -17.5t18 -43.5q0 -25 -17.5 -43t-42.5 -18zM396 591q-25 0 -43 18t-18 43t17.5 43t42.5 18t43 -17.5t18 -43.5q0 -25 -17.5 -43t-42.5 -18z" />
    <glyph glyph-name="Eth.sc" horiz-adv-x="695" 
d="M33 0v6q47 0 63.5 18.5t16.5 66.5v168h-70v9h70v165q0 49 -16.5 67.5t-63.5 18.5v6h296q149 0 235.5 -71t86.5 -191q0 -121 -86 -192t-236 -71h-296zM233 7h83q73 0 120.5 37t66 92t18.5 127q0 111 -49 183t-155 72h-84v-250h153v-9h-153v-252z" />
    <glyph glyph-name="Igrave.sc" horiz-adv-x="346" 
d="M33 0v6q47 0 63.5 18.5t16.5 66.5v342q0 49 -16.5 67.5t-63.5 18.5v6h280v-6q-47 0 -63.5 -18.5t-16.5 -67.5v-342q0 -48 16.5 -66.5t63.5 -18.5v-6h-280zM259 572l-56 29.5l-51.5 26.5t-36 20t-26.5 18q-18 15 -21 34t9 33q13 15 32 15t37 -16q11 -9 26.5 -30t43 -62
l45.5 -66z" />
    <glyph glyph-name="Iacute.sc" horiz-adv-x="346" 
d="M33 0v6q47 0 63.5 18.5t16.5 66.5v342q0 49 -16.5 67.5t-63.5 18.5v6h280v-6q-47 0 -63.5 -18.5t-16.5 -67.5v-342q0 -48 16.5 -66.5t63.5 -18.5v-6h-280zM82 573l-2 2l36 51.5l33 47.5l25 34t21 24q18 16 37 16t32 -15q12 -14 9 -33t-21 -34q-11 -10 -32 -21.5l-69 -36z
" />
    <glyph glyph-name="Icircumflex.sc" horiz-adv-x="346" 
d="M33 0v6q47 0 63.5 18.5t16.5 66.5v342q0 49 -16.5 67.5t-63.5 18.5v6h280v-6q-47 0 -63.5 -18.5t-16.5 -67.5v-342q0 -48 16.5 -66.5t63.5 -18.5v-6h-280zM27 566l-2 2l112 144q14 20 36 20q21 0 36 -20l111 -144l-2 -2l-145 80z" />
    <glyph glyph-name="Idieresis.sc" horiz-adv-x="346" 
d="M33 0v6q47 0 63.5 18.5t16.5 66.5v342q0 49 -16.5 67.5t-63.5 18.5v6h280v-6q-47 0 -63.5 -18.5t-16.5 -67.5v-342q0 -48 16.5 -66.5t63.5 -18.5v-6h-280zM85 591q-25 0 -43 18t-18 43t17.5 43t42.5 18t43 -18t18 -43t-18 -43t-42 -18zM262 591q-25 0 -42.5 18t-17.5 43
t17.5 43t42.5 18t43 -18t18 -43t-18 -43t-43 -18z" />
    <glyph glyph-name="Lslash.sc" horiz-adv-x="555" 
d="M33 213l-3 8l84 28v184q0 49 -16.5 67.5t-63.5 18.5v6h290v-6q-48 0 -69 -19.5t-21 -69.5v-142l130 45l3 -8l-133 -46v-272h52q191 0 232 180h5l-13 -187h-476v6q47 0 63.5 18.5t16.5 66.5v149z" />
    <glyph glyph-name="Ntilde.sc" horiz-adv-x="663" 
d="M21 0v6q73 0 91 48.5t18 223.5v97q0 78 -21 111t-83 33v6h182l327 -352v74q0 175 -17.5 223.5t-91.5 48.5v6h228v-6q-74 0 -91.5 -48.5t-17.5 -223.5v-251l-5 -1l-401 429v-146q0 -175 17.5 -223.5t92.5 -48.5v-6h-228zM198 586q2 21 4 36t7.5 36.5t13.5 35t22.5 23.5
t33.5 10q26 0 78.5 -27t79.5 -27q29 0 39.5 16.5t14.5 44.5l5 -1q-4 -39 -10 -65.5t-24.5 -50.5t-47.5 -24q-26 0 -78.5 27t-79.5 27q-29 0 -39.5 -17t-13.5 -44h-5z" />
    <glyph glyph-name="Ograve.sc" horiz-adv-x="696" 
d="M348 -10q-132 0 -218.5 78t-86.5 195q0 116 86.5 194t218.5 78q131 0 217.5 -78t86.5 -194q0 -117 -86.5 -195t-217.5 -78zM348 -3q64 0 104.5 40t54.5 96t14 130q0 73 -14 129t-54.5 95.5t-104.5 39.5q-49 0 -84 -22t-54 -60.5t-27.5 -83t-8.5 -98.5t8.5 -99t27.5 -84
t54 -61t84 -22zM425 572l-69.5 36.5t-67.5 36t-33 21.5q-18 15 -20.5 34t9.5 33q12 15 31.5 15t37.5 -16q11 -9 26 -29.5t43.5 -63l44.5 -65.5z" />
    <glyph glyph-name="Oacute.sc" horiz-adv-x="696" 
d="M348 -10q-132 0 -218.5 78t-86.5 195q0 116 86.5 194t218.5 78q131 0 217.5 -78t86.5 -194q0 -117 -86.5 -195t-217.5 -78zM348 -3q64 0 104.5 40t54.5 96t14 130q0 73 -14 129t-54.5 95.5t-104.5 39.5q-49 0 -84 -22t-54 -60.5t-27.5 -83t-8.5 -98.5t8.5 -99t27.5 -84
t54 -61t84 -22zM265 573l-2 2l46 65.5l42.5 61t26.5 30.5q18 16 37.5 16t31.5 -15q12 -14 9.5 -33t-20.5 -34q-9 -7 -27.5 -18t-35.5 -20l-52 -26.5z" />
    <glyph glyph-name="Ocircumflex.sc" horiz-adv-x="696" 
d="M348 -10q-132 0 -218.5 78t-86.5 195q0 116 86.5 194t218.5 78q131 0 217.5 -78t86.5 -194q0 -117 -86.5 -195t-217.5 -78zM348 -3q64 0 104.5 40t54.5 96t14 130q0 73 -14 129t-54.5 95.5t-104.5 39.5q-49 0 -84 -22t-54 -60.5t-27.5 -83t-8.5 -98.5t8.5 -99t27.5 -84
t54 -61t84 -22zM202 566l-2 2l111 144q15 20 36 20q22 0 36 -20l112 -144l-2 -2l-146 80z" />
    <glyph glyph-name="Odieresis.sc" horiz-adv-x="696" 
d="M348 -10q-132 0 -218.5 78t-86.5 195q0 116 86.5 194t218.5 78q131 0 217.5 -78t86.5 -194q0 -117 -86.5 -195t-217.5 -78zM348 -3q64 0 104.5 40t54.5 96t14 130q0 73 -14 129t-54.5 95.5t-104.5 39.5q-49 0 -84 -22t-54 -60.5t-27.5 -83t-8.5 -98.5t8.5 -99t27.5 -84
t54 -61t84 -22zM259 591q-25 0 -43 18t-18 43t17.5 43t42.5 18q26 0 43.5 -17.5t17.5 -43.5q0 -25 -17.5 -43t-42.5 -18zM437 591q-25 0 -43 18t-18 43t17.5 43t42.5 18q26 0 43.5 -17.5t17.5 -43.5q0 -25 -17.5 -43t-42.5 -18z" />
    <glyph glyph-name="Otilde.sc" horiz-adv-x="696" 
d="M348 -10q-132 0 -218.5 78t-86.5 195q0 116 86.5 194t218.5 78q131 0 217.5 -78t86.5 -194q0 -117 -86.5 -195t-217.5 -78zM348 -3q64 0 104.5 40t54.5 96t14 130q0 73 -14 129t-54.5 95.5t-104.5 39.5q-49 0 -84 -22t-54 -60.5t-27.5 -83t-8.5 -98.5t8.5 -99t27.5 -84
t54 -61t84 -22zM194 586q2 21 4 36t7.5 36.5t13.5 35t22.5 23.5t33.5 10q26 0 78.5 -27t79.5 -27q29 0 39.5 16.5t14.5 44.5l5 -1q-4 -39 -10 -65.5t-24.5 -50.5t-47.5 -24q-26 0 -78.5 27t-79.5 27q-29 0 -39.5 -17t-13.5 -44h-5z" />
    <glyph glyph-name="Oslash.sc" horiz-adv-x="696" 
d="M348 -10q-110 0 -189 55l-57 -64l-7 6l57 63q-109 79 -109 213q0 116 86.5 194t218.5 78q108 0 188 -56l58 65l6 -6l-57 -64q109 -79 109 -211q0 -117 -86.5 -195t-217.5 -78zM348 527q-49 0 -84 -22t-54 -60.5t-27.5 -83t-8.5 -98.5q0 -94 27 -158l290 323
q-42 99 -143 99zM348 -3q64 0 104.5 40t54.5 96t14 130q0 93 -27 156l-290 -323q42 -99 144 -99z" />
    <glyph glyph-name="OE.sc" horiz-adv-x="951" 
d="M348 -10q-132 0 -218.5 78t-86.5 195q0 116 86.5 194t218.5 78q22 0 70 -5t73 -5h388l12 -165l-5 -1q-18 79 -72 119t-156 40h-58v-253h24q78 0 115 29t51 89h4v-242h-4q-14 60 -51 88.5t-115 28.5h-24v-251h65q104 0 156 45.5t75 124.5l5 -1l-17 -176h-394q-24 0 -72 -5
t-70 -5zM348 -3q132 0 132 103v324q0 103 -132 103q-49 0 -84 -22t-54 -60.5t-27.5 -83t-8.5 -98.5t8.5 -99t27.5 -84t54 -61t84 -22z" />
    <glyph glyph-name="Scaron.sc" horiz-adv-x="528" 
d="M256 -10q-79 0 -191 22l-10 160l5 1q18 -43 30.5 -66t36 -53t55.5 -44t75 -14q61 0 93 28.5t32 70.5q0 40 -33 67t-80 43.5t-94 35.5t-80 55t-33 89q0 70 53.5 110t147.5 40q24 0 62.5 -3.5t57.5 -4.5t59 5l11 -166l-5 -1q-16 38 -28.5 60.5t-34 50t-51 40.5t-67.5 13
q-54 0 -82.5 -26t-28.5 -63q0 -38 33.5 -64.5t81 -43t94.5 -36t80.5 -57t33.5 -92.5q0 -74 -58 -115.5t-165 -41.5zM270 565q-21 0 -36 20l-111 144l2 2l145 -80l146 80l2 -2l-112 -144q-14 -20 -36 -20z" />
    <glyph glyph-name="Uacute.sc" horiz-adv-x="645" 
d="M329 -10q-100 0 -163.5 45.5t-63.5 142.5v249q0 50 -17 71t-63 21v6h280v-6q-46 0 -63 -21t-17 -71v-267q0 -158 139 -158q73 0 117.5 43.5t44.5 126.5v82q0 62 -1 96t-4.5 68.5t-10 50.5t-19.5 29t-30 17t-44 4v6h227v-6q-74 0 -91.5 -47.5t-17.5 -217.5v-81
q0 -91 -52 -137t-151 -46zM268 573l-2 2l46 65.5l42.5 61t26.5 30.5q18 16 37.5 16t31.5 -15q12 -14 9.5 -33t-20.5 -34q-9 -7 -27.5 -18t-35.5 -20l-52 -26.5z" />
    <glyph glyph-name="Ugrave.sc" horiz-adv-x="645" 
d="M329 -10q-100 0 -163.5 45.5t-63.5 142.5v249q0 50 -17 71t-63 21v6h280v-6q-46 0 -63 -21t-17 -71v-267q0 -158 139 -158q73 0 117.5 43.5t44.5 126.5v82q0 62 -1 96t-4.5 68.5t-10 50.5t-19.5 29t-30 17t-44 4v6h227v-6q-74 0 -91.5 -47.5t-17.5 -217.5v-81
q0 -91 -52 -137t-151 -46zM413 572l-56 29.5l-51.5 26.5t-36 20t-26.5 18q-18 15 -21 34t9 33q13 15 32 15t37 -16q11 -9 26.5 -30t43 -62l45.5 -66z" />
    <glyph glyph-name="Ucircumflex.sc" horiz-adv-x="645" 
d="M329 -10q-100 0 -163.5 45.5t-63.5 142.5v249q0 50 -17 71t-63 21v6h280v-6q-46 0 -63 -21t-17 -71v-267q0 -158 139 -158q73 0 117.5 43.5t44.5 126.5v82q0 62 -1 96t-4.5 68.5t-10 50.5t-19.5 29t-30 17t-44 4v6h227v-6q-74 0 -91.5 -47.5t-17.5 -217.5v-81
q0 -91 -52 -137t-151 -46zM195 566l-2 2l111 144q15 20 36 20q22 0 36 -20l112 -144l-2 -2l-146 80z" />
    <glyph glyph-name="Udieresis.sc" horiz-adv-x="645" 
d="M329 -10q-100 0 -163.5 45.5t-63.5 142.5v249q0 50 -17 71t-63 21v6h280v-6q-46 0 -63 -21t-17 -71v-267q0 -158 139 -158q73 0 117.5 43.5t44.5 126.5v82q0 62 -1 96t-4.5 68.5t-10 50.5t-19.5 29t-30 17t-44 4v6h227v-6q-74 0 -91.5 -47.5t-17.5 -217.5v-81
q0 -91 -52 -137t-151 -46zM255 591q-25 0 -43 18t-18 43t17.5 43t42.5 18t43 -18t18 -43t-18 -43t-42 -18zM432 591q-25 0 -42.5 18t-17.5 43t17.5 43t42.5 18t43 -18t18 -43t-18 -43t-43 -18z" />
    <glyph glyph-name="Yacute.sc" horiz-adv-x="601" 
d="M157 0v6q48 0 69.5 20t21.5 71v117l-133 202q-35 55 -60.5 79t-61.5 24v6h296v-6q-48 0 -56.5 -28.5t15.5 -62.5l112 -181h2l44 77q60 105 60 144q0 51 -71 51v6h221v-6q-59 0 -105 -52q-29 -32 -97 -147l-46 -78v-145q0 -51 21 -71t69 -20v-6h-301zM248 573l-2 2
l36 51.5l33 47.5l25 34t21 24q18 16 37 16t32 -15q12 -14 9 -33t-21 -34q-11 -10 -32 -21.5l-69 -36z" />
    <glyph glyph-name="Ydieresis.sc" horiz-adv-x="601" 
d="M157 0v6q48 0 69.5 20t21.5 71v117l-133 202q-35 55 -60.5 79t-61.5 24v6h296v-6q-48 0 -56.5 -28.5t15.5 -62.5l112 -181h2l44 77q60 105 60 144q0 51 -71 51v6h221v-6q-59 0 -105 -52q-29 -32 -97 -147l-46 -78v-145q0 -51 21 -71t69 -20v-6h-301zM234 591
q-25 0 -43 18t-18 43t17.5 43t42.5 18t43 -17.5t18 -43.5q0 -25 -17.5 -43t-42.5 -18zM412 591q-25 0 -43 18t-18 43t17.5 43t42.5 18t43 -17.5t18 -43.5q0 -25 -17.5 -43t-42.5 -18z" />
    <glyph glyph-name="Zcaron.sc" horiz-adv-x="567" 
d="M34 0l-1 2l344 516h-116q-76 0 -130.5 -48.5t-75.5 -120.5h-6l15 176h456l2 -2l-346 -516h137q78 0 129.5 49t77.5 125h5l-17 -181h-474zM290 565q-21 0 -36 20l-111 144l2 2l145 -80l146 80l2 -2l-112 -144q-14 -20 -36 -20z" />
    <glyph glyph-name="Thorn.sc" horiz-adv-x="583" 
d="M33 0v6q47 0 63.5 18.5t16.5 66.5v342q0 49 -16.5 67.5t-63.5 18.5v6h280v-6q-47 0 -63.5 -18.5t-16.5 -67.5v-16h84q122 0 179 -41t57 -110t-57 -110t-179 -41h-44v7h21q68 0 99.5 41t31.5 103t-31.5 103t-99.5 41h-61v-319q0 -48 16.5 -66.5t63.5 -18.5v-6h-280z" />
    <glyph glyph-name="zero.sc" horiz-adv-x="554" 
d="M277 -10q-107 0 -168 76t-61 196t61 196t168 76q106 0 167.5 -76.5t61.5 -195.5t-61.5 -195.5t-167.5 -76.5zM277 -4q30 0 51.5 23t32.5 63.5t16 84t5 95.5t-5 96t-16 84t-32.5 63.5t-51.5 23.5t-52 -23.5t-33 -63.5t-16 -84t-5 -96q0 -71 8 -126.5t33 -97.5t65 -42z" />
    <glyph glyph-name="one.sc" horiz-adv-x="362" 
d="M46 0v5q52 0 73.5 18t21.5 67v331q0 22 -8.5 32.5t-31.5 10.5h-63v5q127 10 213 56l3 -1v-438q0 -48 19.5 -64.5t68.5 -16.5v-5h-296z" />
    <glyph glyph-name="two.sc" horiz-adv-x="514" 
d="M62 0q-17 75 25 130q18 25 51 51.5t64 48.5t60 48.5t47 61t18 75.5q0 49 -25.5 80.5t-77.5 31.5q-80 0 -110 -70q24 -2 40 -19t16 -42q0 -26 -18 -43.5t-45 -17.5q-29 0 -46 19.5t-17 46.5q0 49 56 91t150 42q85 0 142.5 -37t57.5 -101q0 -41 -26 -72t-68.5 -51.5
t-88.5 -38.5t-94.5 -45t-76.5 -59q-21 -24 -28 -52q24 62 116 62q37 0 97.5 -19t90.5 -19q79 0 79 70q0 19 -4 34h7q9 -38 9 -76q0 -58 -23 -98t-75 -40q-33 0 -64 19.5t-51.5 43t-50.5 43t-60 19.5q-36 0 -55 -22.5t-19 -57.5q0 -17 5 -37h-8z" />
    <glyph glyph-name="three.sc" horiz-adv-x="520" 
d="M249 -10q-91 0 -148 34t-57 81q0 26 18 45.5t45 19.5q26 0 44.5 -18.5t18.5 -44.5q0 -22 -14.5 -39t-36.5 -21q28 -50 99 -50q65 0 98 39t33 100q0 128 -138 130q-27 1 -46 -4t-20 -5q-16 0 -16 13t16 13q1 0 19.5 -5t41.5 -5q64 0 94.5 37.5t30.5 94.5q0 55 -28 88.5
t-80 33.5q-63 0 -94 -50q22 -4 36.5 -21t14.5 -39q0 -26 -18.5 -43.5t-45.5 -17.5q-26 0 -43.5 18t-17.5 45q0 48 55 81.5t143 33.5t145 -34.5t57 -96.5q0 -61 -58.5 -95t-151.5 -36h-5v-3h5q98 0 162.5 -33.5t64.5 -101.5q0 -69 -65 -106.5t-158 -37.5z" />
    <glyph glyph-name="four.sc" horiz-adv-x="523" 
d="M197 0v5q52 0 73.5 18t21.5 67v47h-269l-2 5l84 83q35 33 62 83.5t27 102.5q0 83 -68 122q83 2 144.5 -25.5t61.5 -76.5q0 -34 -31.5 -66t-93.5 -75t-90 -68l-82 -77h257v90l109 97h4v-187q34 0 53 5l20 5q16 0 16 -14q0 -12 -16 -12l-20 4q-21 4 -53 4v-51
q0 -48 19.5 -64.5t68.5 -16.5v-5h-296z" />
    <glyph glyph-name="five.sc" horiz-adv-x="505" 
d="M233 -10q-87 0 -142 34t-55 81q0 27 18 46t45 19q28 0 45.5 -18t17.5 -44q0 -23 -14.5 -40t-37.5 -21q31 -50 94 -50q67 0 100 46.5t33 110.5q0 65 -35 104t-98 39q-57 0 -111 -27q-6 -30 -20 -30q-13 0 -13 12q0 13 27 23l24 249q7 0 58.5 -3t79.5 -3t71 2t70.5 11
t41.5 24q13 -33 13 -58q0 -42 -30 -62t-78 -20q-83 0 -223 68l-21 -206q69 32 148 32q94 0 157 -42t63 -115q0 -74 -65 -118t-163 -44z" />
    <glyph glyph-name="six.sc" horiz-adv-x="544" 
d="M282 -10q-63 0 -110 23t-73.5 61.5t-39 83t-12.5 94.5q0 121 69 201.5t186 80.5q77 0 125.5 -33.5t48.5 -80.5q0 -27 -17.5 -46t-44.5 -19t-45.5 18t-18.5 44q0 22 14 38t34 20q-23 53 -83 53q-44 0 -76.5 -28.5t-48.5 -75t-22 -98t-4 -105.5q12 50 52 81t101 31
q78 0 129 -48.5t51 -119.5q0 -75 -58.5 -125t-156.5 -50zM278 -5q52 0 78.5 50.5t26.5 118.5q0 67 -24 110t-73 43q-48 0 -85 -40.5t-36 -117.5q1 -67 30.5 -115.5t82.5 -48.5z" />
    <glyph glyph-name="seven.sc" horiz-adv-x="447" 
d="M141 0q4 40 18.5 81.5t28 70t47.5 76.5t50.5 69.5l62.5 80.5q7 8 22.5 24t24 26.5t15.5 23.5l-2 1q-14 -19 -24 -30t-30 -20t-45 -9q-24 0 -85 13t-93 13q-44 0 -63 -21.5t-21 -68.5h-7v194h7l4 -132h2q6 67 24.5 103.5t64.5 36.5q29 0 58.5 -16t50 -35.5t47.5 -35.5
t52 -16q35 0 53.5 26t18.5 51q0 12 -2 18h9q0 -2 0.5 -8t0.5 -10q0 -17 -6.5 -36t-13.5 -32t-21.5 -35.5t-21.5 -36.5q-93 -175 -103 -366h-123z" />
    <glyph glyph-name="eight.sc" horiz-adv-x="559" 
d="M279 -10q-117 0 -174 41t-57 104q0 57 47.5 95t146.5 44q-86 7 -132.5 40.5t-46.5 86.5q0 60 57 96.5t159 36.5t159 -36.5t57 -96.5q0 -53 -46 -86.5t-132 -40.5q99 -6 146 -44t47 -95q0 -63 -57 -104t-174 -41zM279 -4q54 0 81 37t27 100t-27.5 101t-80.5 38t-80 -38
t-27 -101t27 -100t80 -37zM279 528q-48 0 -70.5 -34t-22.5 -90q0 -126 93 -126q48 0 71 34.5t23 91.5q0 56 -23 90t-71 34z" />
    <glyph glyph-name="nine.sc" horiz-adv-x="545" 
d="M240 -10q-78 0 -126.5 33.5t-48.5 79.5q0 28 17 46.5t45 18.5q27 0 45 -17.5t18 -43.5q0 -22 -13.5 -38t-34.5 -20q26 -53 88 -53q49 0 82.5 32t47.5 83.5t18 98.5t2 95q-12 -49 -51.5 -79t-100.5 -30q-78 0 -129 46.5t-51 118.5q0 75 58.5 124t155.5 49q63 0 110 -22.5
t73.5 -61t39.5 -83t13 -94.5q0 -120 -68 -201.5t-190 -81.5zM269 529q-53 0 -79.5 -49t-26.5 -116q0 -72 27.5 -111t74.5 -39t80 38t33 114q0 67 -28 115t-81 48z" />
    </font>
</defs>
</svg>
