<?xml version="1.0" encoding="utf-8"?>
<!-- Generator: Adobe Illustrator 24.2.0, SVG Export Plug-In . SVG Version: 6.00 Build 0)  -->
<svg version="1.1" id="Calque_1" xmlns="http://www.w3.org/2000/svg" xmlns:xlink="http://www.w3.org/1999/xlink" x="0px" y="0px"
	 viewBox="0 0 570.9 86" style="enable-background:new 0 0 570.9 86;" xml:space="preserve">
<style type="text/css">
	.st0{fill:none;stroke:#E20514;}
	.st1{fill:#4C4C4C;}
	.st2{fill:#E20514;}
	.st3{fill:#6F6F6E;}
	.st4{fill:#E20613;}
</style>
<g id="Calque_1_1_">
	<line class="st0" x1="286.2" y1="10" x2="286.2" y2="74.6"/>
	<g>
		<path class="st1" d="M314.4,29.6v-2.1l7.3,0v6.6c-1.1,0.9-2.3,1.6-3.5,2.1c-1.2,0.5-2.4,0.7-3.7,0.7c-1.7,0-3.2-0.4-4.6-1.1
			c-1.4-0.7-2.4-1.8-3.1-3.2c-0.7-1.4-1.1-3-1.1-4.7c0-1.7,0.4-3.3,1.1-4.8c0.7-1.5,1.7-2.6,3-3.3c1.3-0.7,2.8-1.1,4.6-1.1
			c1.2,0,2.4,0.2,3.4,0.6c1,0.4,1.8,1,2.4,1.7c0.6,0.7,1,1.7,1.3,2.9l-2.1,0.6c-0.3-0.9-0.6-1.6-1-2.1c-0.4-0.5-0.9-0.9-1.6-1.2
			c-0.7-0.3-1.5-0.5-2.4-0.5c-1,0-1.9,0.2-2.7,0.5s-1.4,0.8-1.8,1.3c-0.5,0.5-0.8,1.1-1.1,1.8c-0.4,1.1-0.7,2.3-0.7,3.6
			c0,1.6,0.3,2.9,0.8,4c0.5,1.1,1.3,1.9,2.3,2.4c1,0.5,2.1,0.8,3.2,0.8c1,0,2-0.2,2.9-0.6c0.9-0.4,1.7-0.8,2.1-1.3v-3.3H314.4z"/>
		<path class="st1" d="M323.1,36.5l6.6-17.8h2.5l7.1,17.8h-2.6l-2-5.4h-7.2l-1.9,5.4H323.1z M328.1,29.2h5.8l-1.8-4.9
			c-0.5-1.5-1-2.7-1.2-3.7c-0.2,1.1-0.5,2.3-0.9,3.4L328.1,29.2z"/>
		<path class="st1" d="M341,36.5V18.8h3.4l4.1,12.6c0.4,1.2,0.7,2.1,0.8,2.6c0.2-0.6,0.5-1.6,0.9-2.9l4.1-12.4h3.1v17.8h-2.2V21.7
			l-5,14.9h-2.1l-5-15.1v15.1H341z"/>
		<path class="st1" d="M361.1,36.5V18.8h3.4l4.1,12.6c0.4,1.2,0.7,2.1,0.8,2.6c0.2-0.6,0.5-1.6,0.9-2.9l4.1-12.4h3.1v17.8h-2.2V21.7
			l-5,14.9h-2.1l-5-15.1v15.1H361.1z"/>
		<path class="st1" d="M381.3,36.5V18.8h12.5v2.1h-10.2v5.4h9.5v2.1h-9.5v6.1h10.6v2.1H381.3z"/>
	</g>
	<g>
		<path class="st2" d="M404,36.5V18.8h3.5v7h6.8v-7h3.5v17.8h-3.5v-7.8h-6.8v7.8H404z"/>
		<path class="st2" d="M421.3,18.8h3.5v9.6c0,1.5,0,2.5,0.1,3c0.1,0.7,0.5,1.3,1.1,1.8c0.6,0.4,1.3,0.7,2.3,0.7c1,0,1.7-0.2,2.2-0.6
			c0.5-0.4,0.8-0.9,0.9-1.5c0.1-0.6,0.2-1.6,0.2-3v-9.8h3.5v9.3c0,2.1-0.1,3.6-0.3,4.5c-0.2,0.9-0.5,1.6-1,2.2
			c-0.5,0.6-1.2,1.1-2,1.5c-0.8,0.4-2,0.5-3.3,0.5c-1.6,0-2.9-0.2-3.7-0.6c-0.9-0.4-1.5-0.9-2-1.5c-0.5-0.6-0.8-1.3-1-2
			c-0.2-1-0.3-2.5-0.3-4.5V18.8z"/>
		<path class="st2" d="M438.7,36.5V18.8h5.2l3.1,12.1l3.1-12.1h5.2v17.8h-3.2v-14l-3.4,14h-3.4l-3.4-14v14H438.7z"/>
		<path class="st2" d="M458.7,36.5V18.8h3.5v17.8H458.7z"/>
		<path class="st2" d="M469.4,36.5V21.8h-5.1v-3H478v3h-5.1v14.8H469.4z"/>
		<path class="st2" d="M480.3,36.5V18.8h12.8v3h-9.3v3.9h8.7v3h-8.7v4.8h9.6v3H480.3z"/>
		<path class="st2" d="M495.5,30.8l3.4-0.3c0.2,1.2,0.6,2,1.2,2.6s1.5,0.8,2.5,0.8c1.1,0,2-0.2,2.5-0.7c0.6-0.5,0.9-1.1,0.9-1.7
			c0-0.4-0.1-0.8-0.4-1.1c-0.2-0.3-0.7-0.6-1.3-0.8c-0.4-0.1-1.3-0.4-2.8-0.8c-1.9-0.5-3.2-1.1-3.9-1.8c-1.1-1-1.6-2.2-1.6-3.6
			c0-0.9,0.2-1.8,0.7-2.5s1.2-1.4,2.2-1.8s2.1-0.6,3.4-0.6c2.2,0,3.8,0.5,4.9,1.5s1.7,2.3,1.7,3.9l-3.5,0.2c-0.1-0.9-0.5-1.6-1-2
			c-0.5-0.4-1.2-0.6-2.2-0.6c-1,0-1.8,0.2-2.4,0.6c-0.4,0.3-0.6,0.6-0.6,1.1c0,0.4,0.2,0.8,0.5,1.1c0.4,0.4,1.5,0.8,3.2,1.2
			s2.9,0.8,3.8,1.3c0.8,0.4,1.4,1,1.9,1.8c0.5,0.8,0.7,1.7,0.7,2.8c0,1-0.3,2-0.8,2.9c-0.5,0.9-1.3,1.6-2.3,2
			c-1,0.4-2.3,0.6-3.8,0.6c-2.2,0-3.9-0.5-5-1.6C496.4,34.3,495.7,32.7,495.5,30.8z"/>
		<path class="st2" d="M516.3,36.5V21.8h-5.1v-3h13.7v3h-5.1v14.8H516.3z"/>
	</g>
	<g>
		<path class="st1" d="M305.4,53.1v-9.9h1.3v8.7h4.7v1.2H305.4z"/>
		<path class="st1" d="M317.5,50.8l1.2,0.2c-0.2,0.7-0.5,1.3-1.1,1.7c-0.5,0.4-1.2,0.6-2,0.6c-1,0-1.8-0.3-2.4-1
			c-0.6-0.6-0.9-1.5-0.9-2.7c0-1.2,0.3-2.1,0.9-2.8c0.6-0.7,1.4-1,2.3-1c0.9,0,1.7,0.3,2.3,1c0.6,0.7,0.9,1.6,0.9,2.8
			c0,0.1,0,0.2,0,0.3h-5.2c0,0.8,0.3,1.4,0.6,1.8c0.4,0.4,0.9,0.6,1.5,0.6c0.4,0,0.8-0.1,1.1-0.4C317.1,51.7,317.3,51.3,317.5,50.8z
			 M313.6,48.8h3.9c-0.1-0.6-0.2-1.1-0.4-1.4c-0.4-0.5-0.9-0.7-1.5-0.7c-0.5,0-1,0.2-1.4,0.6S313.7,48.2,313.6,48.8z"/>
		<path class="st1" d="M324.7,52.2c-0.4,0.4-0.9,0.7-1.3,0.8s-0.8,0.2-1.3,0.2c-0.8,0-1.3-0.2-1.8-0.6c-0.4-0.4-0.6-0.9-0.6-1.5
			c0-0.4,0.1-0.7,0.2-1c0.2-0.3,0.4-0.5,0.6-0.7c0.3-0.2,0.5-0.3,0.8-0.4c0.2-0.1,0.6-0.1,1-0.2c1-0.1,1.6-0.3,2.1-0.4
			c0-0.2,0-0.3,0-0.3c0-0.5-0.1-0.8-0.3-1c-0.3-0.3-0.7-0.4-1.3-0.4c-0.6,0-1,0.1-1.2,0.3c-0.3,0.2-0.5,0.6-0.6,1.1L320,48
			c0.1-0.5,0.3-0.9,0.5-1.2c0.2-0.3,0.6-0.6,1-0.7c0.5-0.2,1-0.3,1.6-0.3c0.6,0,1.1,0.1,1.4,0.2c0.4,0.1,0.6,0.3,0.8,0.5
			c0.2,0.2,0.3,0.5,0.4,0.8c0,0.2,0.1,0.6,0.1,1.1v1.6c0,1.1,0,1.8,0.1,2.1s0.1,0.6,0.3,0.9H325C324.8,52.9,324.8,52.6,324.7,52.2z
			 M324.6,49.5c-0.4,0.2-1.1,0.3-1.9,0.5c-0.5,0.1-0.8,0.2-1,0.2s-0.4,0.2-0.5,0.4c-0.1,0.2-0.2,0.4-0.2,0.6c0,0.3,0.1,0.6,0.4,0.8
			c0.2,0.2,0.6,0.3,1,0.3c0.5,0,0.9-0.1,1.2-0.3c0.4-0.2,0.6-0.5,0.8-0.8c0.1-0.3,0.2-0.7,0.2-1.2V49.5z"/>
		<path class="st1" d="M332.2,53.1v-0.9c-0.4,0.7-1.1,1.1-1.9,1.1c-0.6,0-1.1-0.2-1.5-0.5c-0.5-0.3-0.8-0.8-1.1-1.3
			c-0.3-0.6-0.4-1.2-0.4-1.9c0-0.7,0.1-1.4,0.3-1.9c0.2-0.6,0.6-1,1-1.3c0.5-0.3,1-0.5,1.6-0.5c0.4,0,0.8,0.1,1.1,0.3
			c0.3,0.2,0.6,0.4,0.8,0.7v-3.5h1.2v9.9H332.2z M328.4,49.5c0,0.9,0.2,1.6,0.6,2.1c0.4,0.5,0.8,0.7,1.3,0.7c0.5,0,1-0.2,1.3-0.7
			c0.4-0.4,0.5-1.1,0.5-2c0-1-0.2-1.7-0.5-2.2c-0.4-0.5-0.8-0.7-1.4-0.7c-0.5,0-1,0.2-1.3,0.7C328.6,47.9,328.4,48.6,328.4,49.5z"/>
		<path class="st1" d="M339.8,50.8l1.2,0.2c-0.2,0.7-0.5,1.3-1.1,1.7c-0.5,0.4-1.2,0.6-2,0.6c-1,0-1.8-0.3-2.4-1
			c-0.6-0.6-0.9-1.5-0.9-2.7c0-1.2,0.3-2.1,0.9-2.8c0.6-0.7,1.4-1,2.3-1c0.9,0,1.7,0.3,2.3,1c0.6,0.7,0.9,1.6,0.9,2.8
			c0,0.1,0,0.2,0,0.3h-5.2c0,0.8,0.3,1.4,0.6,1.8c0.4,0.4,0.9,0.6,1.5,0.6c0.4,0,0.8-0.1,1.1-0.4C339.4,51.7,339.7,51.3,339.8,50.8z
			 M336,48.8h3.9c-0.1-0.6-0.2-1.1-0.4-1.4c-0.4-0.5-0.9-0.7-1.5-0.7c-0.5,0-1,0.2-1.4,0.6S336,48.2,336,48.8z"/>
		<path class="st1" d="M342.5,53.1V46h1.1V47c0.3-0.5,0.5-0.8,0.7-1c0.2-0.2,0.5-0.2,0.8-0.2c0.4,0,0.8,0.1,1.2,0.4l-0.4,1.1
			c-0.3-0.2-0.6-0.3-0.9-0.3c-0.3,0-0.5,0.1-0.7,0.2c-0.2,0.2-0.4,0.4-0.4,0.7c-0.1,0.4-0.2,0.9-0.2,1.4v3.7H342.5z"/>
		<path class="st1" d="M351,53.1v-6.2h-1V46h1v-0.8c0-0.5,0-0.8,0.1-1.1c0.1-0.3,0.3-0.6,0.6-0.8c0.3-0.2,0.7-0.3,1.2-0.3
			c0.3,0,0.7,0,1.1,0.1l-0.2,1.1c-0.2,0-0.5-0.1-0.7-0.1c-0.4,0-0.6,0.1-0.8,0.2c-0.1,0.2-0.2,0.5-0.2,0.9V46h1.4v0.9h-1.4v6.2H351z
			"/>
		<path class="st1" d="M354.4,53.1V46h1.1V47c0.3-0.5,0.5-0.8,0.7-1c0.2-0.2,0.5-0.2,0.8-0.2c0.4,0,0.8,0.1,1.2,0.4l-0.4,1.1
			c-0.3-0.2-0.6-0.3-0.9-0.3c-0.3,0-0.5,0.1-0.7,0.2c-0.2,0.2-0.4,0.4-0.4,0.7c-0.1,0.4-0.2,0.9-0.2,1.4v3.7H354.4z"/>
		<path class="st1" d="M363.4,52.2c-0.4,0.4-0.9,0.7-1.3,0.8s-0.8,0.2-1.3,0.2c-0.8,0-1.3-0.2-1.8-0.6c-0.4-0.4-0.6-0.9-0.6-1.5
			c0-0.4,0.1-0.7,0.2-1c0.2-0.3,0.4-0.5,0.6-0.7c0.3-0.2,0.5-0.3,0.8-0.4c0.2-0.1,0.6-0.1,1-0.2c1-0.1,1.6-0.3,2.1-0.4
			c0-0.2,0-0.3,0-0.3c0-0.5-0.1-0.8-0.3-1c-0.3-0.3-0.7-0.4-1.3-0.4c-0.6,0-1,0.1-1.2,0.3c-0.3,0.2-0.5,0.6-0.6,1.1l-1.2-0.2
			c0.1-0.5,0.3-0.9,0.5-1.2c0.2-0.3,0.6-0.6,1-0.7c0.5-0.2,1-0.3,1.6-0.3c0.6,0,1.1,0.1,1.4,0.2c0.4,0.1,0.6,0.3,0.8,0.5
			c0.2,0.2,0.3,0.5,0.4,0.8c0,0.2,0.1,0.6,0.1,1.1v1.6c0,1.1,0,1.8,0.1,2.1s0.1,0.6,0.3,0.9h-1.2C363.5,52.9,363.5,52.6,363.4,52.2z
			 M363.3,49.5c-0.4,0.2-1.1,0.3-1.9,0.5c-0.5,0.1-0.8,0.2-1,0.2s-0.4,0.2-0.5,0.4c-0.1,0.2-0.2,0.4-0.2,0.6c0,0.3,0.1,0.6,0.4,0.8
			c0.2,0.2,0.6,0.3,1,0.3c0.5,0,0.9-0.1,1.2-0.3c0.4-0.2,0.6-0.5,0.8-0.8c0.1-0.3,0.2-0.7,0.2-1.2V49.5z"/>
		<path class="st1" d="M366.4,53.1V46h1.1v1c0.5-0.8,1.2-1.2,2.2-1.2c0.4,0,0.8,0.1,1.2,0.2c0.4,0.2,0.6,0.4,0.8,0.6
			c0.2,0.3,0.3,0.5,0.4,0.9c0,0.2,0.1,0.6,0.1,1.2v4.4h-1.2v-4.4c0-0.5,0-0.9-0.1-1.1c-0.1-0.2-0.3-0.4-0.5-0.6s-0.5-0.2-0.8-0.2
			c-0.5,0-0.9,0.2-1.3,0.5c-0.4,0.3-0.5,1-0.5,1.9v3.9H366.4z"/>
		<path class="st1" d="M378.3,50.5l1.2,0.2c-0.1,0.8-0.5,1.5-1,1.9c-0.5,0.5-1.2,0.7-1.9,0.7c-1,0-1.7-0.3-2.3-1s-0.9-1.6-0.9-2.8
			c0-0.8,0.1-1.5,0.4-2c0.2-0.6,0.6-1,1.1-1.3s1.1-0.4,1.7-0.4c0.8,0,1.4,0.2,1.9,0.6c0.5,0.4,0.8,1,0.9,1.7l-1.1,0.2
			c-0.1-0.5-0.3-0.8-0.6-1.1c-0.3-0.2-0.6-0.4-1-0.4c-0.6,0-1.1,0.2-1.4,0.7c-0.4,0.4-0.6,1.1-0.6,2.1c0,1,0.2,1.7,0.5,2.1
			c0.4,0.4,0.8,0.7,1.4,0.7c0.5,0,0.8-0.1,1.2-0.4S378.2,51.1,378.3,50.5z M375.6,54l0.3-1.2h0.9l-0.2,0.7c0.4,0,0.6,0.2,0.8,0.4
			c0.2,0.2,0.3,0.4,0.3,0.6c0,0.3-0.2,0.6-0.5,0.9c-0.3,0.3-0.8,0.4-1.4,0.4c-0.4,0-0.7,0-0.9-0.1l0.1-0.8c0.3,0,0.5,0,0.6,0
			c0.4,0,0.7-0.1,0.9-0.2c0.1-0.1,0.2-0.2,0.2-0.3c0-0.1,0-0.2-0.1-0.2c-0.1-0.1-0.1-0.1-0.3-0.2S375.9,54,375.6,54z"/>
		<path class="st1" d="M385,52.2c-0.4,0.4-0.9,0.7-1.3,0.8s-0.8,0.2-1.3,0.2c-0.8,0-1.3-0.2-1.8-0.6c-0.4-0.4-0.6-0.9-0.6-1.5
			c0-0.4,0.1-0.7,0.2-1c0.2-0.3,0.4-0.5,0.6-0.7c0.3-0.2,0.5-0.3,0.8-0.4c0.2-0.1,0.6-0.1,1-0.2c1-0.1,1.6-0.3,2.1-0.4
			c0-0.2,0-0.3,0-0.3c0-0.5-0.1-0.8-0.3-1c-0.3-0.3-0.7-0.4-1.3-0.4c-0.6,0-1,0.1-1.2,0.3c-0.3,0.2-0.5,0.6-0.6,1.1l-1.2-0.2
			c0.1-0.5,0.3-0.9,0.5-1.2c0.2-0.3,0.6-0.6,1-0.7c0.5-0.2,1-0.3,1.6-0.3c0.6,0,1.1,0.1,1.4,0.2c0.4,0.1,0.6,0.3,0.8,0.5
			c0.2,0.2,0.3,0.5,0.4,0.8c0,0.2,0.1,0.6,0.1,1.1v1.6c0,1.1,0,1.8,0.1,2.1s0.1,0.6,0.3,0.9h-1.2C385.1,52.9,385.1,52.6,385,52.2z
			 M384.9,49.5c-0.4,0.2-1.1,0.3-1.9,0.5c-0.5,0.1-0.8,0.2-1,0.2s-0.4,0.2-0.5,0.4c-0.1,0.2-0.2,0.4-0.2,0.6c0,0.3,0.1,0.6,0.4,0.8
			c0.2,0.2,0.6,0.3,1,0.3c0.5,0,0.9-0.1,1.2-0.3c0.4-0.2,0.6-0.5,0.8-0.8c0.1-0.3,0.2-0.7,0.2-1.2V49.5z"/>
		<path class="st1" d="M388,44.6v-1.4h1.2v1.4H388z M388,53.1V46h1.2v7.2H388z"/>
		<path class="st1" d="M390.5,51l1.2-0.2c0.1,0.5,0.2,0.8,0.5,1.1c0.3,0.3,0.7,0.4,1.3,0.4c0.5,0,0.9-0.1,1.2-0.3
			c0.3-0.2,0.4-0.5,0.4-0.8c0-0.3-0.1-0.5-0.3-0.6c-0.2-0.1-0.6-0.2-1.2-0.4c-0.9-0.2-1.5-0.4-1.8-0.6c-0.3-0.2-0.6-0.4-0.8-0.7
			c-0.2-0.3-0.3-0.6-0.3-1c0-0.3,0.1-0.6,0.2-0.9c0.1-0.3,0.3-0.5,0.6-0.7c0.2-0.1,0.4-0.3,0.7-0.4c0.3-0.1,0.7-0.1,1-0.1
			c0.5,0,1,0.1,1.4,0.2s0.7,0.4,0.9,0.7s0.3,0.6,0.4,1.1l-1.2,0.2c-0.1-0.4-0.2-0.7-0.5-0.9c-0.2-0.2-0.6-0.3-1.1-0.3
			c-0.5,0-0.9,0.1-1.2,0.3c-0.2,0.2-0.3,0.4-0.3,0.6c0,0.2,0,0.3,0.1,0.4c0.1,0.1,0.2,0.2,0.5,0.3c0.1,0,0.5,0.1,1,0.3
			c0.8,0.2,1.4,0.4,1.7,0.6c0.3,0.1,0.6,0.4,0.8,0.6s0.3,0.6,0.3,1c0,0.4-0.1,0.8-0.3,1.1c-0.2,0.4-0.6,0.6-1,0.8
			c-0.4,0.2-0.9,0.3-1.5,0.3c-0.9,0-1.6-0.2-2.1-0.6C390.9,52.3,390.6,51.7,390.5,51z"/>
		<path class="st1" d="M405.8,53.1v-0.9c-0.4,0.7-1.1,1.1-1.9,1.1c-0.6,0-1.1-0.2-1.5-0.5c-0.5-0.3-0.8-0.8-1.1-1.3
			c-0.3-0.6-0.4-1.2-0.4-1.9c0-0.7,0.1-1.4,0.3-1.9c0.2-0.6,0.6-1,1-1.3c0.5-0.3,1-0.5,1.6-0.5c0.4,0,0.8,0.1,1.1,0.3
			c0.3,0.2,0.6,0.4,0.8,0.7v-3.5h1.2v9.9H405.8z M402.1,49.5c0,0.9,0.2,1.6,0.6,2.1c0.4,0.5,0.8,0.7,1.3,0.7c0.5,0,1-0.2,1.3-0.7
			c0.4-0.4,0.5-1.1,0.5-2c0-1-0.2-1.7-0.5-2.2c-0.4-0.5-0.8-0.7-1.4-0.7c-0.5,0-1,0.2-1.3,0.7C402.3,47.9,402.1,48.6,402.1,49.5z"/>
		<path class="st1" d="M413.5,50.8l1.2,0.2c-0.2,0.7-0.5,1.3-1.1,1.7c-0.5,0.4-1.2,0.6-2,0.6c-1,0-1.8-0.3-2.4-1
			c-0.6-0.6-0.9-1.5-0.9-2.7c0-1.2,0.3-2.1,0.9-2.8c0.6-0.7,1.4-1,2.3-1c0.9,0,1.7,0.3,2.3,1c0.6,0.7,0.9,1.6,0.9,2.8
			c0,0.1,0,0.2,0,0.3h-5.2c0,0.8,0.3,1.4,0.6,1.8c0.4,0.4,0.9,0.6,1.5,0.6c0.4,0,0.8-0.1,1.1-0.4C413.1,51.7,413.4,51.3,413.5,50.8z
			 M409.7,48.8h3.9c-0.1-0.6-0.2-1.1-0.4-1.4c-0.4-0.5-0.9-0.7-1.5-0.7c-0.5,0-1,0.2-1.4,0.6S409.7,48.2,409.7,48.8z"/>
		<path class="st1" d="M419.9,53.1v-9.9h1.2v9.9H419.9z"/>
		<path class="st1" d="M427.5,52.2c-0.4,0.4-0.9,0.7-1.3,0.8s-0.8,0.2-1.3,0.2c-0.8,0-1.3-0.2-1.8-0.6c-0.4-0.4-0.6-0.9-0.6-1.5
			c0-0.4,0.1-0.7,0.2-1c0.2-0.3,0.4-0.5,0.6-0.7c0.3-0.2,0.5-0.3,0.8-0.4c0.2-0.1,0.6-0.1,1-0.2c1-0.1,1.6-0.3,2.1-0.4
			c0-0.2,0-0.3,0-0.3c0-0.5-0.1-0.8-0.3-1c-0.3-0.3-0.7-0.4-1.3-0.4c-0.6,0-1,0.1-1.2,0.3c-0.3,0.2-0.5,0.6-0.6,1.1l-1.2-0.2
			c0.1-0.5,0.3-0.9,0.5-1.2c0.2-0.3,0.6-0.6,1-0.7c0.5-0.2,1-0.3,1.6-0.3c0.6,0,1.1,0.1,1.4,0.2c0.4,0.1,0.6,0.3,0.8,0.5
			c0.2,0.2,0.3,0.5,0.4,0.8c0,0.2,0.1,0.6,0.1,1.1v1.6c0,1.1,0,1.8,0.1,2.1s0.1,0.6,0.3,0.9h-1.2C427.6,52.9,427.5,52.6,427.5,52.2z
			 M427.4,49.5c-0.4,0.2-1.1,0.3-1.9,0.5c-0.5,0.1-0.8,0.2-1,0.2s-0.4,0.2-0.5,0.4c-0.1,0.2-0.2,0.4-0.2,0.6c0,0.3,0.1,0.6,0.4,0.8
			c0.2,0.2,0.6,0.3,1,0.3c0.5,0,0.9-0.1,1.2-0.3c0.4-0.2,0.6-0.5,0.8-0.8c0.1-0.3,0.2-0.7,0.2-1.2V49.5z"/>
	</g>
	<g>
		<path class="st2" d="M434,46h1.7v1c0.6-0.8,1.3-1.1,2.2-1.1c0.4,0,0.8,0.1,1.2,0.3c0.3,0.2,0.6,0.5,0.8,0.9c0.3-0.4,0.6-0.7,1-0.9
			c0.4-0.2,0.7-0.3,1.1-0.3c0.5,0,0.9,0.1,1.3,0.3c0.4,0.2,0.6,0.5,0.8,0.9c0.1,0.3,0.2,0.8,0.2,1.5v4.6h-1.8V49
			c0-0.7-0.1-1.2-0.2-1.4c-0.2-0.3-0.4-0.4-0.8-0.4c-0.3,0-0.5,0.1-0.7,0.2c-0.2,0.2-0.4,0.4-0.5,0.7c-0.1,0.3-0.2,0.8-0.2,1.5v3.4
			h-1.8v-3.9c0-0.7,0-1.1-0.1-1.3c-0.1-0.2-0.2-0.4-0.3-0.5s-0.3-0.1-0.6-0.1c-0.3,0-0.5,0.1-0.8,0.2c-0.2,0.2-0.4,0.4-0.5,0.7
			c-0.1,0.3-0.1,0.8-0.1,1.5v3.5H434V46z"/>
		<path class="st2" d="M450.1,50.8l1.8,0.3c-0.2,0.7-0.6,1.2-1.1,1.6s-1.1,0.5-1.9,0.5c-1.2,0-2.1-0.4-2.7-1.2
			c-0.5-0.7-0.7-1.5-0.7-2.5c0-1.2,0.3-2.1,0.9-2.8s1.4-1,2.3-1c1,0,1.8,0.4,2.4,1.1s0.9,1.8,0.9,3.2h-4.6c0,0.6,0.2,1,0.4,1.3
			s0.6,0.5,1.1,0.5c0.3,0,0.5-0.1,0.7-0.2C449.9,51.5,450,51.2,450.1,50.8z M450.2,48.9c0-0.5-0.2-1-0.4-1.3c-0.3-0.3-0.6-0.4-1-0.4
			c-0.4,0-0.7,0.2-1,0.5c-0.3,0.3-0.4,0.7-0.4,1.2H450.2z"/>
		<path class="st2" d="M452.9,51.1l1.8-0.3c0.1,0.4,0.2,0.6,0.5,0.8c0.2,0.2,0.6,0.3,1,0.3c0.5,0,0.8-0.1,1.1-0.3
			c0.2-0.1,0.2-0.3,0.2-0.5c0-0.1,0-0.3-0.1-0.4c-0.1-0.1-0.3-0.2-0.6-0.2c-1.5-0.3-2.4-0.6-2.8-0.9c-0.5-0.4-0.8-0.9-0.8-1.6
			c0-0.6,0.2-1.1,0.7-1.6c0.5-0.4,1.2-0.6,2.2-0.6c1,0,1.7,0.2,2.1,0.5c0.5,0.3,0.8,0.8,1,1.4l-1.7,0.3c-0.1-0.3-0.2-0.5-0.4-0.6
			s-0.5-0.2-0.9-0.2c-0.5,0-0.8,0.1-1,0.2c-0.1,0.1-0.2,0.2-0.2,0.4c0,0.1,0.1,0.2,0.2,0.3c0.2,0.1,0.7,0.3,1.7,0.5
			c1,0.2,1.7,0.5,2,0.8c0.4,0.3,0.6,0.8,0.6,1.4c0,0.7-0.3,1.2-0.8,1.7c-0.5,0.5-1.3,0.7-2.4,0.7c-0.9,0-1.7-0.2-2.2-0.6
			C453.4,52.3,453.1,51.8,452.9,51.1z"/>
		<path class="st2" d="M465.6,53.1V52c-0.3,0.4-0.6,0.7-1,0.9c-0.4,0.2-0.8,0.3-1.3,0.3c-0.5,0-0.9-0.1-1.3-0.3
			c-0.4-0.2-0.6-0.5-0.8-0.9c-0.2-0.4-0.2-0.9-0.2-1.6V46h1.8v3.3c0,1,0,1.6,0.1,1.9c0.1,0.2,0.2,0.4,0.4,0.5
			c0.2,0.1,0.4,0.2,0.7,0.2c0.3,0,0.6-0.1,0.8-0.3c0.2-0.2,0.4-0.4,0.5-0.7c0.1-0.3,0.1-0.9,0.1-1.9v-3h1.8v7.2H465.6z"/>
		<path class="st2" d="M470.9,53.1h-1.8V46h1.7v1c0.3-0.5,0.6-0.8,0.8-1c0.2-0.2,0.5-0.2,0.8-0.2c0.4,0,0.8,0.1,1.2,0.4l-0.6,1.7
			c-0.3-0.2-0.6-0.3-0.9-0.3c-0.3,0-0.5,0.1-0.7,0.2c-0.2,0.1-0.3,0.4-0.4,0.8s-0.2,1.2-0.2,2.4V53.1z"/>
		<path class="st2" d="M478.4,50.8l1.8,0.3c-0.2,0.7-0.6,1.2-1.1,1.6s-1.1,0.5-1.9,0.5c-1.2,0-2.1-0.4-2.7-1.2
			c-0.5-0.7-0.7-1.5-0.7-2.5c0-1.2,0.3-2.1,0.9-2.8s1.4-1,2.3-1c1,0,1.8,0.4,2.4,1.1s0.9,1.8,0.9,3.2h-4.6c0,0.6,0.2,1,0.4,1.3
			s0.6,0.5,1.1,0.5c0.3,0,0.5-0.1,0.7-0.2C478.2,51.5,478.3,51.2,478.4,50.8z M478.5,48.9c0-0.5-0.2-1-0.4-1.3
			c-0.3-0.3-0.6-0.4-1-0.4c-0.4,0-0.7,0.2-1,0.5c-0.3,0.3-0.4,0.7-0.4,1.2H478.5z"/>
		<path class="st2" d="M491.9,53.1h-1.7v-1.1c-0.3,0.4-0.6,0.7-1,0.9c-0.4,0.2-0.8,0.3-1.2,0.3c-0.8,0-1.5-0.3-2.1-1
			c-0.6-0.7-0.9-1.6-0.9-2.8c0-1.2,0.3-2.1,0.8-2.8c0.6-0.6,1.3-0.9,2.1-0.9c0.8,0,1.4,0.3,2,1v-3.6h1.8V53.1z M487,49.4
			c0,0.8,0.1,1.3,0.3,1.7c0.3,0.5,0.7,0.7,1.2,0.7c0.4,0,0.8-0.2,1.1-0.6c0.3-0.4,0.4-0.9,0.4-1.7c0-0.8-0.1-1.4-0.4-1.8
			c-0.3-0.4-0.7-0.5-1.1-0.5c-0.4,0-0.8,0.2-1.1,0.5C487.2,48.1,487,48.7,487,49.4z"/>
		<path class="st2" d="M497.8,50.8l1.8,0.3c-0.2,0.7-0.6,1.2-1.1,1.6s-1.1,0.5-1.9,0.5c-1.2,0-2.1-0.4-2.7-1.2
			c-0.5-0.7-0.7-1.5-0.7-2.5c0-1.2,0.3-2.1,0.9-2.8s1.4-1,2.3-1c1,0,1.8,0.4,2.4,1.1s0.9,1.8,0.9,3.2h-4.6c0,0.6,0.2,1,0.4,1.3
			s0.6,0.5,1.1,0.5c0.3,0,0.5-0.1,0.7-0.2C497.5,51.5,497.7,51.2,497.8,50.8z M497.9,48.9c0-0.5-0.2-1-0.4-1.3
			c-0.3-0.3-0.6-0.4-1-0.4c-0.4,0-0.7,0.2-1,0.5c-0.3,0.3-0.4,0.7-0.4,1.2H497.9z"/>
		<path class="st2" d="M504.9,53.1v-9.9h1.8v9.9H504.9z"/>
		<path class="st2" d="M508.6,43.3h1.8v1.4c0,0.5,0,1-0.1,1.3c-0.1,0.3-0.3,0.6-0.5,0.9s-0.6,0.4-1,0.6l-0.4-0.8
			c0.4-0.1,0.6-0.3,0.8-0.5c0.2-0.2,0.2-0.5,0.2-0.9h-0.9V43.3z"/>
		<path class="st2" d="M514.2,43.2v3.6c0.6-0.7,1.3-1.1,2.1-1.1c0.4,0,0.8,0.1,1.1,0.2c0.3,0.2,0.6,0.4,0.8,0.6
			c0.2,0.3,0.3,0.5,0.4,0.8s0.1,0.8,0.1,1.4v4.2h-1.8v-3.8c0-0.8,0-1.2-0.1-1.4c-0.1-0.2-0.2-0.4-0.4-0.5s-0.4-0.2-0.7-0.2
			c-0.3,0-0.6,0.1-0.8,0.2c-0.2,0.2-0.4,0.4-0.5,0.7c-0.1,0.3-0.2,0.8-0.2,1.4v3.6h-1.8v-9.9H514.2z"/>
		<path class="st2" d="M525.1,53.1V52c-0.3,0.4-0.6,0.7-1,0.9c-0.4,0.2-0.8,0.3-1.3,0.3c-0.5,0-0.9-0.1-1.3-0.3
			c-0.4-0.2-0.6-0.5-0.8-0.9c-0.2-0.4-0.2-0.9-0.2-1.6V46h1.8v3.3c0,1,0,1.6,0.1,1.9c0.1,0.2,0.2,0.4,0.4,0.5
			c0.2,0.1,0.4,0.2,0.7,0.2c0.3,0,0.6-0.1,0.8-0.3c0.2-0.2,0.4-0.4,0.5-0.7c0.1-0.3,0.1-0.9,0.1-1.9v-3h1.8v7.2H525.1z"/>
		<path class="st2" d="M528.6,46h1.7v1c0.6-0.8,1.3-1.1,2.2-1.1c0.4,0,0.8,0.1,1.2,0.3c0.3,0.2,0.6,0.5,0.8,0.9
			c0.3-0.4,0.6-0.7,1-0.9c0.4-0.2,0.7-0.3,1.1-0.3c0.5,0,0.9,0.1,1.3,0.3c0.4,0.2,0.6,0.5,0.8,0.9c0.1,0.3,0.2,0.8,0.2,1.5v4.6h-1.8
			V49c0-0.7-0.1-1.2-0.2-1.4c-0.2-0.3-0.4-0.4-0.8-0.4c-0.3,0-0.5,0.1-0.7,0.2c-0.2,0.2-0.4,0.4-0.5,0.7c-0.1,0.3-0.2,0.8-0.2,1.5
			v3.4h-1.8v-3.9c0-0.7,0-1.1-0.1-1.3c-0.1-0.2-0.2-0.4-0.3-0.5s-0.3-0.1-0.6-0.1c-0.3,0-0.5,0.1-0.8,0.2c-0.2,0.2-0.4,0.4-0.5,0.7
			c-0.1,0.3-0.1,0.8-0.1,1.5v3.5h-1.8V46z"/>
		<path class="st2" d="M540.6,45v-1.8h1.8V45H540.6z M540.6,53.1V46h1.8v7.2H540.6z"/>
		<path class="st2" d="M550.7,53.1H549v-1.1c-0.3,0.4-0.6,0.7-1,0.9c-0.4,0.2-0.8,0.3-1.2,0.3c-0.8,0-1.5-0.3-2.1-1
			c-0.6-0.7-0.9-1.6-0.9-2.8c0-1.2,0.3-2.1,0.8-2.8c0.6-0.6,1.3-0.9,2.1-0.9c0.8,0,1.4,0.3,2,1v-3.6h1.8V53.1z M545.8,49.4
			c0,0.8,0.1,1.3,0.3,1.7c0.3,0.5,0.7,0.7,1.2,0.7c0.4,0,0.8-0.2,1.1-0.6c0.3-0.4,0.4-0.9,0.4-1.7c0-0.8-0.1-1.4-0.4-1.8
			c-0.3-0.4-0.7-0.5-1.1-0.5c-0.4,0-0.8,0.2-1.1,0.5C545.9,48.1,545.8,48.7,545.8,49.4z"/>
		<path class="st2" d="M552.5,45v-1.8h1.8V45H552.5z M552.5,53.1V46h1.8v7.2H552.5z"/>
		<path class="st2" d="M559.4,46v1.5h-1.3v2.9c0,0.6,0,0.9,0,1c0,0.1,0.1,0.2,0.2,0.2c0.1,0.1,0.2,0.1,0.3,0.1
			c0.2,0,0.4-0.1,0.7-0.2l0.2,1.5c-0.4,0.2-0.9,0.3-1.5,0.3c-0.3,0-0.6-0.1-0.9-0.2c-0.3-0.1-0.5-0.3-0.6-0.4s-0.2-0.4-0.3-0.7
			c0-0.2-0.1-0.7-0.1-1.3v-3.1h-0.8V46h0.8v-1.4l1.8-1.1V46H559.4z"/>
		<path class="st2" d="M564.7,50.8l1.8,0.3c-0.2,0.7-0.6,1.2-1.1,1.6s-1.1,0.5-1.9,0.5c-1.2,0-2.1-0.4-2.7-1.2
			c-0.5-0.7-0.7-1.5-0.7-2.5c0-1.2,0.3-2.1,0.9-2.8s1.4-1,2.3-1c1,0,1.8,0.4,2.4,1.1s0.9,1.8,0.9,3.2H562c0,0.6,0.2,1,0.4,1.3
			s0.6,0.5,1.1,0.5c0.3,0,0.5-0.1,0.7-0.2C564.5,51.5,564.6,51.2,564.7,50.8z M564.8,48.9c0-0.5-0.2-1-0.4-1.3
			c-0.3-0.3-0.6-0.4-1-0.4c-0.4,0-0.7,0.2-1,0.5c-0.3,0.3-0.4,0.7-0.4,1.2H564.8z M562.5,45.1l0.9-2h2.1l-1.8,2H562.5z"/>
	</g>
	<g>
		<path class="st1" d="M310.7,69.7v-0.9c-0.4,0.7-1.1,1.1-1.9,1.1c-0.6,0-1.1-0.2-1.5-0.5c-0.5-0.3-0.8-0.8-1.1-1.3
			c-0.3-0.6-0.4-1.2-0.4-1.9c0-0.7,0.1-1.4,0.3-1.9c0.2-0.6,0.6-1,1-1.3c0.5-0.3,1-0.5,1.6-0.5c0.4,0,0.8,0.1,1.1,0.3
			c0.3,0.2,0.6,0.4,0.8,0.7v-3.5h1.2v9.9H310.7z M307,66.1c0,0.9,0.2,1.6,0.6,2.1c0.4,0.5,0.8,0.7,1.3,0.7c0.5,0,1-0.2,1.3-0.7
			c0.4-0.4,0.5-1.1,0.5-2c0-1-0.2-1.7-0.5-2.2c-0.4-0.5-0.8-0.7-1.4-0.7c-0.5,0-1,0.2-1.3,0.7C307.2,64.5,307,65.2,307,66.1z"/>
		<path class="st1" d="M318.2,68.8c-0.4,0.4-0.9,0.7-1.3,0.8s-0.8,0.2-1.3,0.2c-0.8,0-1.3-0.2-1.8-0.6c-0.4-0.4-0.6-0.9-0.6-1.5
			c0-0.4,0.1-0.7,0.2-1c0.2-0.3,0.4-0.5,0.6-0.7c0.3-0.2,0.5-0.3,0.8-0.4c0.2-0.1,0.6-0.1,1-0.2c1-0.1,1.6-0.3,2.1-0.4
			c0-0.2,0-0.3,0-0.3c0-0.5-0.1-0.8-0.3-1c-0.3-0.3-0.7-0.4-1.3-0.4c-0.6,0-1,0.1-1.2,0.3c-0.3,0.2-0.5,0.6-0.6,1.1l-1.2-0.2
			c0.1-0.5,0.3-0.9,0.5-1.2c0.2-0.3,0.6-0.6,1-0.7c0.5-0.2,1-0.3,1.6-0.3c0.6,0,1.1,0.1,1.4,0.2c0.4,0.1,0.6,0.3,0.8,0.5
			c0.2,0.2,0.3,0.5,0.4,0.8c0,0.2,0.1,0.6,0.1,1.1v1.6c0,1.1,0,1.8,0.1,2.1s0.1,0.6,0.3,0.9h-1.2C318.3,69.4,318.2,69.1,318.2,68.8z
			 M318.1,66.1c-0.4,0.2-1.1,0.3-1.9,0.5c-0.5,0.1-0.8,0.2-1,0.2s-0.4,0.2-0.5,0.4c-0.1,0.2-0.2,0.4-0.2,0.6c0,0.3,0.1,0.6,0.4,0.8
			c0.2,0.2,0.6,0.3,1,0.3c0.5,0,0.9-0.1,1.2-0.3c0.4-0.2,0.6-0.5,0.8-0.8c0.1-0.3,0.2-0.7,0.2-1.2V66.1z"/>
		<path class="st1" d="M321.1,69.7v-7.2h1.1v1c0.5-0.8,1.2-1.2,2.2-1.2c0.4,0,0.8,0.1,1.2,0.2c0.4,0.2,0.6,0.4,0.8,0.6
			c0.2,0.3,0.3,0.5,0.4,0.9c0,0.2,0.1,0.6,0.1,1.2v4.4h-1.2v-4.4c0-0.5,0-0.9-0.1-1.1c-0.1-0.2-0.3-0.4-0.5-0.6s-0.5-0.2-0.8-0.2
			c-0.5,0-0.9,0.2-1.3,0.5c-0.4,0.3-0.5,1-0.5,1.9v3.9H321.1z"/>
		<path class="st1" d="M328.1,67.5l1.2-0.2c0.1,0.5,0.2,0.8,0.5,1.1c0.3,0.3,0.7,0.4,1.3,0.4c0.5,0,0.9-0.1,1.2-0.3
			c0.3-0.2,0.4-0.5,0.4-0.8c0-0.3-0.1-0.5-0.3-0.6c-0.2-0.1-0.6-0.2-1.2-0.4c-0.9-0.2-1.5-0.4-1.8-0.6c-0.3-0.2-0.6-0.4-0.8-0.7
			c-0.2-0.3-0.3-0.6-0.3-1c0-0.3,0.1-0.6,0.2-0.9c0.1-0.3,0.3-0.5,0.6-0.7c0.2-0.1,0.4-0.3,0.7-0.4c0.3-0.1,0.7-0.1,1-0.1
			c0.5,0,1,0.1,1.4,0.2s0.7,0.4,0.9,0.7s0.3,0.6,0.4,1.1l-1.2,0.2c-0.1-0.4-0.2-0.7-0.5-0.9c-0.2-0.2-0.6-0.3-1.1-0.3
			c-0.5,0-0.9,0.1-1.2,0.3c-0.2,0.2-0.3,0.4-0.3,0.6c0,0.2,0,0.3,0.1,0.4c0.1,0.1,0.2,0.2,0.5,0.3c0.1,0,0.5,0.1,1,0.3
			c0.8,0.2,1.4,0.4,1.7,0.6c0.3,0.1,0.6,0.4,0.8,0.6s0.3,0.6,0.3,1c0,0.4-0.1,0.8-0.3,1.1c-0.2,0.4-0.6,0.6-1,0.8
			c-0.4,0.2-0.9,0.3-1.5,0.3c-0.9,0-1.6-0.2-2.1-0.6C328.5,68.9,328.2,68.3,328.1,67.5z"/>
		<path class="st1" d="M339,69.7v-9.9h1.2v9.9H339z"/>
		<path class="st1" d="M346.7,67.4l1.2,0.2c-0.2,0.7-0.5,1.3-1.1,1.7c-0.5,0.4-1.2,0.6-2,0.6c-1,0-1.8-0.3-2.4-1
			c-0.6-0.6-0.9-1.5-0.9-2.7c0-1.2,0.3-2.1,0.9-2.8c0.6-0.7,1.4-1,2.3-1c0.9,0,1.7,0.3,2.3,1c0.6,0.7,0.9,1.6,0.9,2.8
			c0,0.1,0,0.2,0,0.3h-5.2c0,0.8,0.3,1.4,0.6,1.8c0.4,0.4,0.9,0.6,1.5,0.6c0.4,0,0.8-0.1,1.1-0.4C346.3,68.3,346.5,67.9,346.7,67.4z
			 M342.8,65.4h3.9c-0.1-0.6-0.2-1.1-0.4-1.4c-0.4-0.5-0.9-0.7-1.5-0.7c-0.5,0-1,0.2-1.4,0.6S342.9,64.8,342.8,65.4z"/>
		<path class="st1" d="M348.9,67.5l1.2-0.2c0.1,0.5,0.2,0.8,0.5,1.1c0.3,0.3,0.7,0.4,1.3,0.4c0.5,0,0.9-0.1,1.2-0.3
			c0.3-0.2,0.4-0.5,0.4-0.8c0-0.3-0.1-0.5-0.3-0.6c-0.2-0.1-0.6-0.2-1.2-0.4c-0.9-0.2-1.5-0.4-1.8-0.6c-0.3-0.2-0.6-0.4-0.8-0.7
			c-0.2-0.3-0.3-0.6-0.3-1c0-0.3,0.1-0.6,0.2-0.9c0.1-0.3,0.3-0.5,0.6-0.7c0.2-0.1,0.4-0.3,0.7-0.4c0.3-0.1,0.7-0.1,1-0.1
			c0.5,0,1,0.1,1.4,0.2s0.7,0.4,0.9,0.7s0.3,0.6,0.4,1.1l-1.2,0.2c-0.1-0.4-0.2-0.7-0.5-0.9c-0.2-0.2-0.6-0.3-1.1-0.3
			c-0.5,0-0.9,0.1-1.2,0.3c-0.2,0.2-0.3,0.4-0.3,0.6c0,0.2,0,0.3,0.1,0.4c0.1,0.1,0.2,0.2,0.5,0.3c0.1,0,0.5,0.1,1,0.3
			c0.8,0.2,1.4,0.4,1.7,0.6c0.3,0.1,0.6,0.4,0.8,0.6s0.3,0.6,0.3,1c0,0.4-0.1,0.8-0.3,1.1c-0.2,0.4-0.6,0.6-1,0.8
			c-0.4,0.2-0.9,0.3-1.5,0.3c-0.9,0-1.6-0.2-2.1-0.6C349.4,68.9,349.1,68.3,348.9,67.5z"/>
		<path class="st1" d="M359.8,69.7v-7.2h1.1v1c0.2-0.4,0.5-0.6,0.9-0.8c0.4-0.2,0.8-0.3,1.2-0.3c0.5,0,0.9,0.1,1.3,0.3
			c0.3,0.2,0.6,0.5,0.7,0.9c0.5-0.8,1.3-1.3,2.1-1.3c0.7,0,1.2,0.2,1.6,0.6c0.4,0.4,0.6,1,0.6,1.8v4.9h-1.2v-4.5c0-0.5,0-0.8-0.1-1
			c-0.1-0.2-0.2-0.4-0.4-0.5c-0.2-0.1-0.4-0.2-0.7-0.2c-0.5,0-0.9,0.2-1.2,0.5c-0.3,0.3-0.5,0.9-0.5,1.6v4.2H364V65
			c0-0.5-0.1-0.9-0.3-1.2c-0.2-0.3-0.5-0.4-0.9-0.4c-0.3,0-0.6,0.1-0.9,0.3s-0.5,0.4-0.6,0.8c-0.1,0.3-0.2,0.8-0.2,1.5v3.7H359.8z"
			/>
		<path class="st1" d="M375.5,68.8c-0.4,0.4-0.9,0.7-1.3,0.8s-0.8,0.2-1.3,0.2c-0.8,0-1.3-0.2-1.8-0.6c-0.4-0.4-0.6-0.9-0.6-1.5
			c0-0.4,0.1-0.7,0.2-1c0.2-0.3,0.4-0.5,0.6-0.7c0.3-0.2,0.5-0.3,0.8-0.4c0.2-0.1,0.6-0.1,1-0.2c1-0.1,1.6-0.3,2.1-0.4
			c0-0.2,0-0.3,0-0.3c0-0.5-0.1-0.8-0.3-1c-0.3-0.3-0.7-0.4-1.3-0.4c-0.6,0-1,0.1-1.2,0.3c-0.3,0.2-0.5,0.6-0.6,1.1l-1.2-0.2
			c0.1-0.5,0.3-0.9,0.5-1.2c0.2-0.3,0.6-0.6,1-0.7c0.5-0.2,1-0.3,1.6-0.3c0.6,0,1.1,0.1,1.4,0.2c0.4,0.1,0.6,0.3,0.8,0.5
			c0.2,0.2,0.3,0.5,0.4,0.8c0,0.2,0.1,0.6,0.1,1.1v1.6c0,1.1,0,1.8,0.1,2.1s0.1,0.6,0.3,0.9h-1.2C375.6,69.4,375.5,69.1,375.5,68.8z
			 M375.4,66.1c-0.4,0.2-1.1,0.3-1.9,0.5c-0.5,0.1-0.8,0.2-1,0.2s-0.4,0.2-0.5,0.4c-0.1,0.2-0.2,0.4-0.2,0.6c0,0.3,0.1,0.6,0.4,0.8
			c0.2,0.2,0.6,0.3,1,0.3c0.5,0,0.9-0.1,1.2-0.3c0.4-0.2,0.6-0.5,0.8-0.8c0.1-0.3,0.2-0.7,0.2-1.2V66.1z"/>
		<path class="st1" d="M381,68.6l0.2,1.1c-0.3,0.1-0.6,0.1-0.9,0.1c-0.4,0-0.8-0.1-1-0.2c-0.2-0.1-0.4-0.3-0.5-0.5s-0.1-0.7-0.1-1.4
			v-4.1h-0.9v-0.9h0.9v-1.8l1.2-0.7v2.5h1.2v0.9h-1.2v4.2c0,0.3,0,0.6,0.1,0.7c0,0.1,0.1,0.2,0.2,0.2s0.2,0.1,0.4,0.1
			C380.6,68.6,380.8,68.6,381,68.6z"/>
		<path class="st1" d="M386.9,67.4l1.2,0.2c-0.2,0.7-0.5,1.3-1.1,1.7c-0.5,0.4-1.2,0.6-2,0.6c-1,0-1.8-0.3-2.4-1
			c-0.6-0.6-0.9-1.5-0.9-2.7c0-1.2,0.3-2.1,0.9-2.8c0.6-0.7,1.4-1,2.3-1c0.9,0,1.7,0.3,2.3,1c0.6,0.7,0.9,1.6,0.9,2.8
			c0,0.1,0,0.2,0,0.3H383c0,0.8,0.3,1.4,0.6,1.8c0.4,0.4,0.9,0.6,1.5,0.6c0.4,0,0.8-0.1,1.1-0.4C386.5,68.3,386.7,67.9,386.9,67.4z
			 M383,65.4h3.9c-0.1-0.6-0.2-1.1-0.4-1.4c-0.4-0.5-0.9-0.7-1.5-0.7c-0.5,0-1,0.2-1.4,0.6S383.1,64.8,383,65.4z M384.3,61.6
			l0.9-1.9h1.5l-1.4,1.9H384.3z"/>
		<path class="st1" d="M389.6,69.7v-7.2h1.1v1.1c0.3-0.5,0.5-0.8,0.7-1c0.2-0.2,0.5-0.2,0.8-0.2c0.4,0,0.8,0.1,1.2,0.4l-0.4,1.1
			c-0.3-0.2-0.6-0.3-0.9-0.3c-0.3,0-0.5,0.1-0.7,0.2c-0.2,0.2-0.4,0.4-0.4,0.7c-0.1,0.4-0.2,0.9-0.2,1.4v3.7H389.6z"/>
		<path class="st1" d="M394.1,61.2v-1.4h1.2v1.4H394.1z M394.1,69.7v-7.2h1.2v7.2H394.1z"/>
		<path class="st1" d="M401.6,68.8c-0.4,0.4-0.9,0.7-1.3,0.8s-0.8,0.2-1.3,0.2c-0.8,0-1.3-0.2-1.8-0.6c-0.4-0.4-0.6-0.9-0.6-1.5
			c0-0.4,0.1-0.7,0.2-1c0.2-0.3,0.4-0.5,0.6-0.7c0.3-0.2,0.5-0.3,0.8-0.4c0.2-0.1,0.6-0.1,1-0.2c1-0.1,1.6-0.3,2.1-0.4
			c0-0.2,0-0.3,0-0.3c0-0.5-0.1-0.8-0.3-1c-0.3-0.3-0.7-0.4-1.3-0.4c-0.6,0-1,0.1-1.2,0.3c-0.3,0.2-0.5,0.6-0.6,1.1l-1.2-0.2
			c0.1-0.5,0.3-0.9,0.5-1.2c0.2-0.3,0.6-0.6,1-0.7c0.5-0.2,1-0.3,1.6-0.3c0.6,0,1.1,0.1,1.4,0.2c0.4,0.1,0.6,0.3,0.8,0.5
			c0.2,0.2,0.3,0.5,0.4,0.8c0,0.2,0.1,0.6,0.1,1.1v1.6c0,1.1,0,1.8,0.1,2.1s0.1,0.6,0.3,0.9h-1.2C401.7,69.4,401.6,69.1,401.6,68.8z
			 M401.5,66.1c-0.4,0.2-1.1,0.3-1.9,0.5c-0.5,0.1-0.8,0.2-1,0.2s-0.4,0.2-0.5,0.4c-0.1,0.2-0.2,0.4-0.2,0.6c0,0.3,0.1,0.6,0.4,0.8
			c0.2,0.2,0.6,0.3,1,0.3c0.5,0,0.9-0.1,1.2-0.3c0.4-0.2,0.6-0.5,0.8-0.8c0.1-0.3,0.2-0.7,0.2-1.2V66.1z"/>
		<path class="st1" d="M409,69.7v-1.1c-0.5,0.8-1.3,1.2-2.2,1.2c-0.4,0-0.8-0.1-1.1-0.2s-0.6-0.4-0.8-0.6c-0.2-0.2-0.3-0.5-0.4-0.9
			c0-0.2-0.1-0.6-0.1-1.1v-4.4h1.2v4c0,0.6,0,1.1,0.1,1.3c0.1,0.3,0.2,0.6,0.5,0.8c0.2,0.2,0.5,0.3,0.9,0.3c0.4,0,0.7-0.1,1-0.3
			s0.5-0.4,0.7-0.8s0.2-0.8,0.2-1.4v-3.8h1.2v7.2H409z"/>
		<path class="st1" d="M411.1,69.7l2.5-3.7l-2.3-3.4h1.5l1.1,1.7c0.2,0.3,0.4,0.6,0.5,0.8c0.2-0.3,0.4-0.6,0.5-0.8l1.2-1.7h1.4
			l-2.4,3.4l2.6,3.8h-1.4l-1.4-2.2l-0.4-0.6l-1.8,2.8H411.1z"/>
	</g>
</g>
<g id="Calque_2_1_">
	<g>
		<path class="st3" d="M66.4,54.7l-0.7,1.5h-2.2l-1.7,7.4h-2l1.7-7.4H59l0.4-1.5H66.4z"/>
		<path class="st3" d="M72.8,54.7l-0.6,1.4h-3.3l-0.5,2h2.7l-0.4,1.4h-2.6l-0.6,2.4h3.7L71,63.4h-5.7l2-8.8L72.8,54.7L72.8,54.7z"/>
		<path class="st3" d="M79.7,56.4c-0.4-0.4-0.8-0.5-1.4-0.5c-0.7,0-1.4,0.4-1.8,0.8c-0.8,0.8-1.3,2.9-1.3,3.9c0,1.2,0.6,1.7,1.7,1.7
			c0.6,0,1.1-0.2,1.8-0.6l0.7,1.2c-0.9,0.6-1.8,0.8-2.9,0.8c-2.1,0-3.4-1.2-3.4-3.1c0-1.4,0.6-3.1,1.4-4.1c1.1-1.3,2.6-2,4.1-2
			c0.9,0,1.9,0.2,2.2,0.7L79.7,56.4z"/>
		<path class="st3" d="M84.4,54.7l-0.8,3.4h2.8l0.7-3.4h2l-2,8.8h-2l0.9-4h-2.8l-0.9,4h-1.9l2-8.8H84.4z"/>
		<path class="st3" d="M93.6,54.7l1.1,3.5c0.2,0.9,0.5,1.9,0.5,2.6c0.1-0.7,0.2-1.9,0.4-2.5l0.8-3.7h1.9l-2,8.8h-2L93.5,60
			c-0.2-1.1-0.6-2.4-0.7-2.9c-0.1,0.7-0.4,1.8-0.5,2.6l-0.8,3.8h-1.9l2-8.8C91.5,54.7,93.6,54.7,93.6,54.7z"/>
		<path class="st3" d="M107.3,57.8c0,2.2-1.2,4.6-3.2,5.5c-0.6,0.2-1.4,0.5-2.1,0.5c-2.4,0-3.3-1.3-3.3-3.2c0-2.5,1.3-4.4,2.6-5.2
			c0.6-0.4,1.4-0.8,2.8-0.8C106.1,54.6,107.3,55.8,107.3,57.8z M102,56.7c-0.7,0.9-1.3,2.8-1.3,4s0.5,1.5,1.5,1.5
			c0.6,0,1.2-0.1,1.5-0.7c0.8-0.9,1.3-3.1,1.3-4.2c0-0.8-0.4-1.4-1.4-1.4C102.9,55.9,102.3,56.3,102,56.7z"/>
		<path class="st3" d="M111.6,54.7l-1.7,7.4h3.4l-0.7,1.5h-5.1l2-8.8h2L111.6,54.7L111.6,54.7z"/>
		<path class="st3" d="M122.8,57.8c0,2.2-1.2,4.6-3.2,5.5c-0.6,0.2-1.4,0.5-2.1,0.5c-2.4,0-3.3-1.3-3.3-3.2c0-2.5,1.3-4.4,2.6-5.2
			c0.6-0.4,1.4-0.8,2.8-0.8C121.7,54.6,122.8,55.8,122.8,57.8z M117.5,56.7c-0.7,0.9-1.3,2.8-1.3,4s0.5,1.5,1.5,1.5
			c0.6,0,1.2-0.1,1.5-0.7c0.8-0.9,1.3-3.1,1.3-4.2c0-0.8-0.4-1.4-1.4-1.4C118.5,55.9,117.9,56.3,117.5,56.7z"/>
		<path class="st3" d="M130.6,56.6c-0.5-0.5-1.2-0.7-1.9-0.7c-0.6,0-1.2,0.2-1.5,0.5c-1.1,0.8-1.7,3.2-1.7,4.2
			c0,1.2,0.6,1.7,1.8,1.7c0.5,0,0.8-0.1,1.2-0.2l0.5-2h-1.4v-1.4h3.8l-0.9,4.2c-1.1,0.6-2.2,0.7-3.4,0.7c-2.2,0-3.4-1.2-3.4-3.1
			c0-2,0.9-4,2.2-5c1.2-0.8,2.1-1.2,3.3-1.2s2.1,0.4,2.8,1.1L130.6,56.6z"/>
		<path class="st3" d="M136.3,54.7l-2,8.8h-2l2-8.8H136.3z"/>
		<path class="st3" d="M144.2,54.7l-0.6,1.4h-3.3l-0.5,2h2.7l-0.4,1.4h-2.7l-0.6,2.4h3.7l-0.4,1.5h-5.5l2-8.8h5.5v0.1H144.2z"/>
		<path class="st3" d="M151,56.5c-0.6-0.5-1.3-0.6-2.1-0.6s-1.7,0.5-1.7,1.2c0,0.4,0.2,0.7,0.9,0.8l1.1,0.4c1.3,0.4,1.9,0.9,1.9,2
			c0,1.9-1.8,3.5-4.7,3.5c-1.4,0-2.4-0.4-3.2-0.8l1.1-1.4c0.8,0.5,1.5,0.7,2.5,0.7c1.2,0,2-0.6,2-1.4c0-0.5-0.4-0.7-1.1-0.9
			l-1.1-0.4c-1.1-0.4-1.8-0.8-1.8-1.9c0-1.8,1.9-3.2,4.1-3.2c1.2,0,2.4,0.4,3.1,0.9L151,56.5z"/>
	</g>
	<g>
		<polygon class="st4" points="37.5,65.3 0.9,69.7 3.3,63.2 41.5,54.3 		"/>
		<polygon class="st4" points="42.5,50.2 3.6,60.6 6.1,53.4 47.4,37.2 		"/>
		<polygon class="st3" points="48.7,32.6 6.4,50.7 9,42.7 54.3,16.6 		"/>
	</g>
	<path class="st4" d="M59.7,24.4h5.7c1.7,0,3.8,0.1,5,0.1c2.4,0.1,4.4,0.9,6.1,2.2c2.6,2,3.9,5,3.9,9c0,3.1-0.9,5.7-2.8,7.7
		c-1.8,1.9-4.4,3.1-7,3.3c-1.1,0.1-2.4,0.1-4,0.1h-6.8L59.7,24.4L59.7,24.4z M65.5,28v15.2h3.1c3.8,0,5.4-2.1,5.4-7
		c0-2.6-0.2-4.8-1.4-6.4c-0.9-1.2-2.2-1.9-4.5-1.9C68.1,28,65.5,28,65.5,28z"/>
	<path class="st4" d="M90.9,29.8c2.9,0,5.3,0.8,7.1,2.5c1.7,1.5,2.4,3.4,2.4,6c0,2.8-0.8,4.8-2.6,6.5c-1.5,1.4-3.7,2.4-6.8,2.4
		c-5.7,0-9.3-3.4-9.3-8.6C81.6,33.4,85.2,29.8,90.9,29.8z M91,33.1c-1.3,0-2.4,0.7-2.8,1.7c-0.4,0.8-0.6,2-0.6,3.7
		c0,1.9,0.2,3.3,0.7,4.2s1.7,1.4,2.7,1.4c2.4,0,3.3-1.7,3.3-5.7c0-2.2-0.4-3.7-1.1-4.5C92.8,33.4,91.9,33.1,91,33.1z"/>
	<path class="st4" d="M101.6,31l5-1.1c0.4,0.5,0.5,0.8,0.7,1.7c1.4-1.1,3.2-1.7,5.1-1.7c1.7,0,3.1,0.5,4.2,1.4
		c0.2,0.2,0.4,0.4,0.8,0.8c1.9-1.5,3.7-2.1,5.9-2.1c1.7,0,3.2,0.4,4.1,1.1c1.2,0.8,1.5,1.8,1.5,4v11.8h-5.3v-11c0-2-0.2-2.4-1.7-2.4
		c-1.1,0-2.5,0.6-3.7,1.4v11.9H113V36c0-2.1-0.4-2.6-1.9-2.6c-1.1,0-2.4,0.5-3.5,1.3v12.1h-5.3V35.3C102.4,32.9,102.2,31.8,101.6,31
		z"/>
	<path class="st4" d="M140.2,29.8c2.9,0,5.3,0.8,7.1,2.5c1.7,1.5,2.4,3.4,2.4,6c0,2.8-0.8,4.8-2.6,6.5c-1.5,1.4-3.7,2.4-6.8,2.4
		c-5.7,0-9.3-3.4-9.3-8.6S134.6,29.8,140.2,29.8z M140.3,33.1c-1.3,0-2.4,0.7-2.8,1.7c-0.4,0.8-0.6,2-0.6,3.7c0,1.9,0.2,3.3,0.7,4.2
		s1.7,1.4,2.7,1.4c2.4,0,3.3-1.7,3.3-5.7c0-2.2-0.4-3.7-1.1-4.5C142.1,33.4,141.2,33.1,140.3,33.1z"/>
	<path class="st3" d="M171.2,25.8l-2.7,3.3c-2.6-1.2-4.5-1.8-6.6-1.8c-2.4,0-3.9,1.1-3.9,2.6c0,1.2,0.8,1.8,3.1,2.2l3.4,0.7
		c4.6,1.1,7.1,3.4,7.1,6.7c0,4.6-4.6,7.5-11.6,7.5c-3.2,0-6.7-0.7-9.6-2l2.1-3.5c2.6,1.1,5,1.8,7.8,1.8c3.2,0,5-1.1,5-3.1
		c0-1.4-1.2-2.4-3.7-2.9l-3.1-0.7c-2.8-0.6-4.5-1.5-5.5-2.8c-0.8-1.1-1.2-2.1-1.2-3.4c0-4.1,4.1-7,10-7
		C165.3,23.6,168.7,24.4,171.2,25.8z"/>
	<path class="st3" d="M171.1,30.5l5.5-0.5l3.7,9.7c0.4,1.1,1.1,3.4,1.1,3.4s0.4-1.9,0.6-2.7c0.4-1.1,0.4-1.2,0.8-2.4l3.1-7.9h5.7
		L184.1,47c-1.4,3.2-2.5,4.6-4,5.5c-1.4,0.8-3.2,1.3-5.1,1.5l-1.9-2.8c1.2-0.2,2.6-0.7,3.3-1.1c0.6-0.4,1.1-0.8,1.5-1.4
		c0.5-0.7,0.7-0.9,1.2-2H178c-0.4-0.8-0.5-1.1-0.8-2c-0.4-1.1-1.1-2.7-1.1-2.7L171.1,30.5z"/>
	<path class="st3" d="M207.4,31.4l-1.8,2.9c-2.1-0.8-3.5-1.2-5.1-1.2c-1.5,0-2.6,0.7-2.6,1.7c0,0.8,0.7,1.3,2.6,1.7L203,37
		c2.6,0.5,3.4,1.2,4.1,1.9c0.8,0.8,1.2,1.8,1.2,2.8c0,3.4-3.5,5.8-8.8,5.8c-2.6,0-5.3-0.7-8.4-1.9l1.9-3.2c1.7,0.8,4.5,1.9,6.8,1.9
		c1.5,0,2.7-0.8,2.7-1.9c0-1.2-1.1-1.8-3.2-2l-2.5-0.4c-1.4-0.2-3.1-0.9-3.8-1.7c-0.7-0.7-1.2-1.9-1.2-2.9c0-3.3,3.2-5.4,8-5.4
		C203.3,29.7,205.5,30.5,207.4,31.4z"/>
	<path class="st3" d="M221.7,30.2l-1.4,2.9h-3.5v8.5c0,2.1,0.5,2.7,2.4,2.7c0.5,0,0.9-0.1,1.9-0.4l0.7,2.6c-1.5,0.5-2.9,0.7-4.4,0.7
		c-2.7,0-5-0.9-5.5-2.5c-0.4-0.7-0.4-1.1-0.4-2.6V33h-2.1v-2.8h2.1c0-1.7,0-2.7,0.2-4l5.5-1.1c-0.2,1.5-0.4,3.3-0.4,5h4.8
		L221.7,30.2L221.7,30.2z"/>
	<path class="st3" d="M237,42.5l2.1,2.6c-2.4,1.5-5,2.4-7.8,2.4c-5.9,0-9.8-3.4-9.8-8.6c0-2.9,0.8-5,2.6-6.6
		c1.7-1.5,3.8-2.2,6.5-2.2c2.4,0,4.6,0.7,6,1.8c1.9,1.5,2.7,3.8,2.7,7.3c0,0.4,0,0.5,0,1.1h-12v0.1c0,2.6,1.5,4,4.4,4
		C233.6,44.1,235.4,43.5,237,42.5z M227.4,36.8h6.3v-0.2c0-1.2-0.1-1.9-0.6-2.5c-0.5-0.7-1.3-0.9-2.4-0.9
		C228.6,33,227.4,34.3,227.4,36.8L227.4,36.8z"/>
	<path class="st3" d="M241.1,31l5-1.1c0.4,0.5,0.5,0.8,0.7,1.7c1.4-1.1,3.2-1.7,5.1-1.7c1.7,0,3.1,0.5,4.2,1.4
		c0.2,0.2,0.4,0.4,0.8,0.8c1.9-1.5,3.7-2.1,5.9-2.1c1.7,0,3.2,0.4,4.1,1.1c1.2,0.8,1.5,1.8,1.5,4v11.8h-5.3v-11c0-2-0.2-2.4-1.7-2.4
		c-1.1,0-2.5,0.6-3.7,1.4v11.9h-5.2V36c0-2.1-0.4-2.6-1.9-2.6c-1.1,0-2.4,0.5-3.5,1.3v12.1H242V35.3C242,32.9,241.7,31.8,241.1,31z"
		/>
</g>
</svg>
